<svg width="472" height="175" viewBox="0 0 472 175" fill="none" xmlns="http://www.w3.org/2000/svg">
<rect x="1.11922" y="44.7198" width="184.835" height="69.755" rx="32.9175" transform="rotate(-13.5703 1.11922 44.7198)" stroke="white" stroke-width="1.045"/>
<path d="M48.9373 77.8008L45.8209 64.8897L40.8332 66.0936L40.4188 64.3769L52.2024 61.5326L52.6168 63.2493L47.6291 64.4532L50.7455 77.3644L48.9373 77.8008ZM54.4373 62.8099L53.9862 60.9408L55.7943 60.5043L56.2455 62.3734L54.4373 62.8099ZM57.5538 75.721L54.9056 64.7501L56.7138 64.3137L59.3619 75.2846L57.5538 75.721ZM75.5242 71.3834L73.8401 64.3616C73.6423 63.5421 73.2677 62.9553 72.7164 62.601C72.1701 62.2384 71.5483 62.1412 70.8507 62.3096C70.4444 62.4077 70.0813 62.5957 69.7614 62.8736C69.4398 63.1447 69.2121 63.5078 69.0783 63.9629C68.9429 64.4113 68.9495 64.9436 69.0983 65.5599L68.0502 65.4044C67.8487 64.6288 67.8435 63.9098 68.0348 63.2473C68.2312 62.5764 68.5814 62.0081 69.0853 61.5425C69.5893 61.0768 70.2069 60.7557 70.9383 60.5792C72.0828 60.3029 73.0677 60.4343 73.893 60.9733C74.7166 61.5055 75.2698 62.3574 75.5526 63.529L77.3324 70.9469L75.5242 71.3834ZM62.3997 74.5513L59.7516 63.5804L61.3668 63.1905L62.0754 66.1263L62.2786 66.0772L64.2181 74.1124L62.3997 74.5513ZM68.9721 72.9649L67.3052 66.0142C67.1025 65.1745 66.7272 64.5699 66.1793 64.2004C65.6299 63.8242 64.9962 63.7228 64.2783 63.896C63.5673 64.0677 63.0505 64.4504 62.728 65.0443C62.4055 65.6381 62.3415 66.338 62.536 67.1439L61.4438 66.8055C61.2722 66.0944 61.2878 65.417 61.4908 64.7731C61.6937 64.1293 62.048 63.578 62.5535 63.1191C63.0575 62.6534 63.6785 62.3315 64.4167 62.1534C65.1549 61.9752 65.8358 61.9757 66.4596 62.1548C67.0833 62.3339 67.6145 62.6787 68.053 63.1892C68.4899 63.6929 68.8048 64.3443 68.9977 65.1434L70.7702 72.5309L68.9721 72.9649ZM84.7169 69.487C83.6401 69.7469 82.6416 69.7371 81.7213 69.4576C80.8061 69.1696 80.022 68.653 79.3691 67.9075C78.7145 67.1554 78.2491 66.207 77.9729 65.0625C77.6835 63.8639 77.6535 62.7746 77.8828 61.7947C78.1105 60.8081 78.56 59.9829 79.2311 59.3193C79.9074 58.6472 80.7771 58.1828 81.8404 57.9262C82.9442 57.6597 83.9435 57.6873 84.8381 58.0089C85.7395 58.3288 86.4968 58.9128 87.1101 59.761C87.7301 60.6075 88.1699 61.6874 88.4296 63.0008L86.6011 63.4421L86.4442 62.792C86.0985 61.4492 85.5815 60.5098 84.8931 59.9736C84.203 59.4307 83.3366 59.2851 82.2936 59.5368C81.1762 59.8065 80.413 60.3706 80.0038 61.229C79.5947 62.0874 79.552 63.1871 79.8756 64.528C80.1878 65.8215 80.721 66.7535 81.475 67.324C82.2291 67.8945 83.1445 68.0498 84.2212 67.7899C84.9459 67.615 85.5356 67.297 85.9905 66.836C86.4454 66.3751 86.7501 65.7963 86.9044 65.0997L88.7862 65.2797C88.5933 66.3511 88.1314 67.2581 87.4004 68.0007C86.6746 68.7349 85.7801 69.2304 84.7169 69.487ZM79.3887 65.183L79.0381 63.7304L87.1444 61.7737L87.495 63.2264L79.3887 65.183ZM101.224 65.5025C100.188 65.7526 99.2112 65.8021 98.2932 65.651C97.382 65.4983 96.577 65.1622 95.8783 64.6429C95.1848 64.1151 94.6488 63.4239 94.2705 62.5692L96.0686 61.8234C96.5279 62.6872 97.193 63.2899 98.0638 63.6316C98.9397 63.9648 99.8856 64.0088 100.901 63.7636C101.558 63.6051 102.126 63.3605 102.606 63.0298C103.09 62.6907 103.441 62.2906 103.66 61.8294C103.878 61.3682 103.923 60.8735 103.796 60.3452C103.717 60.0202 103.593 59.7564 103.422 59.5539C103.257 59.3431 103.056 59.1801 102.82 59.0649C102.59 58.9414 102.339 58.8515 102.067 58.7952C101.796 58.7389 101.519 58.7054 101.237 58.6947L97.2413 58.4873C96.8056 58.4635 96.376 58.4059 95.9526 58.3146C95.5276 58.2165 95.1326 58.0646 94.7676 57.8589C94.401 57.6464 94.0822 57.365 93.8113 57.0147C93.5388 56.6576 93.3372 56.2082 93.2064 55.6664C92.9972 54.7996 93.0425 54.0075 93.3423 53.2901C93.6473 52.5643 94.1466 51.9457 94.8401 51.4343C95.5337 50.9229 96.3655 50.5537 97.3356 50.3267C98.3192 50.0965 99.2387 50.0609 100.094 50.2199C100.955 50.3705 101.716 50.7028 102.377 51.2168C103.046 51.7292 103.575 52.4077 103.965 53.2523L102.126 54.051C101.881 53.4795 101.53 53.023 101.075 52.6813C100.625 52.3313 100.112 52.1041 99.5346 51.9997C98.956 51.8885 98.3543 51.9048 97.7296 52.0484C97.132 52.1854 96.6165 52.4102 96.1831 52.7227C95.7497 53.0351 95.4333 53.4017 95.2338 53.8226C95.0328 54.2366 94.987 54.6705 95.0965 55.1242C95.2044 55.5712 95.4205 55.9024 95.7449 56.118C96.0676 56.3267 96.4348 56.4674 96.8465 56.5401C97.2634 56.6043 97.6635 56.6439 98.047 56.6588L101.024 56.7895C101.364 56.8007 101.759 56.8343 102.209 56.8904C102.667 56.9448 103.126 57.0668 103.588 57.2564C104.048 57.4393 104.463 57.7333 104.833 58.1384C105.201 58.5368 105.47 59.0882 105.64 59.7925C105.81 60.4968 105.819 61.1575 105.667 61.7747C105.522 62.3903 105.244 62.9448 104.833 63.4382C104.42 63.9249 103.904 64.3431 103.287 64.693C102.67 65.0495 101.983 65.3194 101.224 65.5025ZM111.949 62.9138C111.13 63.1115 110.406 63.1285 109.779 62.9645C109.157 62.7922 108.644 62.4932 108.24 62.0675C107.843 61.6401 107.574 61.1318 107.432 60.5427C107.293 59.967 107.281 59.4431 107.396 58.9709C107.517 58.4903 107.743 58.063 108.076 57.6889C108.407 57.308 108.83 56.9693 109.346 56.6727C109.833 56.4046 110.386 56.1422 111.005 55.8853C111.629 55.62 112.262 55.3633 112.905 55.115C113.547 54.8668 114.146 54.6326 114.702 54.4123L114.143 54.9451C113.928 53.965 113.557 53.2912 113.032 52.9236C112.512 52.5544 111.752 52.4908 110.749 52.7327C110.086 52.8929 109.54 53.1859 109.113 53.6116C108.69 54.0289 108.459 54.6007 108.419 55.3269L106.578 55.2232C106.61 54.1978 106.939 53.3193 107.565 52.5877C108.191 51.8561 109.123 51.3407 110.363 51.0416C111.358 50.8013 112.255 50.7748 113.053 50.962C113.855 51.1409 114.499 51.5517 114.984 52.1943C115.222 52.4954 115.409 52.8407 115.546 53.2305C115.681 53.6135 115.801 54.0217 115.906 54.4551L117.544 61.2408L115.939 61.6282L115.304 58.9972L115.739 59.1503C115.54 60.1372 115.122 60.9474 114.487 61.5809C113.858 62.2128 113.012 62.6571 111.949 62.9138ZM111.858 61.334C112.508 61.177 113.042 60.9262 113.461 60.5816C113.885 60.2285 114.196 59.8272 114.396 59.3776C114.594 58.9213 114.682 58.4557 114.661 57.9807C114.681 57.6176 114.644 57.2286 114.551 56.8139C114.463 56.3908 114.392 56.0674 114.338 55.844L115.034 55.9662C114.465 56.1897 113.905 56.4073 113.354 56.6191C112.803 56.8309 112.284 57.0422 111.797 57.2528C111.309 57.4567 110.876 57.6652 110.497 57.8784C110.222 58.0451 109.97 58.2349 109.742 58.4476C109.521 58.6587 109.358 58.9024 109.252 59.1787C109.152 59.4465 109.144 59.7531 109.227 60.0985C109.299 60.3965 109.442 60.6629 109.657 60.8979C109.878 61.1312 110.168 61.294 110.527 61.3865C110.893 61.4774 111.337 61.4598 111.858 61.334ZM122.754 59.9831L116.124 49.9733L117.953 49.532L123.122 57.454L124.099 48.0485L125.937 47.6047L124.603 59.5368L122.754 59.9831ZM127.509 45.172L127.058 43.3029L128.866 42.8664L129.318 44.7355L127.509 45.172ZM130.626 58.0831L127.978 47.1122L129.786 46.6758L132.434 57.6467L130.626 58.0831ZM143.294 55.0254L141.967 49.5298C141.841 49.0083 141.673 48.5186 141.462 48.0607C141.258 47.6011 140.995 47.2095 140.673 46.8858C140.357 46.5538 139.978 46.3226 139.538 46.1923C139.105 46.0603 138.597 46.0646 138.015 46.2052C137.561 46.3147 137.167 46.4923 136.832 46.738C136.502 46.9753 136.243 47.2815 136.054 47.6568C135.865 48.0321 135.753 48.4747 135.719 48.9847C135.689 49.4863 135.751 50.0554 135.905 50.692L134.628 50.6132C134.372 49.55 134.341 48.5933 134.538 47.7433C134.739 46.8849 135.136 46.1691 135.729 45.5961C136.326 45.0146 137.096 44.6103 138.037 44.383C138.748 44.2114 139.381 44.1768 139.937 44.2794C140.492 44.3819 140.98 44.5793 141.402 44.8717C141.822 45.1573 142.182 45.5075 142.483 45.9222C142.782 46.3302 143.026 46.7622 143.215 47.2183C143.409 47.6659 143.557 48.0997 143.658 48.5196L145.122 54.5841L143.294 55.0254ZM135.472 56.9134L132.824 45.9425L134.449 45.5502L135.158 48.4859L135.361 48.4369L137.3 56.4721L135.472 56.9134ZM153.453 58.0558C152.877 58.1947 152.294 58.2424 151.703 58.1987C151.112 58.155 150.543 58.0093 149.995 57.7615C149.457 57.5189 148.97 57.1635 148.534 56.6953L149.979 55.422C150.379 55.8916 150.856 56.1886 151.409 56.3131C151.969 56.4359 152.513 56.4336 153.041 56.3061C153.739 56.1377 154.287 55.8693 154.685 55.5008C155.085 55.1391 155.333 54.6815 155.429 54.128C155.531 53.573 155.489 52.9238 155.303 52.1805L154.579 49.1838L154.793 49.1323L152.856 41.1072L154.461 40.7198L157.126 51.7619C157.198 52.0598 157.257 52.3501 157.304 52.6327C157.357 52.9136 157.39 53.1961 157.401 53.48C157.447 54.2931 157.32 55.001 157.021 55.6034C156.724 56.2127 156.273 56.7193 155.668 57.1233C155.065 57.5341 154.326 57.8449 153.453 58.0558ZM152.144 53.2117C151.121 53.4585 150.183 53.4163 149.329 53.0849C148.473 52.7467 147.74 52.1891 147.13 51.4119C146.526 50.6331 146.092 49.6952 145.827 48.5981C145.562 47.501 145.521 46.4682 145.703 45.4998C145.891 44.5297 146.291 43.7059 146.901 43.0282C147.51 42.3437 148.323 41.8789 149.338 41.6337C150.375 41.3836 151.305 41.4241 152.131 41.7553C152.956 42.0864 153.653 42.6455 154.223 43.4324C154.8 44.2178 155.221 45.1624 155.488 46.2662C155.751 47.3566 155.806 48.3861 155.653 49.3547C155.505 50.315 155.14 51.1374 154.56 51.8221C153.979 52.5 153.173 52.9632 152.144 53.2117ZM151.968 51.5019C152.706 51.3238 153.269 51.0014 153.658 50.5348C154.046 50.0615 154.276 49.4863 154.349 48.8093C154.427 48.1239 154.37 47.3817 154.177 46.5826C153.981 45.7699 153.693 45.0832 153.314 44.5225C152.941 43.9534 152.478 43.5526 151.928 43.32C151.375 43.0806 150.74 43.0476 150.022 43.2209C149.278 43.4007 148.705 43.7323 148.306 44.2157C147.914 44.6974 147.674 45.2784 147.587 45.9587C147.507 46.6373 147.561 47.3626 147.747 48.1347C147.935 48.9135 148.224 49.5892 148.613 50.1618C149 50.7276 149.475 51.1361 150.037 51.3874C150.606 51.637 151.25 51.6752 151.968 51.5019Z" fill="white"/>
<rect x="102.674" y="102.998" width="202.835" height="67.955" rx="32.9175" transform="rotate(-13.5703 102.674 102.998)" stroke="white" stroke-width="1.045"/>
<path d="M151.647 135.197C150.611 135.448 149.634 135.497 148.716 135.346C147.805 135.193 147 134.857 146.301 134.338C145.607 133.81 145.072 133.119 144.693 132.264L146.491 131.518C146.951 132.382 147.616 132.985 148.486 133.327C149.362 133.66 150.308 133.704 151.324 133.459C151.981 133.3 152.549 133.055 153.028 132.725C153.513 132.386 153.864 131.986 154.082 131.524C154.301 131.063 154.346 130.568 154.219 130.04C154.14 129.715 154.015 129.451 153.845 129.249C153.679 129.038 153.479 128.875 153.243 128.76C153.012 128.636 152.761 128.546 152.49 128.49C152.218 128.434 151.941 128.4 151.659 128.39L147.664 128.182C147.228 128.158 146.799 128.101 146.375 128.01C145.95 127.912 145.555 127.76 145.19 127.554C144.824 127.341 144.505 127.06 144.234 126.71C143.961 126.353 143.76 125.903 143.629 125.361C143.42 124.495 143.465 123.702 143.765 122.985C144.07 122.259 144.569 121.641 145.263 121.129C145.956 120.618 146.788 120.249 147.758 120.022C148.742 119.791 149.661 119.756 150.517 119.915C151.377 120.066 152.138 120.398 152.8 120.912C153.468 121.424 153.997 122.103 154.388 122.947L152.549 123.746C152.303 123.175 151.953 122.718 151.498 122.376C151.048 122.026 150.534 121.799 149.957 121.695C149.379 121.584 148.777 121.6 148.152 121.743C147.555 121.88 147.039 122.105 146.606 122.418C146.172 122.73 145.856 123.097 145.657 123.518C145.455 123.932 145.41 124.365 145.519 124.819C145.627 125.266 145.843 125.597 146.168 125.813C146.49 126.022 146.858 126.162 147.269 126.235C147.686 126.299 148.086 126.339 148.47 126.354L151.447 126.484C151.786 126.496 152.181 126.529 152.632 126.585C153.09 126.64 153.549 126.762 154.01 126.951C154.47 127.134 154.885 127.428 155.255 127.833C155.624 128.232 155.893 128.783 156.063 129.487C156.233 130.192 156.242 130.853 156.09 131.47C155.945 132.085 155.667 132.64 155.255 133.133C154.842 133.62 154.327 134.038 153.709 134.388C153.093 134.745 152.406 135.014 151.647 135.197ZM162.372 132.609C161.552 132.807 160.829 132.823 160.202 132.66C159.58 132.487 159.067 132.188 158.663 131.762C158.266 131.335 157.996 130.827 157.854 130.238C157.715 129.662 157.703 129.138 157.819 128.666C157.939 128.185 158.166 127.758 158.498 127.384C158.829 127.003 159.253 126.664 159.769 126.368C160.256 126.1 160.809 125.837 161.428 125.58C162.052 125.315 162.685 125.058 163.327 124.81C163.97 124.562 164.569 124.328 165.125 124.107L164.566 124.64C164.351 123.66 163.98 122.986 163.454 122.619C162.935 122.249 162.174 122.186 161.172 122.428C160.508 122.588 159.963 122.881 159.535 123.307C159.113 123.724 158.882 124.296 158.842 125.022L157 124.918C157.032 123.893 157.361 123.014 157.987 122.283C158.613 121.551 159.546 121.036 160.785 120.737C161.781 120.496 162.678 120.47 163.475 120.657C164.278 120.836 164.922 121.247 165.407 121.889C165.644 122.19 165.831 122.536 165.969 122.925C166.104 123.308 166.224 123.717 166.329 124.15L167.967 130.936L166.362 131.323L165.726 128.692L166.161 128.845C165.962 129.832 165.545 130.642 164.91 131.276C164.281 131.908 163.435 132.352 162.372 132.609ZM162.281 131.029C162.931 130.872 163.465 130.621 163.884 130.277C164.307 129.923 164.619 129.522 164.819 129.073C165.017 128.616 165.105 128.151 165.083 127.676C165.103 127.313 165.067 126.924 164.974 126.509C164.886 126.086 164.815 125.762 164.761 125.539L165.457 125.661C164.888 125.885 164.327 126.102 163.776 126.314C163.226 126.526 162.707 126.737 162.22 126.948C161.732 127.152 161.298 127.36 160.92 127.573C160.645 127.74 160.393 127.93 160.165 128.143C159.944 128.354 159.78 128.597 159.675 128.874C159.575 129.142 159.566 129.448 159.65 129.794C159.722 130.091 159.865 130.358 160.079 130.593C160.3 130.826 160.59 130.989 160.95 131.082C161.316 131.172 161.759 131.155 162.281 131.029ZM171.654 130.046L168.861 118.475C168.793 118.191 168.737 117.9 168.693 117.602C168.649 117.298 168.64 116.995 168.668 116.695C168.694 116.387 168.787 116.089 168.946 115.8C169.13 115.462 169.357 115.199 169.627 115.012C169.895 114.818 170.179 114.671 170.477 114.57C170.782 114.468 171.073 114.383 171.351 114.316L172.743 113.98L173.106 115.484L171.816 115.795C171.281 115.924 170.913 116.153 170.712 116.481C170.51 116.802 170.473 117.226 170.601 117.755L173.462 129.609L171.654 130.046ZM167.507 121.017L167.147 119.524L173.699 117.942L174.059 119.435L167.507 121.017ZM182.399 127.775C181.323 128.034 180.324 128.025 179.404 127.745C178.488 127.457 177.704 126.941 177.052 126.195C176.397 125.443 175.932 124.495 175.655 123.35C175.366 122.151 175.336 121.062 175.565 120.082C175.793 119.096 176.242 118.271 176.914 117.607C177.59 116.935 178.46 116.47 179.523 116.214C180.627 115.947 181.626 115.975 182.521 116.296C183.422 116.616 184.179 117.2 184.792 118.049C185.412 118.895 185.852 119.975 186.112 121.288L184.283 121.73L184.127 121.08C183.781 119.737 183.264 118.797 182.576 118.261C181.885 117.718 181.019 117.573 179.976 117.824C178.859 118.094 178.095 118.658 177.686 119.517C177.277 120.375 177.234 121.475 177.558 122.816C177.87 124.109 178.403 125.041 179.157 125.612C179.911 126.182 180.827 126.337 181.904 126.077C182.628 125.903 183.218 125.585 183.673 125.124C184.128 124.663 184.432 124.084 184.587 123.387L186.469 123.567C186.276 124.639 185.814 125.546 185.083 126.288C184.357 127.023 183.463 127.518 182.399 127.775ZM177.071 123.471L176.72 122.018L184.827 120.061L185.177 121.514L177.071 123.471ZM198.47 123.895C197.657 124.092 196.87 124.156 196.109 124.089C195.347 124.022 194.668 123.792 194.071 123.398C193.608 123.08 193.226 122.7 192.925 122.256C192.63 121.804 192.406 121.307 192.253 120.763C192.124 120.228 192.076 119.688 192.109 119.142C192.14 118.59 192.277 118.073 192.519 117.592C192.643 117.333 192.795 117.102 192.976 116.901C193.162 116.691 193.354 116.505 193.551 116.343C192.963 115.955 192.49 115.571 192.133 115.191C191.783 114.81 191.533 114.307 191.383 113.684C191.191 112.892 191.222 112.128 191.475 111.394C191.733 110.651 192.181 110.044 192.82 109.575C193.13 109.342 193.457 109.156 193.803 109.015C194.154 108.866 194.502 108.75 194.848 108.666C195.43 108.526 196.015 108.47 196.603 108.5C197.191 108.531 197.722 108.682 198.196 108.954C198.506 109.109 198.786 109.306 199.038 109.547C199.288 109.78 199.5 110.037 199.675 110.317L198.018 111.201C197.806 110.887 197.522 110.647 197.167 110.482C196.881 110.336 196.57 110.264 196.234 110.267C195.904 110.267 195.58 110.306 195.262 110.383C194.734 110.51 194.281 110.727 193.903 111.033C193.568 111.308 193.346 111.634 193.236 112.011C193.125 112.382 193.124 112.791 193.232 113.238C193.325 113.624 193.466 113.927 193.655 114.146C193.849 114.357 194.098 114.573 194.403 114.794C194.581 114.908 194.778 115.029 194.995 115.156C195.217 115.274 195.444 115.399 195.676 115.529L200.95 118.492C200.929 118.317 200.901 118.141 200.865 117.964C200.83 117.786 200.792 117.616 200.753 117.453L200.255 115.434L201.911 115.035L202.484 117.412C202.6 117.893 202.682 118.306 202.73 118.653C202.785 118.998 202.805 119.291 202.791 119.531L205.065 120.799L204.19 122.343L202.293 121.253C202.101 121.614 201.849 121.951 201.537 122.263C201.226 122.575 200.901 122.832 200.563 123.036C200.249 123.248 199.914 123.421 199.56 123.557C199.206 123.693 198.842 123.806 198.47 123.895ZM198.091 122.149C198.423 122.069 198.72 121.975 198.981 121.869C199.242 121.763 199.48 121.623 199.696 121.449C199.984 121.215 200.198 121.006 200.34 120.821C200.482 120.636 200.596 120.469 200.681 120.319L195.236 117.312C195.012 117.452 194.808 117.616 194.624 117.804C194.447 117.99 194.302 118.193 194.191 118.414C194.067 118.673 193.996 118.959 193.978 119.271C193.967 119.582 194.001 119.9 194.08 120.225C194.17 120.569 194.304 120.873 194.483 121.138C194.661 121.403 194.877 121.627 195.129 121.81C195.51 122.084 195.974 122.24 196.521 122.28C197.067 122.313 197.59 122.27 198.091 122.149ZM216.327 119.585C215.29 119.835 214.313 119.885 213.395 119.734C212.484 119.581 211.679 119.245 210.981 118.726C210.287 118.198 209.751 117.507 209.373 116.652L211.171 115.906C211.63 116.77 212.295 117.373 213.166 117.714C214.042 118.048 214.988 118.092 216.004 117.846C216.661 117.688 217.229 117.443 217.708 117.113C218.192 116.774 218.543 116.373 218.762 115.912C218.98 115.451 219.026 114.956 218.898 114.428C218.82 114.103 218.695 113.839 218.524 113.637C218.359 113.426 218.158 113.263 217.923 113.148C217.692 113.024 217.441 112.934 217.169 112.878C216.898 112.822 216.621 112.788 216.339 112.778L212.344 112.57C211.908 112.546 211.478 112.489 211.055 112.397C210.63 112.299 210.235 112.147 209.87 111.942C209.503 111.729 209.184 111.448 208.914 111.098C208.641 110.74 208.439 110.291 208.309 109.749C208.099 108.882 208.145 108.09 208.445 107.373C208.75 106.647 209.249 106.029 209.942 105.517C210.636 105.006 211.468 104.637 212.438 104.41C213.421 104.179 214.341 104.144 215.196 104.303C216.057 104.453 216.818 104.786 217.479 105.3C218.148 105.812 218.677 106.49 219.067 107.335L217.228 108.134C216.983 107.562 216.633 107.106 216.177 106.764C215.727 106.414 215.214 106.187 214.637 106.083C214.058 105.971 213.457 105.988 212.832 106.131C212.234 106.268 211.719 106.493 211.285 106.805C210.852 107.118 210.536 107.485 210.336 107.905C210.135 108.319 210.089 108.753 210.199 109.207C210.307 109.654 210.523 109.985 210.847 110.201C211.17 110.41 211.537 110.55 211.949 110.623C212.366 110.687 212.766 110.727 213.149 110.742L216.126 110.872C216.466 110.884 216.861 110.917 217.312 110.973C217.769 111.028 218.229 111.15 218.69 111.339C219.15 111.522 219.565 111.816 219.935 112.221C220.303 112.62 220.573 113.171 220.743 113.875C220.913 114.58 220.922 115.24 220.77 115.858C220.624 116.473 220.346 117.028 219.935 117.521C219.522 118.008 219.007 118.426 218.389 118.776C217.772 119.132 217.085 119.402 216.327 119.585ZM228.687 116.602C227.61 116.862 226.612 116.852 225.691 116.572C224.776 116.284 223.992 115.768 223.339 115.022C222.685 114.27 222.219 113.322 221.943 112.177C221.654 110.979 221.623 109.889 221.853 108.91C222.081 107.923 222.53 107.098 223.201 106.434C223.877 105.762 224.747 105.298 225.81 105.041C226.914 104.775 227.913 104.802 228.808 105.124C229.709 105.444 230.467 106.028 231.08 106.876C231.7 107.722 232.14 108.802 232.4 110.116L230.571 110.557L230.414 109.907C230.069 108.564 229.551 107.625 228.863 107.088C228.173 106.545 227.307 106.4 226.264 106.652C225.146 106.921 224.383 107.485 223.974 108.344C223.565 109.202 223.522 110.302 223.846 111.643C224.158 112.936 224.691 113.868 225.445 114.439C226.199 115.009 227.114 115.165 228.191 114.905C228.916 114.73 229.506 114.412 229.961 113.951C230.415 113.49 230.72 112.911 230.874 112.215L232.756 112.395C232.563 113.466 232.101 114.373 231.37 115.116C230.645 115.85 229.75 116.345 228.687 116.602ZM223.359 112.298L223.008 110.845L231.114 108.889L231.465 110.341L223.359 112.298ZM240.558 113.736C239.448 114.004 238.443 113.985 237.545 113.679C236.652 113.364 235.897 112.819 235.28 112.043C234.663 111.268 234.212 110.323 233.929 109.209C233.666 108.061 233.637 107.004 233.841 106.037C234.05 105.062 234.485 104.237 235.146 103.562C235.807 102.886 236.686 102.416 237.783 102.151C238.941 101.872 240.005 101.916 240.976 102.283C241.953 102.65 242.703 103.293 243.226 104.213L241.568 105.183C241.184 104.602 240.689 104.198 240.083 103.972C239.483 103.744 238.848 103.711 238.177 103.873C237.426 104.054 236.848 104.38 236.446 104.85C236.042 105.313 235.795 105.881 235.707 106.554C235.617 107.221 235.665 107.952 235.849 108.745C236.157 109.961 236.676 110.879 237.406 111.498C238.141 112.109 239.054 112.283 240.144 112.02C240.862 111.846 241.418 111.54 241.814 111.1C242.208 110.654 242.452 110.09 242.545 109.408L244.489 109.444C244.356 110.558 243.953 111.484 243.277 112.22C242.602 112.956 241.696 113.462 240.558 113.736ZM251.485 111.077C250.78 111.247 250.147 111.282 249.585 111.181C249.03 111.079 248.542 110.881 248.12 110.589C247.698 110.296 247.338 109.946 247.039 109.538C246.74 109.13 246.492 108.699 246.297 108.245C246.108 107.789 245.963 107.354 245.864 106.941L244.4 100.876L246.228 100.435L247.555 105.931C247.679 106.445 247.847 106.932 248.057 107.39C248.268 107.848 248.532 108.243 248.849 108.575C249.172 108.905 249.55 109.136 249.984 109.268C250.424 109.399 250.931 109.394 251.507 109.255C251.961 109.146 252.355 108.968 252.69 108.723C253.025 108.477 253.287 108.17 253.478 107.801C253.667 107.426 253.775 106.984 253.803 106.476C253.831 105.967 253.769 105.398 253.617 104.769L254.894 104.847C255.149 105.904 255.175 106.861 254.974 107.72C254.78 108.576 254.383 109.296 253.786 109.877C253.193 110.45 252.426 110.85 251.485 111.077ZM255.073 109.91L254.364 106.975L254.161 107.024L252.222 98.9885L254.04 98.5496L256.688 109.52L255.073 109.91ZM259.532 108.834L256.884 97.863L258.499 97.4732L259.139 100.124L258.792 99.8429C258.839 99.4732 258.929 99.1216 259.064 98.7881C259.205 98.453 259.382 98.163 259.596 97.918C259.824 97.6191 260.104 97.3654 260.433 97.1569C260.763 96.9483 261.111 96.789 261.479 96.6787C261.845 96.5617 262.199 96.5013 262.542 96.4973L262.952 98.1937C262.548 98.1837 262.125 98.2571 261.683 98.4141C261.24 98.571 260.86 98.8382 260.543 99.2159C260.251 99.5514 260.051 99.9224 259.941 100.329C259.838 100.733 259.8 101.155 259.827 101.593C259.852 102.024 259.917 102.456 260.022 102.889L261.351 108.395L259.532 108.834ZM271.74 106.21C270.664 106.47 269.665 106.46 268.745 106.18C267.83 105.892 267.046 105.376 266.393 104.63C265.738 103.878 265.273 102.93 264.996 101.785C264.707 100.587 264.677 99.4973 264.906 98.5174C265.134 97.5308 265.584 96.7056 266.255 96.042C266.931 95.3699 267.801 94.9055 268.864 94.6489C269.968 94.3824 270.967 94.41 271.862 94.7315C272.763 95.0515 273.52 95.6355 274.134 96.4837C274.754 97.3302 275.193 98.4101 275.453 99.7235L273.625 100.165L273.468 99.5147C273.122 98.1719 272.605 97.2325 271.917 96.6963C271.227 96.1534 270.36 96.0078 269.317 96.2595C268.2 96.5292 267.437 97.0933 267.027 97.9517C266.618 98.8101 266.576 99.9098 266.899 101.251C267.211 102.544 267.745 103.476 268.499 104.047C269.253 104.617 270.168 104.772 271.245 104.513C271.969 104.338 272.559 104.02 273.014 103.559C273.469 103.098 273.774 102.519 273.928 101.822L275.81 102.002C275.617 103.074 275.155 103.981 274.424 104.723C273.698 105.458 272.804 105.953 271.74 106.21ZM266.412 101.906L266.062 100.453L274.168 98.4964L274.519 99.949L266.412 101.906Z" fill="white"/>
<rect x="300.919" y="14.5953" width="179.835" height="61.395" rx="30.6975" transform="rotate(19.2092 300.919 14.5953)" stroke="white" stroke-width="1.045"/>
<path d="M320.878 63.0581L325.83 48.8479L327.586 49.4599L325.403 55.7262L332.883 58.3324L335.066 52.0661L336.823 52.6781L331.872 66.8883L330.115 66.2763L332.302 60.0001L324.822 57.3939L322.635 63.6701L320.878 63.0581ZM337.566 69.2044C336.77 68.927 336.153 68.5497 335.714 68.0722C335.285 67.5905 335.015 67.0614 334.906 66.4849C334.804 65.9106 334.852 65.3374 335.052 64.765C335.247 64.2058 335.52 63.7589 335.873 63.4244C336.235 63.0856 336.656 62.8489 337.138 62.7144C337.623 62.5734 338.162 62.5179 338.757 62.5479C339.312 62.5863 339.919 62.665 340.578 62.784C341.246 62.8988 341.918 63.0258 342.592 63.1649C343.267 63.304 343.897 63.4315 344.484 63.5474L343.725 63.6925C344.075 62.752 344.128 61.9849 343.885 61.3911C343.649 60.7997 343.043 60.3343 342.07 59.9951C341.425 59.7704 340.808 59.7213 340.218 59.8477C339.637 59.9699 339.133 60.3255 338.706 60.9146L337.214 59.8303C337.796 58.9855 338.548 58.425 339.471 58.1489C340.393 57.8727 341.456 57.9444 342.66 58.3638C343.627 58.7008 344.396 59.1639 344.965 59.7533C345.543 60.3383 345.862 61.0323 345.922 61.8351C345.958 62.2167 345.929 62.6085 345.833 63.0104C345.739 63.4057 345.619 63.8139 345.473 64.2349L343.176 70.8269L341.617 70.2836L342.507 67.7278L342.79 68.0918C342.088 68.8138 341.299 69.2692 340.422 69.4578C339.551 69.6487 338.599 69.5643 337.566 69.2044ZM338.345 67.8269C338.977 68.0469 339.562 68.1253 340.1 68.0621C340.647 67.9946 341.127 67.8259 341.538 67.5561C341.952 67.2796 342.278 66.9359 342.517 66.5249C342.73 66.2304 342.91 65.8836 343.056 65.4846C343.212 65.0813 343.327 64.7711 343.403 64.554L343.922 65.0336C343.322 64.9131 342.733 64.7928 342.155 64.6726C341.577 64.5524 341.027 64.4492 340.504 64.3628C339.983 64.2698 339.506 64.2105 339.072 64.1848C338.75 64.176 338.436 64.1993 338.129 64.2547C337.829 64.3123 337.559 64.4287 337.321 64.604C337.092 64.7749 336.919 65.0282 336.802 65.3637C336.701 65.6532 336.677 65.9547 336.73 66.2683C336.79 66.5841 336.946 66.8782 337.198 67.1504C337.456 67.4249 337.839 67.6504 338.345 67.8269ZM349.668 73.4098C348.398 72.9674 347.452 72.3278 346.829 71.491C346.214 70.6498 345.989 69.6972 346.154 68.633L348.049 68.9726C347.992 69.602 348.164 70.1782 348.565 70.7014C348.967 71.218 349.554 71.6104 350.323 71.8786C351.054 72.133 351.679 72.1811 352.199 72.0229C352.719 71.8647 353.069 71.5257 353.25 71.006C353.356 70.7034 353.371 70.4359 353.297 70.2036C353.226 69.9646 353.001 69.6873 352.624 69.3715C352.254 69.0581 351.675 68.6349 350.887 68.1021C350.033 67.5243 349.383 67.0066 348.938 66.5489C348.493 66.0912 348.217 65.6447 348.11 65.2092C348.004 64.7737 348.039 64.3027 348.215 63.7961C348.433 63.1711 348.794 62.6847 349.299 62.3368C349.806 61.9823 350.41 61.7834 351.111 61.74C351.819 61.6988 352.581 61.8204 353.397 62.1046C354.206 62.3866 354.885 62.767 355.434 63.2459C355.982 63.7248 356.368 64.2687 356.592 64.8776C356.824 65.4823 356.867 66.1097 356.721 66.7599L354.812 66.4598C354.926 65.8576 354.807 65.3107 354.454 64.819C354.108 64.3296 353.574 63.9478 352.85 63.6737C352.169 63.4067 351.564 63.3324 351.035 63.4509C350.514 63.5716 350.173 63.8622 350.012 64.3227C349.923 64.5793 349.925 64.8272 350.019 65.0664C350.119 65.3079 350.358 65.5866 350.735 65.9023C351.118 66.2204 351.691 66.6302 352.453 67.1318C353.311 67.6964 353.961 68.2142 354.402 68.685C354.852 69.1516 355.125 69.6157 355.222 70.0775C355.322 70.5328 355.276 71.0367 355.083 71.5893C354.725 72.6156 354.065 73.293 353.102 73.6215C352.142 73.9434 350.997 73.8728 349.668 73.4098ZM360.134 77.0562C358.864 76.6138 357.918 75.9742 357.294 75.1374C356.68 74.2963 356.455 73.3436 356.619 72.2794L358.515 72.619C358.458 73.2484 358.63 73.8247 359.03 74.3478C359.433 74.8644 360.019 75.2568 360.789 75.525C361.519 75.7794 362.144 75.8276 362.664 75.6693C363.184 75.5111 363.535 75.1721 363.716 74.6524C363.821 74.3498 363.837 74.0823 363.763 73.85C363.691 73.6111 363.467 73.3337 363.09 73.018C362.72 72.7045 362.141 72.2814 361.352 71.7485C360.499 71.1708 359.849 70.653 359.404 70.1953C358.958 69.7377 358.682 69.2911 358.576 68.8556C358.469 68.4201 358.504 67.9491 358.681 67.4425C358.898 66.8175 359.26 66.3311 359.765 65.9832C360.272 65.6287 360.876 65.4298 361.577 65.3864C362.285 65.3453 363.047 65.4668 363.863 65.7511C364.672 66.033 365.351 66.4134 365.899 66.8923C366.448 67.3712 366.834 67.9151 367.057 68.5241C367.289 69.1287 367.332 69.7561 367.187 70.4063L365.278 70.1062C365.392 69.504 365.272 68.9571 364.92 68.4654C364.574 67.976 364.039 67.5943 363.316 67.3201C362.634 67.0531 362.029 66.9788 361.501 67.0973C360.98 67.218 360.639 67.5086 360.478 67.9692C360.389 68.2257 360.391 68.4736 360.485 68.7128C360.585 68.9544 360.823 69.233 361.2 69.5487C361.584 69.8668 362.157 70.2766 362.919 70.7782C363.777 71.3429 364.427 71.8606 364.867 72.3314C365.317 72.798 365.591 73.2622 365.688 73.724C365.788 74.1792 365.741 74.6831 365.549 75.2357C365.191 76.262 364.531 76.9394 363.568 77.2679C362.607 77.5898 361.463 77.5193 360.134 77.0562ZM366.87 79.0824L371.925 64.5762L373.681 65.1882L368.627 79.6944L366.87 79.0824ZM376.103 82.6312C375.057 82.2668 374.223 81.7179 373.6 80.9846C372.987 80.2471 372.607 79.3882 372.462 78.408C372.319 77.4212 372.441 76.3719 372.828 75.26C373.234 74.0956 373.799 73.1635 374.522 72.4639C375.247 71.7576 376.072 71.3072 376.996 71.1126C377.928 70.9136 378.911 70.9941 379.944 71.354C381.016 71.7276 381.841 72.2918 382.419 73.0465C383.004 73.8035 383.324 74.7046 383.381 75.7497C383.444 76.7971 383.229 77.9432 382.736 79.188L380.96 78.5691L381.18 77.9375C381.616 76.6215 381.69 75.5517 381.402 74.7282C381.116 73.8981 380.466 73.3065 379.453 72.9535C378.367 72.5753 377.42 72.6363 376.611 73.1366C375.803 73.6368 375.171 74.5382 374.717 75.8408C374.28 77.0973 374.223 78.1696 374.548 79.0575C374.874 79.9454 375.559 80.5715 376.605 80.936C377.309 81.1813 377.977 81.2333 378.609 81.092C379.241 80.9507 379.811 80.629 380.317 80.1269L381.802 81.2971C381.06 82.0934 380.18 82.6059 379.164 82.8345C378.156 83.0589 377.136 82.9911 376.103 82.6312ZM373.953 76.1279L374.445 74.7168L382.32 77.4605L381.828 78.8716L373.953 76.1279ZM387.2 86.1655L392.151 71.9553L400.44 74.8434L399.828 76.6L393.295 74.3239L391.738 78.7941L397.086 80.6577L396.474 82.4142L391.126 80.5507L388.956 86.7775L387.2 86.1655ZM397.261 89.6709L400.974 79.0133L402.543 79.5599L401.645 82.1355L401.506 81.7106C401.745 81.4252 402.012 81.1788 402.306 80.9712C402.606 80.766 402.912 80.6181 403.224 80.5276C403.578 80.4002 403.95 80.338 404.34 80.3411C404.73 80.3441 405.109 80.3988 405.478 80.5052C405.849 80.6049 406.18 80.746 406.47 80.9284L405.896 82.5764C405.562 82.3493 405.167 82.182 404.71 82.0745C404.253 81.967 403.789 81.986 403.318 82.1317C402.891 82.2559 402.521 82.4591 402.209 82.7413C401.903 83.0258 401.643 83.3594 401.429 83.7421C401.217 84.1182 401.037 84.5168 400.89 84.9378L399.027 90.2863L397.261 89.6709ZM408.946 94.0741C407.899 93.7097 407.065 93.1608 406.443 92.4275C405.829 91.69 405.45 90.8311 405.304 89.8509C405.161 88.8641 405.283 87.8148 405.671 86.703C406.077 85.5385 406.641 84.6065 407.364 83.9068C408.09 83.2005 408.915 82.7501 409.838 82.5555C410.771 82.3566 411.753 82.437 412.786 82.7969C413.859 83.1705 414.684 83.7347 415.262 84.4894C415.846 85.2464 416.167 86.1475 416.223 87.1926C416.286 88.24 416.071 89.3861 415.579 90.6309L413.802 90.012L414.022 89.3804C414.459 88.0644 414.533 86.9946 414.244 86.1711C413.958 85.341 413.308 84.7494 412.295 84.3965C411.21 84.0182 410.263 84.0793 409.454 84.5795C408.645 85.0797 408.014 85.9811 407.56 87.2837C407.122 88.5403 407.066 89.6125 407.391 90.5004C407.716 91.3883 408.402 92.0145 409.448 92.3789C410.152 92.6242 410.82 92.6762 411.452 92.5349C412.084 92.3936 412.653 92.0719 413.16 91.5698L414.645 92.74C413.902 93.5363 413.023 94.0488 412.006 94.2775C410.999 94.5018 409.978 94.434 408.946 94.0741ZM406.796 87.5708L407.288 86.1597L415.162 88.9034L414.671 90.3146L406.796 87.5708ZM420.606 98.1369C419.56 97.7725 418.726 97.2236 418.103 96.4903C417.49 95.7527 417.11 94.8939 416.965 93.9136C416.822 92.9269 416.944 91.8776 417.331 90.7657C417.737 89.6013 418.302 88.6692 419.025 87.9696C419.751 87.2633 420.575 86.8129 421.499 86.6182C422.431 86.4193 423.414 86.4998 424.447 86.8597C425.519 87.2333 426.344 87.7975 426.922 88.5522C427.507 89.3092 427.828 90.2103 427.884 91.2554C427.947 92.3028 427.732 93.4489 427.239 94.6936L425.463 94.0748L425.683 93.4432C426.119 92.1271 426.193 91.0574 425.905 90.2338C425.619 89.4038 424.969 88.8122 423.956 88.4592C422.87 88.081 421.923 88.142 421.115 88.6423C420.306 89.1425 419.674 90.0439 419.221 91.3465C418.783 92.603 418.726 93.6753 419.052 94.5632C419.377 95.4511 420.062 96.0772 421.108 96.4417C421.812 96.687 422.48 96.7389 423.112 96.5977C423.744 96.4564 424.314 96.1347 424.821 95.6326L426.305 96.8028C425.563 97.5991 424.684 98.1116 423.667 98.3402C422.659 98.5646 421.639 98.4968 420.606 98.1369ZM418.457 91.6336L418.948 90.2225L426.823 92.9662L426.331 94.3773L418.457 91.6336Z" fill="white"/>
<rect x="254.522" y="111.522" width="215.955" height="61.395" rx="30.6975" fill="black"/>
<rect x="254.522" y="111.522" width="215.955" height="61.395" rx="30.6975" stroke="white" stroke-width="1.045"/>
<path d="M283.955 150.72V135.672H289.818C290.716 135.672 291.483 135.857 292.117 136.226C292.758 136.595 293.245 137.083 293.58 137.689C293.921 138.288 294.092 138.936 294.092 139.633C294.092 140.448 293.883 141.162 293.465 141.775C293.047 142.388 292.482 142.809 291.772 143.039L291.751 142.527C292.719 142.785 293.472 143.259 294.008 143.948C294.545 144.638 294.813 145.46 294.813 146.415C294.813 147.292 294.632 148.052 294.269 148.693C293.914 149.334 293.399 149.832 292.723 150.187C292.054 150.542 291.26 150.72 290.34 150.72H283.955ZM285.836 148.943H289.985C290.542 148.943 291.04 148.842 291.479 148.64C291.918 148.431 292.263 148.139 292.514 147.763C292.772 147.386 292.9 146.934 292.9 146.404C292.9 145.896 292.785 145.439 292.556 145.035C292.333 144.631 292.016 144.311 291.605 144.074C291.201 143.83 290.73 143.708 290.194 143.708H285.836V148.943ZM285.836 141.952H289.797C290.243 141.952 290.643 141.858 290.998 141.67C291.361 141.475 291.646 141.204 291.855 140.855C292.071 140.507 292.179 140.099 292.179 139.633C292.179 138.985 291.96 138.455 291.521 138.044C291.082 137.633 290.507 137.428 289.797 137.428H285.836V141.952ZM301.786 151.033C300.678 151.033 299.71 150.79 298.881 150.302C298.059 149.807 297.418 149.121 296.958 148.243C296.498 147.359 296.268 146.327 296.268 145.15C296.268 143.917 296.495 142.851 296.947 141.952C297.4 141.047 298.031 140.35 298.839 139.862C299.654 139.368 300.608 139.12 301.702 139.12C302.838 139.12 303.803 139.382 304.597 139.904C305.398 140.427 305.997 141.172 306.394 142.141C306.798 143.109 306.973 144.262 306.917 145.599H305.036V144.931C305.015 143.544 304.733 142.51 304.189 141.827C303.646 141.137 302.838 140.792 301.765 140.792C300.615 140.792 299.741 141.162 299.142 141.9C298.543 142.639 298.243 143.698 298.243 145.077C298.243 146.408 298.543 147.439 299.142 148.17C299.741 148.902 300.595 149.267 301.702 149.267C302.448 149.267 303.096 149.097 303.646 148.755C304.196 148.414 304.628 147.923 304.942 147.282L306.729 147.898C306.29 148.895 305.628 149.668 304.743 150.218C303.865 150.762 302.88 151.033 301.786 151.033ZM297.616 145.599V144.105H305.955V145.599H297.616ZM313.507 151.023C312.162 151.023 311.058 150.73 310.194 150.145C309.337 149.553 308.811 148.728 308.616 147.669L310.518 147.366C310.672 147.979 311.023 148.466 311.574 148.829C312.124 149.184 312.807 149.361 313.622 149.361C314.395 149.361 315.001 149.201 315.44 148.881C315.879 148.56 316.099 148.125 316.099 147.575C316.099 147.254 316.025 146.996 315.879 146.801C315.733 146.599 315.43 146.411 314.97 146.237C314.517 146.063 313.831 145.854 312.911 145.61C311.915 145.345 311.131 145.07 310.56 144.784C309.989 144.499 309.581 144.168 309.337 143.792C309.094 143.415 308.972 142.959 308.972 142.423C308.972 141.761 309.153 141.183 309.515 140.688C309.877 140.186 310.382 139.8 311.03 139.528C311.685 139.256 312.445 139.12 313.308 139.12C314.165 139.12 314.932 139.256 315.607 139.528C316.283 139.8 316.827 140.186 317.238 140.688C317.656 141.183 317.903 141.761 317.98 142.423L316.078 142.768C315.987 142.161 315.695 141.684 315.2 141.336C314.712 140.988 314.082 140.803 313.308 140.782C312.577 140.754 311.981 140.883 311.521 141.169C311.069 141.454 310.842 141.841 310.842 142.329C310.842 142.6 310.926 142.834 311.093 143.029C311.267 143.224 311.584 143.408 312.044 143.583C312.511 143.757 313.187 143.955 314.071 144.178C315.068 144.429 315.851 144.704 316.423 145.004C317.001 145.296 317.412 145.645 317.656 146.049C317.899 146.446 318.021 146.937 318.021 147.522C318.021 148.609 317.621 149.466 316.82 150.093C316.018 150.713 314.914 151.023 313.507 151.023ZM326.627 150.72C325.959 150.852 325.297 150.905 324.642 150.877C323.994 150.856 323.416 150.727 322.907 150.49C322.399 150.246 322.012 149.87 321.747 149.361C321.524 148.916 321.402 148.466 321.382 148.013C321.368 147.554 321.361 147.035 321.361 146.456V136.299H323.221V146.373C323.221 146.833 323.224 147.226 323.231 147.554C323.245 147.881 323.318 148.163 323.451 148.4C323.701 148.846 324.099 149.107 324.642 149.184C325.192 149.26 325.854 149.24 326.627 149.121V150.72ZM319.072 140.97V139.434H326.627V140.97H319.072ZM334.179 150.72V138.817C334.179 138.525 334.193 138.229 334.221 137.929C334.249 137.623 334.312 137.327 334.409 137.041C334.507 136.748 334.667 136.48 334.89 136.236C335.148 135.951 335.43 135.749 335.736 135.63C336.043 135.505 336.353 135.428 336.666 135.4C336.987 135.372 337.29 135.358 337.575 135.358H339.007V136.905H337.68C337.13 136.905 336.719 137.041 336.447 137.313C336.175 137.577 336.039 137.981 336.039 138.525V150.72H334.179ZM332.267 140.97V139.434H339.007V140.97H332.267ZM345.074 151.033C343.952 151.033 342.984 150.779 342.169 150.271C341.361 149.762 340.737 149.058 340.298 148.16C339.859 147.261 339.64 146.23 339.64 145.067C339.64 143.882 339.863 142.844 340.309 141.952C340.754 141.061 341.385 140.368 342.2 139.873C343.015 139.371 343.973 139.12 345.074 139.12C346.202 139.12 347.174 139.375 347.989 139.883C348.804 140.385 349.428 141.085 349.86 141.984C350.299 142.876 350.518 143.903 350.518 145.067C350.518 146.244 350.299 147.282 349.86 148.181C349.421 149.072 348.794 149.773 347.979 150.281C347.164 150.783 346.195 151.033 345.074 151.033ZM345.074 149.267C346.244 149.267 347.115 148.877 347.686 148.097C348.258 147.317 348.543 146.307 348.543 145.067C348.543 143.792 348.254 142.778 347.676 142.026C347.098 141.266 346.23 140.887 345.074 140.887C344.287 140.887 343.639 141.064 343.13 141.419C342.622 141.775 342.242 142.266 341.991 142.893C341.74 143.52 341.615 144.244 341.615 145.067C341.615 146.334 341.907 147.352 342.493 148.118C343.078 148.884 343.938 149.267 345.074 149.267ZM352.819 150.72V139.434H354.481V142.161L354.209 141.806C354.341 141.458 354.512 141.137 354.721 140.845C354.937 140.552 355.177 140.312 355.442 140.124C355.735 139.887 356.066 139.706 356.435 139.58C356.804 139.455 357.18 139.382 357.563 139.361C357.947 139.333 358.305 139.357 358.64 139.434V141.179C358.25 141.075 357.821 141.047 357.354 141.096C356.888 141.144 356.456 141.315 356.059 141.608C355.696 141.865 355.414 142.179 355.212 142.548C355.017 142.917 354.881 143.318 354.805 143.75C354.728 144.175 354.69 144.61 354.69 145.056V150.72H352.819ZM366.367 155.736L368.551 149.8L368.583 151.556L363.65 139.434H365.604L369.471 149.184H368.802L372.428 139.434H374.32L368.175 155.736H366.367ZM380.445 151.033C379.323 151.033 378.355 150.779 377.54 150.271C376.731 149.762 376.108 149.058 375.669 148.16C375.23 147.261 375.011 146.23 375.011 145.067C375.011 143.882 375.234 142.844 375.679 141.952C376.125 141.061 376.756 140.368 377.571 139.873C378.386 139.371 379.344 139.12 380.445 139.12C381.573 139.12 382.545 139.375 383.36 139.883C384.175 140.385 384.799 141.085 385.231 141.984C385.67 142.876 385.889 143.903 385.889 145.067C385.889 146.244 385.67 147.282 385.231 148.181C384.792 149.072 384.165 149.773 383.35 150.281C382.535 150.783 381.566 151.033 380.445 151.033ZM380.445 149.267C381.615 149.267 382.486 148.877 383.057 148.097C383.628 147.317 383.914 146.307 383.914 145.067C383.914 143.792 383.625 142.778 383.047 142.026C382.468 141.266 381.601 140.887 380.445 140.887C379.657 140.887 379.009 141.064 378.501 141.419C377.992 141.775 377.613 142.266 377.362 142.893C377.111 143.52 376.986 144.244 376.986 145.067C376.986 146.334 377.278 147.352 377.863 148.118C378.449 148.884 379.309 149.267 380.445 149.267ZM392.474 151.013C391.75 151.013 391.126 150.898 390.604 150.668C390.088 150.438 389.66 150.131 389.318 149.748C388.977 149.365 388.709 148.94 388.514 148.473C388.319 148.006 388.179 147.529 388.096 147.042C388.019 146.554 387.981 146.098 387.981 145.673V139.434H389.862V145.087C389.862 145.617 389.911 146.129 390.008 146.624C390.106 147.118 390.269 147.564 390.499 147.961C390.736 148.358 391.05 148.672 391.44 148.902C391.837 149.132 392.332 149.247 392.924 149.247C393.39 149.247 393.815 149.166 394.199 149.006C394.582 148.846 394.909 148.609 395.181 148.296C395.453 147.975 395.662 147.571 395.808 147.083C395.954 146.596 396.027 146.028 396.027 145.38L397.25 145.756C397.25 146.843 397.051 147.78 396.654 148.567C396.264 149.355 395.71 149.961 394.993 150.386C394.282 150.804 393.443 151.013 392.474 151.013ZM396.236 150.72V147.7H396.027V139.434H397.898V150.72H396.236ZM400.824 150.72V139.434H402.485V142.161L402.214 141.806C402.346 141.458 402.517 141.137 402.726 140.845C402.942 140.552 403.182 140.312 403.447 140.124C403.739 139.887 404.07 139.706 404.439 139.58C404.809 139.455 405.185 139.382 405.568 139.361C405.951 139.333 406.31 139.357 406.644 139.434V141.179C406.254 141.075 405.826 141.047 405.359 141.096C404.892 141.144 404.46 141.315 404.063 141.608C403.701 141.865 403.419 142.179 403.217 142.548C403.022 142.917 402.886 143.318 402.809 143.75C402.733 144.175 402.694 144.61 402.694 145.056V150.72H400.824ZM417.559 151.033C416.417 151.033 415.445 150.779 414.644 150.271C413.85 149.755 413.243 149.048 412.825 148.149C412.407 147.251 412.191 146.226 412.178 145.077C412.191 143.9 412.411 142.865 412.836 141.973C413.268 141.075 413.884 140.374 414.686 139.873C415.487 139.371 416.452 139.12 417.58 139.12C418.771 139.12 419.796 139.413 420.652 139.998C421.516 140.583 422.095 141.385 422.387 142.402L420.548 142.956C420.311 142.301 419.924 141.792 419.388 141.43C418.859 141.068 418.249 140.887 417.559 140.887C416.786 140.887 416.149 141.068 415.647 141.43C415.145 141.785 414.773 142.28 414.529 142.914C414.285 143.541 414.16 144.262 414.153 145.077C414.166 146.331 414.456 147.345 415.02 148.118C415.591 148.884 416.438 149.267 417.559 149.267C418.298 149.267 418.911 149.1 419.398 148.766C419.886 148.424 420.255 147.933 420.506 147.292L422.387 147.784C421.997 148.835 421.387 149.64 420.558 150.197C419.729 150.755 418.73 151.033 417.559 151.033ZM427.626 151.033C426.783 151.033 426.076 150.88 425.505 150.574C424.94 150.26 424.512 149.849 424.219 149.341C423.934 148.832 423.791 148.275 423.791 147.669C423.791 147.076 423.902 146.564 424.125 146.132C424.355 145.694 424.676 145.331 425.087 145.046C425.498 144.753 425.989 144.523 426.56 144.356C427.097 144.21 427.696 144.084 428.358 143.98C429.026 143.868 429.702 143.767 430.385 143.677C431.068 143.586 431.705 143.499 432.297 143.415L431.628 143.802C431.649 142.799 431.447 142.057 431.022 141.576C430.604 141.096 429.88 140.855 428.849 140.855C428.166 140.855 427.567 141.012 427.051 141.325C426.543 141.632 426.184 142.134 425.975 142.83L424.209 142.297C424.481 141.308 425.007 140.531 425.787 139.967C426.567 139.403 427.595 139.12 428.87 139.12C429.894 139.12 430.771 139.305 431.503 139.674C432.241 140.037 432.771 140.587 433.091 141.325C433.252 141.674 433.353 142.053 433.394 142.464C433.436 142.869 433.457 143.294 433.457 143.739V150.72H431.806V148.013L432.193 148.264C431.768 149.177 431.172 149.867 430.406 150.333C429.646 150.8 428.72 151.033 427.626 151.033ZM427.908 149.476C428.577 149.476 429.155 149.358 429.643 149.121C430.138 148.877 430.535 148.56 430.834 148.17C431.134 147.773 431.329 147.341 431.419 146.874C431.524 146.526 431.58 146.139 431.587 145.714C431.601 145.282 431.607 144.952 431.607 144.722L432.255 145.004C431.649 145.087 431.054 145.168 430.468 145.244C429.883 145.321 429.329 145.404 428.807 145.495C428.284 145.579 427.814 145.68 427.396 145.798C427.09 145.896 426.8 146.021 426.529 146.174C426.264 146.327 426.048 146.526 425.881 146.77C425.721 147.007 425.641 147.303 425.641 147.658C425.641 147.965 425.717 148.257 425.87 148.536C426.031 148.815 426.274 149.041 426.602 149.215C426.936 149.389 427.372 149.476 427.908 149.476ZM436.174 150.72V139.434H437.836V142.161L437.564 141.806C437.696 141.458 437.867 141.137 438.076 140.845C438.292 140.552 438.532 140.312 438.797 140.124C439.09 139.887 439.421 139.706 439.79 139.58C440.159 139.455 440.535 139.382 440.918 139.361C441.302 139.333 441.66 139.357 441.995 139.434V141.179C441.605 141.075 441.176 141.047 440.709 141.096C440.243 141.144 439.811 141.315 439.414 141.608C439.051 141.865 438.769 142.179 438.567 142.548C438.372 142.917 438.236 143.318 438.16 143.75C438.083 144.175 438.045 144.61 438.045 145.056V150.72H436.174Z" fill="white"/>
<path d="M96.5137 131.73C96.5137 155.078 77.5866 174.005 54.2387 174.005C30.8909 174.005 11.9637 155.078 11.9637 131.73C11.9637 108.382 30.8909 89.455 54.2387 89.455C77.5866 89.455 96.5137 108.382 96.5137 131.73Z" fill="black" stroke="white" stroke-width="0.95"/>
<path fill-rule="evenodd" clip-rule="evenodd" d="M72.4996 132.001C72.4996 142.219 64.2176 150.501 53.9996 150.501C43.7816 150.501 35.4996 142.219 35.4996 132.001C35.4996 121.783 43.7816 113.501 53.9996 113.501C64.2176 113.501 72.4996 121.783 72.4996 132.001Z" stroke="white" stroke-width="3" stroke-linecap="round" stroke-linejoin="round"/>
<path d="M60.8628 137.886L53.3228 133.388V123.694" stroke="white" stroke-width="3" stroke-linecap="round" stroke-linejoin="round"/>
</svg>
