<svg width="185" height="110" viewBox="0 0 185 110" fill="none" xmlns="http://www.w3.org/2000/svg">
<mask id="path-1-outside-1_197_804" maskUnits="userSpaceOnUse" x="-0.400024" y="3.69995" width="183" height="105" fill="black">
<rect fill="white" x="-0.400024" y="3.69995" width="183" height="105"/>
<path d="M16.503 50.7V20.8401H28.5714C28.8617 20.8401 29.2211 20.8539 29.6496 20.8816C30.0782 20.8954 30.486 20.9369 30.8731 21.006C32.5319 21.2687 33.9143 21.8354 35.0203 22.7064C36.14 23.5773 36.9764 24.6763 37.5293 26.0034C38.0823 27.3305 38.3588 28.7958 38.3588 30.3994C38.3588 32.7771 37.7505 34.83 36.534 36.558C35.3175 38.2722 33.4927 39.3435 31.0597 39.7721L29.2971 39.9794H20.8368V50.7H16.503ZM33.9627 50.7L28.0737 38.5487L32.449 37.4289L38.9186 50.7H33.9627ZM20.8368 35.8737H28.4055C28.682 35.8737 28.9861 35.8599 29.3179 35.8322C29.6635 35.8046 29.9883 35.7562 30.2925 35.6871C31.1772 35.4797 31.8891 35.0996 32.4283 34.5466C32.9674 33.9798 33.3545 33.3301 33.5895 32.5974C33.8245 31.8648 33.942 31.1321 33.942 30.3994C33.942 29.6667 33.8245 28.941 33.5895 28.2221C33.3545 27.4895 32.9674 26.8466 32.4283 26.2937C31.8891 25.7269 31.1772 25.3398 30.2925 25.1325C29.9883 25.0495 29.6635 24.9942 29.3179 24.9666C28.9861 24.9389 28.682 24.9251 28.4055 24.9251H20.8368V35.8737ZM53.4086 51.322C51.1829 51.322 49.2268 50.8382 47.5403 49.8705C45.8676 48.889 44.5612 47.5273 43.6212 45.7855C42.695 44.0299 42.2319 41.9977 42.2319 39.6891C42.2319 37.2423 42.688 35.1203 43.6004 33.3232C44.5266 31.5261 45.8123 30.1368 47.4573 29.1552C49.1024 28.1737 51.017 27.683 53.2012 27.683C55.4822 27.683 57.4244 28.2152 59.028 29.2797C60.6316 30.3303 61.8274 31.8302 62.6153 33.7794C63.4171 35.7286 63.7351 38.0441 63.5692 40.7259H59.2354V39.15C59.2077 36.5511 58.7101 34.6295 57.7424 33.3854C56.7885 32.1412 55.3301 31.5191 53.3671 31.5191C51.1967 31.5191 49.5655 32.2034 48.4734 33.572C47.3813 34.9406 46.8352 36.9174 46.8352 39.5025C46.8352 41.9632 47.3813 43.8709 48.4734 45.2256C49.5655 46.5666 51.1414 47.237 53.2012 47.237C54.556 47.237 55.7241 46.9329 56.7056 46.3247C57.7009 45.7026 58.4751 44.8178 59.028 43.6704L63.2789 45.0183C62.408 47.0228 61.0878 48.578 59.3183 49.6839C57.5488 50.776 55.5789 51.322 53.4086 51.322ZM45.4252 40.7259V37.346H61.4127V40.7259H45.4252ZM77.449 61.2753C76.2463 61.2753 75.0782 61.0887 73.9447 60.7154C72.8249 60.3422 71.8019 59.7892 70.8757 59.0566C69.9495 58.3377 69.1823 57.4461 68.574 56.3816L72.5761 54.3495C73.0599 55.3033 73.7511 56.0015 74.6497 56.4438C75.5482 56.8862 76.4952 57.1074 77.4905 57.1074C78.7208 57.1074 79.7715 56.8862 80.6424 56.4438C81.5133 56.0153 82.1699 55.3656 82.6123 54.4946C83.0685 53.6237 83.2897 52.5455 83.2759 51.2598V44.9976H83.7943V28.3051H87.6304V51.3013C87.6304 51.8957 87.6097 52.4625 87.5682 53.0016C87.5267 53.5408 87.4507 54.0799 87.3401 54.6191C87.0222 56.1259 86.4139 57.37 85.5153 58.3515C84.6306 59.333 83.497 60.0657 82.1146 60.5496C80.7461 61.0334 79.1909 61.2753 77.449 61.2753ZM77.1173 51.322C75.0298 51.322 73.2258 50.8036 71.7052 49.7668C70.1983 48.73 69.0302 47.32 68.2008 45.5367C67.3852 43.7396 66.9774 41.7213 66.9774 39.4818C66.9774 37.2285 67.3921 35.2171 68.2215 33.4476C69.051 31.6643 70.226 30.2612 71.7466 29.2382C73.2811 28.2014 75.099 27.683 77.2002 27.683C79.3153 27.683 81.0917 28.2014 82.5294 29.2382C83.9809 30.2612 85.073 31.6643 85.8056 33.4476C86.5521 35.2309 86.9254 37.2423 86.9254 39.4818C86.9254 41.7213 86.5521 43.7327 85.8056 45.516C85.0591 47.2992 83.9601 48.7162 82.5086 49.7668C81.0571 50.8036 79.26 51.322 77.1173 51.322ZM77.7186 47.4029C79.1425 47.4029 80.3037 47.0642 81.2023 46.3869C82.1008 45.7095 82.7575 44.7764 83.1722 43.5875C83.5869 42.3986 83.7943 41.0301 83.7943 39.4818C83.7943 37.9335 83.58 36.5649 83.1514 35.376C82.7367 34.1872 82.087 33.261 81.2023 32.5974C80.3313 31.9339 79.2185 31.6021 77.8638 31.6021C76.4261 31.6021 75.2441 31.9546 74.3179 32.6596C73.3917 33.3647 72.7005 34.3116 72.2443 35.5005C71.8019 36.6893 71.5807 38.0164 71.5807 39.4818C71.5807 40.9609 71.8019 42.3019 72.2443 43.5046C72.7005 44.6934 73.3779 45.6404 74.2764 46.3454C75.1888 47.0504 76.3362 47.4029 77.7186 47.4029ZM101.893 51.3013C100.344 51.3013 99.0448 51.0525 97.9942 50.5548C96.9436 50.0571 96.0865 49.4074 95.4229 48.6056C94.7732 47.79 94.2755 46.9053 93.9299 45.9514C93.5843 44.9976 93.3493 44.0644 93.2249 43.152C93.1005 42.2397 93.0383 41.4379 93.0383 40.7467V28.3051H97.4343V39.3159C97.4343 40.1868 97.5034 41.0854 97.6417 42.0116C97.7937 42.924 98.0702 43.7741 98.4711 44.5621C98.8858 45.3501 99.4595 45.986 100.192 46.4698C100.939 46.9536 101.906 47.1956 103.095 47.1956C103.869 47.1956 104.602 47.0712 105.293 46.8223C105.984 46.5597 106.586 46.1449 107.097 45.5782C107.623 45.0114 108.03 44.2649 108.321 43.3387C108.625 42.4125 108.777 41.2858 108.777 39.9587L111.473 40.9748C111.473 43.0069 111.092 44.804 110.332 46.3661C109.572 47.9144 108.48 49.124 107.056 49.9949C105.632 50.8658 103.911 51.3013 101.893 51.3013ZM109.295 50.7V44.2303H108.777V28.3051H113.152V50.7H109.295ZM119.383 50.7V20.218H123.717V50.7H119.383ZM136.268 51.322C134.609 51.322 133.22 51.0179 132.1 50.4096C130.98 49.7876 130.13 48.972 129.55 47.9628C128.983 46.9398 128.699 45.8201 128.699 44.6036C128.699 43.47 128.9 42.4747 129.301 41.6176C129.702 40.7605 130.296 40.0347 131.084 39.4403C131.872 38.832 132.84 38.3413 133.987 37.968C134.982 37.6777 136.109 37.422 137.367 37.2008C138.625 36.9796 139.945 36.7723 141.328 36.5787C142.724 36.3852 144.106 36.1917 145.475 35.9981L143.899 36.869C143.926 35.1134 143.553 33.8139 142.779 32.9707C142.019 32.1136 140.705 31.685 138.839 31.685C137.664 31.685 136.586 31.9615 135.604 32.5145C134.623 33.0536 133.939 33.9522 133.552 35.2102L129.508 33.966C130.061 32.0445 131.112 30.5169 132.66 29.3833C134.222 28.2498 136.296 27.683 138.881 27.683C140.885 27.683 142.627 28.0286 144.106 28.7198C145.599 29.3972 146.691 30.4754 147.382 31.9546C147.742 32.6873 147.963 33.4614 148.046 34.277C148.129 35.0927 148.17 35.9705 148.17 36.9105V50.7H144.334V45.5782L145.081 46.2417C144.155 47.9559 142.973 49.2346 141.535 50.0779C140.111 50.9073 138.355 51.322 136.268 51.322ZM137.035 47.7762C138.266 47.7762 139.323 47.5619 140.208 47.1334C141.093 46.691 141.805 46.1311 142.344 45.4537C142.883 44.7764 143.235 44.0713 143.401 43.3387C143.636 42.6751 143.768 41.9286 143.795 41.0992C143.837 40.2697 143.857 39.6062 143.857 39.1085L145.267 39.6269C143.899 39.8343 142.655 40.0209 141.535 40.1868C140.415 40.3527 139.399 40.5186 138.487 40.6845C137.588 40.8365 136.786 41.0232 136.081 41.2443C135.487 41.4517 134.955 41.7005 134.485 41.9908C134.029 42.2811 133.662 42.6336 133.386 43.0484C133.123 43.4631 132.992 43.9677 132.992 44.5621C132.992 45.1427 133.137 45.6818 133.427 46.1795C133.717 46.6633 134.16 47.0504 134.754 47.3407C135.349 47.631 136.109 47.7762 137.035 47.7762ZM153.555 50.7V28.3051H157.412V33.7379L156.873 33.0329C157.149 32.314 157.509 31.6574 157.951 31.063C158.393 30.4547 158.905 29.957 159.486 29.57C160.052 29.1552 160.681 28.8373 161.372 28.6161C162.078 28.3811 162.796 28.2429 163.529 28.2014C164.262 28.1461 164.967 28.1807 165.644 28.3051V32.3693C164.911 32.1758 164.096 32.1205 163.197 32.2034C162.313 32.2864 161.497 32.5698 160.75 33.0536C160.045 33.5098 159.486 34.0628 159.071 34.7125C158.67 35.3622 158.38 36.088 158.2 36.8898C158.02 37.6777 157.93 38.5141 157.93 39.3988V50.7H153.555ZM16.503 91.7V61.8401H28.0322C28.3225 61.8401 28.6474 61.8539 29.0068 61.8816C29.3801 61.8954 29.7533 61.9369 30.1266 62.006C31.6887 62.241 33.0089 62.7871 34.0871 63.6441C35.1792 64.4874 36.0018 65.5519 36.5547 66.8375C37.1215 68.1231 37.4049 69.547 37.4049 71.1091C37.4049 73.3624 36.8105 75.3185 35.6216 76.9774C34.4327 78.6363 32.7324 79.68 30.5206 80.1085L29.463 80.3574H19.5512V91.7H16.503ZM34.5848 91.7L28.6958 79.5487L31.6196 78.4289L38.0892 91.7H34.5848ZM19.5512 77.4543H27.9493C28.1981 77.4543 28.4884 77.4405 28.8202 77.4128C29.152 77.3852 29.4768 77.3368 29.7948 77.2677C30.8178 77.0465 31.6541 76.6249 32.3038 76.0028C32.9674 75.3807 33.4582 74.6411 33.7761 73.784C34.1079 72.927 34.2738 72.0353 34.2738 71.1091C34.2738 70.1829 34.1079 69.2912 33.7761 68.4342C33.4582 67.5632 32.9674 66.8168 32.3038 66.1947C31.6541 65.5726 30.8178 65.151 29.7948 64.9298C29.4768 64.8607 29.152 64.8192 28.8202 64.8054C28.4884 64.7777 28.1981 64.7639 27.9493 64.7639H19.5512V77.4543ZM52.018 92.322C49.7923 92.322 47.8915 91.8175 46.3156 90.8083C44.7396 89.7992 43.53 88.4029 42.6868 86.6196C41.8435 84.8363 41.4219 82.7904 41.4219 80.4818C41.4219 78.1317 41.8504 76.0719 42.7075 74.3024C43.5646 72.533 44.7811 71.1575 46.357 70.176C47.9468 69.1807 49.8338 68.683 52.018 68.683C54.2574 68.683 56.1652 69.1876 57.7411 70.1967C59.3308 71.192 60.5404 72.5814 61.3699 74.3647C62.2132 76.1341 62.6348 78.1732 62.6348 80.4818C62.6348 82.8319 62.2132 84.8985 61.3699 86.6818C60.5266 88.4513 59.3101 89.8337 57.7204 90.829C56.1306 91.8244 54.2298 92.322 52.018 92.322ZM52.018 89.3983C54.5063 89.3983 56.3587 88.5757 57.5752 86.9307C58.7917 85.2718 59.4 83.1222 59.4 80.4818C59.4 77.7723 58.7848 75.6157 57.5545 74.0121C56.338 72.4086 54.4924 71.6068 52.018 71.6068C50.3452 71.6068 48.9628 71.9869 47.8708 72.7472C46.7925 73.4937 45.9838 74.5375 45.4446 75.8784C44.9193 77.2055 44.6567 78.74 44.6567 80.4818C44.6567 83.1775 45.2788 85.3409 46.5229 86.9721C47.7671 88.5896 49.5988 89.3983 52.018 89.3983ZM75.773 92.2598C74.4321 92.2598 73.257 92.0525 72.2479 91.6377C71.2525 91.223 70.4024 90.6632 69.6973 89.9581C69.0061 89.2531 68.4463 88.4513 68.0177 87.5528C67.5892 86.6404 67.2781 85.6796 67.0846 84.6704C66.8911 83.6475 66.7943 82.6314 66.7943 81.6223V69.3051H69.8632V80.7306C69.8632 81.9609 69.9807 83.1014 70.2157 84.152C70.4507 85.2027 70.824 86.122 71.3355 86.9099C71.8608 87.6841 72.5313 88.2854 73.3469 88.714C74.1763 89.1425 75.1786 89.3568 76.3536 89.3568C77.4319 89.3568 78.3788 89.1702 79.1944 88.7969C80.0239 88.4237 80.7151 87.8914 81.268 87.2002C81.8348 86.4952 82.2634 85.645 82.5537 84.6497C82.844 83.6406 82.9891 82.507 82.9891 81.249L85.1457 81.7259C85.1457 84.0207 84.7448 85.9492 83.943 87.5113C83.1412 89.0734 82.0353 90.2553 80.6252 91.0571C79.2152 91.8589 77.5978 92.2598 75.773 92.2598ZM83.3002 91.7V86.1842H82.9891V69.3051H86.0373V91.7H83.3002ZM104.026 91.7C102.768 91.9626 101.524 92.0663 100.293 92.011C99.0768 91.9557 97.9847 91.693 97.017 91.223C96.0632 90.753 95.3374 90.0203 94.8397 89.025C94.4388 88.1956 94.2177 87.3592 94.1762 86.516C94.1485 85.6589 94.1347 84.6843 94.1347 83.5922V63.0843H97.1622V83.4678C97.1622 84.4078 97.1691 85.1958 97.1829 85.8317C97.2106 86.4537 97.3557 87.0067 97.6184 87.4905C98.116 88.4168 98.904 88.9697 99.9823 89.1494C101.074 89.3291 102.422 89.2877 104.026 89.025V91.7ZM89.3447 71.9178V69.3051H104.026V71.9178H89.3447ZM108.853 65.0542V61.6328H111.901V65.0542H108.853ZM108.853 91.7V69.3051H111.901V91.7H108.853ZM134.292 91.7V80.2744C134.292 79.0303 134.174 77.8898 133.939 76.853C133.704 75.8024 133.324 74.89 132.799 74.1158C132.287 73.3279 131.617 72.7196 130.787 72.2911C129.972 71.8625 128.976 71.6482 127.801 71.6482C126.723 71.6482 125.769 71.8349 124.94 72.2081C124.124 72.5814 123.433 73.1205 122.866 73.8255C122.313 74.5167 121.891 75.36 121.601 76.3553C121.311 77.3506 121.166 78.4842 121.166 79.756L119.009 79.2791C119.009 76.9843 119.41 75.0559 120.212 73.4937C121.014 71.9316 122.12 70.7497 123.53 69.9479C124.94 69.1461 126.557 68.7452 128.382 68.7452C129.723 68.7452 130.891 68.9526 131.886 69.3673C132.895 69.782 133.746 70.3419 134.437 71.0469C135.142 71.7519 135.709 72.5606 136.137 73.473C136.566 74.3716 136.877 75.3323 137.07 76.3553C137.264 77.3645 137.361 78.3736 137.361 79.3828V91.7H134.292ZM118.097 91.7V69.3051H120.855V74.8208H121.166V91.7H118.097ZM152.096 92.322C149.912 92.322 148.018 91.8382 146.415 90.8705C144.825 89.9028 143.588 88.5412 142.703 86.7855C141.818 85.0299 141.376 82.9701 141.376 80.6062C141.376 78.1593 141.811 76.0443 142.682 74.261C143.553 72.4777 144.777 71.1022 146.352 70.1345C147.942 69.1668 149.815 68.683 151.972 68.683C154.184 68.683 156.071 69.1945 157.633 70.2175C159.195 71.2266 160.377 72.6781 161.179 74.572C161.981 76.4659 162.347 78.7261 162.278 81.3527H159.167V80.2744C159.112 77.3714 158.483 75.1803 157.28 73.7011C156.092 72.2219 154.35 71.4824 152.055 71.4824C149.65 71.4824 147.804 72.2634 146.518 73.8255C145.247 75.3876 144.611 77.6133 144.611 80.5025C144.611 83.3226 145.247 85.5137 146.518 87.0758C147.804 88.6241 149.622 89.3983 151.972 89.3983C153.576 89.3983 154.972 89.0319 156.161 88.2992C157.363 87.5528 158.31 86.4814 159.001 85.0852L161.842 86.1842C160.958 88.1334 159.651 89.6471 157.923 90.7254C156.209 91.7898 154.267 92.322 152.096 92.322ZM143.532 81.3527V78.8022H160.64V81.3527H143.532Z"/>
</mask>
<path d="M16.503 50.7V20.8401H28.5714C28.8617 20.8401 29.2211 20.8539 29.6496 20.8816C30.0782 20.8954 30.486 20.9369 30.8731 21.006C32.5319 21.2687 33.9143 21.8354 35.0203 22.7064C36.14 23.5773 36.9764 24.6763 37.5293 26.0034C38.0823 27.3305 38.3588 28.7958 38.3588 30.3994C38.3588 32.7771 37.7505 34.83 36.534 36.558C35.3175 38.2722 33.4927 39.3435 31.0597 39.7721L29.2971 39.9794H20.8368V50.7H16.503ZM33.9627 50.7L28.0737 38.5487L32.449 37.4289L38.9186 50.7H33.9627ZM20.8368 35.8737H28.4055C28.682 35.8737 28.9861 35.8599 29.3179 35.8322C29.6635 35.8046 29.9883 35.7562 30.2925 35.6871C31.1772 35.4797 31.8891 35.0996 32.4283 34.5466C32.9674 33.9798 33.3545 33.3301 33.5895 32.5974C33.8245 31.8648 33.942 31.1321 33.942 30.3994C33.942 29.6667 33.8245 28.941 33.5895 28.2221C33.3545 27.4895 32.9674 26.8466 32.4283 26.2937C31.8891 25.7269 31.1772 25.3398 30.2925 25.1325C29.9883 25.0495 29.6635 24.9942 29.3179 24.9666C28.9861 24.9389 28.682 24.9251 28.4055 24.9251H20.8368V35.8737ZM53.4086 51.322C51.1829 51.322 49.2268 50.8382 47.5403 49.8705C45.8676 48.889 44.5612 47.5273 43.6212 45.7855C42.695 44.0299 42.2319 41.9977 42.2319 39.6891C42.2319 37.2423 42.688 35.1203 43.6004 33.3232C44.5266 31.5261 45.8123 30.1368 47.4573 29.1552C49.1024 28.1737 51.017 27.683 53.2012 27.683C55.4822 27.683 57.4244 28.2152 59.028 29.2797C60.6316 30.3303 61.8274 31.8302 62.6153 33.7794C63.4171 35.7286 63.7351 38.0441 63.5692 40.7259H59.2354V39.15C59.2077 36.5511 58.7101 34.6295 57.7424 33.3854C56.7885 32.1412 55.3301 31.5191 53.3671 31.5191C51.1967 31.5191 49.5655 32.2034 48.4734 33.572C47.3813 34.9406 46.8352 36.9174 46.8352 39.5025C46.8352 41.9632 47.3813 43.8709 48.4734 45.2256C49.5655 46.5666 51.1414 47.237 53.2012 47.237C54.556 47.237 55.7241 46.9329 56.7056 46.3247C57.7009 45.7026 58.4751 44.8178 59.028 43.6704L63.2789 45.0183C62.408 47.0228 61.0878 48.578 59.3183 49.6839C57.5488 50.776 55.5789 51.322 53.4086 51.322ZM45.4252 40.7259V37.346H61.4127V40.7259H45.4252ZM77.449 61.2753C76.2463 61.2753 75.0782 61.0887 73.9447 60.7154C72.8249 60.3422 71.8019 59.7892 70.8757 59.0566C69.9495 58.3377 69.1823 57.4461 68.574 56.3816L72.5761 54.3495C73.0599 55.3033 73.7511 56.0015 74.6497 56.4438C75.5482 56.8862 76.4952 57.1074 77.4905 57.1074C78.7208 57.1074 79.7715 56.8862 80.6424 56.4438C81.5133 56.0153 82.1699 55.3656 82.6123 54.4946C83.0685 53.6237 83.2897 52.5455 83.2759 51.2598V44.9976H83.7943V28.3051H87.6304V51.3013C87.6304 51.8957 87.6097 52.4625 87.5682 53.0016C87.5267 53.5408 87.4507 54.0799 87.3401 54.6191C87.0222 56.1259 86.4139 57.37 85.5153 58.3515C84.6306 59.333 83.497 60.0657 82.1146 60.5496C80.7461 61.0334 79.1909 61.2753 77.449 61.2753ZM77.1173 51.322C75.0298 51.322 73.2258 50.8036 71.7052 49.7668C70.1983 48.73 69.0302 47.32 68.2008 45.5367C67.3852 43.7396 66.9774 41.7213 66.9774 39.4818C66.9774 37.2285 67.3921 35.2171 68.2215 33.4476C69.051 31.6643 70.226 30.2612 71.7466 29.2382C73.2811 28.2014 75.099 27.683 77.2002 27.683C79.3153 27.683 81.0917 28.2014 82.5294 29.2382C83.9809 30.2612 85.073 31.6643 85.8056 33.4476C86.5521 35.2309 86.9254 37.2423 86.9254 39.4818C86.9254 41.7213 86.5521 43.7327 85.8056 45.516C85.0591 47.2992 83.9601 48.7162 82.5086 49.7668C81.0571 50.8036 79.26 51.322 77.1173 51.322ZM77.7186 47.4029C79.1425 47.4029 80.3037 47.0642 81.2023 46.3869C82.1008 45.7095 82.7575 44.7764 83.1722 43.5875C83.5869 42.3986 83.7943 41.0301 83.7943 39.4818C83.7943 37.9335 83.58 36.5649 83.1514 35.376C82.7367 34.1872 82.087 33.261 81.2023 32.5974C80.3313 31.9339 79.2185 31.6021 77.8638 31.6021C76.4261 31.6021 75.2441 31.9546 74.3179 32.6596C73.3917 33.3647 72.7005 34.3116 72.2443 35.5005C71.8019 36.6893 71.5807 38.0164 71.5807 39.4818C71.5807 40.9609 71.8019 42.3019 72.2443 43.5046C72.7005 44.6934 73.3779 45.6404 74.2764 46.3454C75.1888 47.0504 76.3362 47.4029 77.7186 47.4029ZM101.893 51.3013C100.344 51.3013 99.0448 51.0525 97.9942 50.5548C96.9436 50.0571 96.0865 49.4074 95.4229 48.6056C94.7732 47.79 94.2755 46.9053 93.9299 45.9514C93.5843 44.9976 93.3493 44.0644 93.2249 43.152C93.1005 42.2397 93.0383 41.4379 93.0383 40.7467V28.3051H97.4343V39.3159C97.4343 40.1868 97.5034 41.0854 97.6417 42.0116C97.7937 42.924 98.0702 43.7741 98.4711 44.5621C98.8858 45.3501 99.4595 45.986 100.192 46.4698C100.939 46.9536 101.906 47.1956 103.095 47.1956C103.869 47.1956 104.602 47.0712 105.293 46.8223C105.984 46.5597 106.586 46.1449 107.097 45.5782C107.623 45.0114 108.03 44.2649 108.321 43.3387C108.625 42.4125 108.777 41.2858 108.777 39.9587L111.473 40.9748C111.473 43.0069 111.092 44.804 110.332 46.3661C109.572 47.9144 108.48 49.124 107.056 49.9949C105.632 50.8658 103.911 51.3013 101.893 51.3013ZM109.295 50.7V44.2303H108.777V28.3051H113.152V50.7H109.295ZM119.383 50.7V20.218H123.717V50.7H119.383ZM136.268 51.322C134.609 51.322 133.22 51.0179 132.1 50.4096C130.98 49.7876 130.13 48.972 129.55 47.9628C128.983 46.9398 128.699 45.8201 128.699 44.6036C128.699 43.47 128.9 42.4747 129.301 41.6176C129.702 40.7605 130.296 40.0347 131.084 39.4403C131.872 38.832 132.84 38.3413 133.987 37.968C134.982 37.6777 136.109 37.422 137.367 37.2008C138.625 36.9796 139.945 36.7723 141.328 36.5787C142.724 36.3852 144.106 36.1917 145.475 35.9981L143.899 36.869C143.926 35.1134 143.553 33.8139 142.779 32.9707C142.019 32.1136 140.705 31.685 138.839 31.685C137.664 31.685 136.586 31.9615 135.604 32.5145C134.623 33.0536 133.939 33.9522 133.552 35.2102L129.508 33.966C130.061 32.0445 131.112 30.5169 132.66 29.3833C134.222 28.2498 136.296 27.683 138.881 27.683C140.885 27.683 142.627 28.0286 144.106 28.7198C145.599 29.3972 146.691 30.4754 147.382 31.9546C147.742 32.6873 147.963 33.4614 148.046 34.277C148.129 35.0927 148.17 35.9705 148.17 36.9105V50.7H144.334V45.5782L145.081 46.2417C144.155 47.9559 142.973 49.2346 141.535 50.0779C140.111 50.9073 138.355 51.322 136.268 51.322ZM137.035 47.7762C138.266 47.7762 139.323 47.5619 140.208 47.1334C141.093 46.691 141.805 46.1311 142.344 45.4537C142.883 44.7764 143.235 44.0713 143.401 43.3387C143.636 42.6751 143.768 41.9286 143.795 41.0992C143.837 40.2697 143.857 39.6062 143.857 39.1085L145.267 39.6269C143.899 39.8343 142.655 40.0209 141.535 40.1868C140.415 40.3527 139.399 40.5186 138.487 40.6845C137.588 40.8365 136.786 41.0232 136.081 41.2443C135.487 41.4517 134.955 41.7005 134.485 41.9908C134.029 42.2811 133.662 42.6336 133.386 43.0484C133.123 43.4631 132.992 43.9677 132.992 44.5621C132.992 45.1427 133.137 45.6818 133.427 46.1795C133.717 46.6633 134.16 47.0504 134.754 47.3407C135.349 47.631 136.109 47.7762 137.035 47.7762ZM153.555 50.7V28.3051H157.412V33.7379L156.873 33.0329C157.149 32.314 157.509 31.6574 157.951 31.063C158.393 30.4547 158.905 29.957 159.486 29.57C160.052 29.1552 160.681 28.8373 161.372 28.6161C162.078 28.3811 162.796 28.2429 163.529 28.2014C164.262 28.1461 164.967 28.1807 165.644 28.3051V32.3693C164.911 32.1758 164.096 32.1205 163.197 32.2034C162.313 32.2864 161.497 32.5698 160.75 33.0536C160.045 33.5098 159.486 34.0628 159.071 34.7125C158.67 35.3622 158.38 36.088 158.2 36.8898C158.02 37.6777 157.93 38.5141 157.93 39.3988V50.7H153.555ZM16.503 91.7V61.8401H28.0322C28.3225 61.8401 28.6474 61.8539 29.0068 61.8816C29.3801 61.8954 29.7533 61.9369 30.1266 62.006C31.6887 62.241 33.0089 62.7871 34.0871 63.6441C35.1792 64.4874 36.0018 65.5519 36.5547 66.8375C37.1215 68.1231 37.4049 69.547 37.4049 71.1091C37.4049 73.3624 36.8105 75.3185 35.6216 76.9774C34.4327 78.6363 32.7324 79.68 30.5206 80.1085L29.463 80.3574H19.5512V91.7H16.503ZM34.5848 91.7L28.6958 79.5487L31.6196 78.4289L38.0892 91.7H34.5848ZM19.5512 77.4543H27.9493C28.1981 77.4543 28.4884 77.4405 28.8202 77.4128C29.152 77.3852 29.4768 77.3368 29.7948 77.2677C30.8178 77.0465 31.6541 76.6249 32.3038 76.0028C32.9674 75.3807 33.4582 74.6411 33.7761 73.784C34.1079 72.927 34.2738 72.0353 34.2738 71.1091C34.2738 70.1829 34.1079 69.2912 33.7761 68.4342C33.4582 67.5632 32.9674 66.8168 32.3038 66.1947C31.6541 65.5726 30.8178 65.151 29.7948 64.9298C29.4768 64.8607 29.152 64.8192 28.8202 64.8054C28.4884 64.7777 28.1981 64.7639 27.9493 64.7639H19.5512V77.4543ZM52.018 92.322C49.7923 92.322 47.8915 91.8175 46.3156 90.8083C44.7396 89.7992 43.53 88.4029 42.6868 86.6196C41.8435 84.8363 41.4219 82.7904 41.4219 80.4818C41.4219 78.1317 41.8504 76.0719 42.7075 74.3024C43.5646 72.533 44.7811 71.1575 46.357 70.176C47.9468 69.1807 49.8338 68.683 52.018 68.683C54.2574 68.683 56.1652 69.1876 57.7411 70.1967C59.3308 71.192 60.5404 72.5814 61.3699 74.3647C62.2132 76.1341 62.6348 78.1732 62.6348 80.4818C62.6348 82.8319 62.2132 84.8985 61.3699 86.6818C60.5266 88.4513 59.3101 89.8337 57.7204 90.829C56.1306 91.8244 54.2298 92.322 52.018 92.322ZM52.018 89.3983C54.5063 89.3983 56.3587 88.5757 57.5752 86.9307C58.7917 85.2718 59.4 83.1222 59.4 80.4818C59.4 77.7723 58.7848 75.6157 57.5545 74.0121C56.338 72.4086 54.4924 71.6068 52.018 71.6068C50.3452 71.6068 48.9628 71.9869 47.8708 72.7472C46.7925 73.4937 45.9838 74.5375 45.4446 75.8784C44.9193 77.2055 44.6567 78.74 44.6567 80.4818C44.6567 83.1775 45.2788 85.3409 46.5229 86.9721C47.7671 88.5896 49.5988 89.3983 52.018 89.3983ZM75.773 92.2598C74.4321 92.2598 73.257 92.0525 72.2479 91.6377C71.2525 91.223 70.4024 90.6632 69.6973 89.9581C69.0061 89.2531 68.4463 88.4513 68.0177 87.5528C67.5892 86.6404 67.2781 85.6796 67.0846 84.6704C66.8911 83.6475 66.7943 82.6314 66.7943 81.6223V69.3051H69.8632V80.7306C69.8632 81.9609 69.9807 83.1014 70.2157 84.152C70.4507 85.2027 70.824 86.122 71.3355 86.9099C71.8608 87.6841 72.5313 88.2854 73.3469 88.714C74.1763 89.1425 75.1786 89.3568 76.3536 89.3568C77.4319 89.3568 78.3788 89.1702 79.1944 88.7969C80.0239 88.4237 80.7151 87.8914 81.268 87.2002C81.8348 86.4952 82.2634 85.645 82.5537 84.6497C82.844 83.6406 82.9891 82.507 82.9891 81.249L85.1457 81.7259C85.1457 84.0207 84.7448 85.9492 83.943 87.5113C83.1412 89.0734 82.0353 90.2553 80.6252 91.0571C79.2152 91.8589 77.5978 92.2598 75.773 92.2598ZM83.3002 91.7V86.1842H82.9891V69.3051H86.0373V91.7H83.3002ZM104.026 91.7C102.768 91.9626 101.524 92.0663 100.293 92.011C99.0768 91.9557 97.9847 91.693 97.017 91.223C96.0632 90.753 95.3374 90.0203 94.8397 89.025C94.4388 88.1956 94.2177 87.3592 94.1762 86.516C94.1485 85.6589 94.1347 84.6843 94.1347 83.5922V63.0843H97.1622V83.4678C97.1622 84.4078 97.1691 85.1958 97.1829 85.8317C97.2106 86.4537 97.3557 87.0067 97.6184 87.4905C98.116 88.4168 98.904 88.9697 99.9823 89.1494C101.074 89.3291 102.422 89.2877 104.026 89.025V91.7ZM89.3447 71.9178V69.3051H104.026V71.9178H89.3447ZM108.853 65.0542V61.6328H111.901V65.0542H108.853ZM108.853 91.7V69.3051H111.901V91.7H108.853ZM134.292 91.7V80.2744C134.292 79.0303 134.174 77.8898 133.939 76.853C133.704 75.8024 133.324 74.89 132.799 74.1158C132.287 73.3279 131.617 72.7196 130.787 72.2911C129.972 71.8625 128.976 71.6482 127.801 71.6482C126.723 71.6482 125.769 71.8349 124.94 72.2081C124.124 72.5814 123.433 73.1205 122.866 73.8255C122.313 74.5167 121.891 75.36 121.601 76.3553C121.311 77.3506 121.166 78.4842 121.166 79.756L119.009 79.2791C119.009 76.9843 119.41 75.0559 120.212 73.4937C121.014 71.9316 122.12 70.7497 123.53 69.9479C124.94 69.1461 126.557 68.7452 128.382 68.7452C129.723 68.7452 130.891 68.9526 131.886 69.3673C132.895 69.782 133.746 70.3419 134.437 71.0469C135.142 71.7519 135.709 72.5606 136.137 73.473C136.566 74.3716 136.877 75.3323 137.07 76.3553C137.264 77.3645 137.361 78.3736 137.361 79.3828V91.7H134.292ZM118.097 91.7V69.3051H120.855V74.8208H121.166V91.7H118.097ZM152.096 92.322C149.912 92.322 148.018 91.8382 146.415 90.8705C144.825 89.9028 143.588 88.5412 142.703 86.7855C141.818 85.0299 141.376 82.9701 141.376 80.6062C141.376 78.1593 141.811 76.0443 142.682 74.261C143.553 72.4777 144.777 71.1022 146.352 70.1345C147.942 69.1668 149.815 68.683 151.972 68.683C154.184 68.683 156.071 69.1945 157.633 70.2175C159.195 71.2266 160.377 72.6781 161.179 74.572C161.981 76.4659 162.347 78.7261 162.278 81.3527H159.167V80.2744C159.112 77.3714 158.483 75.1803 157.28 73.7011C156.092 72.2219 154.35 71.4824 152.055 71.4824C149.65 71.4824 147.804 72.2634 146.518 73.8255C145.247 75.3876 144.611 77.6133 144.611 80.5025C144.611 83.3226 145.247 85.5137 146.518 87.0758C147.804 88.6241 149.622 89.3983 151.972 89.3983C153.576 89.3983 154.972 89.0319 156.161 88.2992C157.363 87.5528 158.31 86.4814 159.001 85.0852L161.842 86.1842C160.958 88.1334 159.651 89.6471 157.923 90.7254C156.209 91.7898 154.267 92.322 152.096 92.322ZM143.532 81.3527V78.8022H160.64V81.3527H143.532Z" fill="black"/>
<path d="M16.503 50.7H0.503016C0.503016 59.5365 7.66646 66.7 16.503 66.7L16.503 50.7ZM16.503 20.8401V4.84011C7.66646 4.84011 0.503016 12.0036 0.503016 20.8401L16.503 20.8401ZM29.6496 20.8816L28.6195 36.8484C28.7908 36.8594 28.9622 36.8677 29.1338 36.8733L29.6496 20.8816ZM30.8731 21.006L28.0604 36.7568C28.1637 36.7753 28.2672 36.7927 28.3709 36.8091L30.8731 21.006ZM35.0203 22.7064L25.1212 35.2765C25.1465 35.2964 25.1718 35.3162 25.1972 35.336L35.0203 22.7064ZM37.5293 26.0034L52.2986 19.8495L52.2986 19.8495L37.5293 26.0034ZM36.534 36.558L49.5821 45.818C49.5938 45.8015 49.6054 45.785 49.6171 45.7685L36.534 36.558ZM31.0597 39.7721L32.9291 55.6625C33.2324 55.6268 33.5345 55.5825 33.8351 55.5295L31.0597 39.7721ZM29.2971 39.9794V55.9794C29.9219 55.9794 30.5461 55.9428 31.1666 55.8698L29.2971 39.9794ZM20.8368 39.9794V23.9794C12.0003 23.9794 4.83684 31.1429 4.83684 39.9794H20.8368ZM20.8368 50.7V66.7C29.6734 66.7 36.8368 59.5365 36.8368 50.7H20.8368ZM33.9627 50.7L19.5645 57.6779C22.2387 63.1957 27.8311 66.7 33.9627 66.7V50.7ZM28.0737 38.5487L24.1068 23.0482C19.4539 24.239 15.582 27.457 13.5603 31.8136C11.5386 36.1702 11.5809 41.2046 13.6755 45.5266L28.0737 38.5487ZM32.449 37.4289L46.831 30.4177C43.5038 23.5926 35.8379 20.0459 28.4821 21.9285L32.449 37.4289ZM38.9186 50.7V66.7C44.4353 66.7 49.5628 63.858 52.4866 59.1799C55.4104 54.5018 55.7181 48.6475 53.3007 43.6887L38.9186 50.7ZM20.8368 35.8737H4.83684C4.83684 44.7103 12.0003 51.8737 20.8368 51.8737L20.8368 35.8737ZM29.3179 35.8322L28.0419 19.8832C28.0243 19.8846 28.0067 19.886 27.9892 19.8875L29.3179 35.8322ZM30.2925 35.6871L33.8384 51.2892C33.8735 51.2812 33.9085 51.2732 33.9435 51.2649L30.2925 35.6871ZM32.4283 34.5466L43.8843 45.7162C43.9302 45.6691 43.9758 45.6217 44.0212 45.574L32.4283 34.5466ZM33.5895 32.5974L48.8249 37.4843L48.8249 37.4843L33.5895 32.5974ZM33.5895 28.2221L18.354 33.109C18.3631 33.1373 18.3723 33.1656 18.3816 33.1939L33.5895 28.2221ZM32.4283 26.2937L20.8353 37.3211C20.8807 37.3688 20.9263 37.4162 20.9723 37.4633L32.4283 26.2937ZM30.2925 25.1325L26.0826 40.5687C26.268 40.6192 26.4543 40.6665 26.6414 40.7103L30.2925 25.1325ZM29.3179 24.9666L27.9892 40.9113C28.0068 40.9128 28.0244 40.9142 28.042 40.9156L29.3179 24.9666ZM20.8368 24.9251V8.9251C12.0003 8.9251 4.83684 16.0885 4.83684 24.9251L20.8368 24.9251ZM32.503 50.7V20.8401H0.503016V50.7H32.503ZM16.503 36.8401H28.5714V4.84011H16.503V36.8401ZM28.5714 36.8401C28.5181 36.8401 28.4808 36.8395 28.4617 36.8391C28.4423 36.8387 28.4359 36.8384 28.4437 36.8387C28.4514 36.839 28.47 36.8397 28.5003 36.8413C28.5304 36.8429 28.57 36.8452 28.6195 36.8484L30.6797 4.91478C30.0538 4.87439 29.3254 4.84011 28.5714 4.84011V36.8401ZM29.1338 36.8733C28.8603 36.8644 28.4966 36.8347 28.0604 36.7568L33.6857 5.25516C32.4753 5.03902 31.2961 4.92637 30.1655 4.8899L29.1338 36.8733ZM28.3709 36.8091C27.8502 36.7267 26.5441 36.397 25.1212 35.2765L44.9193 10.1362C41.2846 7.27383 37.2137 5.81062 33.3752 5.20286L28.3709 36.8091ZM25.1972 35.336C24.1064 34.4875 23.2543 33.3434 22.7601 32.1572L52.2986 19.8495C50.6984 16.0092 48.1737 12.667 44.8433 10.0767L25.1972 35.336ZM22.7601 32.1572C22.4118 31.3213 22.3588 30.6644 22.3588 30.3994H54.3588C54.3588 26.9272 53.7528 23.3397 52.2986 19.8495L22.7601 32.1572ZM22.3588 30.3994C22.3588 30.2173 22.3834 29.7789 22.5618 29.1769C22.7451 28.5583 23.0448 27.9244 23.4509 27.3475L49.6171 45.7685C52.9649 41.0131 54.3588 35.645 54.3588 30.3994H22.3588ZM23.4859 27.298C24.1963 26.297 25.1266 25.4516 26.1521 24.8495C27.1342 24.2729 27.9317 24.0767 28.2842 24.0146L33.8351 55.5295C39.6323 54.5084 45.5057 51.5619 49.5821 45.818L23.4859 27.298ZM29.1902 23.8817L27.4277 24.089L31.1666 55.8698L32.9291 55.6625L29.1902 23.8817ZM29.2971 23.9794H20.8368V55.9794H29.2971V23.9794ZM4.83684 39.9794V50.7H36.8368V39.9794H4.83684ZM20.8368 34.7H16.503V66.7H20.8368V34.7ZM48.3609 43.722L42.4719 31.5707L13.6755 45.5266L19.5645 57.6779L48.3609 43.722ZM32.0406 54.0491L36.4159 52.9293L28.4821 21.9285L24.1068 23.0482L32.0406 54.0491ZM18.067 44.4401L24.5366 57.7112L53.3007 43.6887L46.831 30.4177L18.067 44.4401ZM38.9186 34.7H33.9627V66.7H38.9186V34.7ZM20.8368 51.8737H28.4055V19.8737H20.8368V51.8737ZM28.4055 51.8737C29.2039 51.8737 29.9586 51.8343 30.6466 51.777L27.9892 19.8875C28.0136 19.8855 28.16 19.8737 28.4055 19.8737V51.8737ZM30.5938 51.7813C31.6202 51.6992 32.7096 51.5457 33.8384 51.2892L26.7465 20.085C27.267 19.9667 27.7068 19.91 28.0419 19.8832L30.5938 51.7813ZM33.9435 51.2649C37.2638 50.4868 40.8643 48.8136 43.8843 45.7162L20.9723 23.377C22.914 21.3855 25.0906 20.4727 26.6414 20.1092L33.9435 51.2649ZM44.0212 45.574C46.1929 43.2909 47.8412 40.5512 48.8249 37.4843L18.354 27.7106C18.8678 26.109 19.7419 24.6687 20.8353 23.5192L44.0212 45.574ZM48.8249 37.4843C49.541 35.2518 49.942 32.8725 49.942 30.3994H17.942C17.942 29.3917 18.108 28.4777 18.354 27.7106L48.8249 37.4843ZM49.942 30.3994C49.942 27.9239 49.5401 25.5219 48.7974 23.2503L18.3816 33.1939C18.1089 32.36 17.942 31.4096 17.942 30.3994H49.942ZM48.8249 23.3353C47.8305 20.235 46.1459 17.4437 43.8843 15.1241L20.9723 37.4633C19.7889 36.2496 18.8785 34.7439 18.354 33.109L48.8249 23.3353ZM44.0212 15.2663C41.0047 12.0951 37.3603 10.3554 33.9435 9.5546L26.6414 40.7103C24.9941 40.3242 22.7736 39.3587 20.8353 37.3211L44.0212 15.2663ZM34.5024 9.69625C33.1486 9.32704 31.834 9.11675 30.5938 9.01753L28.042 40.9156C27.4929 40.8717 26.828 40.772 26.0826 40.5687L34.5024 9.69625ZM30.6466 9.02184C29.9586 8.96451 29.2039 8.9251 28.4055 8.9251V40.9251C28.16 40.9251 28.0136 40.9133 27.9892 40.9113L30.6466 9.02184ZM28.4055 8.9251H20.8368V40.9251H28.4055V8.9251ZM4.83684 24.9251V35.8737H36.8368V24.9251H4.83684ZM47.5403 49.8705L39.4429 63.6702C39.4877 63.6965 39.5325 63.7226 39.5776 63.7484L47.5403 49.8705ZM43.6212 45.7855L29.4697 53.2512C29.4932 53.2957 29.5169 53.3402 29.5408 53.3844L43.6212 45.7855ZM43.6004 33.3232L29.3782 25.9933C29.3633 26.0222 29.3485 26.0511 29.3338 26.0801L43.6004 33.3232ZM47.4573 29.1552L39.2594 15.415L39.2594 15.415L47.4573 29.1552ZM59.028 29.2797L50.1793 42.6101C50.206 42.6278 50.2328 42.6455 50.2596 42.663L59.028 29.2797ZM62.6153 33.7794L47.7816 39.776C47.7937 39.8061 47.806 39.8361 47.8183 39.8661L62.6153 33.7794ZM63.5692 40.7259V56.7259C72.0222 56.7259 79.0168 50.1506 79.5387 41.7137L63.5692 40.7259ZM59.2354 40.7259H43.2354C43.2354 49.5625 50.3988 56.7259 59.2354 56.7259V40.7259ZM59.2354 39.15H75.2354C75.2354 39.0933 75.2351 39.0365 75.2345 38.9798L59.2354 39.15ZM57.7424 33.3854L45.0447 43.1203C45.0673 43.1498 45.09 43.1791 45.1128 43.2084L57.7424 33.3854ZM48.4734 33.572L60.9796 43.5517L60.9796 43.5517L48.4734 33.572ZM48.4734 45.2256L36.0168 55.2672C36.0336 55.288 36.0504 55.3088 36.0673 55.3296L48.4734 45.2256ZM56.7056 46.3247L65.1338 59.9248C65.1511 59.9141 65.1684 59.9034 65.1856 59.8926L56.7056 46.3247ZM59.028 43.6704L63.8639 28.4188C56.2747 26.0124 48.0709 29.5521 44.6145 36.7242L59.028 43.6704ZM63.2789 45.0183L77.9536 51.3942C79.7585 47.2401 79.7182 42.5156 77.8427 38.3929C75.9672 34.2702 72.4322 31.1355 68.1148 29.7666L63.2789 45.0183ZM59.3183 49.6839L67.7217 63.2995C67.7473 63.2837 67.7728 63.2678 67.7983 63.2519L59.3183 49.6839ZM45.4252 40.7259H29.4252C29.4252 49.5625 36.5886 56.7259 45.4252 56.7259V40.7259ZM45.4252 37.346V21.346C36.5886 21.346 29.4252 28.5094 29.4252 37.346H45.4252ZM61.4127 37.346H77.4127C77.4127 28.5094 70.2492 21.346 61.4127 21.346V37.346ZM61.4127 40.7259V56.7259C70.2492 56.7259 77.4127 49.5625 77.4127 40.7259H61.4127ZM53.4086 35.322C53.4573 35.322 53.7121 35.3278 54.1141 35.4272C54.5271 35.5294 55.0099 35.7097 55.503 35.9926L39.5776 63.7484C44.02 66.2973 48.799 67.322 53.4086 67.322V35.322ZM55.6376 36.0708C56.035 36.3039 56.458 36.6259 56.8517 37.0363C57.2439 37.4451 57.5207 37.8515 57.7015 38.1866L29.5408 53.3844C31.8405 57.6457 35.1923 61.1761 39.4429 63.6702L55.6376 36.0708ZM57.7726 38.3198C57.9927 38.737 58.1161 39.1126 58.1792 39.3896C58.2402 39.6571 58.2319 39.7737 58.2319 39.6891H26.2319C26.2319 44.174 27.1453 48.8453 29.4697 53.2512L57.7726 38.3198ZM58.2319 39.6891C58.2319 39.2275 58.3128 39.6885 57.8671 40.5663L29.3338 26.0801C27.0633 30.5521 26.2319 35.2571 26.2319 39.6891H58.2319ZM57.8227 40.6531C57.6681 40.953 57.4067 41.3638 57.0027 41.8004C56.5945 42.2415 56.1298 42.6123 55.6553 42.8955L39.2594 15.415C34.9018 18.0149 31.5947 21.6925 29.3782 25.9933L57.8227 40.6531ZM55.6553 42.8955C55.1194 43.2152 54.5803 43.4269 54.0997 43.55C53.6312 43.6701 53.3103 43.683 53.2012 43.683V11.683C48.5432 11.683 43.7151 12.7566 39.2594 15.415L55.6553 42.8955ZM53.2012 43.683C53.0988 43.683 52.7151 43.6708 52.1402 43.5133C51.5459 43.3505 50.8608 43.0624 50.1793 42.6101L67.8767 15.9492C63.1962 12.8423 58.0367 11.683 53.2012 11.683V43.683ZM50.2596 42.663C49.6401 42.2571 49.0769 41.7437 48.6168 41.1666C48.1651 40.6 47.911 40.0961 47.7816 39.776L77.4491 27.7827C75.5629 23.1168 72.3907 18.9063 67.7964 15.8963L50.2596 42.663ZM47.8183 39.8661C47.6511 39.4595 47.6095 39.1955 47.6039 39.1545C47.5994 39.1221 47.6268 39.3 47.5997 39.7381L79.5387 41.7137C79.8142 37.2588 79.3525 32.4092 77.4124 27.6927L47.8183 39.8661ZM63.5692 24.7259H59.2354V56.7259H63.5692V24.7259ZM75.2354 40.7259V39.15H43.2354V40.7259H75.2354ZM75.2345 38.9798C75.1917 34.9612 74.487 28.8531 70.372 23.5623L45.1128 43.2084C43.9583 41.7241 43.5136 40.3934 43.3524 39.7712C43.1941 39.1597 43.2323 38.9424 43.2363 39.3202L75.2345 38.9798ZM70.4401 23.6505C65.7047 17.4739 58.9212 15.5191 53.3671 15.5191V47.5191C52.6894 47.5191 51.3232 47.4141 49.6557 46.7028C47.8819 45.9462 46.2633 44.7097 45.0447 43.1203L70.4401 23.6505ZM53.3671 15.5191C47.6119 15.5191 40.8141 17.5183 35.9672 23.5923L60.9796 43.5517C59.8354 44.9856 58.3354 46.1029 56.7052 46.7868C55.1705 47.4306 53.9384 47.5191 53.3671 47.5191V15.5191ZM35.9672 23.5923C31.7568 28.8686 30.8352 34.9559 30.8352 39.5025H62.8352C62.8352 38.8789 63.0058 41.0126 60.9796 43.5517L35.9672 23.5923ZM30.8352 39.5025C30.8352 44.1329 31.8474 50.0951 36.0168 55.2672L60.93 35.1841C62.9152 37.6467 62.8352 39.7935 62.8352 39.5025H30.8352ZM36.0673 55.3296C40.7885 61.1265 47.3505 63.237 53.2012 63.237V31.237C53.8967 31.237 55.1868 31.3512 56.7381 32.0112C58.3668 32.7041 59.8005 33.7969 60.8795 35.1217L36.0673 55.3296ZM53.2012 63.237C57.0105 63.237 61.2102 62.3564 65.1338 59.9248L48.2773 32.7245C50.238 31.5094 52.1014 31.237 53.2012 31.237V63.237ZM65.1856 59.8926C68.9625 57.532 71.6922 54.2465 73.4415 50.6167L44.6145 36.7242C45.2579 35.3892 46.4393 33.8731 48.2256 32.7567L65.1856 59.8926ZM54.1921 58.9221L58.443 60.27L68.1148 29.7666L63.8639 28.4188L54.1921 58.9221ZM48.6042 38.6424C48.75 38.3066 49.0115 37.8358 49.4379 37.3335C49.8685 36.8262 50.3581 36.4161 50.8383 36.1159L67.7983 63.2519C72.4472 60.3463 75.8576 56.2185 77.9536 51.3942L48.6042 38.6424ZM50.915 36.0683C51.2924 35.8354 51.7451 35.631 52.2398 35.4939C52.73 35.358 53.1384 35.322 53.4086 35.322V67.322C58.4108 67.322 63.313 66.0204 67.7217 63.2995L50.915 36.0683ZM61.4252 40.7259V37.346H29.4252V40.7259H61.4252ZM45.4252 53.346H61.4127V21.346H45.4252V53.346ZM45.4127 37.346V40.7259H77.4127V37.346H45.4127ZM61.4127 24.7259H45.4252V56.7259H61.4127V24.7259ZM73.9447 60.7154L68.885 75.8944C68.9035 75.9006 68.9221 75.9067 68.9406 75.9128L73.9447 60.7154ZM70.8757 59.0566L80.8022 46.508C80.7635 46.4774 80.7247 46.447 80.6857 46.4168L70.8757 59.0566ZM68.574 56.3816L61.33 42.1154C57.4244 44.0986 54.5026 47.5963 53.2463 51.7926C51.9899 55.9888 52.5089 60.5167 54.6821 64.3198L68.574 56.3816ZM72.5761 54.3495L86.8453 47.1115C84.9251 43.326 81.5795 40.4586 77.5447 39.1405C73.5099 37.8224 69.1168 38.1615 65.3321 40.0833L72.5761 54.3495ZM74.6497 56.4438L67.5827 70.7986L67.5827 70.7986L74.6497 56.4438ZM80.6424 56.4438L73.5783 42.0877C73.5175 42.1176 73.4569 42.1479 73.3965 42.1786L80.6424 56.4438ZM82.6123 54.4946L68.439 47.0705C68.408 47.1298 68.3773 47.1892 68.347 47.2488L82.6123 54.4946ZM83.2759 51.2598H67.2759C67.2759 51.3172 67.2762 51.3745 67.2768 51.4319L83.2759 51.2598ZM83.2759 44.9976V28.9976C74.4393 28.9976 67.2759 36.161 67.2759 44.9976H83.2759ZM83.7943 44.9976V60.9976C92.6308 60.9976 99.7943 53.8341 99.7943 44.9976H83.7943ZM83.7943 28.3051V12.3051C74.9577 12.3051 67.7943 19.4685 67.7943 28.3051L83.7943 28.3051ZM87.6304 28.3051H103.63C103.63 19.4685 96.467 12.3051 87.6304 12.3051V28.3051ZM87.5682 53.0016L103.521 54.2288L87.5682 53.0016ZM87.3401 54.6191L102.995 57.9225C103.002 57.893 103.008 57.8636 103.014 57.8342L87.3401 54.6191ZM85.5153 58.3515L73.714 47.5475C73.6862 47.5778 73.6585 47.6083 73.631 47.6389L85.5153 58.3515ZM82.1146 60.5496L76.829 45.4478C76.8132 45.4534 76.7974 45.4589 76.7815 45.4645L82.1146 60.5496ZM71.7052 49.7668L62.6356 62.948C62.6543 62.9608 62.673 62.9737 62.6918 62.9865L71.7052 49.7668ZM68.2008 45.5367L53.6311 52.1491C53.6516 52.1943 53.6723 52.2394 53.6932 52.2844L68.2008 45.5367ZM68.2215 33.4476L82.7089 40.2385C82.7156 40.2241 82.7223 40.2097 82.7291 40.1953L68.2215 33.4476ZM71.7466 29.2382L80.6775 42.5137C80.6864 42.5077 80.6954 42.5017 80.7043 42.4956L71.7466 29.2382ZM82.5294 29.2382L73.1706 42.2156C73.2176 42.2495 73.2648 42.2832 73.3122 42.3166L82.5294 29.2382ZM85.8056 33.4476L71.006 39.5281C71.0195 39.5607 71.033 39.5933 71.0466 39.6258L85.8056 33.4476ZM85.8056 45.516L100.565 51.6942L100.565 51.6942L85.8056 45.516ZM82.5086 49.7668L91.8084 62.7866C91.8357 62.7671 91.8629 62.7476 91.89 62.7279L82.5086 49.7668ZM83.1722 43.5875L98.2794 48.8575L98.2794 48.8575L83.1722 43.5875ZM83.1514 35.376L68.0442 40.646C68.0624 40.698 68.0808 40.7499 68.0995 40.8018L83.1514 35.376ZM81.2023 32.5974L71.5056 45.3243C71.5377 45.3488 71.5699 45.3732 71.6023 45.3974L81.2023 32.5974ZM74.3179 32.6596L64.6269 19.9284L64.6269 19.9284L74.3179 32.6596ZM72.2443 35.5005L57.3063 29.7684C57.2869 29.8191 57.2677 29.8699 57.2487 29.9207L72.2443 35.5005ZM72.2443 43.5046L57.2279 49.0278C57.2535 49.0976 57.2797 49.1672 57.3063 49.2366L72.2443 43.5046ZM74.2764 46.3454L64.3998 58.9332C64.4309 58.9576 64.462 58.9818 64.4933 59.006L74.2764 46.3454ZM77.449 45.2753C77.933 45.2753 78.4548 45.3555 78.9487 45.5181L68.9406 75.9128C71.7017 76.8219 74.5597 77.2753 77.449 77.2753V45.2753ZM79.0043 45.5365C79.6482 45.7512 80.272 46.0886 80.8022 46.508L60.9493 71.6051C63.3319 73.4899 66.0016 74.9332 68.885 75.8944L79.0043 45.5365ZM80.6857 46.4168C81.4901 47.0411 82.0829 47.773 82.4659 48.4434L54.6821 64.3198C56.2817 67.1191 58.4089 69.6343 61.0657 71.6963L80.6857 46.4168ZM75.818 70.6478L79.8201 68.6157L65.3321 40.0833L61.33 42.1154L75.818 70.6478ZM58.3068 61.5875C60.2445 65.4075 63.359 68.7192 67.5827 70.7986L81.7166 42.0891C84.1433 43.2837 85.8753 45.1992 86.8453 47.1115L58.3068 61.5875ZM67.5827 70.7986C70.6656 72.3163 74.0288 73.1074 77.4905 73.1074V41.1074C78.9616 41.1074 80.4309 41.4561 81.7166 42.0891L67.5827 70.7986ZM77.4905 73.1074C80.6014 73.1074 84.2654 72.5492 87.8882 70.7091L73.3965 42.1786C75.2775 41.2232 76.8403 41.1074 77.4905 41.1074V73.1074ZM87.7065 70.7999C91.7052 68.8323 94.8781 65.6769 96.8776 61.7405L68.347 47.2488C69.4618 45.0542 71.3214 43.1982 73.5783 42.0877L87.7065 70.7999ZM96.7856 61.9187C98.7884 58.0953 99.3087 54.2302 99.2749 51.0878L67.2768 51.4319C67.2706 50.8608 67.3486 49.1522 68.439 47.0705L96.7856 61.9187ZM99.2759 51.2598V44.9976H67.2759V51.2598H99.2759ZM83.2759 60.9976H83.7943V28.9976H83.2759V60.9976ZM99.7943 44.9976V28.3051H67.7943V44.9976H99.7943ZM83.7943 44.3051H87.6304V12.3051H83.7943V44.3051ZM71.6304 28.3051V51.3013H103.63V28.3051H71.6304ZM71.6304 51.3013C71.6304 51.5259 71.6225 51.6814 71.6153 51.7745L103.521 54.2288C103.597 53.2436 103.63 52.2655 103.63 51.3013H71.6304ZM71.6153 51.7745C71.6261 51.634 71.6449 51.5093 71.6665 51.4039L103.014 57.8342C103.257 56.6505 103.427 55.4476 103.521 54.2288L71.6153 51.7745ZM71.6848 51.3156C71.8634 50.4692 72.3938 48.9896 73.714 47.5475L97.3167 69.1556C100.434 65.7505 102.181 61.7825 102.995 57.9225L71.6848 51.3156ZM73.631 47.6389C74.7317 46.4177 75.9587 45.7524 76.829 45.4478L87.4002 75.6513C91.0354 74.379 94.5295 72.2483 97.3997 69.0642L73.631 47.6389ZM76.7815 45.4645C77.4295 45.2354 77.7269 45.2753 77.449 45.2753V77.2753C80.6548 77.2753 84.0626 76.8314 87.4477 75.6346L76.7815 45.4645ZM77.1173 35.322C77.4031 35.322 77.9323 35.3586 78.6175 35.5555C79.3191 35.7571 80.0439 36.0872 80.7186 36.5472L62.6918 62.9865C67.2157 66.0709 72.2608 67.322 77.1173 67.322V35.322ZM80.7748 36.5857C81.2385 36.9048 81.6637 37.2942 82.0201 37.7244C82.372 38.1492 82.5879 38.5301 82.7083 38.789L53.6932 52.2844C55.6342 56.4573 58.5969 60.1691 62.6356 62.948L80.7748 36.5857ZM82.7705 38.9243C82.884 39.1745 82.9409 39.3805 82.9663 39.5063C82.9906 39.6266 82.9774 39.6292 82.9774 39.4818H50.9774C50.9774 43.6947 51.7536 48.0122 53.6311 52.1491L82.7705 38.9243ZM82.9774 39.4818C82.9774 39.3368 82.9906 39.3599 82.9588 39.5143C82.9256 39.6751 82.8531 39.9308 82.7089 40.2385L53.7342 26.6567C51.7669 30.8536 50.9774 35.2396 50.9774 39.4818H82.9774ZM82.7291 40.1953C82.5978 40.4774 82.3661 40.8832 81.9916 41.3304C81.6124 41.7832 81.1629 42.1872 80.6775 42.5137L62.8158 15.9626C58.6989 18.7322 55.6795 22.474 53.714 26.6999L82.7291 40.1953ZM80.7043 42.4956C80.0412 42.9437 79.3318 43.2636 78.6487 43.4584C77.9816 43.6486 77.4702 43.683 77.2002 43.683V11.683C72.3507 11.683 67.3145 12.923 62.7889 15.9808L80.7043 42.4956ZM77.2002 43.683C76.9532 43.683 76.3952 43.6525 75.6365 43.4311C74.8532 43.2025 73.9941 42.8095 73.1706 42.2156L91.8881 16.2607C87.2311 12.9023 82.0091 11.683 77.2002 11.683V43.683ZM73.3122 42.3166C72.7457 41.9173 72.2332 41.4279 71.8108 40.8851C71.3943 40.35 71.1448 39.8658 71.006 39.5281L100.605 27.3671C98.8186 23.0186 95.8997 19.0868 91.7465 16.1598L73.3122 42.3166ZM71.0466 39.6258C70.9562 39.4098 70.9228 39.2603 70.914 39.2129C70.9061 39.1701 70.9254 39.2501 70.9254 39.4818H102.925C102.925 35.4535 102.25 31.2945 100.565 27.2694L71.0466 39.6258ZM70.9254 39.4818C70.9254 39.7134 70.9061 39.7935 70.914 39.7507C70.9228 39.7033 70.9562 39.5537 71.0466 39.3377L100.565 51.6942C102.25 47.6691 102.925 43.5101 102.925 39.4818H70.9254ZM71.0466 39.3377C71.1741 39.033 71.402 38.5957 71.7786 38.1102C72.1601 37.6183 72.6205 37.1725 73.1273 36.8057L91.89 62.7279C95.911 59.8175 98.7759 55.9675 100.565 51.6942L71.0466 39.3377ZM73.2088 36.7471C74.9803 35.4817 76.6112 35.322 77.1173 35.322V67.322C81.9088 67.322 87.1339 66.1255 91.8084 62.7866L73.2088 36.7471ZM77.7186 63.4029C81.685 63.4029 86.4974 62.4321 90.8337 59.1632L71.5708 33.6105C74.11 31.6964 76.6 31.4029 77.7186 31.4029V63.4029ZM90.8337 59.1632C94.5545 56.3583 96.9506 52.6665 98.2794 48.8575L68.065 38.3175C68.5643 36.8863 69.6471 35.0607 71.5708 33.6105L90.8337 59.1632ZM98.2794 48.8575C99.403 45.6363 99.7943 42.4274 99.7943 39.4818H67.7943C67.7943 39.6327 67.7708 39.1609 68.065 38.3176L98.2794 48.8575ZM99.7943 39.4818C99.7943 36.4859 99.3825 33.2213 98.2034 29.9503L68.0995 40.8018C67.7775 39.9085 67.7943 39.3811 67.7943 39.4818H99.7943ZM98.2586 30.1061C96.9466 26.345 94.5707 22.6238 90.8022 19.7974L71.6023 45.3974C69.6032 43.8982 68.5268 42.0294 68.0442 40.646L98.2586 30.1061ZM90.8989 19.8705C86.6344 16.6213 81.8735 15.6021 77.8638 15.6021V47.6021C76.5635 47.6021 74.0283 47.2464 71.5056 45.3243L90.8989 19.8705ZM77.8638 15.6021C73.7654 15.6021 68.9407 16.6448 64.6269 19.9284L84.0089 45.3909C81.5475 47.2645 79.0867 47.6021 77.8638 47.6021V15.6021ZM64.6269 19.9284C61.1155 22.6012 58.7238 26.0743 57.3063 29.7684L87.1823 41.2325C86.6772 42.5488 85.6679 44.1281 84.0089 45.3909L64.6269 19.9284ZM57.2487 29.9207C56.0476 33.1487 55.5807 36.4026 55.5807 39.4818H87.5807C87.5807 39.6303 87.5562 40.2299 87.2398 41.0802L57.2487 29.9207ZM55.5807 39.4818C55.5807 42.5594 56.0429 45.8063 57.2279 49.0278L87.2607 37.9813C87.5609 38.7974 87.5807 39.3625 87.5807 39.4818H55.5807ZM57.3063 49.2366C58.6766 52.8076 60.9711 56.243 64.3998 58.9332L84.153 33.7576C85.7846 35.0378 86.7244 36.5792 87.1823 37.7725L57.3063 49.2366ZM64.4933 59.006C68.733 62.2821 73.5227 63.4029 77.7186 63.4029V31.4029C79.1497 31.4029 81.6446 31.8187 84.0596 33.6848L64.4933 59.006ZM97.9942 50.5548L91.1448 65.0146L97.9942 50.5548ZM95.4229 48.6056L82.9084 58.5748C82.9704 58.6527 83.0332 58.73 83.0966 58.8067L95.4229 48.6056ZM93.9299 45.9514L78.8869 51.4018L78.8869 51.4018L93.9299 45.9514ZM93.2249 43.152L109.078 40.9902L109.078 40.9902L93.2249 43.152ZM93.0383 28.3051V12.3051C84.2017 12.3051 77.0383 19.4685 77.0383 28.3051L93.0383 28.3051ZM97.4343 28.3051H113.434C113.434 19.4685 106.271 12.3051 97.4343 12.3051V28.3051ZM97.6417 42.0116L81.817 44.3735C81.8303 44.4631 81.8445 44.5526 81.8594 44.642L97.6417 42.0116ZM98.4711 44.5621L84.2107 51.8174C84.2441 51.8832 84.2781 51.9487 84.3124 52.014L98.4711 44.5621ZM100.192 46.4698L91.3752 59.8212C91.4133 59.8464 91.4516 59.8714 91.4899 59.8963L100.192 46.4698ZM105.293 46.8223L110.713 61.8765C110.801 61.8447 110.889 61.8122 110.977 61.7789L105.293 46.8223ZM107.097 45.5782L95.3624 34.7019C95.3143 34.7539 95.2665 34.8061 95.219 34.8587L107.097 45.5782ZM108.321 43.3387L93.1193 38.3471C93.0967 38.4157 93.0747 38.4844 93.0531 38.5533L108.321 43.3387ZM108.777 39.9587L114.42 24.9869C109.505 23.1344 103.994 23.8121 99.6745 26.8002C95.3549 29.7883 92.7769 34.7063 92.7769 39.9587H108.777ZM111.473 40.9748H127.473C127.473 34.3151 123.347 28.3518 117.116 26.003L111.473 40.9748ZM110.332 46.3661L124.694 53.4188C124.702 53.402 124.71 53.3852 124.719 53.3684L110.332 46.3661ZM107.056 49.9949L115.404 63.6442L115.404 63.6442L107.056 49.9949ZM109.295 50.7H93.2953C93.2953 59.5365 100.459 66.7 109.295 66.7V50.7ZM109.295 44.2303H125.295C125.295 35.3938 118.132 28.2303 109.295 28.2303V44.2303ZM108.777 44.2303H92.7769C92.7769 53.0669 99.9404 60.2303 108.777 60.2303V44.2303ZM108.777 28.3051V12.3051C99.9404 12.3051 92.7769 19.4685 92.7769 28.3051L108.777 28.3051ZM113.152 28.3051H129.152C129.152 19.4685 121.989 12.3051 113.152 12.3051V28.3051ZM113.152 50.7V66.7C121.989 66.7 129.152 59.5365 129.152 50.7H113.152ZM101.893 35.3013C101.964 35.3013 103.166 35.3004 104.844 36.095L91.1448 65.0146C94.9234 66.8045 98.7244 67.3013 101.893 67.3013V35.3013ZM104.844 36.095C105.659 36.4812 106.754 37.2023 107.749 38.4045L83.0966 58.8067C85.4187 61.6125 88.2281 63.633 91.1448 65.0146L104.844 36.095ZM107.938 38.6364C108.34 39.1415 108.71 39.7759 108.973 40.501L78.8869 51.4018C79.8408 54.0347 81.2066 56.4385 82.9084 58.5748L107.938 38.6364ZM108.973 40.501C108.974 40.5051 109.035 40.674 109.078 40.9902L77.3716 45.3139C77.6636 47.4549 78.1942 49.49 78.8869 51.4018L108.973 40.501ZM109.078 40.9902C109.052 40.7981 109.041 40.6803 109.037 40.6288C109.033 40.575 109.038 40.6191 109.038 40.7467H77.0383C77.0383 42.3529 77.1794 43.9044 77.3716 45.3139L109.078 40.9902ZM109.038 40.7467V28.3051H77.0383V40.7467H109.038ZM93.0383 44.3051H97.4343V12.3051H93.0383V44.3051ZM81.4343 28.3051V39.3159H113.434V28.3051H81.4343ZM81.4343 39.3159C81.4343 41.0339 81.5707 42.7234 81.817 44.3735L113.466 39.6497C113.436 39.4474 113.434 39.3397 113.434 39.3159H81.4343ZM81.8594 44.642C82.2673 47.0897 83.0359 49.5083 84.2107 51.8174L112.732 37.3068C113.105 38.04 113.32 38.7582 113.424 39.3812L81.8594 44.642ZM84.3124 52.014C85.9638 55.1517 88.3605 57.8304 91.3752 59.8212L109.009 33.1184C110.559 34.1416 111.808 35.5484 112.63 37.1102L84.3124 52.014ZM91.4899 59.8963C95.5651 62.5376 99.8326 63.1956 103.095 63.1956V31.1956C103.98 31.1956 106.312 31.3697 108.895 33.0434L91.4899 59.8963ZM103.095 63.1956C105.617 63.1956 108.191 62.7842 110.713 61.8765L99.8738 31.7681C101.013 31.3581 102.122 31.1956 103.095 31.1956V63.1956ZM110.977 61.7789C114.118 60.5851 116.821 58.6846 118.976 56.2976L95.219 34.8587C96.3501 33.6053 97.8508 32.5342 99.6098 31.8658L110.977 61.7789ZM118.832 56.4544C121.332 53.7577 122.764 50.7534 123.588 48.124L93.0531 38.5533C93.2966 37.7764 93.9136 36.2651 95.3624 34.7019L118.832 56.4544ZM123.522 48.3302C124.508 45.3291 124.777 42.4123 124.777 39.9587H92.7769C92.7769 40.0217 92.7727 39.9106 92.8066 39.6589C92.8404 39.409 92.9212 38.9504 93.1193 38.3471L123.522 48.3302ZM103.134 54.9305L105.829 55.9465L117.116 26.003L114.42 24.9869L103.134 54.9305ZM95.4726 40.9748C95.4726 40.9906 95.4783 40.3242 95.9457 39.3639L124.719 53.3684C126.707 49.2839 127.473 45.0232 127.473 40.9748H95.4726ZM95.9704 39.3135C96.2064 38.8329 96.5617 38.2721 97.067 37.7124C97.575 37.1497 98.1411 36.692 98.7073 36.3457L115.404 63.6442C119.508 61.1344 122.643 57.5958 124.694 53.4188L95.9704 39.3135ZM98.7073 36.3457C100.277 35.3857 101.583 35.3013 101.893 35.3013V67.3013C106.238 67.3013 110.987 66.346 115.404 63.6442L98.7073 36.3457ZM125.295 50.7V44.2303H93.2953V50.7H125.295ZM109.295 28.2303H108.777V60.2303H109.295V28.2303ZM124.777 44.2303V28.3051H92.7769V44.2303H124.777ZM108.777 44.3051H113.152V12.3051H108.777V44.3051ZM97.1522 28.3051V50.7H129.152V28.3051H97.1522ZM113.152 34.7H109.295V66.7H113.152V34.7ZM119.383 50.7H103.383C103.383 59.5365 110.546 66.7 119.383 66.7V50.7ZM119.383 20.218V4.21803C110.546 4.21803 103.383 11.3815 103.383 20.218L119.383 20.218ZM123.717 20.218H139.717C139.717 11.3815 132.553 4.21803 123.717 4.21803V20.218ZM123.717 50.7V66.7C132.553 66.7 139.717 59.5365 139.717 50.7H123.717ZM135.383 50.7V20.218H103.383V50.7H135.383ZM119.383 36.218H123.717V4.21803H119.383V36.218ZM107.717 20.218V50.7H139.717V20.218H107.717ZM123.717 34.7H119.383V66.7H123.717V34.7ZM132.1 50.4096L124.33 64.3962C124.374 64.4207 124.418 64.4451 124.463 64.4692L132.1 50.4096ZM129.55 47.9628L115.554 55.717C115.596 55.7923 115.638 55.8673 115.681 55.9419L129.55 47.9628ZM129.301 41.6176L114.808 34.8386L114.808 34.8386L129.301 41.6176ZM131.084 39.4403L140.72 52.2134C140.767 52.1777 140.814 52.1419 140.861 52.1058L131.084 39.4403ZM133.987 37.968L129.507 22.608C129.35 22.6539 129.193 22.7022 129.038 22.7528L133.987 37.968ZM137.367 37.2008L140.138 52.9591L140.138 52.9591L137.367 37.2008ZM141.328 36.5787L139.131 20.7303C139.124 20.7313 139.116 20.7323 139.109 20.7333L141.328 36.5787ZM145.475 35.9981L153.214 50.002C159.969 46.2687 163.097 38.2446 160.649 30.9245C158.201 23.6044 150.877 19.075 143.234 20.1557L145.475 35.9981ZM143.899 36.869L127.901 36.6171C127.811 42.3241 130.768 47.6468 135.661 50.5855C140.554 53.5241 146.642 53.6336 151.638 50.8729L143.899 36.869ZM142.779 32.9707L130.81 43.5885C130.87 43.6565 130.931 43.724 130.993 43.791L142.779 32.9707ZM135.604 32.5145L143.308 46.5381C143.358 46.5105 143.408 46.4826 143.458 46.4544L135.604 32.5145ZM133.552 35.2102L128.846 50.5026C132.902 51.7506 137.287 51.3362 141.038 49.3508C144.788 47.3653 147.596 43.9713 148.844 39.9155L133.552 35.2102ZM129.508 33.966L114.132 29.5412C111.72 37.9235 116.466 46.6933 124.803 49.2585L129.508 33.966ZM132.66 29.3833L123.263 16.4337C123.245 16.4469 123.226 16.4602 123.208 16.4735L132.66 29.3833ZM144.106 28.7198L137.333 43.2153C137.387 43.2406 137.441 43.2656 137.496 43.2903L144.106 28.7198ZM147.382 31.9546L132.887 38.7282C132.93 38.8197 132.973 38.9108 133.018 39.0014L147.382 31.9546ZM148.046 34.277L132.128 35.8958L132.128 35.8958L148.046 34.277ZM148.17 50.7V66.7C157.007 66.7 164.17 59.5365 164.17 50.7H148.17ZM144.334 50.7H128.334C128.334 59.5365 135.498 66.7 144.334 66.7V50.7ZM144.334 45.5782L154.964 33.6196C150.255 29.4337 143.528 28.4012 137.78 30.9823C132.032 33.5634 128.334 39.2775 128.334 45.5782H144.334ZM145.081 46.2417L159.157 53.8476C162.686 47.3162 161.259 39.2153 155.711 34.2832L145.081 46.2417ZM141.535 50.0779L149.589 63.9032C149.602 63.8952 149.616 63.8871 149.63 63.879L141.535 50.0779ZM140.208 47.1334L147.183 61.5331C147.243 61.5038 147.303 61.4742 147.363 61.4442L140.208 47.1334ZM142.344 45.4537L129.825 35.4898L129.825 35.4898L142.344 45.4537ZM143.401 43.3387L128.319 37.9971C128.109 38.5891 127.935 39.1929 127.796 39.8055L143.401 43.3387ZM143.795 41.0992L127.815 40.3002C127.811 40.3888 127.807 40.4775 127.804 40.5662L143.795 41.0992ZM143.857 39.1085L149.378 24.0913C144.47 22.2868 138.99 22.9947 134.701 25.9872C130.413 28.9797 127.857 33.8791 127.857 39.1085H143.857ZM145.267 39.6269L147.664 55.4464C154.886 54.3522 160.45 48.5064 161.186 41.2397C161.922 33.9729 157.644 27.13 150.788 24.6097L145.267 39.6269ZM141.535 40.1868L143.88 56.0141L143.88 56.0141L141.535 40.1868ZM138.487 40.6845L141.156 56.4602C141.221 56.4493 141.285 56.438 141.349 56.4264L138.487 40.6845ZM136.081 41.2443L131.292 25.978C131.131 26.0285 130.971 26.0816 130.811 26.1371L136.081 41.2443ZM134.485 41.9908L126.077 28.3781C126.016 28.4157 125.955 28.4538 125.895 28.4922L134.485 41.9908ZM133.386 43.0484L120.073 34.1732C120.004 34.2772 119.935 34.3819 119.869 34.4875L133.386 43.0484ZM133.427 46.1795L119.607 54.2414C119.64 54.2983 119.673 54.355 119.707 54.4114L133.427 46.1795ZM134.754 47.3407L127.733 61.7178L127.733 61.7178L134.754 47.3407ZM136.268 35.322C136.496 35.322 137.911 35.358 139.737 36.3501L124.463 64.4692C128.528 66.6778 132.722 67.322 136.268 67.322V35.322ZM139.87 36.4231C141.029 37.0667 142.406 38.2255 143.418 39.9837L115.681 55.9419C117.854 59.7184 120.932 62.5085 124.33 64.3962L139.87 36.4231ZM143.545 40.2086C144.347 41.6558 144.699 43.2205 144.699 44.6036H112.699C112.699 48.4196 113.619 52.2238 115.554 55.717L143.545 40.2086ZM144.699 44.6036C144.699 45.3554 144.562 46.753 143.794 48.3965L114.808 34.8386C113.237 38.1963 112.699 41.5846 112.699 44.6036H144.699ZM143.794 48.3965C143.04 50.0071 141.923 51.306 140.72 52.2134L121.448 26.6672C118.67 28.7634 116.363 31.5139 114.808 34.8386L143.794 48.3965ZM140.861 52.1058C139.927 52.8268 139.174 53.1059 138.937 53.1832L129.038 22.7528C126.505 23.5767 123.817 24.8373 121.307 26.7749L140.861 52.1058ZM138.467 53.328C138.789 53.234 139.33 53.1011 140.138 52.9591L134.596 21.4425C132.888 21.7429 131.175 22.1214 129.507 22.608L138.467 53.328ZM140.138 52.9591C141.196 52.773 142.331 52.5942 143.546 52.4242L139.109 20.7333C137.559 20.9503 136.054 21.1863 134.596 21.4425L140.138 52.9591ZM143.524 52.4272C144.935 52.2317 146.332 52.0361 147.715 51.8405L143.234 20.1557C141.881 20.3472 140.513 20.5387 139.131 20.7303L143.524 52.4272ZM137.736 21.9943L136.16 22.8652L151.638 50.8729L153.214 50.002L137.736 21.9943ZM159.897 37.121C159.956 33.3949 159.271 27.2762 154.566 22.1503L130.993 43.791C127.835 40.3517 127.897 36.8319 127.901 36.6171L159.897 37.121ZM154.748 22.3528C149.489 16.4245 142.481 15.685 138.839 15.685V47.685C138.638 47.685 137.657 47.6729 136.26 47.2171C134.772 46.7313 132.669 45.6846 130.81 43.5885L154.748 22.3528ZM138.839 15.685C135.036 15.685 131.235 16.6118 127.751 18.5745L143.458 46.4544C141.937 47.3112 140.292 47.685 138.839 47.685V15.685ZM127.901 18.4909C122.643 21.3791 119.639 26.0197 118.259 30.5048L148.844 39.9155C148.573 40.795 148.055 42.0115 147.084 43.2865C146.084 44.6 144.794 45.7219 143.308 46.5381L127.901 18.4909ZM138.257 19.9177L134.213 18.6735L124.803 49.2585L128.846 50.5026L138.257 19.9177ZM144.884 38.3907C144.722 38.9554 144.418 39.6834 143.894 40.4462C143.365 41.2155 142.737 41.8354 142.112 42.2932L123.208 16.4735C118.673 19.7938 115.621 24.3671 114.132 29.5412L144.884 38.3907ZM142.057 42.333C140.095 43.7568 138.54 43.683 138.881 43.683V11.683C134.051 11.683 128.349 12.7428 123.263 16.4337L142.057 42.333ZM138.881 43.683C139.066 43.683 138.401 43.7143 137.333 43.2153L150.88 14.2243C146.854 12.3429 142.705 11.683 138.881 11.683V43.683ZM137.496 43.2903C136.641 42.9024 135.69 42.2977 134.804 41.4221C133.916 40.5458 133.293 39.5961 132.887 38.7282L161.878 25.181C159.565 20.2304 155.668 16.3955 150.717 14.1493L137.496 43.2903ZM133.018 39.0014C132.538 38.0231 132.236 36.9585 132.128 35.8958L163.964 32.6583C163.69 29.9644 162.946 27.3514 161.747 24.9078L133.018 39.0014ZM132.128 35.8958C132.149 36.1025 132.17 36.4346 132.17 36.9105H164.17C164.17 35.5064 164.109 34.0828 163.964 32.6583L132.128 35.8958ZM132.17 36.9105V50.7H164.17V36.9105H132.17ZM148.17 34.7H144.334V66.7H148.17V34.7ZM160.334 50.7V45.5782H128.334V50.7H160.334ZM133.704 57.5367L134.451 58.2003L155.711 34.2832L154.964 33.6196L133.704 57.5367ZM131.004 38.6358C131.23 38.2177 131.955 37.1475 133.44 36.2767L149.63 63.879C153.99 61.3218 157.079 57.6941 159.157 53.8476L131.004 38.6358ZM133.481 36.2525C134.256 35.8011 134.958 35.561 135.472 35.4395C135.97 35.3218 136.262 35.322 136.268 35.322V67.322C140.442 67.322 145.149 66.4894 149.589 63.9032L133.481 36.2525ZM137.035 63.7762C140.089 63.7762 143.647 63.2456 147.183 61.5331L133.233 32.7337C134.999 31.8782 136.442 31.7762 137.035 31.7762V63.7762ZM147.363 61.4442C150.034 60.1088 152.68 58.16 154.862 55.4177L129.825 35.4898C130.929 34.1023 132.151 33.2732 133.052 32.8225L147.363 61.4442ZM154.862 55.4177C156.673 53.1433 158.233 50.2864 159.006 46.8719L127.796 39.8055C128.237 37.8563 129.093 36.4094 129.825 35.4898L154.862 55.4177ZM158.483 48.6802C159.354 46.222 159.713 43.8162 159.786 41.6322L127.804 40.5662C127.822 40.041 127.919 39.1283 128.319 37.9971L158.483 48.6802ZM159.775 41.8982C159.822 40.9528 159.857 39.9895 159.857 39.1085H127.857C127.857 39.2229 127.851 39.5867 127.815 40.3002L159.775 41.8982ZM138.336 54.1258L139.746 54.6442L150.788 24.6097L149.378 24.0913L138.336 54.1258ZM142.871 23.8075C141.516 24.0128 140.289 24.1967 139.19 24.3595L143.88 56.0141C145.02 55.8451 146.282 55.6558 147.664 55.4464L142.871 23.8075ZM139.19 24.3595C137.934 24.5457 136.741 24.7395 135.625 24.9425L141.349 56.4264C142.057 56.2977 142.897 56.1597 143.88 56.0141L139.19 24.3595ZM135.817 24.9088C134.359 25.1554 132.829 25.4957 131.292 25.978L140.871 56.5107C140.8 56.533 140.786 56.5343 140.839 56.5219C140.891 56.5097 140.995 56.4875 141.156 56.4602L135.817 24.9088ZM130.811 26.1371C129.269 26.6752 127.661 27.3994 126.077 28.3781L142.893 55.6036C142.248 56.0017 141.705 56.2282 141.351 56.3515L130.811 26.1371ZM125.895 28.4922C123.721 29.8756 121.687 31.7527 120.073 34.1732L146.698 51.9236C145.638 53.5146 144.336 54.6867 143.075 55.4894L125.895 28.4922ZM119.869 34.4875C117.671 37.9573 116.992 41.5801 116.992 44.5621H148.992C148.992 46.3552 148.575 48.9689 146.903 51.6092L119.869 34.4875ZM116.992 44.5621C116.992 47.9525 117.877 51.2769 119.607 54.2414L147.248 38.1176C148.396 40.0867 148.992 42.3329 148.992 44.5621H116.992ZM119.707 54.4114C121.848 57.9789 124.847 60.3084 127.733 61.7178L141.776 32.9636C143.473 33.7924 145.587 35.3478 147.147 37.9476L119.707 54.4114ZM127.733 61.7178C131.208 63.4151 134.589 63.7762 137.035 63.7762V31.7762C137.629 31.7762 139.489 31.8469 141.776 32.9636L127.733 61.7178ZM153.555 50.7H137.555C137.555 59.5365 144.718 66.7 153.555 66.7V50.7ZM153.555 28.3051V12.3051C144.718 12.3051 137.555 19.4685 137.555 28.3051L153.555 28.3051ZM157.412 28.3051H173.412C173.412 19.4685 166.248 12.3051 157.412 12.3051V28.3051ZM157.412 33.7379L144.702 43.4571C148.869 48.9059 156.045 51.0925 162.542 48.893C169.04 46.6935 173.412 40.5973 173.412 33.7379H157.412ZM156.873 33.0329L141.939 27.2892C139.943 32.4797 140.785 38.3345 144.163 42.7521L156.873 33.0329ZM157.951 31.063L170.787 40.6151C170.822 40.5682 170.856 40.521 170.891 40.4737L157.951 31.063ZM159.486 29.57L168.361 42.8828C168.555 42.7535 168.746 42.62 168.934 42.4825L159.486 29.57ZM161.372 28.6161L166.249 43.8549C166.31 43.8353 166.371 43.8154 166.432 43.795L161.372 28.6161ZM163.529 28.2014L164.433 44.1758C164.533 44.1702 164.633 44.1636 164.733 44.156L163.529 28.2014ZM165.644 28.3051H181.644C181.644 20.5833 176.129 13.9633 168.535 12.5683L165.644 28.3051ZM165.644 32.3693L161.558 47.8387C166.357 49.1066 171.474 48.0747 175.407 45.0457C179.34 42.0167 181.644 37.3336 181.644 32.3693H165.644ZM163.197 32.2034L161.727 16.2712C161.719 16.2719 161.711 16.2726 161.704 16.2733L163.197 32.2034ZM160.75 33.0536L169.442 46.4867L169.453 46.4801L160.75 33.0536ZM159.071 34.7125L145.584 26.1039C145.54 26.1725 145.497 26.2415 145.454 26.3108L159.071 34.7125ZM158.2 36.8898L173.799 40.4475C173.804 40.4281 173.808 40.4086 173.813 40.3892L158.2 36.8898ZM157.93 50.7V66.7C166.767 66.7 173.93 59.5365 173.93 50.7H157.93ZM169.555 50.7V28.3051H137.555V50.7H169.555ZM153.555 44.3051H157.412V12.3051H153.555V44.3051ZM141.412 28.3051V33.7379H173.412V28.3051H141.412ZM170.122 24.0187L169.583 23.3137L144.163 42.7521L144.702 43.4571L170.122 24.0187ZM171.806 38.7765C171.581 39.3629 171.247 39.9961 170.787 40.6151L145.115 21.5108C143.77 23.3187 142.718 25.2651 141.939 27.2892L171.806 38.7765ZM170.891 40.4737C170.307 41.2767 169.474 42.1408 168.361 42.8828L150.61 16.2572C148.336 17.7733 146.48 19.6327 145.011 21.6522L170.891 40.4737ZM168.934 42.4825C168.065 43.1177 167.142 43.5693 166.249 43.8549L156.496 13.3773C154.221 14.1053 152.039 15.1928 150.037 16.6575L168.934 42.4825ZM166.432 43.795C165.811 44.0022 165.133 44.1362 164.433 44.1758L162.625 12.227C160.46 12.3495 158.344 12.76 156.313 13.4372L166.432 43.795ZM164.733 44.156C164.188 44.1971 163.513 44.1813 162.754 44.0418L168.535 12.5683C166.42 12.18 164.335 12.0951 162.325 12.2468L164.733 44.156ZM149.644 28.3051V32.3693H181.644V28.3051H149.644ZM169.73 16.8999C166.878 16.1465 164.143 16.0481 161.727 16.2712L164.668 48.1357C164.048 48.1929 162.945 48.2051 161.558 47.8387L169.73 16.8999ZM161.704 16.2733C158.246 16.5974 154.958 17.7411 152.048 19.6272L169.453 46.4801C168.036 47.3984 166.379 47.9753 164.691 48.1336L161.704 16.2733ZM152.058 19.6205C149.602 21.2098 147.34 23.3533 145.584 26.1039L172.558 43.3211C171.631 44.7723 170.489 45.8098 169.442 46.4867L152.058 19.6205ZM145.454 26.3108C144.052 28.5838 143.126 30.9874 142.587 33.3904L173.813 40.3892C173.633 41.1885 173.288 42.1406 172.687 43.1142L145.454 26.3108ZM142.6 33.332C142.131 35.3913 141.93 37.4287 141.93 39.3988H173.93C173.93 39.5995 173.91 39.9642 173.799 40.4475L142.6 33.332ZM141.93 39.3988V50.7H173.93V39.3988H141.93ZM157.93 34.7H153.555V66.7H157.93V34.7ZM16.503 91.7H0.503016C0.503016 100.537 7.66646 107.7 16.503 107.7L16.503 91.7ZM16.503 61.8401V45.8401C7.66646 45.8401 0.503016 53.0036 0.503016 61.8401H16.503ZM29.0068 61.8816L27.7797 77.8345C27.9911 77.8507 28.2028 77.8628 28.4146 77.8706L29.0068 61.8816ZM30.1266 62.006L27.2131 77.7385C27.3903 77.7713 27.5681 77.8011 27.7463 77.828L30.1266 62.006ZM34.0871 63.6441L24.1312 76.1693C24.19 76.216 24.2491 76.2623 24.3085 76.3082L34.0871 63.6441ZM36.5547 66.8375L21.8566 73.1593C21.8756 73.2035 21.8949 73.2477 21.9143 73.2919L36.5547 66.8375ZM30.5206 80.1085L27.4771 64.4006C27.2692 64.4409 27.0621 64.4853 26.8559 64.5338L30.5206 80.1085ZM29.463 80.3574V96.3574C30.6969 96.3574 31.9266 96.2146 33.1276 95.932L29.463 80.3574ZM19.5512 80.3574V64.3574C10.7147 64.3574 3.55121 71.5208 3.55121 80.3574H19.5512ZM19.5512 91.7V107.7C28.3878 107.7 35.5512 100.537 35.5512 91.7H19.5512ZM34.5848 91.7L20.1866 98.6779C22.8608 104.196 28.4531 107.7 34.5848 107.7V91.7ZM28.6958 79.5487L22.9734 64.6069C18.7887 66.2096 15.4679 69.4937 13.8187 73.6603C12.1696 77.8269 12.3433 82.4941 14.2976 86.5266L28.6958 79.5487ZM31.6196 78.4289L46.0016 71.4177C42.3678 63.9637 33.6412 60.5214 25.8972 63.4872L31.6196 78.4289ZM38.0892 91.7V107.7C43.6058 107.7 48.7334 104.858 51.6572 100.18C54.581 95.5018 54.8886 89.6475 52.4712 84.6887L38.0892 91.7ZM19.5512 77.4543H3.55121C3.55121 86.2909 10.7147 93.4543 19.5512 93.4543L19.5512 77.4543ZM28.8202 77.4128L30.1489 93.3576L30.149 93.3576L28.8202 77.4128ZM29.7948 77.2677L26.4135 61.6291C26.4076 61.6303 26.4018 61.6316 26.3959 61.6329L29.7948 77.2677ZM32.3038 76.0028L21.3608 64.3302C21.3199 64.3685 21.2792 64.4071 21.2387 64.4459L32.3038 76.0028ZM33.7761 73.784L18.855 68.0081C18.8279 68.0783 18.8012 68.1486 18.775 68.2191L33.7761 73.784ZM33.7761 68.4342L18.7464 73.9212C18.7817 74.0178 18.8179 74.1141 18.855 74.2101L33.7761 68.4342ZM32.3038 66.1947L21.2387 77.7516C21.2792 77.7904 21.3199 77.8289 21.3608 77.8673L32.3038 66.1947ZM29.7948 64.9298L26.3959 80.5646C26.4018 80.5659 26.4076 80.5671 26.4135 80.5684L29.7948 64.9298ZM28.8202 64.8054L27.4915 80.7501C27.712 80.7685 27.933 80.7823 28.1541 80.7915L28.8202 64.8054ZM19.5512 64.7639V48.7639C10.7147 48.7639 3.55121 55.9273 3.55121 64.7639H19.5512ZM32.503 91.7V61.8401H0.503016V91.7H32.503ZM16.503 77.8401H28.0322V45.8401H16.503V77.8401ZM28.0322 77.8401C27.9256 77.8401 27.8512 77.8376 27.8134 77.836C27.775 77.8344 27.7628 77.8332 27.7797 77.8345L30.234 45.9287C29.5592 45.8768 28.8157 45.8401 28.0322 45.8401V77.8401ZM28.4146 77.8706C27.9963 77.8551 27.5939 77.809 27.2131 77.7385L33.04 46.2735C31.9128 46.0647 30.7638 45.9357 29.599 45.8925L28.4146 77.8706ZM27.7463 77.828C26.9509 77.7083 25.5511 77.298 24.1312 76.1693L44.0431 51.119C40.4666 48.2761 36.4265 46.7737 32.5069 46.184L27.7463 77.828ZM24.3085 76.3082C23.2166 75.465 22.3619 74.334 21.8566 73.1593L51.2529 60.5157C49.6417 56.7697 47.1419 53.5098 43.8657 50.9801L24.3085 76.3082ZM21.9143 73.2919C21.4891 72.3272 21.4049 71.52 21.4049 71.1091H53.4049C53.4049 67.574 52.754 63.919 51.1951 60.3831L21.9143 73.2919ZM21.4049 71.1091C21.4049 70.819 21.445 70.2896 21.6503 69.614C21.8601 68.9236 22.1916 68.25 22.6165 67.6571L48.6267 86.2977C51.9654 81.639 53.4049 76.3409 53.4049 71.1091H21.4049ZM22.6165 67.6571C23.2349 66.7942 24.0754 65.9877 25.0846 65.3683C26.0687 64.7643 26.9392 64.5049 27.4771 64.4006L33.564 95.8164C39.3367 94.6979 44.7992 91.6383 48.6267 86.2977L22.6165 67.6571ZM26.8559 64.5338L25.7984 64.7827L33.1276 95.932L34.1852 95.6832L26.8559 64.5338ZM29.463 64.3574H19.5512V96.3574H29.463V64.3574ZM3.55121 80.3574V91.7H35.5512V80.3574H3.55121ZM19.5512 75.7H16.503V107.7H19.5512V75.7ZM48.983 84.722L43.094 72.5707L14.2976 86.5266L20.1866 98.6779L48.983 84.722ZM34.4181 94.4904L37.3419 93.3706L25.8972 63.4872L22.9734 64.6069L34.4181 94.4904ZM17.2375 85.4401L23.7072 98.7112L52.4712 84.6887L46.0016 71.4177L17.2375 85.4401ZM38.0892 75.7H34.5848V107.7H38.0892V75.7ZM19.5512 93.4543H27.9493V61.4543H19.5512V93.4543ZM27.9493 93.4543C28.7607 93.4543 29.5124 93.4106 30.1489 93.3576L27.4915 61.4681C27.4881 61.4684 27.5235 61.4654 27.5926 61.4621C27.6601 61.4588 27.7821 61.4543 27.9493 61.4543V93.4543ZM30.149 93.3576C31.1607 93.2733 32.1776 93.1234 33.1937 92.9025L26.3959 61.6329C26.7761 61.5502 27.1433 61.4971 27.4914 61.4681L30.149 93.3576ZM33.1761 92.9063C36.6081 92.1643 40.2552 90.541 43.369 87.5597L21.2387 64.4459C23.053 62.7088 25.0274 61.9288 26.4135 61.6291L33.1761 92.9063ZM43.2469 87.6754C45.7272 85.3501 47.6021 82.5164 48.7772 79.349L18.775 68.2191C19.3142 66.7659 20.2076 65.4113 21.3608 64.3302L43.2469 87.6754ZM48.6972 79.5599C49.7477 76.8461 50.2738 73.995 50.2738 71.1091H18.2738C18.2738 70.0756 18.468 69.0079 18.855 68.0081L48.6972 79.5599ZM50.2738 71.1091C50.2738 68.2232 49.7477 65.3721 48.6972 62.6583L18.855 74.2101C18.468 73.2103 18.2738 72.1426 18.2738 71.1091H50.2738ZM48.8058 62.9471C47.6459 59.77 45.7745 56.8917 43.2469 54.5221L21.3608 77.8673C20.1603 76.7418 19.2704 75.3565 18.7464 73.9212L48.8058 62.9471ZM43.369 54.6377C40.2552 51.6565 36.6081 50.0332 33.1761 49.2911L26.4135 80.5684C25.0274 80.2687 23.053 79.4887 21.2387 77.7516L43.369 54.6377ZM33.1937 49.295C31.9583 49.0264 30.7185 48.8706 29.4863 48.8192L28.1541 80.7915C27.5854 80.7678 26.9954 80.6949 26.3959 80.5646L33.1937 49.295ZM30.1489 48.8606C29.5124 48.8076 28.7607 48.7639 27.9493 48.7639V80.7639C27.7821 80.7639 27.6601 80.7594 27.5926 80.7561C27.5235 80.7529 27.4881 80.7498 27.4915 80.7501L30.1489 48.8606ZM27.9493 48.7639H19.5512V80.7639H27.9493V48.7639ZM3.55121 64.7639V77.4543H35.5512V64.7639H3.55121ZM46.3156 90.8083L54.9438 77.3341L54.9438 77.3341L46.3156 90.8083ZM42.6868 86.6196L28.2224 93.4594L28.2224 93.4594L42.6868 86.6196ZM42.7075 74.3024L28.3078 67.3276L28.3078 67.3276L42.7075 74.3024ZM46.357 70.176L54.8156 83.7573C54.8263 83.7507 54.8369 83.744 54.8476 83.7373L46.357 70.176ZM57.7411 70.1967L49.1129 83.6709C49.1586 83.7002 49.2045 83.7292 49.2505 83.7581L57.7411 70.1967ZM61.3699 74.3647L46.8624 81.1123C46.8834 81.1577 46.9047 81.2029 46.9262 81.248L61.3699 74.3647ZM61.3699 86.6818L75.8136 93.5652C75.8205 93.5506 75.8274 93.5361 75.8343 93.5216L61.3699 86.6818ZM57.5752 86.9307L70.4398 96.444C70.4524 96.4268 70.4651 96.4097 70.4777 96.3925L57.5752 86.9307ZM57.5545 74.0121L44.8074 83.6823C44.825 83.7055 44.8426 83.7286 44.8603 83.7516L57.5545 74.0121ZM47.8708 72.7472L56.9781 85.9023C56.9896 85.8943 57.0012 85.8863 57.0127 85.8783L47.8708 72.7472ZM45.4446 75.8784L30.5996 69.9098C30.5889 69.9363 30.5783 69.963 30.5677 69.9896L45.4446 75.8784ZM46.5229 86.9721L33.801 96.6753C33.8142 96.6928 33.8276 96.7101 33.8409 96.7275L46.5229 86.9721ZM52.018 76.322C52.2638 76.322 53.4909 76.4037 54.9438 77.3341L37.6873 104.282C42.2921 107.231 47.3208 108.322 52.018 108.322V76.322ZM54.9438 77.3341C55.4315 77.6464 55.9059 78.0504 56.3194 78.5277C56.7289 79.0004 56.9932 79.446 57.1511 79.7799L28.2224 93.4594C30.2769 97.8043 33.4422 101.564 37.6873 104.282L54.9438 77.3341ZM57.1511 79.7799C57.3049 80.1051 57.3777 80.3673 57.4088 80.5183C57.4384 80.6621 57.4219 80.6632 57.4219 80.4818H25.4219C25.4219 84.7555 26.2098 89.2031 28.2224 93.4594L57.1511 79.7799ZM57.4219 80.4818C57.4219 80.2763 57.4408 80.2752 57.4078 80.4335C57.3732 80.5998 57.2897 80.9005 57.1072 81.2773L28.3078 67.3276C26.2115 71.6555 25.4219 76.1822 25.4219 80.4818H57.4219ZM57.1072 81.2773C56.9447 81.6128 56.6717 82.0643 56.2478 82.5436C55.8195 83.0279 55.3264 83.4392 54.8156 83.7573L37.8985 56.5946C33.6043 59.2691 30.4005 63.0071 28.3078 67.3276L57.1072 81.2773ZM54.8476 83.7373C54.2224 84.1288 53.5958 84.3819 53.0448 84.5272C52.5092 84.6685 52.1417 84.683 52.018 84.683V52.683C47.3336 52.683 42.3964 53.7785 37.8665 56.6146L54.8476 83.7373ZM52.018 84.683C51.8077 84.683 50.5811 84.6111 49.1129 83.6709L66.3693 56.7225C61.7492 53.764 56.7072 52.683 52.018 52.683V84.683ZM49.2505 83.7581C48.7338 83.4346 48.2227 83.0075 47.7734 82.4915C47.328 81.98 47.038 81.4899 46.8624 81.1123L75.8774 67.617C73.81 63.1719 70.5746 59.3544 66.2317 56.6354L49.2505 83.7581ZM46.9262 81.248C46.7614 80.9021 46.6835 80.6227 46.65 80.461C46.6181 80.3067 46.6348 80.2999 46.6348 80.4818H78.6348C78.6348 76.2116 77.848 71.7503 75.8136 67.4813L46.9262 81.248ZM46.6348 80.4818C46.6348 80.7026 46.6148 80.7267 46.6415 80.596C46.6697 80.4579 46.7417 80.1884 46.9055 79.8421L75.8343 93.5216C77.8639 89.2294 78.6348 84.75 78.6348 80.4818H46.6348ZM46.9262 79.7985C47.1001 79.4337 47.3837 78.9643 47.8136 78.4757C48.2471 77.9831 48.7371 77.5761 49.2298 77.2677L66.2109 104.39C70.4991 101.706 73.7233 97.9513 75.8136 93.5652L46.9262 79.7985ZM49.2298 77.2677C49.8728 76.8651 50.5074 76.6125 51.0499 76.4705C51.5762 76.3327 51.9249 76.322 52.018 76.322V108.322C56.687 108.322 61.6499 107.246 66.2109 104.39L49.2298 77.2677ZM52.018 105.398C58.3495 105.398 65.5424 103.067 70.4398 96.444L44.7106 77.4174C45.732 76.0362 47.1514 74.8814 48.7804 74.1581C50.3083 73.4797 51.5219 73.3983 52.018 73.3983V105.398ZM70.4777 96.3925C74.2123 91.2998 75.4 85.557 75.4 80.4818H43.4C43.4 80.6873 43.3711 79.2438 44.6727 77.4689L70.4777 96.3925ZM75.4 80.4818C75.4 75.4425 74.2501 69.488 70.2486 64.2726L44.8603 83.7516C43.3195 81.7435 43.4 80.1021 43.4 80.4818H75.4ZM70.3015 64.342C65.3632 57.8323 58.2198 55.6068 52.018 55.6068V87.6068C51.5522 87.6068 50.3774 87.5325 48.8824 86.883C47.2862 86.1895 45.8579 85.067 44.8074 83.6823L70.3015 64.342ZM52.018 55.6068C47.9204 55.6068 43.1217 56.5579 38.7289 59.6162L57.0127 85.8783C54.804 87.416 52.7701 87.6068 52.018 87.6068V55.6068ZM38.7634 59.5922C34.8504 62.3012 32.1829 65.9717 30.5996 69.9098L60.2897 81.847C59.7846 83.1032 58.7346 84.6863 56.9781 85.9023L38.7634 59.5922ZM30.5677 69.9896C29.1566 73.5545 28.6567 77.1552 28.6567 80.4818H60.6567C60.6567 80.3247 60.682 80.8564 60.3215 81.7672L30.5677 69.9896ZM28.6567 80.4818C28.6567 85.5826 29.8475 91.492 33.801 96.6753L59.2449 77.269C60.71 79.1898 60.6567 80.7723 60.6567 80.4818H28.6567ZM33.8409 96.7275C38.6937 103.036 45.6666 105.398 52.018 105.398V73.3983C52.5798 73.3983 53.7941 73.4935 55.2921 74.1548C56.8737 74.8531 58.2274 75.946 59.2049 77.2168L33.8409 96.7275ZM72.2479 91.6377L66.094 106.407C66.118 106.417 66.142 106.427 66.1661 106.437L72.2479 91.6377ZM69.6973 89.9581L58.2722 101.159C58.3091 101.197 58.3463 101.234 58.3836 101.272L69.6973 89.9581ZM68.0177 87.5528L53.5357 94.3549C53.549 94.3834 53.5625 94.4119 53.5761 94.4403L68.0177 87.5528ZM67.0846 84.6704L51.3635 87.6447C51.366 87.6578 51.3685 87.6709 51.371 87.684L67.0846 84.6704ZM66.7943 69.3051V53.3051C57.9577 53.3051 50.7943 60.4685 50.7943 69.3051H66.7943ZM69.8632 69.3051H85.8632C85.8632 60.4685 78.6998 53.3051 69.8632 53.3051V69.3051ZM70.2157 84.152L85.8299 80.6594L85.8299 80.6594L70.2157 84.152ZM71.3355 86.9099L57.915 95.6215C57.9744 95.7129 58.0347 95.8037 58.0959 95.894L71.3355 86.9099ZM73.3469 88.714L65.9048 102.878C65.9373 102.895 65.9699 102.912 66.0026 102.929L73.3469 88.714ZM79.1944 88.7969L72.6286 74.2062C72.5978 74.22 72.5671 74.2339 72.5364 74.248L79.1944 88.7969ZM81.268 87.2002L68.798 77.1753C68.79 77.1852 68.7821 77.1952 68.7741 77.2051L81.268 87.2002ZM82.5537 84.6497L97.9137 89.1297C97.9192 89.1108 97.9246 89.092 97.9301 89.0731L82.5537 84.6497ZM82.9891 81.249L86.4441 65.6265C81.7083 64.5791 76.753 65.7366 72.9711 68.7734C69.1893 71.8103 66.9891 76.3987 66.9891 81.249H82.9891ZM85.1457 81.7259H101.146C101.146 74.2207 95.9288 67.7241 88.6006 66.1034L85.1457 81.7259ZM83.943 87.5113L98.1774 94.8175L98.1774 94.8175L83.943 87.5113ZM80.6252 91.0571L72.7164 77.1485L72.7164 77.1485L80.6252 91.0571ZM83.3002 91.7H67.3002C67.3002 100.537 74.4636 107.7 83.3002 107.7V91.7ZM83.3002 86.1842H99.3002C99.3002 77.3476 92.1367 70.1842 83.3002 70.1842V86.1842ZM82.9891 86.1842H66.9891C66.9891 95.0207 74.1526 102.184 82.9891 102.184V86.1842ZM82.9891 69.3051V53.3051C74.1526 53.3051 66.9891 60.4685 66.9891 69.3051H82.9891ZM86.0373 69.3051H102.037C102.037 60.4685 94.8739 53.3051 86.0373 53.3051V69.3051ZM86.0373 91.7V107.7C94.8739 107.7 102.037 100.537 102.037 91.7H86.0373ZM75.773 76.2598C76.0545 76.2598 77.0222 76.3014 78.3297 76.8387L66.1661 106.437C69.4918 107.804 72.8097 108.26 75.773 108.26V76.2598ZM78.4017 76.8685C79.1771 77.1916 80.1216 77.755 81.011 78.6444L58.3836 101.272C60.6831 103.571 63.328 105.254 66.094 106.407L78.4017 76.8685ZM81.1225 78.757C81.6784 79.3241 82.1339 79.9827 82.4594 80.6652L53.5761 94.4403C54.7586 96.9199 56.3338 99.1822 58.2722 101.159L81.1225 78.757ZM82.4998 80.7506C82.6489 81.0681 82.7456 81.3823 82.7982 81.6569L51.371 87.684C51.8107 89.9769 52.5294 92.2126 53.5357 94.3549L82.4998 80.7506ZM82.8057 81.6962C82.7984 81.6574 82.7957 81.6339 82.7948 81.6242C82.7939 81.6147 82.7943 81.6146 82.7943 81.6223H50.7943C50.7943 83.6604 50.9903 85.6722 51.3635 87.6447L82.8057 81.6962ZM82.7943 81.6223V69.3051H50.7943V81.6223H82.7943ZM66.7943 85.3051H69.8632V53.3051H66.7943V85.3051ZM53.8632 69.3051V80.7306H85.8632V69.3051H53.8632ZM53.8632 80.7306C53.8632 82.9725 54.0768 85.2985 54.6016 87.6447L85.8299 80.6594C85.8576 80.7832 85.8658 80.8561 85.8671 80.8689C85.8684 80.8813 85.8632 80.8375 85.8632 80.7306H53.8632ZM54.6016 87.6447C55.192 90.284 56.2285 93.0233 57.915 95.6215L84.756 78.1984C85.4195 79.2206 85.7095 80.1213 85.8299 80.6594L54.6016 87.6447ZM58.0959 95.894C60.0747 98.8101 62.7231 101.206 65.9048 102.878L80.7889 74.5501C82.3395 75.3648 83.6469 76.558 84.5751 77.9259L58.0959 95.894ZM66.0026 102.929C69.614 104.795 73.2687 105.357 76.3536 105.357V73.3568C77.0884 73.3568 78.7387 73.4903 80.6912 74.4992L66.0026 102.929ZM76.3536 105.357C79.2729 105.357 82.5685 104.849 85.8524 103.346L72.5364 74.248C74.1891 73.4917 75.5908 73.3568 76.3536 73.3568V105.357ZM85.7603 103.388C88.836 102.004 91.5804 99.9223 93.7619 97.1954L68.7741 77.2051C69.8497 75.8606 71.2118 74.8437 72.6286 74.2062L85.7603 103.388ZM93.738 97.2252C95.802 94.6577 97.1195 91.8525 97.9137 89.1297L67.1937 80.1697C67.4072 79.4376 67.8676 78.3327 68.798 77.1753L93.738 97.2252ZM97.9301 89.0731C98.7063 86.3748 98.9891 83.7175 98.9891 81.249H66.9891C66.9891 81.2965 66.9816 80.9063 67.1772 80.2264L97.9301 89.0731ZM79.5341 96.8715L81.6907 97.3485L88.6006 66.1034L86.4441 65.6265L79.5341 96.8715ZM69.1457 81.7259C69.1457 82.2318 69.0493 81.4893 69.7085 80.2051L98.1774 94.8175C100.44 90.409 101.146 85.8096 101.146 81.7259H69.1457ZM69.7085 80.2051C69.9286 79.7763 70.2854 79.2186 70.8289 78.6376C71.3794 78.0494 72.0235 77.5425 72.7164 77.1485L88.534 104.966C92.874 102.498 96.0767 98.9103 98.1774 94.8175L69.7085 80.2051ZM72.7164 77.1485C74.0063 76.415 75.178 76.2598 75.773 76.2598V108.26C80.0175 108.26 84.424 107.303 88.534 104.966L72.7164 77.1485ZM99.3002 91.7V86.1842H67.3002V91.7H99.3002ZM83.3002 70.1842H82.9891V102.184H83.3002V70.1842ZM98.9891 86.1842V69.3051H66.9891V86.1842H98.9891ZM82.9891 85.3051H86.0373V53.3051H82.9891V85.3051ZM70.0373 69.3051V91.7H102.037V69.3051H70.0373ZM86.0373 75.7H83.3002V107.7H86.0373V75.7ZM104.026 91.7L107.296 107.362C114.712 105.814 120.026 99.2761 120.026 91.7H104.026ZM100.293 92.011L99.5668 107.994L99.5749 107.995L100.293 92.011ZM97.017 91.223L89.9449 105.575C89.9721 105.589 89.9993 105.602 90.0266 105.615L97.017 91.223ZM94.8397 89.025L80.4342 95.9877C80.4653 96.0522 80.4969 96.1164 80.5289 96.1804L94.8397 89.025ZM94.1762 86.516L78.1845 87.0318C78.1874 87.1219 78.1911 87.2119 78.1955 87.3019L94.1762 86.516ZM94.1347 63.0843V47.0843C85.2982 47.0843 78.1347 54.2477 78.1347 63.0843H94.1347ZM97.1622 63.0843H113.162C113.162 54.2477 105.999 47.0843 97.1622 47.0843V63.0843ZM97.1829 85.8317L81.1867 86.1794C81.1893 86.3003 81.1933 86.4212 81.1987 86.5421L97.1829 85.8317ZM97.6184 87.4905L111.713 79.9175C111.702 79.8973 111.691 79.8772 111.68 79.8571L97.6184 87.4905ZM99.9823 89.1494L97.3519 104.932C97.3627 104.934 97.3735 104.935 97.3843 104.937L99.9823 89.1494ZM104.026 89.025H120.026C120.026 84.3296 117.963 79.8712 114.385 76.8312C110.806 73.7912 106.073 72.4764 101.44 73.2354L104.026 89.025ZM89.3447 71.9178H73.3447C73.3447 80.7544 80.5081 87.9178 89.3447 87.9178V71.9178ZM89.3447 69.3051V53.3051C80.5081 53.3051 73.3447 60.4685 73.3447 69.3051H89.3447ZM104.026 69.3051H120.026C120.026 60.4685 112.862 53.3051 104.026 53.3051V69.3051ZM104.026 71.9178V87.9178C112.862 87.9178 120.026 80.7544 120.026 71.9178H104.026ZM100.756 76.0377C100.749 76.0392 100.771 76.0341 100.82 76.03C100.87 76.0259 100.935 76.0237 101.012 76.0271L99.5749 107.995C102.2 108.113 104.784 107.887 107.296 107.362L100.756 76.0377ZM101.02 76.0275C101.691 76.058 102.775 76.2322 104.007 76.8309L90.0266 105.615C93.1946 107.154 96.4621 107.853 99.5668 107.994L101.02 76.0275ZM104.089 76.8708C106.422 78.0203 108.164 79.8957 109.151 81.8696L80.5289 96.1804C82.5112 100.145 85.7045 103.486 89.9449 105.575L104.089 76.8708ZM109.245 82.0623C109.693 82.9878 110.084 84.2411 110.157 85.73L78.1955 87.3019C78.3517 90.4773 79.185 93.4033 80.4342 95.9877L109.245 82.0623ZM110.168 86.0001C110.147 85.3538 110.135 84.5562 110.135 83.5922H78.1347C78.1347 84.8124 78.1501 85.9639 78.1845 87.0318L110.168 86.0001ZM110.135 83.5922V63.0843H78.1347V83.5922H110.135ZM94.1347 79.0843H97.1622V47.0843H94.1347V79.0843ZM81.1622 63.0843V83.4678H113.162V63.0843H81.1622ZM81.1622 83.4678C81.1622 84.4747 81.1695 85.3872 81.1867 86.1794L113.179 85.4839C113.169 85.0043 113.162 84.3409 113.162 83.4678H81.1622ZM81.1987 86.5421C81.3198 89.2683 81.9932 92.2438 83.5567 95.124L111.68 79.8571C112.718 81.7696 113.101 83.6392 113.167 85.1213L81.1987 86.5421ZM83.5241 95.0636C86.4726 100.551 91.6135 103.975 97.3519 104.932L102.613 73.3671C104.113 73.6171 105.959 74.2296 107.773 75.503C109.606 76.789 110.891 78.3886 111.713 79.9175L83.5241 95.0636ZM97.3843 104.937C100.794 105.498 104.019 105.239 106.612 104.815L101.44 73.2354C101.195 73.2754 101.167 73.2654 101.32 73.2607C101.465 73.2562 101.913 73.2519 102.58 73.3618L97.3843 104.937ZM88.0258 89.025V91.7H120.026V89.025H88.0258ZM105.345 71.9178V69.3051H73.3447V71.9178H105.345ZM89.3447 85.3051H104.026V53.3051H89.3447V85.3051ZM88.0258 69.3051V71.9178H120.026V69.3051H88.0258ZM104.026 55.9178H89.3447V87.9178H104.026V55.9178ZM108.853 65.0542H92.8527C92.8527 73.8907 100.016 81.0542 108.853 81.0542V65.0542ZM108.853 61.6328V45.6328C100.016 45.6328 92.8527 52.7962 92.8527 61.6328H108.853ZM111.901 61.6328H127.901C127.901 52.7962 120.737 45.6328 111.901 45.6328V61.6328ZM111.901 65.0542V81.0542C120.737 81.0542 127.901 73.8907 127.901 65.0542H111.901ZM108.853 91.7H92.8527C92.8527 100.537 100.016 107.7 108.853 107.7V91.7ZM108.853 69.3051V53.3051C100.016 53.3051 92.8527 60.4685 92.8527 69.3051H108.853ZM111.901 69.3051H127.901C127.901 60.4685 120.737 53.3051 111.901 53.3051V69.3051ZM111.901 91.7V107.7C120.737 107.7 127.901 100.537 127.901 91.7H111.901ZM124.853 65.0542V61.6328H92.8527V65.0542H124.853ZM108.853 77.6328H111.901V45.6328H108.853V77.6328ZM95.9009 61.6328V65.0542H127.901V61.6328H95.9009ZM111.901 49.0542H108.853V81.0542H111.901V49.0542ZM124.853 91.7V69.3051H92.8527V91.7H124.853ZM108.853 85.3051H111.901V53.3051H108.853V85.3051ZM95.9009 69.3051V91.7H127.901V69.3051H95.9009ZM111.901 75.7H108.853V107.7H111.901V75.7ZM134.292 91.7H118.292C118.292 100.537 125.455 107.7 134.292 107.7V91.7ZM133.939 76.853L118.325 80.3456C118.328 80.3604 118.332 80.3752 118.335 80.3899L133.939 76.853ZM132.799 74.1158L119.378 82.8274C119.437 82.9188 119.498 83.0096 119.559 83.0998L132.799 74.1158ZM130.787 72.2911L123.345 86.4549C123.378 86.472 123.41 86.489 123.443 86.5059L130.787 72.2911ZM124.94 72.2081L118.374 57.6174C118.343 57.6312 118.312 57.6451 118.282 57.6592L124.94 72.2081ZM122.866 73.8255L110.396 63.8006C110.388 63.8105 110.38 63.8205 110.372 63.8304L122.866 73.8255ZM121.601 76.3553L136.961 80.8353L136.961 80.8353L121.601 76.3553ZM121.166 79.756L117.711 95.3785C122.447 96.4259 127.402 95.2685 131.184 92.2316C134.966 89.1947 137.166 84.6063 137.166 79.756H121.166ZM119.009 79.2791H103.009C103.009 86.7844 108.226 93.2809 115.554 94.9016L119.009 79.2791ZM120.212 73.4937L134.446 80.7999L134.446 80.7999L120.212 73.4937ZM131.886 69.3673L125.732 84.1365C125.756 84.1465 125.78 84.1564 125.804 84.1663L131.886 69.3673ZM134.437 71.0469L123.012 82.248C123.049 82.2857 123.086 82.3233 123.123 82.3606L134.437 71.0469ZM136.137 73.473L121.655 80.2752C121.668 80.3037 121.682 80.3321 121.695 80.3606L136.137 73.473ZM137.07 76.3553L121.349 79.3296C121.352 79.3427 121.354 79.3558 121.357 79.3689L137.07 76.3553ZM137.361 91.7V107.7C146.197 107.7 153.361 100.537 153.361 91.7H137.361ZM118.097 91.7H102.097C102.097 100.537 109.26 107.7 118.097 107.7V91.7ZM118.097 69.3051V53.3051C109.26 53.3051 102.097 60.4685 102.097 69.3051H118.097ZM120.855 69.3051H136.855C136.855 60.4685 129.691 53.3051 120.855 53.3051V69.3051ZM120.855 74.8208H104.855C104.855 83.6574 112.018 90.8208 120.855 90.8208V74.8208ZM121.166 74.8208H137.166C137.166 65.9843 130.002 58.8208 121.166 58.8208V74.8208ZM121.166 91.7V107.7C130.002 107.7 137.166 100.537 137.166 91.7H121.166ZM150.292 91.7V80.2744H118.292V91.7H150.292ZM150.292 80.2744C150.292 78.0361 150.081 75.6901 149.543 73.316L118.335 80.3899C118.3 80.2363 118.29 80.1443 118.288 80.1257C118.286 80.1075 118.292 80.1543 118.292 80.2744H150.292ZM149.553 73.3603C148.944 70.6388 147.85 67.8021 146.038 65.1318L119.559 83.0998C118.798 81.9778 118.464 80.9659 118.325 80.3456L149.553 73.3603ZM146.219 65.4043C144.204 62.3006 141.446 59.7887 138.132 58.0762L123.443 86.5059C121.787 85.6505 120.37 84.3551 119.378 82.8274L146.219 65.4043ZM138.229 58.1272C134.573 56.2061 130.874 55.6482 127.801 55.6482V87.6482C127.079 87.6482 125.37 87.519 123.345 86.4549L138.229 58.1272ZM127.801 55.6482C124.874 55.6482 121.615 56.159 118.374 57.6174L131.505 86.7989C129.924 87.5107 128.572 87.6482 127.801 87.6482V55.6482ZM118.282 57.6592C115.183 59.0771 112.508 61.1733 110.396 63.8006L135.336 83.8504C134.357 85.0677 133.065 86.0856 131.598 86.757L118.282 57.6592ZM110.372 63.8304C108.309 66.4097 107.018 69.2109 106.241 71.8753L136.961 80.8353C136.765 81.5091 136.318 82.6237 135.36 83.8206L110.372 63.8304ZM106.241 71.8753C105.443 74.6116 105.166 77.2974 105.166 79.756H137.166C137.166 79.671 137.179 80.0897 136.961 80.8353L106.241 71.8753ZM124.621 64.1335L122.464 63.6566L115.554 94.9016L117.711 95.3785L124.621 64.1335ZM135.009 79.2791C135.009 78.7732 135.105 79.5157 134.446 80.7999L105.977 66.1876C103.715 70.596 103.009 75.1954 103.009 79.2791H135.009ZM134.446 80.7999C134.226 81.2287 133.869 81.7865 133.326 82.3674C132.775 82.9557 132.131 83.4626 131.438 83.8565L115.621 56.0392C111.281 58.5071 108.078 62.0947 105.977 66.1876L134.446 80.7999ZM131.438 83.8565C130.148 84.59 128.977 84.7452 128.382 84.7452V52.7452C124.137 52.7452 119.731 53.7022 115.621 56.0392L131.438 83.8565ZM128.382 84.7452C128.108 84.7452 127.099 84.7061 125.732 84.1365L138.04 54.598C134.683 53.1991 131.337 52.7452 128.382 52.7452V84.7452ZM125.804 84.1663C125.019 83.8434 123.992 83.2477 123.012 82.248L145.862 59.8457C143.499 57.4361 140.772 55.7206 137.968 54.5682L125.804 84.1663ZM123.123 82.3606C122.504 81.7418 122.005 81.0198 121.655 80.2752L150.619 66.6708C149.412 64.1014 147.779 61.762 145.75 59.7332L123.123 82.3606ZM121.695 80.3606C121.504 79.9595 121.4 79.5986 121.349 79.3296L152.791 73.3811C152.353 71.0661 151.627 68.7837 150.579 66.5854L121.695 80.3606ZM121.357 79.3689C121.359 79.3789 121.36 79.3859 121.36 79.3901C121.361 79.3923 121.361 79.3938 121.361 79.3948C121.361 79.3958 121.361 79.3963 121.361 79.3963C121.361 79.3963 121.361 79.3959 121.361 79.3952C121.361 79.3945 121.361 79.3934 121.361 79.3921C121.361 79.3895 121.361 79.3863 121.361 79.3828H153.361C153.361 77.344 153.164 75.326 152.784 73.3417L121.357 79.3689ZM121.361 79.3828V91.7H153.361V79.3828H121.361ZM137.361 75.7H134.292V107.7H137.361V75.7ZM134.097 91.7V69.3051H102.097V91.7H134.097ZM118.097 85.3051H120.855V53.3051H118.097V85.3051ZM104.855 69.3051V74.8208H136.855V69.3051H104.855ZM120.855 90.8208H121.166V58.8208H120.855V90.8208ZM105.166 74.8208V91.7H137.166V74.8208H105.166ZM121.166 75.7H118.097V107.7H121.166V75.7ZM146.415 90.8705L138.096 104.538C138.113 104.548 138.131 104.559 138.148 104.57L146.415 90.8705ZM142.703 86.7855L156.991 79.5851L156.991 79.5851L142.703 86.7855ZM142.682 74.261L128.305 67.2396L128.305 67.2396L142.682 74.261ZM146.352 70.1345L138.033 56.4673C138.016 56.4781 137.998 56.4889 137.98 56.4998L146.352 70.1345ZM157.633 70.2175L148.867 83.6027C148.895 83.6209 148.923 83.639 148.951 83.657L157.633 70.2175ZM161.179 74.572L175.913 68.3343L175.913 68.3343L161.179 74.572ZM162.278 81.3527V97.3527C170.95 97.3527 178.044 90.4432 178.272 81.7736L162.278 81.3527ZM159.167 81.3527H143.167C143.167 90.1892 150.331 97.3527 159.167 97.3527V81.3527ZM159.167 80.2744H175.167C175.167 80.1728 175.166 80.0713 175.164 79.9697L159.167 80.2744ZM157.28 73.7011L144.809 83.7246C144.828 83.7481 144.847 83.7716 144.866 83.7949L157.28 73.7011ZM146.518 73.8255L134.164 63.658C134.146 63.6799 134.128 63.7017 134.111 63.7236L146.518 73.8255ZM146.518 87.0758L134.111 97.1777C134.143 97.2177 134.176 97.2575 134.209 97.2971L146.518 87.0758ZM156.161 88.2992L164.555 101.92C164.569 101.911 164.584 101.902 164.598 101.893L156.161 88.2992ZM159.001 85.0852L164.774 70.1629C157.056 67.1769 148.334 70.5698 144.662 77.9866L159.001 85.0852ZM161.842 86.1842L176.412 92.7972C178.231 88.7892 178.319 84.2087 176.654 80.1339C174.99 76.0591 171.72 72.85 167.615 71.2619L161.842 86.1842ZM157.923 90.7254L166.364 104.318C166.374 104.312 166.384 104.306 166.393 104.299L157.923 90.7254ZM143.532 81.3527H127.532C127.532 90.1892 134.696 97.3527 143.532 97.3527V81.3527ZM143.532 78.8022V62.8022C134.696 62.8022 127.532 69.9656 127.532 78.8022H143.532ZM160.64 78.8022H176.64C176.64 69.9656 169.476 62.8022 160.64 62.8022V78.8022ZM160.64 81.3527V97.3527C169.476 97.3527 176.64 90.1892 176.64 81.3527H160.64ZM152.096 76.322C152.186 76.322 152.51 76.3323 152.998 76.457C153.501 76.5854 154.086 76.8123 154.681 77.1715L138.148 104.57C142.636 107.277 147.489 108.322 152.096 108.322V76.322ZM154.734 77.2033C155.231 77.5059 155.714 77.8988 156.136 78.3637C156.555 78.8241 156.827 79.2596 156.991 79.5851L128.415 93.9859C130.566 98.2553 133.804 101.926 138.096 104.538L154.734 77.2033ZM156.991 79.5851C157.438 80.4709 157.376 80.9701 157.376 80.6062H125.376C125.376 84.97 126.199 89.5888 128.415 93.9859L156.991 79.5851ZM157.376 80.6062C157.376 80.0375 157.476 80.4295 157.059 81.2823L128.305 67.2396C126.147 71.659 125.376 76.2812 125.376 80.6062H157.376ZM157.059 81.2823C156.905 81.5978 156.637 82.0436 156.208 82.5254C155.774 83.0135 155.265 83.4373 154.725 83.7692L137.98 56.4998C133.625 59.1743 130.407 62.9349 128.305 67.2396L157.059 81.2823ZM154.672 83.8017C154.072 84.1665 153.475 84.4021 152.951 84.5374C152.441 84.6692 152.091 84.683 151.972 84.683V52.683C147.354 52.683 142.506 53.7451 138.033 56.4673L154.672 83.8017ZM151.972 84.683C151.846 84.683 151.446 84.6682 150.86 84.5093C150.255 84.3454 149.56 84.0565 148.867 83.6027L166.398 56.8322C161.782 53.8089 156.713 52.683 151.972 52.683V84.683ZM148.951 83.657C148.314 83.2454 147.745 82.732 147.284 82.1658C146.832 81.6103 146.575 81.1186 146.445 80.8098L175.913 68.3343C173.999 63.8134 170.853 59.7096 166.315 56.778L148.951 83.657ZM146.445 80.8098C146.294 80.4531 146.26 80.2406 146.261 80.2475C146.263 80.2609 146.295 80.4735 146.283 80.9318L178.272 81.7736C178.385 77.4741 177.816 72.8306 175.913 68.3343L146.445 80.8098ZM162.278 65.3527H159.167V97.3527H162.278V65.3527ZM175.167 81.3527V80.2744H143.167V81.3527H175.167ZM175.164 79.9697C175.075 75.2689 174.06 68.9763 169.695 63.6073L144.866 83.7949C143.867 82.5667 143.442 81.4484 143.275 80.8686C143.118 80.3204 143.162 80.1591 143.17 80.5791L175.164 79.9697ZM169.751 63.6776C164.885 57.6234 158.074 55.4824 152.055 55.4824V87.4824C151.5 87.4824 150.309 87.3928 148.829 86.7644C147.264 86.0999 145.863 85.0356 144.809 83.7246L169.751 63.6776ZM152.055 55.4824C145.869 55.4824 139.073 57.6933 134.164 63.658L158.872 83.993C157.891 85.1859 156.582 86.177 155.103 86.8029C153.699 87.3969 152.574 87.4824 152.055 87.4824V55.4824ZM134.111 63.7236C129.691 69.1524 128.611 75.4944 128.611 80.5025H160.611C160.611 79.7322 160.802 81.6229 158.926 83.9274L134.111 63.7236ZM128.611 80.5025C128.611 85.5517 129.74 91.8093 134.111 97.1777L158.926 76.9739C160.753 79.2181 160.611 81.0935 160.611 80.5025H128.611ZM134.209 97.2971C139.06 103.139 145.752 105.398 151.972 105.398V73.3983C152.55 73.3983 153.703 73.4958 155.115 74.0969C156.594 74.7266 157.875 75.7073 158.828 76.8545L134.209 97.2971ZM151.972 105.398C156.091 105.398 160.486 104.428 164.555 101.92L147.766 74.6782C149.458 73.6358 151.06 73.3983 151.972 73.3983V105.398ZM164.598 101.893C168.586 99.4182 171.464 95.9748 173.341 92.1837L144.662 77.9866C145.157 76.9879 146.14 75.6873 147.723 74.705L164.598 101.893ZM153.229 100.007L156.069 101.106L167.615 71.2619L164.774 70.1629L153.229 100.007ZM147.273 79.5711C147.417 79.2527 147.673 78.8059 148.086 78.3278C148.503 77.8445 148.979 77.4473 149.453 77.1513L166.393 104.299C170.936 101.465 174.294 97.4628 176.412 92.7972L147.273 79.5711ZM149.483 77.1328C149.931 76.8543 150.435 76.6334 150.952 76.4917C151.462 76.3522 151.863 76.322 152.096 76.322V108.322C157.015 108.322 161.923 107.075 166.364 104.318L149.483 77.1328ZM159.532 81.3527V78.8022H127.532V81.3527H159.532ZM143.532 94.8022H160.64V62.8022H143.532V94.8022ZM144.64 78.8022V81.3527H176.64V78.8022H144.64ZM160.64 65.3527H143.532V97.3527H160.64V65.3527Z" fill="white" mask="url(#path-1-outside-1_197_804)"/>
</svg>
