<svg width="190" height="113" viewBox="0 0 190 113" fill="none" xmlns="http://www.w3.org/2000/svg">
<rect x="2.40002" y="52" width="187.2" height="60.3" rx="13.5" fill="white"/>
<mask id="path-2-outside-1_195_411" maskUnits="userSpaceOnUse" x="-1" y="0.699951" width="191" height="110" fill="black">
<rect fill="white" x="-1" y="0.699951" width="191" height="110"/>
<path d="M26.7272 46.322C24.5845 46.322 22.6492 45.9557 20.9212 45.223C19.207 44.4765 17.79 43.419 16.6703 42.0504C15.5644 40.668 14.8455 39.0299 14.5137 37.136L19.0342 36.4517C19.4904 38.2765 20.4442 39.7003 21.8957 40.7233C23.3473 41.7325 25.0407 42.237 26.9761 42.237C28.1788 42.237 29.2847 42.0504 30.2938 41.6772C31.303 41.2901 32.1117 40.744 32.7199 40.039C33.342 39.3202 33.6531 38.4631 33.6531 37.4678C33.6531 36.9286 33.5563 36.4517 33.3628 36.037C33.183 35.6223 32.9273 35.2628 32.5955 34.9587C32.2776 34.6408 31.8836 34.3712 31.4136 34.15C30.9574 33.915 30.4528 33.7145 29.8998 33.5487L22.2483 31.2884C21.5018 31.0672 20.7414 30.7839 19.9673 30.4383C19.1932 30.0788 18.4812 29.6157 17.8315 29.0489C17.1956 28.4683 16.6772 27.7564 16.2763 26.9131C15.8754 26.056 15.6749 25.0192 15.6749 23.8027C15.6749 21.9641 16.145 20.4089 17.085 19.1371C18.0388 17.8515 19.3245 16.8838 20.9419 16.2341C22.5593 15.5705 24.3702 15.2388 26.3747 15.2388C28.393 15.2664 30.1971 15.6258 31.7868 16.317C33.3904 17.0082 34.7175 18.0036 35.7681 19.303C36.8326 20.5887 37.5652 22.1508 37.9661 23.9894L33.3213 24.7773C33.1139 23.6576 32.6716 22.6968 31.9942 21.895C31.3168 21.0794 30.4874 20.4573 29.5059 20.0288C28.5244 19.5864 27.4599 19.3583 26.3125 19.3445C25.2066 19.3168 24.1905 19.4827 23.2643 19.8422C22.3519 20.2016 21.6193 20.7062 21.0663 21.3559C20.5272 22.0056 20.2576 22.7521 20.2576 23.5954C20.2576 24.4248 20.4995 25.0953 20.9834 25.6068C21.4672 26.1183 22.0616 26.5261 22.7667 26.8302C23.4855 27.1205 24.1974 27.3624 24.9025 27.5559L30.4182 29.1112C31.1094 29.3047 31.8905 29.5673 32.7614 29.8991C33.6461 30.2171 34.4963 30.6664 35.3119 31.247C36.1414 31.8276 36.8257 32.6017 37.3648 33.5694C37.9039 34.5232 38.1735 35.7259 38.1735 37.1775C38.1735 38.6843 37.8694 40.0114 37.2611 41.1588C36.6529 42.2923 35.8165 43.2462 34.7521 44.0203C33.7014 44.7807 32.4849 45.3544 31.1025 45.7414C29.7201 46.1285 28.2617 46.322 26.7272 46.322ZM52.5251 46.322C50.2994 46.322 48.3433 45.8382 46.6568 44.8705C44.9841 43.889 43.6777 42.5273 42.7377 40.7855C41.8115 39.0299 41.3484 36.9977 41.3484 34.6891C41.3484 32.2423 41.8046 30.1203 42.717 28.3232C43.6432 26.5261 44.9288 25.1368 46.5739 24.1552C48.2189 23.1737 50.1335 22.683 52.3177 22.683C54.5987 22.683 56.541 23.2152 58.1445 24.2797C59.7481 25.3303 60.9439 26.8302 61.7319 28.7794C62.5337 30.7286 62.8516 33.0441 62.6857 35.7259H58.3519V34.15C58.3243 31.5511 57.8266 29.6295 56.8589 28.3854C55.9051 27.1412 54.4466 26.5191 52.4836 26.5191C50.3132 26.5191 48.682 27.2034 47.5899 28.572C46.4978 29.9406 45.9518 31.9174 45.9518 34.5025C45.9518 36.9632 46.4978 38.8709 47.5899 40.2256C48.682 41.5666 50.2579 42.237 52.3177 42.237C53.6725 42.237 54.8406 41.9329 55.8221 41.3247C56.8174 40.7026 57.5916 39.8178 58.1445 38.6704L62.3954 40.0183C61.5245 42.0228 60.2043 43.578 58.4348 44.6839C56.6654 45.776 54.6955 46.322 52.5251 46.322ZM44.5417 35.7259V32.346H60.5292V35.7259H44.5417ZM76.9181 46.322C74.6233 46.322 72.6741 45.8105 71.0705 44.7876C69.4669 43.7646 68.2366 42.3615 67.3795 40.5782C66.5362 38.7949 66.1077 36.7696 66.0939 34.5025C66.1077 32.1939 66.5501 30.1549 67.421 28.3854C68.2919 26.6021 69.5361 25.2059 71.1535 24.1967C72.7709 23.1876 74.7131 22.683 76.9803 22.683C79.4271 22.683 81.5146 23.2912 83.2426 24.5078C84.9844 25.7243 86.1318 27.3901 86.6847 29.5051L82.3716 30.7493C81.9431 29.4913 81.2381 28.5167 80.2566 27.8255C79.2889 27.1205 78.1761 26.768 76.9181 26.768C75.4942 26.768 74.3261 27.1067 73.4137 27.784C72.5013 28.4476 71.8239 29.36 71.3816 30.5212C70.9392 31.6824 70.7111 33.0095 70.6973 34.5025C70.7111 36.8111 71.2364 38.6774 72.2732 40.1012C73.3238 41.5251 74.8721 42.237 76.9181 42.237C78.3143 42.237 79.441 41.9191 80.298 41.2832C81.169 40.6335 81.8325 39.7072 82.2887 38.5046L86.6847 39.5414C85.9521 41.7256 84.7425 43.4052 83.0559 44.5802C81.3694 45.7414 79.3235 46.322 76.9181 46.322ZM99.3486 46.3013C97.8003 46.3013 96.5008 46.0525 95.4502 45.5548C94.3996 45.0571 93.5425 44.4074 92.879 43.6056C92.2292 42.79 91.7316 41.9053 91.386 40.9514C91.0404 39.9976 90.8054 39.0644 90.6809 38.152C90.5565 37.2397 90.4943 36.4379 90.4943 35.7467V23.3051H94.8903V34.3159C94.8903 35.1868 94.9595 36.0854 95.0977 37.0116C95.2498 37.924 95.5263 38.7741 95.9271 39.5621C96.3419 40.3501 96.9156 40.986 97.6482 41.4698C98.3947 41.9536 99.3624 42.1956 100.551 42.1956C101.325 42.1956 102.058 42.0712 102.749 41.8223C103.44 41.5597 104.042 41.1449 104.553 40.5782C105.079 40.0114 105.486 39.2649 105.777 38.3387C106.081 37.4125 106.233 36.2858 106.233 34.9587L108.929 35.9748C108.929 38.0069 108.548 39.804 107.788 41.3661C107.028 42.9144 105.936 44.124 104.512 44.9949C103.088 45.8658 101.367 46.3013 99.3486 46.3013ZM106.751 45.7V39.2303H106.233V23.3051H110.608V45.7H106.751ZM116.424 45.7V23.3051H120.281V28.7379L119.742 28.0329C120.018 27.314 120.378 26.6574 120.82 26.063C121.262 25.4547 121.774 24.957 122.355 24.57C122.921 24.1552 123.55 23.8373 124.242 23.6161C124.947 23.3811 125.665 23.2429 126.398 23.2014C127.131 23.1461 127.836 23.1807 128.513 23.3051V27.3693C127.78 27.1758 126.965 27.1205 126.066 27.2034C125.182 27.2864 124.366 27.5698 123.619 28.0536C122.914 28.5098 122.355 29.0628 121.94 29.7125C121.539 30.3622 121.249 31.088 121.069 31.8898C120.889 32.6777 120.799 33.5141 120.799 34.3988V45.7H116.424ZM141.99 46.322C139.764 46.322 137.808 45.8382 136.121 44.8705C134.449 43.889 133.142 42.5273 132.202 40.7855C131.276 39.0299 130.813 36.9977 130.813 34.6891C130.813 32.2423 131.269 30.1203 132.181 28.3232C133.108 26.5261 134.393 25.1368 136.038 24.1552C137.683 23.1737 139.598 22.683 141.782 22.683C144.063 22.683 146.005 23.2152 147.609 24.2797C149.213 25.3303 150.408 26.8302 151.196 28.7794C151.998 30.7286 152.316 33.0441 152.15 35.7259H147.816V34.15C147.789 31.5511 147.291 29.6295 146.323 28.3854C145.37 27.1412 143.911 26.5191 141.948 26.5191C139.778 26.5191 138.147 27.2034 137.054 28.572C135.962 29.9406 135.416 31.9174 135.416 34.5025C135.416 36.9632 135.962 38.8709 137.054 40.2256C138.147 41.5666 139.722 42.237 141.782 42.237C143.137 42.237 144.305 41.9329 145.287 41.3247C146.282 40.7026 147.056 39.8178 147.609 38.6704L151.86 40.0183C150.989 42.0228 149.669 43.578 147.899 44.6839C146.13 45.776 144.16 46.322 141.99 46.322ZM134.006 35.7259V32.346H149.994V35.7259H134.006ZM19.0964 96.6532L23.4302 84.8959L23.4924 88.3796L13.6843 64.3051H16.9191L24.9647 84.4397H23.6376L31.0611 64.3051H34.1715L22.1446 96.6532H19.0964ZM46.315 87.322C44.0893 87.322 42.1885 86.8175 40.6126 85.8083C39.0366 84.7992 37.827 83.4029 36.9838 81.6196C36.1405 79.8363 35.7189 77.7904 35.7189 75.4818C35.7189 73.1317 36.1474 71.0719 37.0045 69.3024C37.8616 67.533 39.0781 66.1575 40.654 65.176C42.2438 64.1807 44.1308 63.683 46.315 63.683C48.5545 63.683 50.4622 64.1876 52.0381 65.1967C53.6279 66.192 54.8375 67.5814 55.6669 69.3647C56.5102 71.1341 56.9318 73.1732 56.9318 75.4818C56.9318 77.8319 56.5102 79.8985 55.6669 81.6818C54.8236 83.4513 53.6071 84.8337 52.0174 85.829C50.4276 86.8244 48.5268 87.322 46.315 87.322ZM46.315 84.3983C48.8033 84.3983 50.6557 83.5757 51.8722 81.9307C53.0887 80.2718 53.697 78.1222 53.697 75.4818C53.697 72.7723 53.0818 70.6157 51.8515 69.0121C50.635 67.4086 48.7895 66.6068 46.315 66.6068C44.6423 66.6068 43.2599 66.9869 42.1678 67.7472C41.0895 68.4937 40.2808 69.5375 39.7417 70.8784C39.2164 72.2055 38.9537 73.74 38.9537 75.4818C38.9537 78.1775 39.5758 80.3409 40.8199 81.9721C42.0641 83.5896 43.8958 84.3983 46.315 84.3983ZM70.07 87.2598C68.7291 87.2598 67.554 87.0525 66.5449 86.6377C65.5496 86.223 64.6994 85.6632 63.9944 84.9581C63.3032 84.2531 62.7433 83.4513 62.3147 82.5528C61.8862 81.6404 61.5752 80.6796 61.3816 79.6704C61.1881 78.6475 61.0913 77.6314 61.0913 76.6223V64.3051H64.1602V75.7306C64.1602 76.9609 64.2777 78.1014 64.5128 79.152C64.7478 80.2027 65.121 81.122 65.6325 81.9099C66.1578 82.6841 66.8283 83.2854 67.6439 83.714C68.4733 84.1425 69.4756 84.3568 70.6506 84.3568C71.7289 84.3568 72.6758 84.1702 73.4914 83.7969C74.3209 83.4237 75.0121 82.8914 75.565 82.2002C76.1318 81.4952 76.5604 80.645 76.8507 79.6497C77.141 78.6406 77.2861 77.507 77.2861 76.249L79.4427 76.7259C79.4427 79.0207 79.0418 80.9492 78.24 82.5113C77.4382 84.0734 76.3323 85.2553 74.9222 86.0571C73.5122 86.8589 71.8948 87.2598 70.07 87.2598ZM77.5972 86.7V81.1842H77.2861V64.3051H80.3343V86.7H77.5972ZM86.13 86.7V64.3051H88.8672V69.6964L88.3281 68.9914C88.5769 68.3279 88.9017 67.7196 89.3026 67.1666C89.7035 66.5999 90.139 66.1368 90.609 65.7773C91.1896 65.2658 91.867 64.8788 92.6411 64.6161C93.4153 64.3396 94.1963 64.1807 94.9843 64.1392C95.7723 64.0839 96.4911 64.1392 97.1409 64.3051V67.1666C96.3252 66.9593 95.4336 66.9109 94.4659 67.0215C93.4982 67.1321 92.6066 67.5192 91.791 68.1827C91.0445 68.7633 90.4846 69.4614 90.1113 70.277C89.7381 71.0788 89.4893 71.9359 89.3649 72.8483C89.2404 73.7469 89.1782 74.6385 89.1782 75.5232V86.7H86.13ZM118.667 87.322C116.413 87.322 114.506 86.8175 112.944 85.8083C111.382 84.7992 110.193 83.4098 109.377 81.6404C108.575 79.8571 108.161 77.8111 108.133 75.5025C108.161 73.1524 108.589 71.0927 109.419 69.3232C110.248 67.5399 111.444 66.1575 113.006 65.176C114.568 64.1807 116.462 63.683 118.688 63.683C120.955 63.683 122.925 64.236 124.597 65.3419C126.284 66.4478 127.438 67.9615 128.06 69.8831L125.074 70.8369C124.549 69.496 123.713 68.4592 122.565 67.7265C121.432 66.98 120.132 66.6068 118.667 66.6068C117.022 66.6068 115.66 66.9869 114.582 67.7472C113.504 68.4937 112.702 69.5375 112.176 70.8784C111.651 72.2193 111.382 73.7607 111.368 75.5025C111.395 78.1844 112.017 80.3409 113.234 81.9721C114.45 83.5896 116.261 84.3983 118.667 84.3983C120.187 84.3983 121.48 84.0527 122.544 83.3615C123.623 82.6564 124.438 81.6335 124.991 80.2925L128.06 81.2049C127.231 83.1956 126.014 84.7162 124.411 85.7668C122.807 86.8036 120.892 87.322 118.667 87.322ZM138.626 87.322C136.94 87.322 135.523 87.0179 134.376 86.4096C133.242 85.8014 132.392 84.9927 131.825 83.9835C131.258 82.9744 130.975 81.8754 130.975 80.6865C130.975 79.47 131.217 78.4332 131.701 77.5761C132.198 76.7052 132.869 75.9933 133.712 75.4403C134.569 74.8873 135.558 74.4657 136.677 74.1754C137.811 73.8989 139.062 73.657 140.43 73.4496C141.813 73.2285 143.161 73.0418 144.474 72.8898C145.801 72.7239 146.962 72.5649 147.958 72.4128L146.879 73.0764C146.921 70.8646 146.492 69.2264 145.594 68.162C144.695 67.0975 143.133 66.5653 140.907 66.5653C139.373 66.5653 138.074 66.9109 137.009 67.6021C135.958 68.2933 135.219 69.3854 134.79 70.8784L131.825 70.0075C132.337 68.003 133.366 66.4478 134.915 65.3419C136.463 64.236 138.474 63.683 140.949 63.683C142.995 63.683 144.73 64.0701 146.154 64.8442C147.591 65.6045 148.607 66.7104 149.202 68.162C149.478 68.8117 149.658 69.5375 149.741 70.3392C149.824 71.141 149.865 71.9567 149.865 72.7861V86.7H147.149V81.0805L147.937 81.4123C147.177 83.3338 145.995 84.7992 144.391 85.8083C142.787 86.8175 140.866 87.322 138.626 87.322ZM138.979 84.6886C140.403 84.6886 141.647 84.4328 142.711 83.9213C143.776 83.4098 144.633 82.7117 145.283 81.827C145.932 80.9284 146.354 79.9193 146.548 78.7995C146.714 78.0807 146.803 77.2927 146.817 76.4356C146.831 75.5647 146.838 74.915 146.838 74.4864L147.999 75.0878C146.962 75.226 145.836 75.3643 144.619 75.5025C143.416 75.6408 142.228 75.7997 141.053 75.9794C139.891 76.1592 138.841 76.3734 137.901 76.6223C137.265 76.802 136.65 77.0577 136.055 77.3895C135.461 77.7074 134.97 78.136 134.583 78.6751C134.21 79.2143 134.023 79.8847 134.023 80.6865C134.023 81.3362 134.182 81.9652 134.5 82.5735C134.832 83.1817 135.357 83.6863 136.076 84.0872C136.809 84.4881 137.776 84.6886 138.979 84.6886ZM155.264 86.7V64.3051H158.001V69.6964L157.462 68.9914C157.71 68.3279 158.035 67.7196 158.436 67.1666C158.837 66.5999 159.273 66.1368 159.743 65.7773C160.323 65.2658 161.001 64.8788 161.775 64.6161C162.549 64.3396 163.33 64.1807 164.118 64.1392C164.906 64.0839 165.625 64.1392 166.274 64.3051V67.1666C165.459 66.9593 164.567 66.9109 163.599 67.0215C162.632 67.1321 161.74 67.5192 160.924 68.1827C160.178 68.7633 159.618 69.4614 159.245 70.277C158.872 71.0788 158.623 71.9359 158.498 72.8483C158.374 73.7469 158.312 74.6385 158.312 75.5232V86.7H155.264ZM172.282 86.7V83.2785H175.33V86.7H172.282ZM172.282 79.235V56.8401H175.33V79.235H172.282Z"/>
</mask>
<path d="M26.7272 46.322C24.5845 46.322 22.6492 45.9557 20.9212 45.223C19.207 44.4765 17.79 43.419 16.6703 42.0504C15.5644 40.668 14.8455 39.0299 14.5137 37.136L19.0342 36.4517C19.4904 38.2765 20.4442 39.7003 21.8957 40.7233C23.3473 41.7325 25.0407 42.237 26.9761 42.237C28.1788 42.237 29.2847 42.0504 30.2938 41.6772C31.303 41.2901 32.1117 40.744 32.7199 40.039C33.342 39.3202 33.6531 38.4631 33.6531 37.4678C33.6531 36.9286 33.5563 36.4517 33.3628 36.037C33.183 35.6223 32.9273 35.2628 32.5955 34.9587C32.2776 34.6408 31.8836 34.3712 31.4136 34.15C30.9574 33.915 30.4528 33.7145 29.8998 33.5487L22.2483 31.2884C21.5018 31.0672 20.7414 30.7839 19.9673 30.4383C19.1932 30.0788 18.4812 29.6157 17.8315 29.0489C17.1956 28.4683 16.6772 27.7564 16.2763 26.9131C15.8754 26.056 15.6749 25.0192 15.6749 23.8027C15.6749 21.9641 16.145 20.4089 17.085 19.1371C18.0388 17.8515 19.3245 16.8838 20.9419 16.2341C22.5593 15.5705 24.3702 15.2388 26.3747 15.2388C28.393 15.2664 30.1971 15.6258 31.7868 16.317C33.3904 17.0082 34.7175 18.0036 35.7681 19.303C36.8326 20.5887 37.5652 22.1508 37.9661 23.9894L33.3213 24.7773C33.1139 23.6576 32.6716 22.6968 31.9942 21.895C31.3168 21.0794 30.4874 20.4573 29.5059 20.0288C28.5244 19.5864 27.4599 19.3583 26.3125 19.3445C25.2066 19.3168 24.1905 19.4827 23.2643 19.8422C22.3519 20.2016 21.6193 20.7062 21.0663 21.3559C20.5272 22.0056 20.2576 22.7521 20.2576 23.5954C20.2576 24.4248 20.4995 25.0953 20.9834 25.6068C21.4672 26.1183 22.0616 26.5261 22.7667 26.8302C23.4855 27.1205 24.1974 27.3624 24.9025 27.5559L30.4182 29.1112C31.1094 29.3047 31.8905 29.5673 32.7614 29.8991C33.6461 30.2171 34.4963 30.6664 35.3119 31.247C36.1414 31.8276 36.8257 32.6017 37.3648 33.5694C37.9039 34.5232 38.1735 35.7259 38.1735 37.1775C38.1735 38.6843 37.8694 40.0114 37.2611 41.1588C36.6529 42.2923 35.8165 43.2462 34.7521 44.0203C33.7014 44.7807 32.4849 45.3544 31.1025 45.7414C29.7201 46.1285 28.2617 46.322 26.7272 46.322ZM52.5251 46.322C50.2994 46.322 48.3433 45.8382 46.6568 44.8705C44.9841 43.889 43.6777 42.5273 42.7377 40.7855C41.8115 39.0299 41.3484 36.9977 41.3484 34.6891C41.3484 32.2423 41.8046 30.1203 42.717 28.3232C43.6432 26.5261 44.9288 25.1368 46.5739 24.1552C48.2189 23.1737 50.1335 22.683 52.3177 22.683C54.5987 22.683 56.541 23.2152 58.1445 24.2797C59.7481 25.3303 60.9439 26.8302 61.7319 28.7794C62.5337 30.7286 62.8516 33.0441 62.6857 35.7259H58.3519V34.15C58.3243 31.5511 57.8266 29.6295 56.8589 28.3854C55.9051 27.1412 54.4466 26.5191 52.4836 26.5191C50.3132 26.5191 48.682 27.2034 47.5899 28.572C46.4978 29.9406 45.9518 31.9174 45.9518 34.5025C45.9518 36.9632 46.4978 38.8709 47.5899 40.2256C48.682 41.5666 50.2579 42.237 52.3177 42.237C53.6725 42.237 54.8406 41.9329 55.8221 41.3247C56.8174 40.7026 57.5916 39.8178 58.1445 38.6704L62.3954 40.0183C61.5245 42.0228 60.2043 43.578 58.4348 44.6839C56.6654 45.776 54.6955 46.322 52.5251 46.322ZM44.5417 35.7259V32.346H60.5292V35.7259H44.5417ZM76.9181 46.322C74.6233 46.322 72.6741 45.8105 71.0705 44.7876C69.4669 43.7646 68.2366 42.3615 67.3795 40.5782C66.5362 38.7949 66.1077 36.7696 66.0939 34.5025C66.1077 32.1939 66.5501 30.1549 67.421 28.3854C68.2919 26.6021 69.5361 25.2059 71.1535 24.1967C72.7709 23.1876 74.7131 22.683 76.9803 22.683C79.4271 22.683 81.5146 23.2912 83.2426 24.5078C84.9844 25.7243 86.1318 27.3901 86.6847 29.5051L82.3716 30.7493C81.9431 29.4913 81.2381 28.5167 80.2566 27.8255C79.2889 27.1205 78.1761 26.768 76.9181 26.768C75.4942 26.768 74.3261 27.1067 73.4137 27.784C72.5013 28.4476 71.8239 29.36 71.3816 30.5212C70.9392 31.6824 70.7111 33.0095 70.6973 34.5025C70.7111 36.8111 71.2364 38.6774 72.2732 40.1012C73.3238 41.5251 74.8721 42.237 76.9181 42.237C78.3143 42.237 79.441 41.9191 80.298 41.2832C81.169 40.6335 81.8325 39.7072 82.2887 38.5046L86.6847 39.5414C85.9521 41.7256 84.7425 43.4052 83.0559 44.5802C81.3694 45.7414 79.3235 46.322 76.9181 46.322ZM99.3486 46.3013C97.8003 46.3013 96.5008 46.0525 95.4502 45.5548C94.3996 45.0571 93.5425 44.4074 92.879 43.6056C92.2292 42.79 91.7316 41.9053 91.386 40.9514C91.0404 39.9976 90.8054 39.0644 90.6809 38.152C90.5565 37.2397 90.4943 36.4379 90.4943 35.7467V23.3051H94.8903V34.3159C94.8903 35.1868 94.9595 36.0854 95.0977 37.0116C95.2498 37.924 95.5263 38.7741 95.9271 39.5621C96.3419 40.3501 96.9156 40.986 97.6482 41.4698C98.3947 41.9536 99.3624 42.1956 100.551 42.1956C101.325 42.1956 102.058 42.0712 102.749 41.8223C103.44 41.5597 104.042 41.1449 104.553 40.5782C105.079 40.0114 105.486 39.2649 105.777 38.3387C106.081 37.4125 106.233 36.2858 106.233 34.9587L108.929 35.9748C108.929 38.0069 108.548 39.804 107.788 41.3661C107.028 42.9144 105.936 44.124 104.512 44.9949C103.088 45.8658 101.367 46.3013 99.3486 46.3013ZM106.751 45.7V39.2303H106.233V23.3051H110.608V45.7H106.751ZM116.424 45.7V23.3051H120.281V28.7379L119.742 28.0329C120.018 27.314 120.378 26.6574 120.82 26.063C121.262 25.4547 121.774 24.957 122.355 24.57C122.921 24.1552 123.55 23.8373 124.242 23.6161C124.947 23.3811 125.665 23.2429 126.398 23.2014C127.131 23.1461 127.836 23.1807 128.513 23.3051V27.3693C127.78 27.1758 126.965 27.1205 126.066 27.2034C125.182 27.2864 124.366 27.5698 123.619 28.0536C122.914 28.5098 122.355 29.0628 121.94 29.7125C121.539 30.3622 121.249 31.088 121.069 31.8898C120.889 32.6777 120.799 33.5141 120.799 34.3988V45.7H116.424ZM141.99 46.322C139.764 46.322 137.808 45.8382 136.121 44.8705C134.449 43.889 133.142 42.5273 132.202 40.7855C131.276 39.0299 130.813 36.9977 130.813 34.6891C130.813 32.2423 131.269 30.1203 132.181 28.3232C133.108 26.5261 134.393 25.1368 136.038 24.1552C137.683 23.1737 139.598 22.683 141.782 22.683C144.063 22.683 146.005 23.2152 147.609 24.2797C149.213 25.3303 150.408 26.8302 151.196 28.7794C151.998 30.7286 152.316 33.0441 152.15 35.7259H147.816V34.15C147.789 31.5511 147.291 29.6295 146.323 28.3854C145.37 27.1412 143.911 26.5191 141.948 26.5191C139.778 26.5191 138.147 27.2034 137.054 28.572C135.962 29.9406 135.416 31.9174 135.416 34.5025C135.416 36.9632 135.962 38.8709 137.054 40.2256C138.147 41.5666 139.722 42.237 141.782 42.237C143.137 42.237 144.305 41.9329 145.287 41.3247C146.282 40.7026 147.056 39.8178 147.609 38.6704L151.86 40.0183C150.989 42.0228 149.669 43.578 147.899 44.6839C146.13 45.776 144.16 46.322 141.99 46.322ZM134.006 35.7259V32.346H149.994V35.7259H134.006ZM19.0964 96.6532L23.4302 84.8959L23.4924 88.3796L13.6843 64.3051H16.9191L24.9647 84.4397H23.6376L31.0611 64.3051H34.1715L22.1446 96.6532H19.0964ZM46.315 87.322C44.0893 87.322 42.1885 86.8175 40.6126 85.8083C39.0366 84.7992 37.827 83.4029 36.9838 81.6196C36.1405 79.8363 35.7189 77.7904 35.7189 75.4818C35.7189 73.1317 36.1474 71.0719 37.0045 69.3024C37.8616 67.533 39.0781 66.1575 40.654 65.176C42.2438 64.1807 44.1308 63.683 46.315 63.683C48.5545 63.683 50.4622 64.1876 52.0381 65.1967C53.6279 66.192 54.8375 67.5814 55.6669 69.3647C56.5102 71.1341 56.9318 73.1732 56.9318 75.4818C56.9318 77.8319 56.5102 79.8985 55.6669 81.6818C54.8236 83.4513 53.6071 84.8337 52.0174 85.829C50.4276 86.8244 48.5268 87.322 46.315 87.322ZM46.315 84.3983C48.8033 84.3983 50.6557 83.5757 51.8722 81.9307C53.0887 80.2718 53.697 78.1222 53.697 75.4818C53.697 72.7723 53.0818 70.6157 51.8515 69.0121C50.635 67.4086 48.7895 66.6068 46.315 66.6068C44.6423 66.6068 43.2599 66.9869 42.1678 67.7472C41.0895 68.4937 40.2808 69.5375 39.7417 70.8784C39.2164 72.2055 38.9537 73.74 38.9537 75.4818C38.9537 78.1775 39.5758 80.3409 40.8199 81.9721C42.0641 83.5896 43.8958 84.3983 46.315 84.3983ZM70.07 87.2598C68.7291 87.2598 67.554 87.0525 66.5449 86.6377C65.5496 86.223 64.6994 85.6632 63.9944 84.9581C63.3032 84.2531 62.7433 83.4513 62.3147 82.5528C61.8862 81.6404 61.5752 80.6796 61.3816 79.6704C61.1881 78.6475 61.0913 77.6314 61.0913 76.6223V64.3051H64.1602V75.7306C64.1602 76.9609 64.2777 78.1014 64.5128 79.152C64.7478 80.2027 65.121 81.122 65.6325 81.9099C66.1578 82.6841 66.8283 83.2854 67.6439 83.714C68.4733 84.1425 69.4756 84.3568 70.6506 84.3568C71.7289 84.3568 72.6758 84.1702 73.4914 83.7969C74.3209 83.4237 75.0121 82.8914 75.565 82.2002C76.1318 81.4952 76.5604 80.645 76.8507 79.6497C77.141 78.6406 77.2861 77.507 77.2861 76.249L79.4427 76.7259C79.4427 79.0207 79.0418 80.9492 78.24 82.5113C77.4382 84.0734 76.3323 85.2553 74.9222 86.0571C73.5122 86.8589 71.8948 87.2598 70.07 87.2598ZM77.5972 86.7V81.1842H77.2861V64.3051H80.3343V86.7H77.5972ZM86.13 86.7V64.3051H88.8672V69.6964L88.3281 68.9914C88.5769 68.3279 88.9017 67.7196 89.3026 67.1666C89.7035 66.5999 90.139 66.1368 90.609 65.7773C91.1896 65.2658 91.867 64.8788 92.6411 64.6161C93.4153 64.3396 94.1963 64.1807 94.9843 64.1392C95.7723 64.0839 96.4911 64.1392 97.1409 64.3051V67.1666C96.3252 66.9593 95.4336 66.9109 94.4659 67.0215C93.4982 67.1321 92.6066 67.5192 91.791 68.1827C91.0445 68.7633 90.4846 69.4614 90.1113 70.277C89.7381 71.0788 89.4893 71.9359 89.3649 72.8483C89.2404 73.7469 89.1782 74.6385 89.1782 75.5232V86.7H86.13ZM118.667 87.322C116.413 87.322 114.506 86.8175 112.944 85.8083C111.382 84.7992 110.193 83.4098 109.377 81.6404C108.575 79.8571 108.161 77.8111 108.133 75.5025C108.161 73.1524 108.589 71.0927 109.419 69.3232C110.248 67.5399 111.444 66.1575 113.006 65.176C114.568 64.1807 116.462 63.683 118.688 63.683C120.955 63.683 122.925 64.236 124.597 65.3419C126.284 66.4478 127.438 67.9615 128.06 69.8831L125.074 70.8369C124.549 69.496 123.713 68.4592 122.565 67.7265C121.432 66.98 120.132 66.6068 118.667 66.6068C117.022 66.6068 115.66 66.9869 114.582 67.7472C113.504 68.4937 112.702 69.5375 112.176 70.8784C111.651 72.2193 111.382 73.7607 111.368 75.5025C111.395 78.1844 112.017 80.3409 113.234 81.9721C114.45 83.5896 116.261 84.3983 118.667 84.3983C120.187 84.3983 121.48 84.0527 122.544 83.3615C123.623 82.6564 124.438 81.6335 124.991 80.2925L128.06 81.2049C127.231 83.1956 126.014 84.7162 124.411 85.7668C122.807 86.8036 120.892 87.322 118.667 87.322ZM138.626 87.322C136.94 87.322 135.523 87.0179 134.376 86.4096C133.242 85.8014 132.392 84.9927 131.825 83.9835C131.258 82.9744 130.975 81.8754 130.975 80.6865C130.975 79.47 131.217 78.4332 131.701 77.5761C132.198 76.7052 132.869 75.9933 133.712 75.4403C134.569 74.8873 135.558 74.4657 136.677 74.1754C137.811 73.8989 139.062 73.657 140.43 73.4496C141.813 73.2285 143.161 73.0418 144.474 72.8898C145.801 72.7239 146.962 72.5649 147.958 72.4128L146.879 73.0764C146.921 70.8646 146.492 69.2264 145.594 68.162C144.695 67.0975 143.133 66.5653 140.907 66.5653C139.373 66.5653 138.074 66.9109 137.009 67.6021C135.958 68.2933 135.219 69.3854 134.79 70.8784L131.825 70.0075C132.337 68.003 133.366 66.4478 134.915 65.3419C136.463 64.236 138.474 63.683 140.949 63.683C142.995 63.683 144.73 64.0701 146.154 64.8442C147.591 65.6045 148.607 66.7104 149.202 68.162C149.478 68.8117 149.658 69.5375 149.741 70.3392C149.824 71.141 149.865 71.9567 149.865 72.7861V86.7H147.149V81.0805L147.937 81.4123C147.177 83.3338 145.995 84.7992 144.391 85.8083C142.787 86.8175 140.866 87.322 138.626 87.322ZM138.979 84.6886C140.403 84.6886 141.647 84.4328 142.711 83.9213C143.776 83.4098 144.633 82.7117 145.283 81.827C145.932 80.9284 146.354 79.9193 146.548 78.7995C146.714 78.0807 146.803 77.2927 146.817 76.4356C146.831 75.5647 146.838 74.915 146.838 74.4864L147.999 75.0878C146.962 75.226 145.836 75.3643 144.619 75.5025C143.416 75.6408 142.228 75.7997 141.053 75.9794C139.891 76.1592 138.841 76.3734 137.901 76.6223C137.265 76.802 136.65 77.0577 136.055 77.3895C135.461 77.7074 134.97 78.136 134.583 78.6751C134.21 79.2143 134.023 79.8847 134.023 80.6865C134.023 81.3362 134.182 81.9652 134.5 82.5735C134.832 83.1817 135.357 83.6863 136.076 84.0872C136.809 84.4881 137.776 84.6886 138.979 84.6886ZM155.264 86.7V64.3051H158.001V69.6964L157.462 68.9914C157.71 68.3279 158.035 67.7196 158.436 67.1666C158.837 66.5999 159.273 66.1368 159.743 65.7773C160.323 65.2658 161.001 64.8788 161.775 64.6161C162.549 64.3396 163.33 64.1807 164.118 64.1392C164.906 64.0839 165.625 64.1392 166.274 64.3051V67.1666C165.459 66.9593 164.567 66.9109 163.599 67.0215C162.632 67.1321 161.74 67.5192 160.924 68.1827C160.178 68.7633 159.618 69.4614 159.245 70.277C158.872 71.0788 158.623 71.9359 158.498 72.8483C158.374 73.7469 158.312 74.6385 158.312 75.5232V86.7H155.264ZM172.282 86.7V83.2785H175.33V86.7H172.282ZM172.282 79.235V56.8401H175.33V79.235H172.282Z" fill="black"/>
<path d="M20.9212 45.223L15.3314 58.0587C15.3729 58.0768 15.4145 58.0946 15.4561 58.1123L20.9212 45.223ZM16.6703 42.0504L5.73811 50.7961C5.77014 50.8362 5.8024 50.8761 5.83487 50.9157L16.6703 42.0504ZM14.5137 37.136L12.4183 23.2937C8.69148 23.8578 5.34957 25.901 3.14853 28.9609C0.947499 32.0208 0.0733173 35.839 0.723729 39.5517L14.5137 37.136ZM19.0342 36.4517L32.6162 33.0562C30.8653 26.0528 24.0764 21.5289 16.9388 22.6094L19.0342 36.4517ZM21.8957 40.7233L13.8307 52.1669C13.8551 52.1841 13.8796 52.2012 13.9041 52.2182L21.8957 40.7233ZM30.2938 41.6772L35.1504 54.8078C35.2029 54.7884 35.2553 54.7687 35.3075 54.7486L30.2938 41.6772ZM32.7199 40.039L22.1336 30.8777C22.129 30.8831 22.1243 30.8884 22.1197 30.8938L32.7199 40.039ZM33.3628 36.037L20.517 41.6035C20.5684 41.7222 20.6215 41.8401 20.6762 41.9574L33.3628 36.037ZM32.5955 34.9587L22.696 44.8582C22.8394 45.0016 22.9859 45.1418 23.1354 45.2789L32.5955 34.9587ZM31.4136 34.15L25.0022 46.5957C25.1509 46.6723 25.301 46.7462 25.4524 46.8175L31.4136 34.15ZM29.8998 33.5487L33.9227 20.1391C33.9038 20.1334 33.8849 20.1278 33.8659 20.1222L29.8998 33.5487ZM22.2483 31.2884L18.271 44.7116L18.2822 44.7149L22.2483 31.2884ZM19.9673 30.4383L14.0717 43.1364C14.1343 43.1654 14.1972 43.194 14.2602 43.2222L19.9673 30.4383ZM17.8315 29.0489L8.39172 39.3877C8.46979 39.459 8.54866 39.5294 8.62832 39.5989L17.8315 29.0489ZM16.2763 26.9131L3.59495 32.8447C3.60736 32.8712 3.61984 32.8977 3.63241 32.9242L16.2763 26.9131ZM17.085 19.1371L5.84162 10.7953C5.83658 10.8021 5.83155 10.8089 5.82653 10.8157L17.085 19.1371ZM20.9419 16.2341L26.1605 29.2251C26.1923 29.2123 26.224 29.1994 26.2557 29.1865L20.9419 16.2341ZM26.3747 15.2388L26.5665 1.24008C26.5026 1.2392 26.4386 1.23876 26.3747 1.23876L26.3747 15.2388ZM31.7868 16.317L26.2046 29.156C26.2182 29.1619 26.2317 29.1677 26.2452 29.1736L31.7868 16.317ZM35.7681 19.303L24.8813 28.1051C24.9155 28.1474 24.9499 28.1895 24.9846 28.2313L35.7681 19.303ZM37.9661 23.9894L40.3077 37.7922C44.0801 37.1522 47.4262 34.9961 49.5678 31.8253C51.7094 28.6545 52.4599 24.7453 51.6448 21.0068L37.9661 23.9894ZM33.3213 24.7773L19.5553 27.3266C20.9483 34.8484 28.1208 39.8596 35.6628 38.5801L33.3213 24.7773ZM31.9942 21.895L21.2241 30.8396C21.2492 30.8698 21.2744 30.8999 21.2998 30.9299L31.9942 21.895ZM29.5059 20.0288L23.7533 32.7923C23.8033 32.8149 23.8535 32.8372 23.9039 32.8591L29.5059 20.0288ZM26.3125 19.3445L25.9626 33.3401C26.023 33.3416 26.0834 33.3428 26.1439 33.3435L26.3125 19.3445ZM23.2643 19.8422L18.1995 6.79043C18.1773 6.79905 18.1551 6.80771 18.133 6.81644L23.2643 19.8422ZM21.0663 21.3559L10.4047 12.2822C10.367 12.3265 10.3296 12.3711 10.2924 12.4159L21.0663 21.3559ZM20.9834 25.6068L31.1539 15.986L20.9834 25.6068ZM22.7667 26.8302L17.2214 39.6851C17.3218 39.7285 17.4228 39.7706 17.5242 39.8116L22.7667 26.8302ZM24.9025 27.5559L28.7017 14.0813C28.6707 14.0726 28.6396 14.0639 28.6085 14.0554L24.9025 27.5559ZM30.4182 29.1112L26.619 42.5858C26.6271 42.5881 26.6353 42.5904 26.6434 42.5926L30.4182 29.1112ZM32.7614 29.8991L27.7775 42.9819C27.8602 43.0135 27.9433 43.0442 28.0266 43.0742L32.7614 29.8991ZM35.3119 31.247L27.1929 42.6523C27.223 42.6737 27.2532 42.695 27.2835 42.7162L35.3119 31.247ZM37.3648 33.5694L25.1349 40.3832C25.1488 40.4083 25.1628 40.4332 25.1769 40.4582L37.3648 33.5694ZM37.2611 41.1588L49.5974 47.7782C49.6085 47.7575 49.6195 47.7368 49.6305 47.716L37.2611 41.1588ZM34.7521 44.0203L42.9598 55.362C42.9687 55.3555 42.9776 55.3491 42.9865 55.3426L34.7521 44.0203ZM31.1025 45.7414L27.3277 32.2599L27.3277 32.2599L31.1025 45.7414ZM26.7272 32.322C26.454 32.322 26.3106 32.2988 26.2724 32.2915C26.2383 32.2851 26.2859 32.2912 26.3862 32.3338L15.4561 58.1123C19.1407 59.6746 22.9712 60.322 26.7272 60.322V32.322ZM26.5109 32.3873C26.5844 32.4193 26.7442 32.4994 26.9465 32.6503C27.1515 32.8033 27.3439 32.9874 27.5057 33.1851L5.83487 50.9157C8.44376 54.1044 11.6984 56.4766 15.3314 58.0587L26.5109 32.3873ZM27.6024 33.3047C27.8201 33.5768 27.9958 33.8724 28.1217 34.1594C28.2453 34.441 28.2904 34.6442 28.3037 34.7202L0.723729 39.5517C1.42547 43.5575 3.03847 47.4216 5.73811 50.7961L27.6024 33.3047ZM16.6091 50.9783L21.1296 50.294L16.9388 22.6094L12.4183 23.2937L16.6091 50.9783ZM5.45218 39.8472C6.67037 44.7199 9.46309 49.0887 13.8307 52.1669L29.9607 29.2797C30.586 29.7204 31.2105 30.3313 31.723 31.0963C32.2285 31.851 32.4906 32.554 32.6162 33.0562L5.45218 39.8472ZM13.9041 52.2182C17.924 55.013 22.4672 56.237 26.9761 56.237V28.237C27.2342 28.237 27.6844 28.2723 28.2522 28.4415C28.8311 28.614 29.393 28.8846 29.8874 29.2284L13.9041 52.2182ZM26.9761 56.237C29.6423 56.237 32.4145 55.8197 35.1504 54.8078L25.4373 28.5465C26.1549 28.2811 26.7152 28.237 26.9761 28.237V56.237ZM35.3075 54.7486C38.1257 53.6677 40.9759 51.9015 43.3201 49.1843L22.1197 30.8938C23.2475 29.5866 24.4803 28.9125 25.2801 28.6057L35.3075 54.7486ZM43.3063 49.2003C46.2404 45.8097 47.6531 41.6555 47.6531 37.4678H19.6531C19.6531 36.4859 19.8108 35.3179 20.2596 34.0812C20.7118 32.835 21.3745 31.7549 22.1336 30.8777L43.3063 49.2003ZM47.6531 37.4678C47.6531 35.2438 47.2486 32.6864 46.0493 30.1166L20.6762 41.9574C19.864 40.217 19.6531 38.6135 19.6531 37.4678H47.6531ZM46.2085 30.4705C45.2502 28.2589 43.8437 26.2776 42.0557 24.6385L23.1354 45.2789C22.0109 44.2481 21.1159 42.9857 20.517 41.6035L46.2085 30.4705ZM42.495 25.0592C40.8716 23.4358 39.0842 22.287 37.3747 21.4825L25.4524 46.8175C24.6829 46.4554 23.6835 45.8457 22.696 44.8582L42.495 25.0592ZM37.8249 21.7043C36.516 21.03 35.1993 20.5221 33.9227 20.1391L25.877 46.9582C25.7063 46.907 25.3987 46.7999 25.0022 46.5957L37.8249 21.7043ZM33.8659 20.1222L26.2143 17.862L18.2822 44.7149L25.9338 46.9751L33.8659 20.1222ZM26.2255 17.8653C26.1184 17.8335 25.9356 17.7709 25.6744 17.6543L14.2602 43.2222C15.5473 43.7968 16.8852 44.301 18.271 44.7116L26.2255 17.8653ZM25.8628 17.7401C26.2994 17.9428 26.699 18.2062 27.0347 18.499L8.62832 39.5989C10.2634 41.0253 12.0869 42.2149 14.0717 43.1364L25.8628 17.7401ZM27.2713 18.7101C28.0825 19.4508 28.6092 20.248 28.9202 20.9021L3.63241 32.9242C4.74517 35.2648 6.30867 37.4858 8.39172 39.3877L27.2713 18.7101ZM28.9576 20.9815C29.6362 22.4323 29.6749 23.5336 29.6749 23.8027H1.67494C1.67494 26.5049 2.11459 29.6798 3.59495 32.8447L28.9576 20.9815ZM29.6749 23.8027C29.6749 24.078 29.639 24.6119 29.4288 25.3076C29.2124 26.0234 28.8533 26.7688 28.3435 27.4586L5.82653 10.8157C2.82753 14.8731 1.67494 19.4733 1.67494 23.8027H29.6749ZM28.3284 27.479C28.001 27.9202 27.6083 28.3132 27.1838 28.6327C26.7658 28.9474 26.3991 29.1292 26.1605 29.2251L15.7233 3.24309C11.9276 4.76785 8.47177 7.25029 5.84162 10.7953L28.3284 27.479ZM26.2557 29.1865C26.1894 29.2136 26.1346 29.2319 26.0946 29.2435C26.0548 29.255 26.0341 29.2588 26.036 29.2584C26.0396 29.2578 26.1448 29.2388 26.3747 29.2388V1.23876C22.8125 1.23876 19.1606 1.83252 15.6281 3.28173L26.2557 29.1865ZM26.183 29.2375C26.4194 29.2407 26.5183 29.2617 26.506 29.2592C26.4996 29.258 26.4677 29.2512 26.4142 29.2347C26.3603 29.218 26.2891 29.1928 26.2046 29.156L37.369 3.47806C33.8208 1.93539 30.1393 1.28902 26.5665 1.24008L26.183 29.2375ZM26.2452 29.1736C26.0854 29.1047 25.8506 28.9813 25.5848 28.7819C25.3168 28.5809 25.0774 28.3476 24.8813 28.1051L46.655 10.5009C44.1126 7.35647 40.9191 5.00821 37.3284 3.4605L26.2452 29.1736ZM24.9846 28.2313C24.7378 27.9332 24.5596 27.6368 24.4409 27.3838C24.3251 27.1369 24.29 26.9831 24.2875 26.9719L51.6448 21.0068C50.8289 17.2649 49.2151 13.5916 46.5517 10.3747L24.9846 28.2313ZM35.6246 10.1866L30.9797 10.9745L35.6628 38.5801L40.3077 37.7922L35.6246 10.1866ZM47.0872 22.2281C46.4757 18.9256 45.0678 15.6763 42.6886 12.8601L21.2998 30.9299C20.2753 29.7173 19.7522 28.3896 19.5553 27.3266L47.0872 22.2281ZM42.7642 12.9504C40.6763 10.4364 38.0705 8.492 35.1078 7.19844L23.9039 32.8591C22.9042 32.4227 21.9573 31.7224 21.2241 30.8396L42.7642 12.9504ZM35.2584 7.26525C32.4067 5.97995 29.4262 5.38099 26.4812 5.34551L26.1439 33.3435C25.4936 33.3356 24.642 33.1929 23.7533 32.7923L35.2584 7.26525ZM26.6624 5.34887C23.917 5.28023 21.0362 5.68963 18.1995 6.79043L28.3292 32.8939C27.3449 33.2758 26.4962 33.3535 25.9626 33.3401L26.6624 5.34887ZM18.133 6.81644C15.4027 7.89202 12.6578 9.63489 10.4047 12.2822L31.7279 30.4295C30.5807 31.7774 29.3012 32.5111 28.3957 32.8679L18.133 6.81644ZM10.2924 12.4159C7.67111 15.5749 6.2576 19.4828 6.2576 23.5954H34.2576C34.2576 24.693 34.077 25.9134 33.6275 27.1581C33.1781 28.4025 32.5382 29.4547 31.8402 30.2959L10.2924 12.4159ZM6.2576 23.5954C6.2576 27.3232 7.43915 31.6611 10.8128 35.2276L31.1539 15.986C33.5599 18.5294 34.2576 21.5264 34.2576 23.5954H6.2576ZM10.8128 35.2276C12.7171 37.2406 14.9304 38.6969 17.2214 39.6851L28.3119 13.9752C29.1929 14.3553 30.2173 14.9959 31.1539 15.986L10.8128 35.2276ZM17.5242 39.8116C18.7148 40.2924 19.9394 40.7115 21.1964 41.0565L28.6085 14.0554C28.4554 14.0134 28.2562 13.9486 28.0091 13.8488L17.5242 39.8116ZM21.1032 41.0306L26.619 42.5858L34.2175 15.6365L28.7017 14.0813L21.1032 41.0306ZM26.6434 42.5926C26.8263 42.6439 27.1935 42.7595 27.7775 42.9819L37.7453 16.8163C36.5875 16.3752 35.3926 15.9655 34.1931 15.6297L26.6434 42.5926ZM28.0266 43.0742C27.6322 42.9324 27.3517 42.7654 27.1929 42.6523L43.431 19.8416C41.6409 18.5674 39.6601 17.5017 37.4962 16.7241L28.0266 43.0742ZM27.2835 42.7162C26.22 41.9718 25.5278 41.0884 25.1349 40.3832L49.5948 26.7556C48.1236 24.115 46.0627 21.6833 43.3404 19.7777L27.2835 42.7162ZM25.1769 40.4582C24.2038 38.7364 24.1735 37.3817 24.1735 37.1775H52.1735C52.1735 34.0702 51.6041 30.3101 49.5527 26.6806L25.1769 40.4582ZM24.1735 37.1775C24.1735 36.7662 24.2692 35.7758 24.8917 34.6015L49.6305 47.716C51.4696 44.2469 52.1735 40.6024 52.1735 37.1775H24.1735ZM24.9249 34.5393C25.3362 33.7728 25.9191 33.1333 26.5177 32.698L42.9865 55.3426C45.7139 53.359 47.9696 50.8119 49.5974 47.7782L24.9249 34.5393ZM26.5443 32.6787C26.969 32.3713 27.2874 32.2712 27.3277 32.2599L34.8773 59.2229C37.6825 58.4375 40.4338 57.19 42.9598 55.362L26.5443 32.6787ZM27.3277 32.2599C27.2557 32.2801 27.0733 32.322 26.7272 32.322V60.322C29.4501 60.322 32.1846 59.9769 34.8773 59.2229L27.3277 32.2599ZM46.6568 44.8705L39.5716 56.9453C39.6108 56.9683 39.65 56.991 39.6894 57.0136L46.6568 44.8705ZM42.7377 40.7855L30.3552 47.318C30.3757 47.357 30.3965 47.3958 30.4174 47.4346L42.7377 40.7855ZM42.717 28.3232L30.2725 21.9095C30.2595 21.9348 30.2465 21.9601 30.2336 21.9855L42.717 28.3232ZM46.5739 24.1552L39.4007 12.1326L39.4007 12.1326L46.5739 24.1552ZM58.1445 24.2797L50.402 35.9438C50.4253 35.9593 50.4487 35.9748 50.4722 35.9901L58.1445 24.2797ZM61.7319 28.7794L48.7523 34.0264C48.763 34.0527 48.7737 34.079 48.7845 34.1052L61.7319 28.7794ZM62.6857 35.7259V49.7259C70.0821 49.7259 76.2024 43.9725 76.659 36.5903L62.6857 35.7259ZM58.3519 35.7259H44.3519C44.3519 43.4579 50.6199 49.7259 58.3519 49.7259V35.7259ZM58.3519 34.15H72.3519C72.3519 34.1004 72.3516 34.0507 72.3511 34.0011L58.3519 34.15ZM56.8589 28.3854L45.7484 36.9034C45.7682 36.9292 45.788 36.9549 45.808 36.9806L56.8589 28.3854ZM47.5899 28.572L58.5329 37.3043L58.5329 37.3043L47.5899 28.572ZM47.5899 40.2256L36.6904 49.012C36.7051 49.0302 36.7198 49.0484 36.7346 49.0666L47.5899 40.2256ZM55.8221 41.3247L63.1968 53.2248C63.2119 53.2154 63.227 53.206 63.2421 53.1966L55.8221 41.3247ZM58.1445 38.6704L62.376 25.3252C55.7354 23.2197 48.5571 26.3169 45.5327 32.5925L58.1445 38.6704ZM62.3954 40.0183L75.2358 45.5972C76.8151 41.9624 76.7798 37.8285 75.1388 34.2211C73.4977 30.6137 70.4046 27.8709 66.6268 26.6731L62.3954 40.0183ZM58.4348 44.6839L65.7878 56.5975C65.8102 56.5837 65.8325 56.5698 65.8548 56.5559L58.4348 44.6839ZM44.5417 35.7259H30.5417C30.5417 43.4579 36.8097 49.7259 44.5417 49.7259V35.7259ZM44.5417 32.346V18.346C36.8097 18.346 30.5417 24.614 30.5417 32.346H44.5417ZM60.5292 32.346H74.5292C74.5292 24.614 68.2612 18.346 60.5292 18.346V32.346ZM60.5292 35.7259V49.7259C68.2612 49.7259 74.5292 43.4579 74.5292 35.7259H60.5292ZM52.5251 32.322C52.4286 32.322 52.5209 32.312 52.7504 32.3687C52.9895 32.4279 53.2981 32.5403 53.6242 32.7274L39.6894 57.0136C43.7874 59.365 48.2135 60.322 52.5251 60.322V32.322ZM53.742 32.7957C53.9851 32.9384 54.2622 33.1469 54.525 33.4209C54.7865 33.6935 54.9585 33.9521 55.058 34.1365L30.4174 47.4346C32.5471 51.3809 35.6432 54.6402 39.5716 56.9453L53.742 32.7957ZM55.1202 34.253C55.2549 34.5083 55.3194 34.7186 55.3457 34.834C55.3701 34.941 55.3484 34.9074 55.3484 34.6891H27.3484C27.3484 38.902 28.2056 43.2434 30.3552 47.318L55.1202 34.253ZM55.3484 34.6891C55.3484 34.3319 55.3819 34.1857 55.3778 34.2051C55.3755 34.2157 55.364 34.2657 55.3355 34.3475C55.3067 34.4299 55.2633 34.5368 55.2003 34.6609L30.2336 21.9855C28.133 26.1232 27.3484 30.5052 27.3484 34.6891H55.3484ZM55.1614 34.7369C55.0841 34.8869 54.9245 35.1468 54.6513 35.442C54.3745 35.7412 54.0595 35.9915 53.7471 36.1779L39.4007 12.1326C35.3822 14.5301 32.3277 17.9217 30.2725 21.9095L55.1614 34.7369ZM53.7471 36.1779C53.381 36.3964 53.0205 36.5356 52.7197 36.6127C52.4294 36.6871 52.2767 36.683 52.3177 36.683V8.68299C47.9689 8.68299 43.505 9.68372 39.4007 12.1326L53.7471 36.1779ZM52.3177 36.683C52.3707 36.683 52.1669 36.689 51.7852 36.5844C51.3867 36.4752 50.898 36.2731 50.402 35.9438L65.8871 12.6155C61.5912 9.76394 56.834 8.68299 52.3177 8.68299V36.683ZM50.4722 35.9901C50.0303 35.7006 49.625 35.3311 49.2972 34.9198C48.9766 34.5178 48.8163 34.1847 48.7523 34.0264L74.7114 23.5323C72.9624 19.2059 70.0374 15.3343 65.8169 12.5692L50.4722 35.9901ZM48.7845 34.1052C48.5902 33.633 48.7824 33.7312 48.7124 34.8616L76.659 36.5903C76.9209 32.357 76.4771 27.8241 74.6793 23.4535L48.7845 34.1052ZM62.6857 21.7259H58.3519V49.7259H62.6857V21.7259ZM72.3519 35.7259V34.15H44.3519V35.7259H72.3519ZM72.3511 34.0011C72.3102 30.16 71.6314 24.5751 67.9098 19.7902L45.808 36.9806C44.8583 35.7595 44.515 34.6941 44.4051 34.2697C44.2976 33.8548 44.3474 33.8059 44.3527 34.2989L72.3511 34.0011ZM67.9694 19.8674C63.7067 14.3073 57.5889 12.5191 52.4836 12.5191V40.5191C52.0133 40.5191 50.9248 40.4467 49.5569 39.8632C48.096 39.2401 46.7551 38.2164 45.7484 36.9034L67.9694 19.8674ZM52.4836 12.5191C47.1765 12.5191 41.0246 14.3539 36.647 19.8398L58.5329 37.3043C57.5999 38.4734 56.3725 39.3869 55.0481 39.9425C53.8071 40.463 52.8478 40.5191 52.4836 40.5191V12.5191ZM36.647 19.8398C32.8264 24.6276 31.9518 30.2011 31.9518 34.5025H59.9518C59.9518 34.1583 59.9921 34.3156 59.856 34.8086C59.7105 35.3353 59.3512 36.2787 58.5329 37.3043L36.647 19.8398ZM31.9518 34.5025C31.9518 38.8617 32.9057 44.3171 36.6904 49.012L58.4895 31.4393C60.09 33.4247 59.9518 35.0647 59.9518 34.5025H31.9518ZM36.7346 49.0666C41.0022 54.3065 46.9409 56.237 52.3177 56.237V28.237C52.7975 28.237 53.8128 28.316 55.0717 28.8516C56.3983 29.416 57.5694 30.3093 58.4452 31.3847L36.7346 49.0666ZM52.3177 56.237C55.8202 56.237 59.6409 55.4284 63.1968 53.2248L48.4474 29.4245C50.0403 28.4374 51.5247 28.237 52.3177 28.237V56.237ZM63.2421 53.1966C66.6713 51.0534 69.1566 48.0679 70.7564 44.7484L45.5327 32.5925C46.0265 31.5678 46.9635 30.3518 48.4021 29.4527L63.2421 53.1966ZM53.9131 52.0157L58.164 53.3635L66.6268 26.6731L62.376 25.3252L53.9131 52.0157ZM49.555 34.4394C49.6282 34.2708 49.7886 33.9701 50.0791 33.6279C50.3734 33.2811 50.7052 33.0054 51.0149 32.8119L65.8548 56.5559C70.1438 53.8752 73.2929 50.069 75.2358 45.5972L49.555 34.4394ZM51.0819 32.7703C51.3016 32.6347 51.5808 32.5071 51.8906 32.4212C52.1964 32.3365 52.4243 32.322 52.5251 32.322V60.322C57.1733 60.322 61.709 59.1149 65.7878 56.5975L51.0819 32.7703ZM58.5417 35.7259V32.346H30.5417V35.7259H58.5417ZM44.5417 46.346H60.5292V18.346H44.5417V46.346ZM46.5292 32.346V35.7259H74.5292V32.346H46.5292ZM60.5292 21.7259H44.5417V49.7259H60.5292V21.7259ZM71.0705 44.7876L78.5999 32.9847L78.5999 32.9847L71.0705 44.7876ZM67.3795 40.5782L54.7232 46.5629C54.7358 46.5896 54.7485 46.6162 54.7612 46.6428L67.3795 40.5782ZM66.0939 34.5025L52.0941 34.4187C52.0938 34.4751 52.0938 34.5315 52.0941 34.5879L66.0939 34.5025ZM67.421 28.3854L79.982 34.5678C79.9883 34.5549 79.9946 34.542 80.0009 34.5291L67.421 28.3854ZM71.1535 24.1967L63.7426 12.319L63.7426 12.319L71.1535 24.1967ZM83.2426 24.5078L75.1834 35.9555C75.1977 35.9655 75.212 35.9755 75.2263 35.9856L83.2426 24.5078ZM86.6847 29.5051L90.565 42.9567C97.8624 40.8516 102.151 33.312 100.229 25.964L86.6847 29.5051ZM82.3716 30.7493L69.1195 35.2638C71.5294 42.3381 79.0711 46.2722 86.2519 44.2008L82.3716 30.7493ZM80.2566 27.8255L72.0126 39.1408C72.0732 39.185 72.1343 39.2288 72.1957 39.272L80.2566 27.8255ZM73.4137 27.784L81.6481 39.1064C81.6852 39.0793 81.7222 39.0522 81.7591 39.0248L73.4137 27.784ZM71.3816 30.5212L58.2987 25.5373L58.2987 25.5373L71.3816 30.5212ZM70.6973 34.5025L56.6979 34.3729C56.6972 34.444 56.6971 34.5152 56.6975 34.5863L70.6973 34.5025ZM72.2732 40.1012L60.9557 48.3422C60.973 48.366 60.9904 48.3898 61.0079 48.4135L72.2732 40.1012ZM80.298 41.2832L88.6399 52.5266C88.6498 52.5192 88.6597 52.5119 88.6695 52.5045L80.298 41.2832ZM82.2887 38.5046L85.5024 24.8784C78.6645 23.2657 71.6904 26.9706 69.1987 33.5394L82.2887 38.5046ZM86.6847 39.5414L99.9579 43.9937C101.21 40.2613 100.833 36.1743 98.9184 32.7342C97.0042 29.2941 93.7301 26.8189 89.8984 25.9152L86.6847 39.5414ZM83.0559 44.5802L90.9954 56.1113C91.0166 56.0966 91.0379 56.0819 91.0591 56.0671L83.0559 44.5802ZM76.9181 32.322C76.8073 32.322 76.9557 32.3096 77.2885 32.3969C77.6376 32.4885 78.1037 32.6681 78.5999 32.9847L63.5411 56.5904C67.8204 59.3203 72.511 60.322 76.9181 60.322V32.322ZM78.5999 32.9847C78.892 33.171 79.1975 33.4254 79.4715 33.7379C79.743 34.0475 79.909 34.3289 79.9978 34.5136L54.7612 46.6428C56.6997 50.6761 59.6492 54.1077 63.5411 56.5904L78.5999 32.9847ZM80.0358 34.5934C80.0675 34.6603 80.0895 34.7176 80.104 34.7609C80.1183 34.8039 80.123 34.8263 80.1224 34.8235C80.1214 34.8187 80.0953 34.6938 80.0936 34.4171L52.0941 34.5879C52.1186 38.5918 52.8862 42.6781 54.7232 46.5629L80.0358 34.5934ZM80.0936 34.5863C80.0953 34.3006 80.1226 34.1875 80.1177 34.21C80.1153 34.2212 80.1057 34.2621 80.0834 34.3269C80.0609 34.3921 80.028 34.4742 79.982 34.5678L54.86 22.203C52.9083 26.1684 52.1185 30.3538 52.0941 34.4187L80.0936 34.5863ZM80.0009 34.5291C79.9096 34.7162 79.7386 35.0015 79.4596 35.3147C79.1778 35.6309 78.8641 35.8873 78.5643 36.0744L63.7426 12.319C59.8048 14.776 56.8139 18.202 54.841 22.2417L80.0009 34.5291ZM78.5643 36.0744C78.1064 36.3601 77.6738 36.5258 77.3434 36.6116C77.0275 36.6937 76.8835 36.683 76.9803 36.683V8.68299C72.5942 8.68299 67.973 9.67954 63.7426 12.319L78.5643 36.0744ZM76.9803 36.683C77.0417 36.683 76.8411 36.6899 76.4644 36.5802C76.0702 36.4653 75.6173 36.261 75.1834 35.9555L91.3017 13.0601C86.8573 9.93115 81.8423 8.68299 76.9803 8.68299V36.683ZM75.2263 35.9856C74.7939 35.6836 74.3035 35.2261 73.8799 34.611C73.4596 34.0009 73.2413 33.434 73.14 33.0463L100.229 25.964C98.8618 20.7325 95.813 16.2107 91.2588 13.03L75.2263 35.9856ZM82.8045 16.0536L78.4914 17.2978L86.2519 44.2008L90.565 42.9567L82.8045 16.0536ZM95.6238 26.2348C94.3482 22.4904 91.977 18.9562 88.3175 16.379L72.1957 39.272C71.4181 38.7244 70.7313 38.045 70.1783 37.2805C69.6338 36.5278 69.3078 35.8164 69.1195 35.2638L95.6238 26.2348ZM88.5006 16.5102C85.012 13.9685 80.9789 12.768 76.9181 12.768V40.768C76.2238 40.768 75.3816 40.668 74.4684 40.3788C73.5484 40.0873 72.7175 39.6544 72.0126 39.1408L88.5006 16.5102ZM76.9181 12.768C73.2588 12.768 68.947 13.6637 65.0683 16.5433L81.7591 39.0248C79.7052 40.5497 77.7296 40.768 76.9181 40.768V12.768ZM65.1793 16.4617C61.8495 18.8834 59.6062 22.1052 58.2987 25.5373L84.4644 35.5051C84.0417 36.6148 83.1531 38.0118 81.6481 39.1064L65.1793 16.4617ZM58.2987 25.5373C57.1598 28.5269 56.7241 31.5456 56.6979 34.3729L84.6967 34.6321C84.6981 34.4734 84.7186 34.8379 84.4644 35.5051L58.2987 25.5373ZM56.6975 34.5863C56.7235 38.9219 57.7263 43.9072 60.9557 48.3422L83.5908 31.8603C84.7465 33.4475 84.6987 34.7004 84.697 34.4187L56.6975 34.5863ZM61.0079 48.4135C65.1352 54.007 71.2191 56.237 76.9181 56.237V28.237C77.5156 28.237 78.6803 28.3438 80.0712 28.9834C81.53 29.6541 82.7156 30.6737 83.5385 31.789L61.0079 48.4135ZM76.9181 56.237C80.394 56.237 84.7204 55.4346 88.6399 52.5266L71.9562 30.0398C74.1616 28.4036 76.2346 28.237 76.9181 28.237V56.237ZM88.6695 52.5045C92.0429 49.9879 94.1535 46.6997 95.3787 43.4697L69.1987 33.5394C69.5115 32.7148 70.295 31.279 71.9266 30.0618L88.6695 52.5045ZM79.075 52.1307L83.471 53.1675L89.8984 25.9152L85.5024 24.8784L79.075 52.1307ZM73.4116 35.089C73.4421 34.9979 73.5643 34.6787 73.8674 34.2577C74.1804 33.8231 74.589 33.4164 75.0528 33.0933L91.0591 56.0671C95.507 52.9682 98.3903 48.6668 99.9579 43.9937L73.4116 35.089ZM75.1165 33.0491C75.5791 32.7307 76.0459 32.5287 76.4345 32.4184C76.8052 32.3132 76.9945 32.322 76.9181 32.322V60.322C81.6511 60.322 86.5875 59.1462 90.9954 56.1113L75.1165 33.0491ZM95.4502 45.5548L89.457 58.2071L95.4502 45.5548ZM92.879 43.6056L81.9287 52.3287C81.983 52.3968 82.0379 52.4645 82.0934 52.5316L92.879 43.6056ZM91.386 40.9514L78.2233 45.7205L78.2233 45.7205L91.386 40.9514ZM90.6809 38.152L104.553 36.2605L104.553 36.2605L90.6809 38.152ZM90.4943 23.3051V9.30507C82.7623 9.30507 76.4943 15.5731 76.4943 23.3051L90.4943 23.3051ZM94.8903 23.3051H108.89C108.89 15.5731 102.622 9.30507 94.8903 9.30507V23.3051ZM95.0977 37.0116L81.2511 39.0782C81.2628 39.1566 81.2752 39.235 81.2882 39.3132L95.0977 37.0116ZM95.9271 39.5621L83.4493 45.9105C83.4785 45.9681 83.5082 46.0254 83.5383 46.0825L95.9271 39.5621ZM97.6482 41.4698L89.9334 53.1523C89.9667 53.1743 90.0002 53.1962 90.0337 53.218L97.6482 41.4698ZM102.749 41.8223L107.491 54.9947C107.569 54.9669 107.646 54.9385 107.722 54.9093L102.749 41.8223ZM104.553 40.5782L94.2853 31.0615C94.2432 31.1069 94.2013 31.1526 94.1598 31.1987L104.553 40.5782ZM105.777 38.3387L92.4755 33.9711C92.4558 34.0311 92.4365 34.0912 92.4176 34.1515L105.777 38.3387ZM106.233 34.9587L111.171 21.8584C106.87 20.2374 102.048 20.8304 98.2683 23.445C94.4886 26.0596 92.2329 30.3628 92.2329 34.9587H106.233ZM108.929 35.9748H122.929C122.929 30.1476 119.319 24.9297 113.866 22.8745L108.929 35.9748ZM107.788 41.3661L120.355 47.5372C120.362 47.5225 120.369 47.5078 120.376 47.4931L107.788 41.3661ZM104.512 44.9949L111.817 56.938L111.817 56.938L104.512 44.9949ZM106.751 45.7H92.7513C92.7513 53.4319 99.0194 59.7 106.751 59.7V45.7ZM106.751 39.2303H120.751C120.751 31.4983 114.483 25.2303 106.751 25.2303V39.2303ZM106.233 39.2303H92.2329C92.2329 46.9623 98.501 53.2303 106.233 53.2303V39.2303ZM106.233 23.3051V9.30507C98.501 9.30507 92.2329 15.5731 92.2329 23.3051L106.233 23.3051ZM110.608 23.3051H124.608C124.608 15.5731 118.34 9.30507 110.608 9.30507V23.3051ZM110.608 45.7V59.7C118.34 59.7 124.608 53.4319 124.608 45.7H110.608ZM99.3486 32.3013C99.2177 32.3013 100.107 32.2694 101.443 32.9025L89.457 58.2071C92.8946 59.8355 96.3829 60.3013 99.3486 60.3013V32.3013ZM101.443 32.9025C102.026 33.1782 102.877 33.728 103.664 34.6797L82.0934 52.5316C84.2082 55.0869 86.7736 56.936 89.457 58.2071L101.443 32.9025ZM103.829 34.8825C104.1 35.2225 104.362 35.667 104.549 36.1823L78.2233 45.7205C79.1012 48.1435 80.3584 50.3575 81.9287 52.3287L103.829 34.8825ZM104.549 36.1823C104.507 36.0667 104.53 36.0978 104.553 36.2605L76.8093 40.0436C77.0803 42.0311 77.574 43.9284 78.2233 45.7205L104.549 36.1823ZM104.553 36.2605C104.522 36.0353 104.506 35.8787 104.499 35.7835C104.491 35.6863 104.494 35.6783 104.494 35.7467H76.4943C76.4943 37.2386 76.6256 38.6963 76.8093 40.0436L104.553 36.2605ZM104.494 35.7467V23.3051H76.4943V35.7467H104.494ZM90.4943 37.3051H94.8903V9.30507H90.4943V37.3051ZM80.8903 23.3051V34.3159H108.89V23.3051H80.8903ZM80.8903 34.3159C80.8903 35.928 81.0183 37.5186 81.2511 39.0782L108.944 34.9449C108.901 34.6521 108.89 34.4456 108.89 34.3159H80.8903ZM81.2882 39.3132C81.6642 41.569 82.3712 43.7915 83.4493 45.9105L108.405 33.2137C108.681 33.7567 108.835 34.2789 108.907 34.71L81.2882 39.3132ZM83.5383 46.0825C85.0351 48.9265 87.2039 51.3498 89.9334 53.1523L105.363 29.7873C106.627 30.6221 107.649 31.7736 108.316 33.0416L83.5383 46.0825ZM90.0337 53.218C93.6928 55.5896 97.5479 56.1956 100.551 56.1956V28.1956C101.177 28.1956 103.097 28.3177 105.263 29.7217L90.0337 53.218ZM100.551 56.1956C102.854 56.1956 105.199 55.8201 107.491 54.9947L98.0072 28.6499C98.9175 28.3222 99.7966 28.1956 100.551 28.1956V56.1956ZM107.722 54.9093C110.557 53.8319 112.998 52.1171 114.947 49.9577L94.1598 31.1987C95.0856 30.1728 96.3235 29.2874 97.7762 28.7353L107.722 54.9093ZM114.821 50.0949C117.074 47.6644 118.379 44.9423 119.136 42.5259L92.4176 34.1515C92.5944 33.5875 93.0833 32.3584 94.2853 31.0615L114.821 50.0949ZM119.078 42.7063C119.978 39.9645 120.233 37.2715 120.233 34.9587H92.2329C92.2329 35.0967 92.2245 35.0762 92.2447 34.9264C92.2647 34.7782 92.3212 34.441 92.4755 33.9711L119.078 42.7063ZM101.295 48.059L103.991 49.0751L113.866 22.8745L111.171 21.8584L101.295 48.059ZM94.9286 35.9748C94.9286 36.1187 94.9152 36.0978 94.9466 35.9493C94.9795 35.794 95.0524 35.5424 95.2 35.2392L120.376 47.4931C122.211 43.7239 122.929 39.7712 122.929 35.9748H94.9286ZM95.2216 35.1951C95.3806 34.8713 95.6336 34.4668 96.0075 34.0526C96.3837 33.6359 96.8004 33.3004 97.2069 33.0518L111.817 56.938C115.585 54.6331 118.465 51.3856 120.355 47.5372L95.2216 35.1951ZM97.2069 33.0518C97.7702 32.7073 98.3017 32.508 98.7192 32.4024C99.122 32.3005 99.3547 32.3013 99.3486 32.3013V60.3013C103.403 60.3013 107.774 59.411 111.817 56.938L97.2069 33.0518ZM120.751 45.7V39.2303H92.7513V45.7H120.751ZM106.751 25.2303H106.233V53.2303H106.751V25.2303ZM120.233 39.2303V23.3051H92.2329V39.2303H120.233ZM106.233 37.3051H110.608V9.30507H106.233V37.3051ZM96.6082 23.3051V45.7H124.608V23.3051H96.6082ZM110.608 31.7H106.751V59.7H110.608V31.7ZM116.424 45.7H102.424C102.424 53.4319 108.692 59.7 116.424 59.7V45.7ZM116.424 23.3051V9.30507C108.692 9.30507 102.424 15.5731 102.424 23.3051L116.424 23.3051ZM120.281 23.3051H134.281C134.281 15.5731 128.013 9.30507 120.281 9.30507V23.3051ZM120.281 28.7379L109.16 37.2422C112.806 42.0099 119.085 43.9232 124.77 41.9986C130.455 40.0741 134.281 34.7399 134.281 28.7379L120.281 28.7379ZM119.742 28.0329L106.675 23.0072C104.928 27.5489 105.665 32.6718 108.621 36.5372L119.742 28.0329ZM120.82 26.063L132.051 34.4211C132.082 34.38 132.112 34.3388 132.142 34.2974L120.82 26.063ZM122.355 24.57L130.12 36.2187C130.29 36.1056 130.457 35.9888 130.622 35.8684L122.355 24.57ZM124.242 23.6161L128.508 36.95C128.562 36.9329 128.615 36.9155 128.669 36.8977L124.242 23.6161ZM126.398 23.2014L127.189 37.179C127.277 37.1741 127.364 37.1683 127.452 37.1617L126.398 23.2014ZM128.513 23.3051H142.513C142.513 16.5485 137.688 10.756 131.042 9.53541L128.513 23.3051ZM128.513 27.3693L124.938 40.9051C129.137 42.0144 133.614 41.1115 137.055 38.4611C140.497 35.8107 142.513 31.7131 142.513 27.3693H128.513ZM126.066 27.2034L124.779 13.2627C124.773 13.2633 124.766 13.2639 124.76 13.2646L126.066 27.2034ZM123.619 28.0536L131.225 39.8076L131.234 39.8018L123.619 28.0536ZM121.94 29.7125L110.139 22.18C110.101 22.24 110.063 22.3004 110.025 22.361L121.94 29.7125ZM121.069 31.8898L134.718 35.0028C134.722 34.9858 134.726 34.9688 134.73 34.9517L121.069 31.8898ZM120.799 45.7V59.7C128.531 59.7 134.799 53.4319 134.799 45.7H120.799ZM130.424 45.7V23.3051H102.424V45.7H130.424ZM116.424 37.3051H120.281V9.30507H116.424V37.3051ZM106.281 23.3051V28.7379H134.281V23.3051H106.281ZM131.402 20.2336L130.863 19.5286L108.621 36.5372L109.16 37.2422L131.402 20.2336ZM132.809 33.0586C132.646 33.4818 132.399 33.9537 132.051 34.4211L109.589 17.7048C108.356 19.361 107.391 21.1462 106.675 23.0072L132.809 33.0586ZM132.142 34.2974C131.687 34.924 131.022 35.6178 130.12 36.2187L114.589 12.9213C112.526 14.2962 110.838 15.9854 109.498 17.8286L132.142 34.2974ZM130.622 35.8684C129.933 36.3724 129.203 36.7278 128.508 36.95L119.975 10.2822C117.898 10.9468 115.91 11.9381 114.087 13.2715L130.622 35.8684ZM128.669 36.8977C128.213 37.0496 127.71 37.1496 127.189 37.179L125.607 9.22376C123.621 9.33618 121.68 9.71261 119.814 10.3345L128.669 36.8977ZM127.452 37.1617C127.067 37.1908 126.564 37.1812 125.984 37.0747L131.042 9.53541C129.108 9.18007 127.195 9.10144 125.344 9.24109L127.452 37.1617ZM114.513 23.3051V27.3693H142.513V23.3051H114.513ZM132.089 13.8336C129.501 13.1501 127.006 13.0571 124.779 13.2627L127.353 41.1442C126.923 41.1839 126.06 41.2014 124.938 40.9051L132.089 13.8336ZM124.76 13.2646C121.624 13.5585 118.644 14.5947 116.005 16.3055L131.234 39.8018C130.088 40.5448 128.739 41.0142 127.373 41.1423L124.76 13.2646ZM116.014 16.2996C113.777 17.7473 111.727 19.692 110.139 22.18L133.741 37.245C132.982 38.4336 132.052 39.2723 131.225 39.8076L116.014 16.2996ZM110.025 22.361C108.748 24.4311 107.902 26.625 107.408 28.8278L134.73 34.9517C134.596 35.551 134.33 36.2933 133.854 37.064L110.025 22.361ZM107.419 28.7767C106.986 30.6771 106.799 32.5643 106.799 34.3988H134.799C134.799 34.4638 134.792 34.6784 134.718 35.0028L107.419 28.7767ZM106.799 34.3988V45.7H134.799V34.3988H106.799ZM120.799 31.7H116.424V59.7H120.799V31.7ZM136.121 44.8705L129.036 56.9453C129.075 56.9683 129.115 56.991 129.154 57.0136L136.121 44.8705ZM132.202 40.7855L119.82 47.318C119.84 47.357 119.861 47.3958 119.882 47.4346L132.202 40.7855ZM132.181 28.3232L119.737 21.9095C119.724 21.9348 119.711 21.9601 119.698 21.9855L132.181 28.3232ZM136.038 24.1552L128.865 12.1326L128.865 12.1326L136.038 24.1552ZM147.609 24.2797L139.866 35.9438C139.89 35.9593 139.913 35.9748 139.937 35.9901L147.609 24.2797ZM151.196 28.7794L138.217 34.0264C138.227 34.0527 138.238 34.079 138.249 34.1052L151.196 28.7794ZM152.15 35.7259V49.7259C159.547 49.7259 165.667 43.9725 166.124 36.5903L152.15 35.7259ZM147.816 35.7259H133.816C133.816 43.4579 140.084 49.7259 147.816 49.7259V35.7259ZM147.816 34.15H161.816C161.816 34.1004 161.816 34.0507 161.816 34.0011L147.816 34.15ZM146.323 28.3854L135.213 36.9034C135.233 36.9292 135.253 36.9549 135.272 36.9806L146.323 28.3854ZM137.054 28.572L147.997 37.3043L147.997 37.3043L137.054 28.572ZM137.054 40.2256L126.155 49.012C126.17 49.0302 126.184 49.0484 126.199 49.0666L137.054 40.2256ZM145.287 41.3247L152.661 53.2248C152.676 53.2154 152.692 53.206 152.707 53.1966L145.287 41.3247ZM147.609 38.6704L151.84 25.3252C145.2 23.2197 138.022 26.3169 134.997 32.5925L147.609 38.6704ZM151.86 40.0183L164.7 45.5972C166.28 41.9624 166.244 37.8285 164.603 34.2211C162.962 30.6137 159.869 27.8709 156.091 26.6731L151.86 40.0183ZM147.899 44.6839L155.252 56.5975C155.275 56.5837 155.297 56.5698 155.319 56.5559L147.899 44.6839ZM134.006 35.7259H120.006C120.006 43.4579 126.274 49.7259 134.006 49.7259V35.7259ZM134.006 32.346V18.346C126.274 18.346 120.006 24.614 120.006 32.346H134.006ZM149.994 32.346H163.994C163.994 24.614 157.726 18.346 149.994 18.346V32.346ZM149.994 35.7259V49.7259C157.726 49.7259 163.994 43.4579 163.994 35.7259H149.994ZM141.99 32.322C141.893 32.322 141.985 32.312 142.215 32.3687C142.454 32.4279 142.763 32.5403 143.089 32.7274L129.154 57.0136C133.252 59.365 137.678 60.322 141.99 60.322V32.322ZM143.206 32.7957C143.45 32.9384 143.727 33.1469 143.989 33.4209C144.251 33.6935 144.423 33.9521 144.523 34.1365L119.882 47.4346C122.012 51.3809 125.108 54.6402 129.036 56.9453L143.206 32.7957ZM144.585 34.253C144.719 34.5083 144.784 34.7186 144.81 34.834C144.835 34.941 144.813 34.9074 144.813 34.6891H116.813C116.813 38.902 117.67 43.2434 119.82 47.318L144.585 34.253ZM144.813 34.6891C144.813 34.3319 144.846 34.1857 144.842 34.2051C144.84 34.2157 144.829 34.2657 144.8 34.3475C144.771 34.4299 144.728 34.5368 144.665 34.6609L119.698 21.9855C117.597 26.1232 116.813 30.5052 116.813 34.6891H144.813ZM144.626 34.7369C144.549 34.8869 144.389 35.1468 144.116 35.442C143.839 35.7412 143.524 35.9915 143.212 36.1779L128.865 12.1326C124.847 14.5301 121.792 17.9217 119.737 21.9095L144.626 34.7369ZM143.212 36.1779C142.845 36.3964 142.485 36.5356 142.184 36.6127C141.894 36.6871 141.741 36.683 141.782 36.683V8.68299C137.433 8.68299 132.97 9.68372 128.865 12.1326L143.212 36.1779ZM141.782 36.683C141.835 36.683 141.631 36.689 141.25 36.5844C140.851 36.4752 140.362 36.2731 139.866 35.9438L155.352 12.6155C151.056 9.76394 146.298 8.68299 141.782 8.68299V36.683ZM139.937 35.9901C139.495 35.7006 139.089 35.3311 138.762 34.9198C138.441 34.5178 138.281 34.1847 138.217 34.0264L164.176 23.5323C162.427 19.2059 159.502 15.3343 155.281 12.5692L139.937 35.9901ZM138.249 34.1052C138.055 33.633 138.247 33.7312 138.177 34.8616L166.124 36.5903C166.385 32.357 165.942 27.8241 164.144 23.4535L138.249 34.1052ZM152.15 21.7259H147.816V49.7259H152.15V21.7259ZM161.816 35.7259V34.15H133.816V35.7259H161.816ZM161.816 34.0011C161.775 30.16 161.096 24.5751 157.374 19.7902L135.272 36.9806C134.323 35.7595 133.979 34.6941 133.87 34.2697C133.762 33.8548 133.812 33.8059 133.817 34.2989L161.816 34.0011ZM157.434 19.8674C153.171 14.3073 147.053 12.5191 141.948 12.5191V40.5191C141.478 40.5191 140.389 40.4467 139.021 39.8632C137.561 39.2401 136.22 38.2164 135.213 36.9034L157.434 19.8674ZM141.948 12.5191C136.641 12.5191 130.489 14.3539 126.111 19.8398L147.997 37.3043C147.064 38.4734 145.837 39.3869 144.513 39.9425C143.272 40.463 142.312 40.5191 141.948 40.5191V12.5191ZM126.111 19.8398C122.291 24.6276 121.416 30.2011 121.416 34.5025H149.416C149.416 34.1583 149.457 34.3156 149.32 34.8086C149.175 35.3353 148.816 36.2787 147.997 37.3043L126.111 19.8398ZM121.416 34.5025C121.416 38.8617 122.37 44.3171 126.155 49.012L147.954 31.4393C149.554 33.4247 149.416 35.0647 149.416 34.5025H121.416ZM126.199 49.0666C130.467 54.3065 136.405 56.237 141.782 56.237V28.237C142.262 28.237 143.277 28.316 144.536 28.8516C145.863 29.416 147.034 30.3093 147.91 31.3847L126.199 49.0666ZM141.782 56.237C145.285 56.237 149.105 55.4284 152.661 53.2248L137.912 29.4245C139.505 28.4374 140.989 28.237 141.782 28.237V56.237ZM152.707 53.1966C156.136 51.0534 158.621 48.0679 160.221 44.7484L134.997 32.5925C135.491 31.5678 136.428 30.3518 137.867 29.4527L152.707 53.1966ZM143.378 52.0157L147.629 53.3635L156.091 26.6731L151.84 25.3252L143.378 52.0157ZM139.02 34.4394C139.093 34.2708 139.253 33.9701 139.544 33.6279C139.838 33.2811 140.17 33.0054 140.479 32.8119L155.319 56.5559C159.608 53.8752 162.757 50.069 164.7 45.5972L139.02 34.4394ZM140.546 32.7703C140.766 32.6347 141.045 32.5071 141.355 32.4212C141.661 32.3365 141.889 32.322 141.99 32.322V60.322C146.638 60.322 151.174 59.1149 155.252 56.5975L140.546 32.7703ZM148.006 35.7259V32.346H120.006V35.7259H148.006ZM134.006 46.346H149.994V18.346H134.006V46.346ZM135.994 32.346V35.7259H163.994V32.346H135.994ZM149.994 21.7259H134.006V49.7259H149.994V21.7259ZM19.0964 96.6532L5.96037 91.8112C4.37709 96.1065 4.99381 100.905 7.61187 104.66C10.2299 108.415 14.5186 110.653 19.0964 110.653L19.0964 96.6532ZM23.4302 84.8959L37.428 84.646C37.3077 77.9108 32.4081 72.2162 25.7663 71.0922C19.1246 69.9682 12.624 73.7334 10.2942 80.0539L23.4302 84.8959ZM23.4924 88.3796L10.5271 93.6617C13.0706 99.9049 19.7024 103.449 26.3062 102.094C32.9101 100.739 37.6105 94.87 37.4902 88.1296L23.4924 88.3796ZM13.6843 64.3051V50.3051C9.02297 50.3051 4.66737 52.625 2.06641 56.4932C-0.534554 60.3614 -1.03971 65.2704 0.718995 69.5872L13.6843 64.3051ZM16.9191 64.3051L29.9196 59.1102C27.7948 53.7926 22.6456 50.3051 16.9191 50.3051L16.9191 64.3051ZM24.9647 84.4397V98.4397C29.6093 98.4397 33.9516 96.1362 36.5562 92.2906C39.1608 88.445 39.6886 83.5579 37.9652 79.2449L24.9647 84.4397ZM23.6376 84.4397L10.5019 79.5967C8.91826 83.8921 9.53473 88.6904 12.1527 92.4459C14.7708 96.2014 19.0596 98.4397 23.6376 98.4397L23.6376 84.4397ZM31.0611 64.3051V50.3051C25.1968 50.3051 19.954 53.9599 17.9254 59.4621L31.0611 64.3051ZM34.1715 64.3051L47.2938 69.1839C48.8916 64.8866 48.2839 60.0792 45.6672 56.3146C43.0504 52.5499 38.7562 50.3051 34.1715 50.3051V64.3051ZM22.1446 96.6532V110.653C27.9948 110.653 33.2282 107.016 35.267 101.532L22.1446 96.6532ZM32.2324 101.495L36.5662 89.7379L10.2942 80.0539L5.96037 91.8112L32.2324 101.495ZM9.43244 85.1459L9.49465 88.6295L37.4902 88.1296L37.428 84.646L9.43244 85.1459ZM36.4577 83.0974L26.6496 59.0229L0.718995 69.5872L10.5271 93.6617L36.4577 83.0974ZM13.6843 78.3051H16.9191V50.3051H13.6843V78.3051ZM3.91858 69.4999L11.9642 89.6346L37.9652 79.2449L29.9196 59.1102L3.91858 69.4999ZM24.9647 70.4397H23.6376V98.4397H24.9647V70.4397ZM36.7732 89.2827L44.1967 69.1481L17.9254 59.4621L10.5019 79.5967L36.7732 89.2827ZM31.0611 78.3051H34.1715V50.3051H31.0611V78.3051ZM21.0491 59.4262L9.02219 91.7744L35.267 101.532L47.2938 69.1839L21.0491 59.4262ZM22.1446 82.6532H19.0964V110.653H22.1446V82.6532ZM40.6126 85.8083L48.1623 74.0184L48.1623 74.0184L40.6126 85.8083ZM36.9838 81.6196L24.3275 87.6044L24.3275 87.6044L36.9838 81.6196ZM37.0045 69.3024L24.4048 63.1994L24.4048 63.1994L37.0045 69.3024ZM40.654 65.176L48.0553 77.0597C48.0646 77.0538 48.074 77.048 48.0833 77.0422L40.654 65.176ZM52.0381 65.1967L44.4884 76.9866C44.5284 77.0123 44.5686 77.0377 44.6089 77.0629L52.0381 65.1967ZM55.6669 69.3647L42.9728 75.2689C42.9913 75.3085 43.0099 75.3481 43.0287 75.3876L55.6669 69.3647ZM55.6669 81.6818L68.3051 87.7047C68.3112 87.692 68.3172 87.6793 68.3232 87.6666L55.6669 81.6818ZM51.8722 81.9307L63.1287 90.2548C63.1398 90.2398 63.1509 90.2248 63.1619 90.2098L51.8722 81.9307ZM51.8515 69.0121L40.6978 77.4736C40.7132 77.4938 40.7286 77.514 40.7441 77.5342L51.8515 69.0121ZM42.1678 67.7472L50.1367 79.2579C50.1468 79.251 50.1569 79.244 50.1669 79.237L42.1678 67.7472ZM39.7417 70.8784L26.7522 65.6558C26.7429 65.6791 26.7336 65.7024 26.7244 65.7257L39.7417 70.8784ZM40.8199 81.9721L29.6882 90.4624C29.6999 90.4777 29.7115 90.4929 29.7232 90.5081L40.8199 81.9721ZM46.315 73.322C46.2583 73.322 46.4484 73.3157 46.8121 73.4122C47.1914 73.5129 47.6682 73.702 48.1623 74.0184L33.0629 97.5982C37.2891 100.304 41.9268 101.322 46.315 101.322V73.322ZM48.1623 74.0184C48.4905 74.2286 48.8186 74.5069 49.1048 74.8372C49.3875 75.1636 49.5547 75.4542 49.6401 75.6349L24.3275 87.6044C26.2306 91.6291 29.1514 95.0935 33.0629 97.5982L48.1623 74.0184ZM49.6401 75.6349C49.6794 75.718 49.7064 75.7887 49.7239 75.8417C49.7413 75.8944 49.7472 75.9229 49.747 75.9219C49.7466 75.9199 49.7189 75.7848 49.7189 75.4818H21.7189C21.7189 79.5098 22.461 83.6573 24.3275 87.6044L49.6401 75.6349ZM49.7189 75.4818C49.7189 75.1551 49.7488 75.0163 49.7468 75.0261C49.7456 75.0315 49.7369 75.0716 49.714 75.1399C49.6909 75.2087 49.6557 75.2993 49.6043 75.4054L24.4048 63.1994C22.4634 67.2075 21.7189 71.4259 21.7189 75.4818H49.7189ZM49.6043 75.4054C49.5156 75.5884 49.3415 75.8852 49.0467 76.2186C48.7479 76.5564 48.4037 76.8426 48.0553 77.0597L33.2528 53.2923C29.2984 55.7551 26.3431 59.1978 24.4048 63.1994L49.6043 75.4054ZM48.0833 77.0422C47.6356 77.3225 47.196 77.4973 46.8318 77.5934C46.4811 77.6859 46.2867 77.683 46.315 77.683V49.683C41.9431 49.683 37.3873 50.7037 33.2248 53.3098L48.0833 77.0422ZM46.315 77.683C46.3859 77.683 46.2047 77.691 45.8456 77.596C45.4705 77.4968 44.9904 77.3081 44.4884 76.9866L59.5878 53.4068C55.3482 50.692 50.698 49.683 46.315 49.683V77.683ZM44.6089 77.0629C44.2561 76.842 43.8963 76.5429 43.5788 76.1782C43.2647 75.8175 43.0746 75.4878 42.9728 75.2689L68.361 63.4604C66.4483 59.3481 63.4661 55.8341 59.4674 53.3305L44.6089 77.0629ZM43.0287 75.3876C42.9845 75.2949 42.954 75.2156 42.9339 75.155C42.9139 75.0948 42.9064 75.06 42.9056 75.056C42.9041 75.0484 42.9318 75.1783 42.9318 75.4818H70.9318C70.9318 71.4568 70.1907 67.2983 68.3051 63.3418L43.0287 75.3876ZM42.9318 75.4818C42.9318 75.8219 42.9012 75.981 42.8981 75.9958C42.8965 76.0041 42.92 75.8887 43.0106 75.6971L68.3232 87.6666C70.2046 83.688 70.9318 79.5102 70.9318 75.4818H42.9318ZM43.0287 75.6589C43.1281 75.4503 43.3119 75.1381 43.6121 74.797C43.9154 74.4523 44.2564 74.1705 44.5881 73.9629L59.4466 97.6952C63.3975 95.2216 66.3707 91.7638 68.3051 87.7047L43.0287 75.6589ZM44.5881 73.9629C45.0514 73.6728 45.4976 73.4985 45.8535 73.4053C46.1952 73.3158 46.3718 73.322 46.315 73.322V101.322C50.6769 101.322 55.257 100.318 59.4466 97.6952L44.5881 73.9629ZM46.315 98.3983C52.1661 98.3983 58.6914 96.2552 63.1287 90.2548L40.6157 73.6065C41.4334 72.5008 42.5795 71.5675 43.889 70.986C45.1102 70.4438 46.0365 70.3983 46.315 70.3983V98.3983ZM63.1619 90.2098C66.5818 85.5463 67.697 80.2527 67.697 75.4818H39.697C39.697 75.7402 39.666 75.6289 39.7697 75.2625C39.8812 74.8686 40.1213 74.2806 40.5826 73.6516L63.1619 90.2098ZM67.697 75.4818C67.697 70.7337 66.6139 65.2539 62.9589 60.4901L40.7441 77.5342C39.5497 75.9775 39.697 74.8108 39.697 75.4818H67.697ZM63.0052 60.5507C58.532 54.6543 52.0509 52.6068 46.315 52.6068V80.6068C46.0621 80.6068 45.1691 80.5668 43.9763 80.0486C42.6951 79.492 41.5409 78.5849 40.6978 77.4736L63.0052 60.5507ZM46.315 52.6068C42.5205 52.6068 38.1488 53.4865 34.1686 56.2575L50.1669 79.237C48.3709 80.4874 46.764 80.6068 46.315 80.6068V52.6068ZM34.1988 56.2366C30.6402 58.7003 28.2051 62.0424 26.7522 65.6558L52.7311 76.1009C52.3565 77.0325 51.5388 78.2872 50.1367 79.2579L34.1988 56.2366ZM26.7244 65.7257C25.424 69.0109 24.9537 72.3533 24.9537 75.4818H52.9537C52.9537 75.1266 53.0087 75.4001 52.759 76.0311L26.7244 65.7257ZM24.9537 75.4818C24.9537 80.282 26.0735 85.7231 29.6882 90.4624L51.9516 73.4819C53.0781 74.9587 52.9537 76.0729 52.9537 75.4818H24.9537ZM29.7232 90.5081C34.1249 96.2303 40.4551 98.3983 46.315 98.3983V70.3983C46.6554 70.3983 47.5851 70.4563 48.7813 70.9845C50.0507 71.5449 51.1391 72.4253 51.9167 73.4362L29.7232 90.5081ZM66.5449 86.6377L61.1603 99.5608C61.1813 99.5696 61.2023 99.5783 61.2233 99.5869L66.5449 86.6377ZM63.9944 84.9581L53.9973 94.7591C54.0297 94.7921 54.0622 94.825 54.0949 94.8576L63.9944 84.9581ZM62.3147 82.5528L49.6429 88.5047C49.6546 88.5296 49.6664 88.5545 49.6783 88.5794L62.3147 82.5528ZM61.3816 79.6704L47.6256 82.2729C47.6278 82.2844 47.63 82.2959 47.6322 82.3073L61.3816 79.6704ZM61.0913 64.3051V50.3051C53.3593 50.3051 47.0913 56.5731 47.0913 64.3051H61.0913ZM64.1602 64.3051H78.1602C78.1602 56.5731 71.8922 50.3051 64.1602 50.3051V64.3051ZM64.5128 79.152L78.1751 76.096L78.1751 76.096L64.5128 79.152ZM65.6325 81.9099L53.8896 89.5325C53.9415 89.6125 53.9943 89.692 54.0478 89.771L65.6325 81.9099ZM67.6439 83.714L61.1321 96.1074C61.1606 96.1223 61.1891 96.1372 61.2176 96.1519L67.6439 83.714ZM73.4914 83.7969L67.7463 71.03C67.7194 71.0421 67.6925 71.0543 67.6657 71.0666L73.4914 83.7969ZM75.565 82.2002L64.6538 73.4284C64.6468 73.4371 64.6398 73.4458 64.6329 73.4545L75.565 82.2002ZM76.8507 79.6497L90.2907 83.5697C90.2955 83.5532 90.3003 83.5367 90.305 83.5201L76.8507 79.6497ZM77.2861 76.249L80.3092 62.5793C76.1654 61.6629 71.8295 62.6756 68.5204 65.3329C65.2113 67.9901 63.2861 72.005 63.2861 76.249H77.2861ZM79.4427 76.7259H93.4427C93.4427 70.1588 88.878 64.4743 82.4658 63.0562L79.4427 76.7259ZM78.24 82.5113L90.6951 88.9042L90.6951 88.9042L78.24 82.5113ZM74.9222 86.0571L68.002 73.8871L74.9222 86.0571ZM77.5972 86.7H63.5972C63.5972 94.4319 69.8652 100.7 77.5972 100.7V86.7ZM77.5972 81.1842H91.5972C91.5972 73.4522 85.3292 67.1842 77.5972 67.1842V81.1842ZM77.2861 81.1842H63.2861C63.2861 88.9162 69.5541 95.1842 77.2861 95.1842V81.1842ZM77.2861 64.3051V50.3051C69.5541 50.3051 63.2861 56.5731 63.2861 64.3051H77.2861ZM80.3343 64.3051H94.3343C94.3343 56.5731 88.0663 50.3051 80.3343 50.3051V64.3051ZM80.3343 86.7V100.7C88.0663 100.7 94.3343 94.4319 94.3343 86.7H80.3343ZM70.07 73.2598C70.1487 73.2598 70.8486 73.2703 71.8665 73.6886L61.2233 99.5869C64.2595 100.835 67.3095 101.26 70.07 101.26V73.2598ZM71.9295 73.7147C72.4835 73.9455 73.2037 74.3685 73.8939 75.0586L54.0949 94.8576C56.1951 96.9578 58.6156 98.5005 61.1603 99.5608L71.9295 73.7147ZM73.9914 75.1571C74.3914 75.5652 74.72 76.0413 74.9512 76.5261L49.6783 88.5794C50.7666 90.8613 52.2149 92.941 53.9973 94.7591L73.9914 75.1571ZM74.9866 76.6008C75.0635 76.7647 75.1092 76.9195 75.1311 77.0336L47.6322 82.3073C48.0411 84.4397 48.7089 86.5161 49.6429 88.5047L74.9866 76.6008ZM75.1376 77.068C75.1013 76.8758 75.0913 76.731 75.0913 76.6223H47.0913C47.0913 78.5318 47.2749 80.4191 47.6256 82.2729L75.1376 77.068ZM75.0913 76.6223V64.3051H47.0913V76.6223H75.0913ZM61.0913 78.3051H64.1602V50.3051H61.0913V78.3051ZM50.1602 64.3051V75.7306H78.1602V64.3051H50.1602ZM50.1602 75.7306C50.1602 77.8461 50.3618 80.0238 50.8504 82.2081L78.1751 76.096C78.1937 76.179 78.1602 76.0758 78.1602 75.7306H50.1602ZM50.8504 82.2081C51.3963 84.6489 52.3499 87.1607 53.8896 89.5325L77.3754 74.2873C77.8921 75.0833 78.0992 75.7565 78.1751 76.096L50.8504 82.2081ZM54.0478 89.771C55.845 92.4194 58.2461 94.591 61.1321 96.1074L74.1557 71.3206C75.4104 71.9798 76.4706 72.9488 77.2172 74.0489L54.0478 89.771ZM61.2176 96.1519C64.4813 97.8382 67.8045 98.3568 70.6506 98.3568V70.3568C71.1467 70.3568 72.4654 70.4469 74.0702 71.276L61.2176 96.1519ZM70.6506 98.3568C73.3398 98.3568 76.3418 97.8888 79.3172 96.5272L67.6657 71.0666C69.0098 70.4515 70.118 70.3568 70.6506 70.3568V98.3568ZM79.2366 96.5638C82.0315 95.3061 84.5193 93.4184 86.4972 90.946L64.6329 73.4545C65.5049 72.3645 66.6103 71.5412 67.7463 71.03L79.2366 96.5638ZM86.4763 90.972C88.3532 88.6374 89.5595 86.0766 90.2907 83.5697L63.4107 75.7297C63.5612 75.2135 63.9105 74.353 64.6538 73.4284L86.4763 90.972ZM90.305 83.5201C91.0205 81.033 91.2861 78.5661 91.2861 76.249H63.2861C63.2861 76.4478 63.2615 76.2481 63.3963 75.7793L90.305 83.5201ZM74.263 89.9187L76.4196 90.3956L82.4658 63.0562L80.3092 62.5793L74.263 89.9187ZM65.4427 76.7259C65.4427 77.0687 65.4118 77.1555 65.4351 77.0439C65.4601 76.9235 65.5462 76.5834 65.7848 76.1184L90.6951 88.9042C92.7753 84.8515 93.4427 80.586 93.4427 76.7259H65.4427ZM65.7848 76.1184C65.9273 75.8408 66.1799 75.4385 66.5864 75.0041C66.9989 74.5632 67.4839 74.1817 68.002 73.8871L81.8425 98.2272C85.8162 95.9676 88.7567 92.6807 90.6951 88.9042L65.7848 76.1184ZM68.002 73.8871C68.4407 73.6376 68.883 73.4696 69.2835 73.3704C69.6755 73.2732 69.9537 73.2598 70.07 73.2598V101.26C74.0121 101.26 78.0699 100.372 81.8425 98.2272L68.002 73.8871ZM91.5972 86.7V81.1842H63.5972V86.7H91.5972ZM77.5972 67.1842H77.2861V95.1842H77.5972V67.1842ZM91.2861 81.1842V64.3051H63.2861V81.1842H91.2861ZM77.2861 78.3051H80.3343V50.3051H77.2861V78.3051ZM66.3343 64.3051V86.7H94.3343V64.3051H66.3343ZM80.3343 72.7H77.5972V100.7H80.3343V72.7ZM86.13 86.7H72.13C72.13 94.4319 78.3981 100.7 86.13 100.7V86.7ZM86.13 64.3051V50.3051C78.3981 50.3051 72.13 56.5731 72.13 64.3051H86.13ZM88.8672 64.3051H102.867C102.867 56.5731 96.5992 50.3051 88.8672 50.3051V64.3051ZM88.8672 69.6964L77.7462 78.2007C81.3921 82.9684 87.6714 84.8817 93.3564 82.9572C99.0414 81.0326 102.867 75.6984 102.867 69.6964H88.8672ZM88.3281 68.9914L75.2194 64.0757C73.5256 68.5927 74.2766 73.6636 77.207 77.4957L88.3281 68.9914ZM89.3026 67.1666L100.637 75.3842C100.669 75.34 100.701 75.2957 100.732 75.2511L89.3026 67.1666ZM90.609 65.7773L99.1133 76.8983C99.3704 76.7017 99.6206 76.4963 99.8634 76.2824L90.609 65.7773ZM92.6411 64.6161L97.1393 77.8738C97.2097 77.8499 97.2799 77.8255 97.3498 77.8005L92.6411 64.6161ZM94.9843 64.1392L95.7201 78.1198C95.8016 78.1155 95.883 78.1105 95.9643 78.1048L94.9843 64.1392ZM97.1409 64.3051H111.141C111.141 57.907 106.803 52.323 100.604 50.7402L97.1409 64.3051ZM97.1409 67.1666L93.6913 80.735C97.8789 81.7997 102.324 80.871 105.735 78.2187C109.146 75.5663 111.141 71.4875 111.141 67.1666H97.1409ZM94.4659 67.0215L92.8763 53.112L92.8763 53.112L94.4659 67.0215ZM91.791 68.1827L100.386 79.2336C100.467 79.1709 100.547 79.1072 100.626 79.0427L91.791 68.1827ZM90.1113 70.277L102.803 76.1855C102.816 76.1579 102.829 76.1304 102.842 76.1028L90.1113 70.277ZM89.3649 72.8483L103.233 74.7684C103.234 74.7589 103.235 74.7494 103.236 74.7399L89.3649 72.8483ZM89.1782 86.7V100.7C96.9102 100.7 103.178 94.4319 103.178 86.7H89.1782ZM100.13 86.7V64.3051H72.13V86.7H100.13ZM86.13 78.3051H88.8672V50.3051H86.13V78.3051ZM74.8672 64.3051V69.6964H102.867V64.3051H74.8672ZM99.9882 61.1921L99.4491 60.4871L77.207 77.4957L77.7462 78.2007L99.9882 61.1921ZM101.437 73.9071C101.261 74.3744 101 74.8834 100.637 75.3842L77.9681 58.9491C76.8032 60.5558 75.8923 62.2813 75.2194 64.0757L101.437 73.9071ZM100.732 75.2511C100.455 75.6437 99.9411 76.2653 99.1133 76.8983L82.1047 54.6563C80.3369 56.0082 78.9523 57.556 77.8728 59.0821L100.732 75.2511ZM99.8634 76.2824C98.9786 77.0619 98.0164 77.5762 97.1393 77.8738L88.143 51.3584C85.7176 52.1813 83.4007 53.4698 81.3546 55.2723L99.8634 76.2824ZM97.3498 77.8005C96.899 77.9615 96.3439 78.087 95.7201 78.1198L94.2485 50.1585C92.0488 50.2743 89.9315 50.7178 87.9324 51.4317L97.3498 77.8005ZM95.9643 78.1048C95.5182 78.1361 94.7097 78.1335 93.6775 77.8699L100.604 50.7402C98.2726 50.1449 96.0264 50.0316 94.0043 50.1735L95.9643 78.1048ZM83.1409 64.3051V67.1666H111.141V64.3051H83.1409ZM100.59 53.5983C97.8926 52.9124 95.2691 52.8386 92.8763 53.112L96.0556 80.9309C95.5981 80.9832 94.7579 81.0062 93.6913 80.735L100.59 53.5983ZM92.8763 53.112C89.0397 53.5505 85.6737 55.1115 82.9557 57.3227L100.626 79.0427C99.5394 79.9268 97.9568 80.7137 96.0556 80.9309L92.8763 53.112ZM83.1958 57.1318C80.7701 59.0184 78.7432 61.4748 77.381 64.4513L102.842 76.1028C102.226 77.4481 101.319 78.5082 100.386 79.2336L83.1958 57.1318ZM77.4192 64.3686C76.4296 66.4944 75.7994 68.7115 75.4932 70.9567L103.236 74.7399C103.179 75.1604 103.047 75.6633 102.803 76.1855L77.4192 64.3686ZM75.4972 70.9282C75.2869 72.4469 75.1782 73.9802 75.1782 75.5232H103.178C103.178 75.2968 103.194 75.0468 103.233 74.7684L75.4972 70.9282ZM75.1782 75.5232V86.7H103.178V75.5232H75.1782ZM89.1782 72.7H86.13V100.7H89.1782V72.7ZM112.944 85.8083L105.347 97.5679L105.347 97.5679L112.944 85.8083ZM109.377 81.6404L96.6083 87.3814C96.6262 87.4213 96.6444 87.4611 96.6627 87.5009L109.377 81.6404ZM108.133 75.5025L94.1338 75.3378C94.1325 75.4486 94.1326 75.5594 94.1339 75.6702L108.133 75.5025ZM109.419 69.3232L122.095 75.2653C122.101 75.2526 122.107 75.24 122.113 75.2274L109.419 69.3232ZM113.006 65.176L120.454 77.0302C120.479 77.0146 120.504 76.9988 120.529 76.9829L113.006 65.176ZM124.597 65.3419L116.876 77.0202C116.891 77.0299 116.906 77.0396 116.92 77.0493L124.597 65.3419ZM128.06 69.8831L132.32 83.2191C135.866 82.0864 138.815 79.5881 140.515 76.2765C142.215 72.9648 142.526 69.1125 141.38 65.571L128.06 69.8831ZM125.074 70.8369L112.039 75.9436C114.732 82.8183 122.301 86.4197 129.334 84.173L125.074 70.8369ZM122.565 67.7265L114.865 79.4189C114.92 79.455 114.975 79.4907 115.03 79.5261L122.565 67.7265ZM114.582 67.7472L122.551 79.2579C122.584 79.2351 122.617 79.212 122.65 79.1889L114.582 67.7472ZM112.176 70.8784L99.141 65.7717L99.141 65.7717L112.176 70.8784ZM111.368 75.5025L97.3681 75.3914C97.3675 75.4765 97.3676 75.5617 97.3684 75.6468L111.368 75.5025ZM113.234 81.9721L102.011 90.3417C102.023 90.357 102.034 90.3722 102.045 90.3874L113.234 81.9721ZM122.544 83.3615L130.169 95.1031C130.181 95.0951 130.194 95.0871 130.206 95.079L122.544 83.3615ZM124.991 80.2925L128.981 66.873C122.099 64.8272 114.785 68.3183 112.049 74.9553L124.991 80.2925ZM128.06 81.2049L140.983 86.5895C142.51 82.9245 142.409 78.7835 140.706 75.1973C139.002 71.611 135.856 68.9168 132.05 67.7854L128.06 81.2049ZM124.411 85.7668L132.012 97.5235C132.036 97.5082 132.059 97.4928 132.083 97.4773L124.411 85.7668ZM118.667 73.322C118.581 73.322 118.76 73.3122 119.126 73.409C119.509 73.5103 120.011 73.7064 120.541 74.0487L105.347 97.5679C109.612 100.323 114.294 101.322 118.667 101.322V73.322ZM120.541 74.0487C120.876 74.2657 121.217 74.5562 121.517 74.9071C121.815 75.2543 121.995 75.5701 122.091 75.7799L96.6627 87.5009C98.5344 91.5615 101.445 95.0471 105.347 97.5679L120.541 74.0487ZM122.146 75.8994C122.262 76.1574 122.141 76.0636 122.132 75.3349L94.1339 75.6702C94.1805 79.5586 94.8887 83.5568 96.6083 87.3814L122.146 75.8994ZM122.132 75.6672C122.136 75.2918 122.171 75.0968 122.182 75.0468C122.191 75.0027 122.176 75.0913 122.095 75.2653L96.7421 63.3811C94.9105 67.2886 94.1803 71.3876 94.1338 75.3378L122.132 75.6672ZM122.113 75.2274C122.021 75.424 121.839 75.7454 121.526 76.1079C121.208 76.4756 120.836 76.7901 120.454 77.0302L105.558 53.3217C101.557 55.8356 98.6135 59.3574 96.7244 63.419L122.113 75.2274ZM120.529 76.9829C120.018 77.3086 119.532 77.4978 119.156 77.5966C118.796 77.6912 118.615 77.683 118.688 77.683V49.683C114.339 49.683 109.71 50.6754 105.483 53.369L120.529 76.9829ZM118.688 77.683C118.678 77.683 118.453 77.681 118.082 77.5767C117.698 77.4689 117.276 77.2844 116.876 77.0202L132.318 53.6636C128.065 50.8513 123.33 49.683 118.688 49.683V77.683ZM116.92 77.0493C116.517 76.7849 116.035 76.3729 115.595 75.7958C115.155 75.2189 114.887 74.6479 114.741 74.1951L141.38 65.571C139.776 60.6181 136.634 56.4931 132.274 53.6344L116.92 77.0493ZM123.8 56.547L120.814 57.5008L129.334 84.173L132.32 83.2191L123.8 56.547ZM138.11 65.7303C136.571 61.8025 133.892 58.3482 130.1 55.927L115.03 79.5261C114.357 79.0957 113.71 78.5295 113.156 77.8436C112.608 77.164 112.255 76.4952 112.039 75.9436L138.11 65.7303ZM130.265 56.0341C126.662 53.6617 122.641 52.6068 118.667 52.6068V80.6068C118.201 80.6068 117.583 80.5458 116.875 80.3426C116.16 80.137 115.476 79.8208 114.865 79.4189L130.265 56.0341ZM118.667 52.6068C114.852 52.6068 110.48 53.5092 106.514 56.3056L122.65 79.1889C120.84 80.4646 119.191 80.6068 118.667 80.6068V52.6068ZM106.613 56.2366C103.023 58.7215 100.577 62.1052 99.141 65.7717L125.212 75.985C125.039 76.426 124.747 77.0032 124.274 77.6187C123.794 78.243 123.208 78.8026 122.551 79.2579L106.613 56.2366ZM99.141 65.7717C97.8763 68.9999 97.3928 72.2878 97.3681 75.3914L125.367 75.6136C125.37 75.2336 125.426 75.4387 125.212 75.985L99.141 65.7717ZM97.3684 75.6468C97.417 80.3577 98.5324 85.6769 102.011 90.3417L124.457 73.6026C125.502 75.0049 125.374 76.011 125.367 75.3582L97.3684 75.6468ZM102.045 90.3874C106.422 96.2065 112.796 98.3983 118.667 98.3983V70.3983C119.021 70.3983 119.982 70.4588 121.213 71.0084C122.521 71.5924 123.634 72.509 124.422 73.5568L102.045 90.3874ZM118.667 98.3983C122.351 98.3983 126.419 97.5385 130.169 95.1031L114.92 71.6198C116.541 70.5669 118.024 70.3983 118.667 70.3983V98.3983ZM130.206 95.079C133.939 92.6383 136.445 89.2405 137.934 85.6297L112.049 74.9553C112.432 74.0265 113.307 72.6745 114.883 71.6439L130.206 95.079ZM121.002 93.712L124.071 94.6244L132.05 67.7854L128.981 66.873L121.002 93.712ZM115.137 75.8203C115.172 75.7359 115.302 75.4572 115.594 75.0927C115.894 74.7174 116.284 74.3539 116.738 74.0564L132.083 97.4773C136.317 94.7035 139.216 90.8318 140.983 86.5895L115.137 75.8203ZM116.809 74.0101C117.27 73.7126 117.728 73.5241 118.113 73.4198C118.484 73.3195 118.692 73.322 118.667 73.322V101.322C123.134 101.322 127.789 100.254 132.012 97.5235L116.809 74.0101ZM134.376 86.4096L127.756 98.7459C127.777 98.757 127.798 98.7681 127.818 98.7791L134.376 86.4096ZM131.825 83.9835L144.032 77.1278L144.032 77.1278L131.825 83.9835ZM131.701 77.5761L119.545 70.6302C119.533 70.6513 119.521 70.6726 119.509 70.6938L131.701 77.5761ZM133.712 75.4403L126.122 63.6761C126.093 63.6949 126.064 63.7139 126.035 63.7329L133.712 75.4403ZM136.677 74.1754L133.36 60.5741C133.294 60.5901 133.229 60.6065 133.164 60.6235L136.677 74.1754ZM140.43 73.4496L142.528 87.2917C142.566 87.2859 142.604 87.2799 142.642 87.2738L140.43 73.4496ZM144.474 72.8898L146.084 86.7969C146.126 86.792 146.168 86.7869 146.211 86.7817L144.474 72.8898ZM147.958 72.4128L155.295 84.3361C160.967 80.8457 163.395 73.8431 161.101 67.5908C158.807 61.3386 152.427 57.5676 145.843 58.5734L147.958 72.4128ZM146.879 73.0764L132.882 72.8139C132.786 77.932 135.491 82.6944 139.936 85.2332C144.381 87.772 149.857 87.6824 154.217 84.9996L146.879 73.0764ZM145.594 68.162L156.292 59.1312L145.594 68.162ZM137.009 67.6021L129.385 55.8604C129.361 55.8756 129.338 55.8909 129.314 55.9063L137.009 67.6021ZM134.79 70.8784L130.845 84.311C134.422 85.3615 138.27 84.9421 141.537 83.1457C144.803 81.3493 147.218 78.3242 148.247 74.7409L134.79 70.8784ZM131.825 70.0075L118.26 66.546C116.396 73.8488 120.648 81.3162 127.88 83.4401L131.825 70.0075ZM134.915 65.3419L126.777 53.9496L126.777 53.9496L134.915 65.3419ZM146.154 64.8442L139.466 77.1439C139.514 77.1696 139.561 77.195 139.609 77.2201L146.154 64.8442ZM149.202 68.162L136.246 73.4676C136.27 73.5265 136.295 73.5852 136.32 73.6437L149.202 68.162ZM149.741 70.3392L163.667 68.8987L163.667 68.8986L149.741 70.3392ZM149.865 86.7V100.7C157.597 100.7 163.865 94.4319 163.865 86.7H149.865ZM147.149 86.7H133.149C133.149 94.4319 139.417 100.7 147.149 100.7V86.7ZM147.149 81.0805L152.582 68.1776C148.259 66.3575 143.312 66.823 139.405 69.4173C135.498 72.0117 133.149 76.3903 133.149 81.0805H147.149ZM147.937 81.4123L160.955 86.5633C163.756 79.4839 160.386 71.4638 153.37 68.5094L147.937 81.4123ZM144.391 85.8083L151.848 97.6573L151.848 97.6573L144.391 85.8083ZM145.283 81.827L156.567 90.1137C156.587 90.086 156.607 90.0581 156.628 90.0302L145.283 81.827ZM146.548 78.7995L132.906 75.6515C132.848 75.9046 132.796 76.1592 132.752 76.4151L146.548 78.7995ZM146.817 76.4356L160.815 76.6614L160.815 76.6578L146.817 76.4356ZM146.838 74.4864L153.276 62.0545C148.936 59.807 143.738 59.9855 139.562 62.5254C135.387 65.0654 132.838 69.599 132.838 74.4864H146.838ZM147.999 75.0878L149.849 88.965C155.907 88.1573 160.741 83.5134 161.791 77.4928C162.841 71.4721 159.864 65.4663 154.437 62.6559L147.999 75.0878ZM144.619 75.5025L143.038 61.592C143.032 61.5927 143.026 61.5934 143.021 61.5941L144.619 75.5025ZM141.053 75.9794L138.936 62.1404C138.928 62.1416 138.92 62.1429 138.911 62.1441L141.053 75.9794ZM137.901 76.6223L134.318 63.0884C134.243 63.1083 134.168 63.1288 134.093 63.1499L137.901 76.6223ZM136.055 77.3895L142.658 89.7345C142.732 89.6951 142.805 89.655 142.878 89.6143L136.055 77.3895ZM134.583 78.6751L123.21 70.5102C123.164 70.5751 123.118 70.6405 123.072 70.7062L134.583 78.6751ZM134.5 82.5735L122.093 89.059C122.131 89.1322 122.17 89.205 122.209 89.2774L134.5 82.5735ZM136.076 84.0872L129.257 96.3143C129.29 96.3326 129.323 96.3508 129.356 96.3689L136.076 84.0872ZM138.626 73.322C138.565 73.322 139.547 73.3057 140.933 74.0402L127.818 98.7791C131.499 100.73 135.315 101.322 138.626 101.322V73.322ZM140.995 74.0734C141.937 74.5787 143.152 75.5625 144.032 77.1278L119.619 90.8393C121.631 94.4229 124.547 97.0241 127.756 98.7459L140.995 74.0734ZM144.032 77.1278C144.674 78.2709 144.975 79.5422 144.975 80.6865H116.975C116.975 84.2085 117.843 87.6779 119.619 90.8393L144.032 77.1278ZM144.975 80.6865C144.975 81.3183 144.843 82.7741 143.892 84.4584L119.509 70.6938C117.591 74.0923 116.975 77.6217 116.975 80.6865H144.975ZM143.856 84.5221C143.251 85.58 142.383 86.4958 141.389 87.1477L126.035 63.7329C123.354 65.4907 121.145 67.8304 119.545 70.6302L143.856 84.5221ZM141.302 87.2045C140.748 87.5614 140.325 87.6924 140.191 87.7274L133.164 60.6235C130.79 61.239 128.39 62.2132 126.122 63.6761L141.302 87.2045ZM139.995 87.7767C140.659 87.6145 141.496 87.4479 142.528 87.2917L138.333 59.6076C136.628 59.8661 134.962 60.1833 133.36 60.5741L139.995 87.7767ZM142.642 87.2738C143.836 87.0828 144.983 86.9243 146.084 86.7969L142.864 58.9827C141.338 59.1594 139.789 59.3742 138.219 59.6255L142.642 87.2738ZM146.211 86.7817C147.626 86.6048 148.918 86.4286 150.072 86.2523L145.843 58.5734C145.007 58.7013 143.977 58.843 142.738 58.9979L146.211 86.7817ZM140.62 60.4896L139.542 61.1532L154.217 84.9996L155.295 84.3361L140.62 60.4896ZM160.877 73.3388C160.947 69.6233 160.353 63.9419 156.292 59.1312L134.896 77.1927C133.741 75.8243 133.247 74.5039 133.045 73.7321C132.853 72.997 132.885 72.6225 132.882 72.8139L160.877 73.3388ZM156.292 59.1312C151.484 53.4359 144.819 52.5653 140.907 52.5653V80.5653C140.907 80.5653 140.899 80.5653 140.882 80.5648C140.866 80.5643 140.841 80.5633 140.808 80.5611C140.743 80.5569 140.641 80.548 140.504 80.5289C140.239 80.4916 139.796 80.4083 139.233 80.2164C138.057 79.8155 136.367 78.9352 134.896 77.1927L156.292 59.1312ZM140.907 52.5653C137.238 52.5653 133.155 53.4123 129.385 55.8604L144.634 79.3438C142.992 80.4095 141.508 80.5653 140.907 80.5653V52.5653ZM129.314 55.9063C124.856 58.8397 122.46 63.0911 121.334 67.0158L148.247 74.7409C147.977 75.6797 147.061 77.7469 144.704 79.2979L129.314 55.9063ZM138.736 57.4458L135.77 56.5749L127.88 83.4401L130.845 84.311L138.736 57.4458ZM145.39 73.469C145.301 73.8209 145.093 74.4039 144.654 75.0676C144.205 75.7454 143.642 76.3129 143.052 76.7341L126.777 53.9496C122.299 57.1486 119.511 61.6405 118.26 66.546L145.39 73.469ZM143.052 76.7341C141.602 77.7697 140.519 77.683 140.949 77.683V49.683C136.43 49.683 131.324 50.7022 126.777 53.9496L143.052 76.7341ZM140.949 77.683C141.259 77.683 140.565 77.741 139.466 77.1439L152.841 52.5446C148.895 50.3991 144.73 49.683 140.949 49.683V77.683ZM139.609 77.2201C139.033 76.9159 138.343 76.4321 137.685 75.7157C137.021 74.9939 136.549 74.2073 136.246 73.4676L162.158 62.8563C160.271 58.2504 156.919 54.7003 152.699 52.4683L139.609 77.2201ZM136.32 73.6437C135.977 72.8387 135.856 72.1764 135.815 71.7798L163.667 68.8986C163.46 66.8985 162.98 64.7846 162.084 62.6802L136.32 73.6437ZM135.815 71.7798C135.847 72.0894 135.865 72.4239 135.865 72.7861H163.865C163.865 71.4894 163.801 70.1927 163.667 68.8987L135.815 71.7798ZM135.865 72.7861V86.7H163.865V72.7861H135.865ZM149.865 72.7H147.149V100.7H149.865V72.7ZM161.149 86.7V81.0805H133.149V86.7H161.149ZM141.716 93.9834L142.504 94.3152L153.37 68.5094L152.582 68.1776L141.716 93.9834ZM134.919 76.2613C135.008 76.0365 135.206 75.6309 135.583 75.1629C135.969 74.6851 136.437 74.2724 136.934 73.9593L151.848 97.6573C156.201 94.918 159.204 90.987 160.955 86.5633L134.919 76.2613ZM136.934 73.9593C137.397 73.6684 137.841 73.4948 138.192 73.4027C138.528 73.3144 138.696 73.322 138.626 73.322V101.322C143.018 101.322 147.632 100.31 151.848 97.6573L136.934 73.9593ZM138.979 98.6886C142.076 98.6886 145.469 98.1286 148.775 96.5401L136.648 71.3026C137.825 70.737 138.729 70.6886 138.979 70.6886V98.6886ZM148.775 96.5401C151.747 95.1119 154.456 92.9876 156.567 90.1137L133.999 73.5403C134.81 72.4359 135.805 71.7078 136.648 71.3026L148.775 96.5401ZM156.628 90.0302C158.558 87.3602 159.796 84.3507 160.343 81.1839L132.752 76.4151C132.912 75.4878 133.307 74.4966 133.938 73.6238L156.628 90.0302ZM160.189 81.9476C160.608 80.1305 160.788 78.3482 160.815 76.6614L132.819 76.2099C132.819 76.2372 132.819 76.0309 132.906 75.6515L160.189 81.9476ZM160.815 76.6578C160.829 75.7719 160.838 75.0309 160.838 74.4864H132.838C132.838 74.7991 132.833 75.3576 132.819 76.2134L160.815 76.6578ZM140.4 86.9184L141.561 87.5197L154.437 62.6559L153.276 62.0545L140.4 86.9184ZM146.149 61.2106C145.215 61.3351 144.18 61.4624 143.038 61.592L146.2 89.413C147.492 89.2662 148.709 89.117 149.849 88.965L146.149 61.2106ZM143.021 61.5941C141.648 61.7519 140.286 61.9338 138.936 62.1404L143.169 89.8185C144.169 89.6656 145.185 89.5296 146.218 89.4109L143.021 61.5941ZM138.911 62.1441C137.361 62.3841 135.819 62.6912 134.318 63.0884L141.483 90.1561C141.863 90.0556 142.422 89.9342 143.194 89.8147L138.911 62.1441ZM134.093 63.1499C132.376 63.6353 130.751 64.317 129.232 65.1647L142.878 89.6143C142.548 89.7984 142.154 89.9686 141.708 90.0946L134.093 63.1499ZM129.452 65.0445C127 66.3562 124.867 68.2031 123.21 70.5102L145.955 86.84C145.073 88.0688 143.922 89.0587 142.658 89.7345L129.452 65.0445ZM123.072 70.7062C120.747 74.0645 120.023 77.6796 120.023 80.6865H148.023C148.023 82.0898 147.672 84.364 146.094 86.6441L123.072 70.7062ZM120.023 80.6865C120.023 83.7225 120.789 86.5653 122.093 89.059L146.907 76.0879C147.575 77.3652 148.023 78.9499 148.023 80.6865H120.023ZM122.209 89.2774C124.028 92.6116 126.669 94.8708 129.257 96.3143L142.895 71.8601C144.045 72.5018 145.635 73.7519 146.791 75.8696L122.209 89.2774ZM129.356 96.3689C132.857 98.2848 136.395 98.6886 138.979 98.6886V70.6886C139.158 70.6886 140.76 70.6914 142.796 71.8055L129.356 96.3689ZM155.264 86.7H141.264C141.264 94.4319 147.532 100.7 155.264 100.7V86.7ZM155.264 64.3051V50.3051C147.532 50.3051 141.264 56.5731 141.264 64.3051H155.264ZM158.001 64.3051H172.001C172.001 56.5731 165.733 50.3051 158.001 50.3051V64.3051ZM158.001 69.6964L146.88 78.2007C150.526 82.9684 156.805 84.8817 162.49 82.9572C168.175 81.0326 172.001 75.6984 172.001 69.6964H158.001ZM157.462 68.9914L144.353 64.0757C142.659 68.5927 143.41 73.6636 146.341 77.4957L157.462 68.9914ZM158.436 67.1666L169.771 75.3842C169.803 75.34 169.834 75.2957 169.866 75.2511L158.436 67.1666ZM159.743 65.7773L168.247 76.8983C168.504 76.7017 168.754 76.4963 168.997 76.2824L159.743 65.7773ZM161.775 64.6161L166.273 77.8738C166.343 77.8499 166.413 77.8255 166.483 77.8005L161.775 64.6161ZM164.118 64.1392L164.854 78.1198C164.935 78.1155 165.016 78.1105 165.098 78.1048L164.118 64.1392ZM166.274 64.3051H180.274C180.274 57.907 175.937 52.323 169.738 50.7402L166.274 64.3051ZM166.274 67.1666L162.825 80.735C167.012 81.7997 171.457 80.871 174.868 78.2187C178.279 75.5663 180.274 71.4875 180.274 67.1666H166.274ZM163.599 67.0215L162.01 53.112L162.01 53.112L163.599 67.0215ZM160.924 68.1827L169.52 79.2336C169.6 79.1709 169.68 79.1072 169.76 79.0427L160.924 68.1827ZM159.245 70.277L171.937 76.1855C171.95 76.1579 171.963 76.1304 171.975 76.1028L159.245 70.277ZM158.498 72.8483L172.366 74.7684C172.367 74.7589 172.369 74.7494 172.37 74.7399L158.498 72.8483ZM158.312 86.7V100.7C166.044 100.7 172.312 94.4319 172.312 86.7H158.312ZM169.264 86.7V64.3051H141.264V86.7H169.264ZM155.264 78.3051H158.001V50.3051H155.264V78.3051ZM144.001 64.3051V69.6964H172.001V64.3051H144.001ZM169.122 61.1921L168.583 60.4871L146.341 77.4957L146.88 78.2007L169.122 61.1921ZM170.57 73.9071C170.395 74.3744 170.134 74.8834 169.771 75.3842L147.102 58.9491C145.937 60.5558 145.026 62.2813 144.353 64.0757L170.57 73.9071ZM169.866 75.2511C169.588 75.6437 169.075 76.2653 168.247 76.8983L151.238 54.6563C149.47 56.0082 148.086 57.556 147.006 59.0821L169.866 75.2511ZM168.997 76.2824C168.112 77.0619 167.15 77.5762 166.273 77.8738L157.276 51.3584C154.851 52.1813 152.534 53.4698 150.488 55.2723L168.997 76.2824ZM166.483 77.8005C166.033 77.9615 165.477 78.087 164.854 78.1198L163.382 50.1585C161.182 50.2743 159.065 50.7178 157.066 51.4317L166.483 77.8005ZM165.098 78.1048C164.652 78.1361 163.843 78.1335 162.811 77.8699L169.738 50.7402C167.406 50.1449 165.16 50.0316 163.138 50.1735L165.098 78.1048ZM152.274 64.3051V67.1666H180.274V64.3051H152.274ZM169.724 53.5983C167.026 52.9124 164.403 52.8386 162.01 53.112L165.189 80.9309C164.732 80.9832 163.891 81.0062 162.825 80.735L169.724 53.5983ZM162.01 53.112C158.173 53.5505 154.807 55.1115 152.089 57.3227L169.76 79.0427C168.673 79.9268 167.09 80.7137 165.189 80.9309L162.01 53.112ZM152.329 57.1318C149.904 59.0184 147.877 61.4748 146.515 64.4513L171.975 76.1028C171.36 77.4481 170.452 78.5082 169.52 79.2336L152.329 57.1318ZM146.553 64.3686C145.563 66.4944 144.933 68.7115 144.627 70.9567L172.37 74.7399C172.313 75.1604 172.18 75.6633 171.937 76.1855L146.553 64.3686ZM144.631 70.9282C144.42 72.4469 144.312 73.9802 144.312 75.5232H172.312C172.312 75.2968 172.328 75.0468 172.366 74.7684L144.631 70.9282ZM144.312 75.5232V86.7H172.312V75.5232H144.312ZM158.312 72.7H155.264V100.7H158.312V72.7ZM172.282 86.7H158.282C158.282 94.4319 164.55 100.7 172.282 100.7V86.7ZM172.282 83.2785V69.2785C164.55 69.2785 158.282 75.5465 158.282 83.2785H172.282ZM175.33 83.2785H189.33C189.33 75.5465 183.062 69.2785 175.33 69.2785V83.2785ZM175.33 86.7V100.7C183.062 100.7 189.33 94.4319 189.33 86.7H175.33ZM172.282 79.235H158.282C158.282 86.967 164.55 93.235 172.282 93.235V79.235ZM172.282 56.8401V42.8401C164.55 42.8401 158.282 49.1081 158.282 56.8401H172.282ZM175.33 56.8401H189.33C189.33 49.1081 183.062 42.8401 175.33 42.8401V56.8401ZM175.33 79.235V93.235C183.062 93.235 189.33 86.967 189.33 79.235H175.33ZM186.282 86.7V83.2785H158.282V86.7H186.282ZM172.282 97.2785H175.33V69.2785H172.282V97.2785ZM161.33 83.2785V86.7H189.33V83.2785H161.33ZM175.33 72.7H172.282V100.7H175.33V72.7ZM186.282 79.235V56.8401H158.282V79.235H186.282ZM172.282 70.8401H175.33V42.8401H172.282V70.8401ZM161.33 56.8401V79.235H189.33V56.8401H161.33ZM175.33 65.235H172.282V93.235H175.33V65.235Z" fill="white" mask="url(#path-2-outside-1_195_411)"/>
</svg>
