<svg width="191" height="40" viewBox="0 0 191 40" fill="none" xmlns="http://www.w3.org/2000/svg">
<path d="M11.9062 12.0802C11.9062 13.0995 11.0806 13.9252 10.0613 13.9252C9.04195 13.9252 8.21631 13.0995 8.21631 12.0802C8.21631 11.0609 10.0613 7.76855 10.0613 7.76855C10.0613 7.76855 11.9062 11.0609 11.9062 12.0802Z" fill="white"/>
<path fill-rule="evenodd" clip-rule="evenodd" d="M18.1844 1.81567C28.2143 1.81567 36.3688 9.9803 36.3688 20.0001C36.3688 30.03 28.2143 38.1844 18.1844 38.1844C8.15443 38.1844 0 30.03 0 20.0001C0 14.557 2.40556 9.45026 6.60509 5.97443C7.023 5.63806 7.6142 5.62787 8.03211 5.95405C8.46022 6.28022 8.60292 6.86123 8.36848 7.3403C6.7376 10.8467 6.55412 12.0597 6.55412 12.4266C6.55412 14.3633 8.13405 15.9534 10.0809 15.9534C12.0278 15.9534 13.6077 14.3633 13.6077 12.4266C13.6077 12.0393 13.3835 10.3574 10.5498 4.81243C10.4071 4.52702 10.3867 4.20085 10.4988 3.90525C10.6008 3.59946 10.8352 3.36502 11.1206 3.2427C13.3631 2.29475 15.7381 1.81567 18.1844 1.81567ZM10.0809 18.2367C6.8803 18.2367 4.27088 15.6272 4.27088 12.4266C4.27088 12.3859 4.27088 12.3417 4.27088 12.2941C2.97637 14.6283 2.28324 17.2683 2.28324 20.0001C2.28324 23.2618 3.27197 26.2892 4.95382 28.8068V26.0038C4.95382 25.8203 5.00478 25.6368 5.08633 25.4737L7.99134 19.9695C8.18501 19.6025 8.58254 19.3681 9.00045 19.3681H14.0868L21.5073 14.0779C21.701 13.9352 21.9354 13.8638 22.1699 13.8638H32.8522C30.4364 8.13536 24.7793 4.10911 18.1844 4.10911C16.4618 4.10911 14.7697 4.37413 13.1592 4.91436C15.8909 10.439 15.891 11.917 15.891 12.4266C15.891 15.6272 13.2917 18.2367 10.0809 18.2367ZM7.24725 29.1942H14.9736V31.4774H7.19629C10.0503 34.2193 13.9237 35.9012 18.1844 35.9012C18.8164 35.9012 19.4279 35.8604 20.0395 35.7891C17.9296 35.1469 16.3802 33.1898 16.3802 30.8658C16.3802 28.022 18.694 25.7184 21.5277 25.7184C24.3716 25.7184 26.6752 28.022 26.6752 30.8658C26.6752 32.089 26.2471 33.2102 25.5336 34.097C29.9268 31.7934 33.1274 27.4919 33.902 22.4056H19.7031V20.1224H34.0753C34.0821 20.0816 34.0855 20.0408 34.0855 20.0001C34.0855 18.675 33.9122 17.3804 33.6065 16.1471H22.5368L15.1265 21.4373C14.9328 21.58 14.6984 21.6513 14.4537 21.6513H9.69358L7.24725 26.2892V29.1942ZM21.5277 33.7199C23.1076 33.7199 24.3919 32.4458 24.3919 30.8658C24.3919 29.2859 23.1076 28.0016 21.5277 28.0016C19.958 28.0016 18.6737 29.2859 18.6737 30.8658C18.6737 32.4458 19.958 33.7199 21.5277 33.7199Z" fill="white"/>
<path d="M49.6461 25L43.6718 4.61392H47.7207L51.5431 18.6293L55.3655 4.64223L59.4144 4.61392L63.2368 18.6293L67.0592 4.61392H71.1081L65.1338 25H61.3397L57.3899 11.2394L53.4401 25H49.6461ZM69.974 25L76.2031 4.61392H81.9508L88.1799 25H84.2159L78.6664 7.02061H79.4025L73.9379 25H69.974ZM73.7114 20.7529V17.157H84.4707V20.7529H73.7114ZM97.8657 25.4247C96.3556 25.4247 94.9918 25.1604 93.7743 24.6319C92.5663 24.094 91.5706 23.3295 90.7872 22.3385C90.0133 21.3381 89.5225 20.1489 89.3149 18.7709L93.3355 18.1763C93.6186 19.3466 94.2038 20.248 95.0909 20.8803C95.9781 21.5127 96.988 21.8288 98.1205 21.8288C98.7529 21.8288 99.3663 21.7297 99.9609 21.5315C100.556 21.3333 101.042 21.0408 101.419 20.6538C101.806 20.2668 102 19.7902 102 19.2239C102 19.0163 101.967 18.8181 101.9 18.6293C101.844 18.4312 101.745 18.2471 101.603 18.0772C101.462 17.9073 101.259 17.7469 100.994 17.5959C100.74 17.4449 100.414 17.308 100.018 17.1853L94.7228 15.6281C94.3265 15.5148 93.864 15.3544 93.3355 15.1467C92.8164 14.9391 92.3114 14.6418 91.8207 14.2548C91.3299 13.8679 90.9193 13.3582 90.589 12.7259C90.2681 12.0841 90.1077 11.2771 90.1077 10.305C90.1077 8.93652 90.4522 7.79924 91.1411 6.89319C91.8301 5.98715 92.7503 5.31233 93.9017 4.86874C95.0532 4.42516 96.3273 4.20808 97.7241 4.21752C99.1304 4.2364 100.386 4.47707 101.49 4.93953C102.594 5.40199 103.519 6.07681 104.265 6.96398C105.01 7.84171 105.548 8.91765 105.879 10.1918L101.716 10.8996C101.565 10.239 101.287 9.68212 100.881 9.2291C100.475 8.77608 99.9893 8.43159 99.423 8.19564C98.8661 7.95969 98.281 7.83228 97.6675 7.8134C97.0635 7.79452 96.4925 7.87946 95.9545 8.06822C95.426 8.24755 94.9918 8.51181 94.6521 8.86102C94.3217 9.21022 94.1566 9.6255 94.1566 10.1068C94.1566 10.5504 94.2934 10.9138 94.5671 11.1969C94.8408 11.4706 95.1853 11.6924 95.6006 11.8623C96.0159 12.0322 96.4406 12.1738 96.8747 12.287L100.414 13.2497C100.942 13.3913 101.528 13.58 102.169 13.816C102.811 14.0425 103.425 14.3634 104.01 14.7786C104.604 15.1845 105.09 15.7224 105.468 16.3925C105.855 17.0626 106.048 17.9121 106.048 18.9408C106.048 20.0356 105.817 20.9936 105.355 21.8147C104.902 22.6263 104.288 23.3012 103.514 23.8391C102.74 24.3677 101.863 24.764 100.881 25.0283C99.909 25.2926 98.9039 25.4247 97.8657 25.4247ZM109.16 25V4.61392H113.011V12.9949H122.128V4.61392H125.979V25H122.128V16.5907H113.011V25H109.16ZM136.777 25.4247C135.644 25.4247 134.568 25.2548 133.549 24.9151C132.53 24.5753 131.68 24.0373 131.001 23.3012C130.453 22.6877 130.052 22.027 129.797 21.3192C129.552 20.6113 129.415 19.8469 129.387 19.0257C129.387 18.2141 129.505 17.4402 129.741 16.704C129.977 15.9584 130.34 15.2977 130.831 14.722C130.991 14.5333 131.161 14.3634 131.341 14.2124C131.52 14.0519 131.699 13.9009 131.879 13.7593C131.369 13.1742 130.987 12.5985 130.732 12.0322C130.477 11.4565 130.35 10.7958 130.35 10.0502C130.35 8.81383 130.685 7.70958 131.355 6.73747C132.034 5.76535 132.954 5.07638 134.115 4.67054C134.597 4.50066 135.083 4.3874 135.574 4.33078C136.064 4.27415 136.541 4.24583 137.003 4.24583C137.938 4.24583 138.83 4.39212 139.679 4.6847C140.528 4.96784 141.25 5.43502 141.845 6.08624C142.213 6.46377 142.515 6.88376 142.751 7.34622C142.997 7.80868 143.176 8.27586 143.289 8.74776L139.467 9.51224C139.353 9.11584 139.155 8.77608 138.872 8.49294C138.608 8.21923 138.296 8.04463 137.938 7.96913C137.579 7.88418 137.23 7.84171 136.89 7.84171C136.352 7.84171 135.88 7.93609 135.474 8.12485C135.05 8.32305 134.734 8.5826 134.526 8.90349C134.328 9.22438 134.229 9.6255 134.229 10.1068C134.229 10.541 134.314 10.8855 134.483 11.1403C134.653 11.3951 134.852 11.6452 135.078 11.8906C135.238 12.0605 135.437 12.2587 135.673 12.4852C135.918 12.7117 136.173 12.9477 136.437 13.1931L141.109 17.5251C141.109 17.3647 141.109 17.1759 141.109 16.9588C141.109 16.7417 141.109 16.5436 141.109 16.3642V14.0425H144.45V17.9215C144.45 18.3556 144.441 18.8134 144.422 19.2947C144.403 19.7666 144.356 20.1583 144.28 20.4698L146.772 22.7632L144.308 25.3964L142.44 23.6126C141.902 24.0751 141.326 24.4432 140.713 24.7169C140.108 24.9906 139.495 25.1793 138.872 25.2831C138.476 25.3398 138.112 25.3775 137.782 25.3964C137.452 25.4153 137.117 25.4247 136.777 25.4247ZM136.947 21.7722C137.164 21.7722 137.371 21.7628 137.57 21.7439C137.768 21.725 137.966 21.6967 138.164 21.6589C138.466 21.6023 138.74 21.5221 138.985 21.4183C139.24 21.305 139.467 21.1776 139.665 21.036L134.682 16.4492C134.483 16.5341 134.304 16.6379 134.144 16.7606C133.993 16.8833 133.861 17.0155 133.747 17.157C133.596 17.3647 133.478 17.6053 133.393 17.879C133.308 18.1527 133.266 18.4595 133.266 18.7992C133.266 19.2051 133.327 19.559 133.45 19.861C133.582 20.1536 133.738 20.4226 133.917 20.668C134.229 21.0644 134.682 21.3475 135.276 21.5174C135.871 21.6873 136.428 21.7722 136.947 21.7722ZM157.526 25.4247C156.243 25.4247 155.02 25.1982 153.86 24.7452C152.699 24.2827 151.67 23.6032 150.773 22.7066C149.886 21.81 149.183 20.701 148.664 19.3797C148.154 18.0584 147.899 16.5341 147.899 14.807C147.899 12.5513 148.329 10.6354 149.188 9.05922C150.056 7.47363 151.217 6.26557 152.67 5.43502C154.133 4.60448 155.752 4.18921 157.526 4.18921C160.15 4.18921 162.212 4.79796 163.713 6.01546C165.213 7.23296 166.219 8.9554 166.728 11.1828L162.793 11.749C162.425 10.5599 161.82 9.61134 160.98 8.90349C160.15 8.1862 159.083 7.82284 157.781 7.8134C156.488 7.79452 155.412 8.07294 154.553 8.64866C153.694 9.22438 153.048 10.0408 152.614 11.0978C152.189 12.1549 151.977 13.3913 151.977 14.807C151.977 16.2227 152.189 17.4496 152.614 18.4878C153.048 19.526 153.694 20.3329 154.553 20.9086C155.412 21.4843 156.488 21.7816 157.781 21.8005C158.659 21.8194 159.452 21.6684 160.159 21.3475C160.877 21.0266 161.481 20.5217 161.971 19.8327C162.462 19.1437 162.811 18.2613 163.019 17.1853H159.791V14.2124H167.125C167.144 14.3351 167.158 14.5521 167.167 14.8636C167.177 15.175 167.181 15.3544 167.181 15.4016C167.181 17.3552 166.785 19.0871 165.992 20.5972C165.199 22.1073 164.081 23.2917 162.637 24.1506C161.193 25 159.489 25.4247 157.526 25.4247ZM178.768 25.4247C176.729 25.4247 174.969 24.9811 173.487 24.094C172.015 23.2068 170.877 21.9657 170.075 20.3707C169.282 18.7756 168.886 16.9211 168.886 14.807C168.886 12.6928 169.282 10.8383 170.075 9.24326C170.877 7.64823 172.015 6.40714 173.487 5.51997C174.969 4.63279 176.729 4.18921 178.768 4.18921C180.806 4.18921 182.562 4.63279 184.034 5.51997C185.516 6.40714 186.653 7.64823 187.446 9.24326C188.248 10.8383 188.649 12.6928 188.649 14.807C188.649 16.9211 188.248 18.7756 187.446 20.3707C186.653 21.9657 185.516 23.2068 184.034 24.094C182.562 24.9811 180.806 25.4247 178.768 25.4247ZM178.768 21.8005C180.061 21.8194 181.137 21.541 181.995 20.9653C182.854 20.3895 183.496 19.5731 183.921 18.5161C184.355 17.459 184.572 16.2227 184.572 14.807C184.572 13.3913 184.355 12.1643 183.921 11.1261C183.496 10.088 182.854 9.28101 181.995 8.70529C181.137 8.12957 180.061 7.83228 178.768 7.8134C177.475 7.79452 176.399 8.07294 175.54 8.64866C174.681 9.22438 174.035 10.0408 173.6 11.0978C173.176 12.1549 172.963 13.3913 172.963 14.807C172.963 16.2227 173.176 17.4496 173.6 18.4878C174.035 19.526 174.681 20.3329 175.54 20.9086C176.399 21.4843 177.475 21.7816 178.768 21.8005Z" fill="white"/>
<path d="M52.108 37.1274C51.4964 37.1274 50.9683 36.9943 50.5238 36.7282C50.0821 36.462 49.7409 36.0897 49.5003 35.6112C49.2624 35.1327 49.1435 34.5763 49.1435 33.9421C49.1435 33.3079 49.2624 32.7515 49.5003 32.273C49.7409 31.7945 50.0821 31.4221 50.5238 31.156C50.9683 30.8898 51.4964 30.7568 52.108 30.7568C52.8102 30.7568 53.3991 30.9309 53.8748 31.2792C54.3533 31.6274 54.6902 32.0988 54.8856 32.6934L53.7219 33.0162C53.6086 32.6453 53.4175 32.3579 53.1485 32.1541C52.8795 31.9474 52.5327 31.844 52.108 31.844C51.7201 31.844 51.3959 31.9304 51.1354 32.1031C50.8777 32.2758 50.6838 32.5193 50.5535 32.8336C50.4233 33.1479 50.3582 33.5174 50.3582 33.9421C50.3582 34.3668 50.4233 34.7363 50.5535 35.0506C50.6838 35.3649 50.8777 35.6084 51.1354 35.7811C51.3959 35.9538 51.7201 36.0402 52.108 36.0402C52.5327 36.0402 52.8795 35.9368 53.1485 35.7301C53.4175 35.5234 53.6086 35.236 53.7219 34.868L54.8856 35.1907C54.6902 35.7853 54.3533 36.2568 53.8748 36.605C53.3991 36.9533 52.8102 37.1274 52.108 37.1274ZM57.2687 37L59.1375 30.8842H60.8618L62.7305 37H61.5413L59.8765 31.6062H60.0973L58.4579 37H57.2687ZM58.39 35.7259V34.6471H61.6178V35.7259H58.39ZM65.5303 37V30.8842H68.1126C68.172 30.8842 68.2513 30.887 68.3504 30.8927C68.4523 30.8955 68.5429 30.904 68.6222 30.9182C68.9875 30.9748 69.2862 31.0951 69.5184 31.2792C69.7534 31.4632 69.9261 31.6954 70.0365 31.9757C70.1469 32.2532 70.2022 32.5632 70.2022 32.9058C70.2022 33.4183 70.0747 33.8571 69.8199 34.2224C69.5651 34.5848 69.1659 34.8085 68.6222 34.8934L68.1126 34.9274H66.6856V37H65.5303ZM68.979 37L67.7728 34.5112L68.962 34.2819L70.2871 37H68.979ZM66.6856 33.8487H68.0616C68.1211 33.8487 68.1862 33.8458 68.257 33.8402C68.3278 33.8345 68.3929 33.8232 68.4523 33.8062C68.6081 33.7637 68.7284 33.6929 68.8133 33.5938C68.8983 33.4919 68.9563 33.3801 68.9875 33.2583C69.0215 33.1337 69.0384 33.0162 69.0384 32.9058C69.0384 32.7954 69.0215 32.6793 68.9875 32.5575C68.9563 32.433 68.8983 32.3211 68.8133 32.222C68.7284 32.1201 68.6081 32.0479 68.4523 32.0054C68.3929 31.9884 68.3278 31.9771 68.257 31.9714C68.1862 31.9658 68.1211 31.9629 68.0616 31.9629H66.6856V33.8487ZM76.9985 37V30.8842H78.9777C79.0258 30.8842 79.1249 30.8856 79.275 30.8884C79.425 30.8913 79.5694 30.9012 79.7082 30.9182C80.2008 30.9776 80.6185 31.1489 80.9611 31.4321C81.3037 31.7152 81.5641 32.0748 81.7425 32.5108C81.9209 32.9468 82.0101 33.4239 82.0101 33.9421C82.0101 34.4602 81.9209 34.9373 81.7425 35.3734C81.5641 35.8094 81.3037 36.169 80.9611 36.4521C80.6185 36.7353 80.2008 36.9066 79.7082 36.966C79.5694 36.983 79.425 36.9929 79.275 36.9958C79.1249 36.9986 79.0258 37 78.9777 37H76.9985ZM78.1707 35.9127H78.9777C79.0541 35.9127 79.1574 35.9113 79.2877 35.9085C79.4179 35.9028 79.5354 35.8901 79.6402 35.8703C79.9064 35.8165 80.123 35.6919 80.29 35.4965C80.4599 35.3012 80.5845 35.0662 80.6638 34.7915C80.7459 34.5169 80.7869 34.2337 80.7869 33.9421C80.7869 33.6363 80.7444 33.3461 80.6595 33.0714C80.5774 32.7968 80.4514 32.5646 80.2815 32.3749C80.1116 32.1852 79.8979 32.0649 79.6402 32.0139C79.5354 31.9913 79.4179 31.9785 79.2877 31.9757C79.1574 31.9728 79.0541 31.9714 78.9777 31.9714H78.1707V35.9127ZM85.0677 37V30.8842H89.0599V31.9629H86.2229V33.271H88.5503V34.3498H86.2229V35.9212H89.0599V37H85.0677ZM93.5351 37V31.9629H91.6069V30.8842H96.6185V31.9629H94.6903V37H93.5351ZM98.749 37L100.618 30.8842H102.342L104.211 37H103.022L101.357 31.6062H101.578L99.9382 37H98.749ZM99.8702 35.7259V34.6471H103.098V35.7259H99.8702ZM107.096 37V30.8842H108.251V37H107.096ZM111.648 37V30.8842H112.803V35.9212H115.436V37H111.648ZM118.282 37V30.8842H119.437V37H118.282ZM122.749 37V30.8842H123.921L126.58 34.9614V30.8842H127.752V37H126.58L123.921 32.9228V37H122.749ZM133.524 37.1274C133.139 37.1274 132.772 37.0595 132.424 36.9236C132.076 36.7848 131.767 36.581 131.498 36.312C131.232 36.043 131.021 35.7103 130.865 35.3139C130.712 34.9175 130.636 34.4602 130.636 33.9421C130.636 33.2654 130.765 32.6906 131.022 32.2178C131.283 31.7421 131.631 31.3797 132.067 31.1305C132.506 30.8813 132.991 30.7568 133.524 30.7568C134.311 30.7568 134.93 30.9394 135.38 31.3046C135.83 31.6699 136.131 32.1866 136.284 32.8548L135.104 33.0247C134.993 32.668 134.812 32.3834 134.56 32.171C134.311 31.9559 133.991 31.8469 133.6 31.844C133.212 31.8384 132.89 31.9219 132.632 32.0946C132.374 32.2673 132.18 32.5122 132.05 32.8293C131.923 33.1465 131.859 33.5174 131.859 33.9421C131.859 34.3668 131.923 34.7349 132.05 35.0463C132.18 35.3578 132.374 35.5999 132.632 35.7726C132.89 35.9453 133.212 36.0345 133.6 36.0402C133.864 36.0458 134.101 36.0005 134.314 35.9042C134.529 35.808 134.71 35.6565 134.857 35.4498C135.005 35.2431 135.109 34.9784 135.172 34.6556H134.203V33.7637H136.403C136.409 33.8005 136.413 33.8656 136.416 33.9591C136.419 34.0525 136.42 34.1063 136.42 34.1205C136.42 34.7066 136.301 35.2261 136.064 35.6792C135.826 36.1322 135.49 36.4875 135.057 36.7452C134.624 37 134.113 37.1274 133.524 37.1274ZM145.36 37.1274C144.907 37.1274 144.497 37.0481 144.132 36.8896C143.77 36.7282 143.471 36.4988 143.236 36.2015C143.004 35.9014 142.857 35.5447 142.794 35.1313L144.001 34.9529C144.086 35.304 144.261 35.5744 144.527 35.7641C144.793 35.9538 145.096 36.0486 145.436 36.0486C145.626 36.0486 145.81 36.0189 145.988 35.9595C146.167 35.9 146.312 35.8122 146.426 35.6961C146.542 35.5801 146.6 35.4371 146.6 35.2672C146.6 35.2049 146.59 35.1454 146.57 35.0888C146.553 35.0293 146.523 34.9741 146.481 34.9232C146.438 34.8722 146.378 34.8241 146.298 34.7788C146.222 34.7335 146.124 34.6924 146.005 34.6556L144.417 34.1884C144.298 34.1544 144.159 34.1063 144.001 34.044C143.845 33.9817 143.693 33.8925 143.546 33.7765C143.399 33.6604 143.276 33.5075 143.177 33.3178C143.08 33.1252 143.032 32.8831 143.032 32.5915C143.032 32.181 143.136 31.8398 143.342 31.568C143.549 31.2961 143.825 31.0937 144.17 30.9606C144.516 30.8275 144.898 30.7624 145.317 30.7653C145.739 30.7709 146.116 30.8431 146.447 30.9819C146.778 31.1206 147.056 31.323 147.279 31.5892C147.503 31.8525 147.664 32.1753 147.764 32.5575L146.515 32.7699C146.47 32.5717 146.386 32.4046 146.264 32.2687C146.143 32.1328 145.997 32.0295 145.827 31.9587C145.66 31.8879 145.484 31.8497 145.3 31.844C145.119 31.8384 144.948 31.8638 144.786 31.9205C144.628 31.9743 144.497 32.0535 144.396 32.1583C144.296 32.2631 144.247 32.3876 144.247 32.532C144.247 32.6651 144.288 32.7741 144.37 32.8591C144.452 32.9412 144.556 33.0077 144.68 33.0587C144.805 33.1097 144.932 33.1521 145.062 33.1861L146.124 33.4749C146.283 33.5174 146.458 33.574 146.651 33.6448C146.843 33.7127 147.027 33.809 147.203 33.9336C147.381 34.0553 147.527 34.2167 147.64 34.4178C147.756 34.6188 147.814 34.8736 147.814 35.1822C147.814 35.5107 147.745 35.7981 147.606 36.0444C147.47 36.2879 147.286 36.4903 147.054 36.6517C146.822 36.8103 146.559 36.9292 146.264 37.0085C145.973 37.0878 145.671 37.1274 145.36 37.1274ZM152.205 37V31.9629H150.277V30.8842H155.288V31.9629H153.36V37H152.205ZM160.498 37.1274C160.006 37.1274 159.573 37.0283 159.199 36.8301C158.825 36.6291 158.533 36.3474 158.324 35.9849C158.114 35.6225 158.01 35.1964 158.01 34.7066V30.8927L159.182 30.8842V34.6981C159.182 34.8991 159.216 35.0817 159.284 35.2459C159.352 35.4102 159.445 35.5517 159.564 35.6707C159.686 35.7896 159.826 35.8816 159.985 35.9467C160.146 36.009 160.317 36.0402 160.498 36.0402C160.685 36.0402 160.858 36.0076 161.017 35.9425C161.178 35.8773 161.318 35.7853 161.437 35.6664C161.556 35.5475 161.648 35.4059 161.713 35.2417C161.781 35.0775 161.815 34.8963 161.815 34.6981V30.8842H162.987V34.7066C162.987 35.1964 162.882 35.6225 162.673 35.9849C162.463 36.3474 162.172 36.6291 161.798 36.8301C161.424 37.0283 160.991 37.1274 160.498 37.1274ZM166.212 37V30.8842H168.191C168.239 30.8842 168.338 30.8856 168.488 30.8884C168.638 30.8913 168.782 30.9012 168.921 30.9182C169.414 30.9776 169.831 31.1489 170.174 31.4321C170.517 31.7152 170.777 32.0748 170.956 32.5108C171.134 32.9468 171.223 33.4239 171.223 33.9421C171.223 34.4602 171.134 34.9373 170.956 35.3734C170.777 35.8094 170.517 36.169 170.174 36.4521C169.831 36.7353 169.414 36.9066 168.921 36.966C168.782 36.983 168.638 36.9929 168.488 36.9958C168.338 36.9986 168.239 37 168.191 37H166.212ZM167.384 35.9127H168.191C168.267 35.9127 168.37 35.9113 168.501 35.9085C168.631 35.9028 168.748 35.8901 168.853 35.8703C169.119 35.8165 169.336 35.6919 169.503 35.4965C169.673 35.3012 169.797 35.0662 169.877 34.7915C169.959 34.5169 170 34.2337 170 33.9421C170 33.6363 169.957 33.3461 169.873 33.0714C169.79 32.7968 169.664 32.5646 169.495 32.3749C169.325 32.1852 169.111 32.0649 168.853 32.0139C168.748 31.9913 168.631 31.9785 168.501 31.9757C168.37 31.9728 168.267 31.9714 168.191 31.9714H167.384V35.9127ZM174.366 37V30.8842H175.521V37H174.366ZM181.457 37.1274C180.846 37.1274 180.318 36.9943 179.873 36.7282C179.432 36.462 179.09 36.0897 178.85 35.6112C178.612 35.1327 178.493 34.5763 178.493 33.9421C178.493 33.3079 178.612 32.7515 178.85 32.273C179.09 31.7945 179.432 31.4221 179.873 31.156C180.318 30.8898 180.846 30.7568 181.457 30.7568C182.069 30.7568 182.596 30.8898 183.037 31.156C183.482 31.4221 183.823 31.7945 184.061 32.273C184.302 32.7515 184.422 33.3079 184.422 33.9421C184.422 34.5763 184.302 35.1327 184.061 35.6112C183.823 36.0897 183.482 36.462 183.037 36.7282C182.596 36.9943 182.069 37.1274 181.457 37.1274ZM181.457 36.0402C181.845 36.0458 182.168 35.9623 182.426 35.7896C182.683 35.6169 182.876 35.3719 183.003 35.0548C183.134 34.7377 183.199 34.3668 183.199 33.9421C183.199 33.5174 183.134 33.1493 183.003 32.8378C182.876 32.5264 182.683 32.2843 182.426 32.1116C182.168 31.9389 181.845 31.8497 181.457 31.844C181.07 31.8384 180.747 31.9219 180.489 32.0946C180.231 32.2673 180.037 32.5122 179.907 32.8293C179.78 33.1465 179.716 33.5174 179.716 33.9421C179.716 34.3668 179.78 34.7349 179.907 35.0463C180.037 35.3578 180.231 35.5999 180.489 35.7726C180.747 35.9453 181.07 36.0345 181.457 36.0402Z" fill="white"/>
</svg>
