<svg version="1.2" xmlns="http://www.w3.org/2000/svg" viewBox="0 0 173 173" width="173" height="173">
	<title>Folder 1</title>
	<style>
		.s0 { fill: #ffffff } 
		.s1 { fill: #fefefe } 
	</style>
	<g id="Folder 1">
		<path id="&lt;Path&gt;" class="s0" d="m56.6 49.1c0 4.8-3.9 8.7-8.7 8.7-4.8 0-8.7-3.9-8.7-8.7 0-4.9 8.7-20.5 8.7-20.5 0 0 8.7 15.6 8.7 20.5z"/>
		<path id="&lt;Compound Path&gt;" fill-rule="evenodd" class="s1" d="m172.7 86.6c0 47.6-38.7 86.3-86.3 86.3-47.5 0-86.2-38.7-86.2-86.3 0-25.8 11.4-50 31.3-66.5 2-1.6 4.8-1.7 6.8-0.1 2 1.6 2.7 4.3 1.6 6.6-7.8 16.6-8.6 22.4-8.6 24.1 0 9.2 7.5 16.7 16.7 16.7 9.2 0 16.7-7.5 16.7-16.7 0-1.8-1-9.8-14.5-36.1-0.7-1.4-0.8-2.9-0.2-4.3 0.5-1.5 1.6-2.6 3-3.2 10.6-4.5 21.8-6.7 33.4-6.7 47.6 0 86.3 38.7 86.3 86.2zm-161.7 0c0 15.5 4.7 29.8 12.7 41.8v-13.3c0-0.9 0.2-1.8 0.6-2.5l13.8-26.1c0.9-1.8 2.8-2.9 4.8-2.9h24.1l35.2-25.1c0.9-0.6 2-1 3.1-1h50.7c-11.4-27.1-38.3-46.3-69.6-46.3-8.2 0-16.1 1.3-23.8 3.9 13 26.2 13 33.2 13 35.6 0 15.2-12.4 27.5-27.6 27.5-15.2 0-27.6-12.3-27.6-27.5q0-0.3 0-0.6c-6.1 11-9.4 23.6-9.4 36.5zm150 11.4h-67.3v-10.8h68.1q0-0.3 0-0.6c0-6.3-0.7-12.4-2.2-18.2h-52.5l-35.2 25c-0.9 0.7-2 1-3.1 1h-22.6l-11.7 22v13.8h36.7v10.9h-36.9c13.6 12.9 31.9 20.9 52.1 20.9q4.5 0 8.8-0.5c-10-3-17.3-12.3-17.3-23.4 0-13.4 10.9-24.4 24.4-24.4 13.5 0 24.4 11 24.4 24.4 0 5.9-2 11.2-5.4 15.4 20.8-11 36-31.3 39.7-55.5zm-45.1 40.1c0-7.4-6.1-13.5-13.6-13.5-7.5 0-13.6 6.1-13.6 13.5 0 7.5 6.1 13.6 13.6 13.6 7.5 0 13.6-6.1 13.6-13.6z"/>
	</g>
</svg>