<svg width="2699" height="1377" viewBox="0 0 2699 1377" fill="none" xmlns="http://www.w3.org/2000/svg">
<path d="M362.53 983C207.541 983 97.8556 879.276 97.8556 732.632V434.575H12.0152V327.274H97.8556V160.362H217.078V327.274H468.639V434.575H217.078V732.632C217.078 816.088 277.882 875.699 362.53 875.699H475.792V983H362.53ZM839.357 994.922C658.138 994.922 529.377 854.239 529.377 653.945C529.377 453.65 658.138 312.968 840.549 312.968C1020.58 312.968 1138.61 470.342 1124.3 692.096H650.984C662.907 808.935 733.248 887.622 828.627 887.622C902.545 887.622 970.502 837.548 991.962 766.014H1114.76C1088.53 899.544 974.078 994.922 839.357 994.922ZM655.753 584.796H1000.31C987.193 488.225 915.659 420.268 827.434 420.268C741.594 420.268 676.021 485.841 655.753 584.796ZM1430.47 994.922C1288.59 994.922 1184.87 854.239 1184.87 653.945C1184.87 453.65 1288.59 312.968 1435.24 312.968C1517.5 312.968 1580.69 363.041 1602.15 434.575H1637.92V29.2172H1757.14V983H1637.92V873.315H1602.15C1577.11 944.849 1515.12 994.922 1430.47 994.922ZM1304.09 653.945C1304.09 791.051 1373.24 887.622 1471 887.622C1568.77 887.622 1636.72 789.859 1637.92 651.56C1636.72 515.646 1568.77 420.268 1471 420.268C1373.24 420.268 1304.09 516.839 1304.09 653.945ZM2168.97 994.922C1987.75 994.922 1858.99 854.239 1858.99 653.945C1858.99 453.65 1987.75 312.968 2170.16 312.968C2350.19 312.968 2468.22 470.342 2453.91 692.096H1980.6C1992.52 808.935 2062.86 887.622 2158.24 887.622C2232.16 887.622 2300.12 837.548 2321.58 766.014H2444.38C2418.15 899.544 2303.69 994.922 2168.97 994.922ZM1985.37 584.796H2329.92C2316.81 488.225 2245.27 420.268 2157.05 420.268C2071.21 420.268 2005.64 485.841 1985.37 584.796ZM2532.37 983V839.933H2651.59V983H2532.37Z" fill="#2A2A2A"/>
<path d="M102.835 1331C74.8263 1331 55.0049 1312.26 55.0049 1285.76V1231.89H39.4925V1212.5H55.0049V1182.34H76.5499V1212.5H122.01V1231.89H76.5499V1285.76C76.5499 1300.84 87.5379 1311.61 102.835 1311.61H123.303V1331H102.835ZM189.003 1333.15C156.255 1333.15 132.986 1307.73 132.986 1271.54C132.986 1235.34 156.255 1209.92 189.218 1209.92C221.751 1209.92 243.081 1238.36 240.496 1278.43H154.962C157.116 1299.54 169.828 1313.76 187.064 1313.76C200.422 1313.76 212.703 1304.72 216.581 1291.79H238.772C234.032 1315.92 213.349 1333.15 189.003 1333.15ZM155.824 1259.04H218.089C215.719 1241.59 202.792 1229.31 186.849 1229.31C171.336 1229.31 159.486 1241.16 155.824 1259.04ZM357.874 1288.56C354.642 1314.63 333.743 1333.15 307.458 1333.15C274.71 1333.15 251.441 1307.73 251.441 1271.54C251.441 1235.34 274.71 1209.92 307.674 1209.92C333.959 1209.92 354.642 1227.58 357.658 1252.58H335.252C333.528 1239 321.032 1229.31 305.304 1229.31C286.344 1229.31 272.986 1246.76 272.986 1271.54C272.986 1296.31 286.56 1313.76 305.519 1313.76C321.032 1313.76 333.528 1303.42 335.898 1288.56H357.874ZM376.175 1331V1158.64H397.72V1231.89H404.184C408.062 1218.97 419.696 1209.92 434.993 1209.92C457.4 1209.92 473.128 1229.09 473.128 1256.45V1331H451.583V1256.45C451.583 1240.51 441.672 1229.31 427.883 1229.31C410.216 1229.31 397.72 1246.76 397.72 1271.54V1331H376.175ZM495.683 1331V1212.5H517.228V1231.89H523.691C527.569 1218.97 539.204 1209.92 554.5 1209.92C576.907 1209.92 592.635 1229.09 592.635 1256.45V1331H571.09V1256.45C571.09 1240.51 561.179 1229.31 547.391 1229.31C529.724 1229.31 517.228 1246.76 517.228 1271.54V1331H495.683ZM661.512 1333.15C630.056 1333.15 607.649 1307.73 607.649 1271.54C607.649 1235.34 630.056 1209.92 661.727 1209.92C693.183 1209.92 715.374 1235.34 715.374 1271.54C715.374 1307.73 692.968 1333.15 661.512 1333.15ZM629.194 1271.54C629.194 1296.31 642.552 1313.76 661.512 1313.76C680.471 1313.76 693.829 1296.31 693.829 1271.54C693.829 1246.76 680.471 1229.31 661.512 1229.31C642.552 1229.31 629.194 1246.76 629.194 1271.54ZM733.646 1331V1158.64H755.191V1331H733.646ZM827.307 1333.15C795.852 1333.15 773.445 1307.73 773.445 1271.54C773.445 1235.34 795.852 1209.92 827.523 1209.92C858.978 1209.92 881.17 1235.34 881.17 1271.54C881.17 1307.73 858.763 1333.15 827.307 1333.15ZM794.99 1271.54C794.99 1296.31 808.348 1313.76 827.307 1313.76C846.267 1313.76 859.625 1296.31 859.625 1271.54C859.625 1246.76 846.267 1229.31 827.307 1229.31C808.348 1229.31 794.99 1246.76 794.99 1271.54ZM947.486 1376.24C919.478 1376.24 899.656 1358.79 899.656 1334.02H921.201C921.201 1347.37 932.189 1356.85 947.486 1356.85C962.783 1356.85 973.771 1346.08 973.771 1331V1302.56H967.308C962.783 1315.49 951.58 1324.54 937.36 1324.54C910.644 1324.54 891.9 1300.84 891.9 1267.23C891.9 1233.62 910.644 1209.92 937.145 1209.92C952.226 1209.92 963.43 1218.97 967.308 1231.89H973.771V1212.5H995.316V1331C995.316 1357.5 975.495 1376.24 947.486 1376.24ZM913.445 1267.23C913.445 1289.42 925.941 1305.15 943.608 1305.15C961.06 1305.15 973.556 1289.2 973.771 1266.8C973.556 1244.82 961.06 1229.31 943.608 1229.31C925.941 1229.31 913.445 1245.04 913.445 1267.23ZM1056.17 1374.09V1331L1010.49 1212.5H1033.11L1059.61 1280.15C1063.06 1289.2 1063.28 1296.53 1063.28 1306.22H1071.89C1071.89 1296.53 1072.11 1288.77 1075.56 1280.15L1102.06 1212.5H1124.68L1079 1331V1374.09H1056.17ZM1235.42 1174.8C1243.18 1174.8 1249.78 1176.16 1255.24 1178.89C1260.84 1181.48 1265.15 1185.21 1268.17 1190.1C1271.18 1194.98 1272.69 1200.94 1272.69 1207.98C1272.69 1217.03 1269.75 1224.71 1263.86 1231.03C1258.11 1237.35 1250.79 1243.1 1241.88 1248.27L1283.47 1288.34C1287.2 1283.89 1290.22 1278.79 1292.51 1273.04C1294.96 1267.15 1296.97 1260.84 1298.55 1254.08H1317.72C1315.42 1263.28 1312.55 1271.82 1309.1 1279.72C1305.66 1287.62 1301.2 1294.52 1295.75 1300.41L1327.2 1331H1301.56L1282.82 1312.9C1279.37 1315.92 1275.78 1318.72 1272.05 1321.3C1268.46 1323.75 1264.51 1325.83 1260.2 1327.55C1255.89 1329.28 1251.22 1330.64 1246.19 1331.65C1241.31 1332.65 1235.85 1333.15 1229.82 1333.15C1219.91 1333.15 1211.29 1331.57 1203.96 1328.41C1196.78 1325.11 1191.18 1320.3 1187.16 1313.98C1183.28 1307.66 1181.34 1299.98 1181.34 1290.93C1181.34 1283.6 1182.63 1277.28 1185.22 1271.97C1187.95 1266.65 1191.83 1261.91 1196.85 1257.75C1201.88 1253.58 1207.77 1249.56 1214.52 1245.68C1211.51 1242.23 1208.56 1238.64 1205.69 1234.91C1202.82 1231.17 1200.45 1227.15 1198.58 1222.84C1196.71 1218.39 1195.78 1213.58 1195.78 1208.41C1195.78 1201.37 1197.36 1195.34 1200.52 1190.31C1203.68 1185.28 1208.2 1181.48 1214.09 1178.89C1220.12 1176.16 1227.23 1174.8 1235.42 1174.8ZM1225.94 1257.53C1220.77 1260.55 1216.32 1263.64 1212.58 1266.8C1208.99 1269.81 1206.19 1273.19 1204.18 1276.92C1202.17 1280.66 1201.16 1285.11 1201.16 1290.28C1201.16 1298.18 1203.82 1304.5 1209.14 1309.24C1214.45 1313.98 1221.56 1316.35 1230.46 1316.35C1239.66 1316.35 1247.56 1314.84 1254.16 1311.82C1260.77 1308.81 1266.3 1305.22 1270.75 1301.05L1225.94 1257.53ZM1234.77 1190.31C1228.74 1190.31 1223.79 1191.89 1219.91 1195.05C1216.17 1198.21 1214.31 1202.59 1214.31 1208.19C1214.31 1213.36 1215.67 1218.18 1218.4 1222.63C1221.13 1226.94 1225.08 1231.75 1230.25 1237.06C1238.72 1232.18 1244.76 1227.58 1248.35 1223.28C1252.08 1218.82 1253.95 1213.72 1253.95 1207.98C1253.95 1202.81 1252.23 1198.57 1248.78 1195.27C1245.33 1191.96 1240.66 1190.31 1234.77 1190.31ZM1420.62 1333.15C1394.99 1333.15 1376.24 1307.73 1376.24 1271.54C1376.24 1235.34 1394.99 1209.92 1421.49 1209.92C1436.35 1209.92 1447.77 1218.97 1451.65 1231.89H1458.11V1158.64H1479.66V1331H1458.11V1311.18H1451.65C1447.13 1324.11 1435.92 1333.15 1420.62 1333.15ZM1397.79 1271.54C1397.79 1296.31 1410.28 1313.76 1427.95 1313.76C1445.62 1313.76 1457.9 1296.1 1458.11 1271.1C1457.9 1246.54 1445.62 1229.31 1427.95 1229.31C1410.28 1229.31 1397.79 1246.76 1397.79 1271.54ZM1554.08 1333.15C1521.33 1333.15 1498.06 1307.73 1498.06 1271.54C1498.06 1235.34 1521.33 1209.92 1554.3 1209.92C1586.83 1209.92 1608.16 1238.36 1605.57 1278.43H1520.04C1522.19 1299.54 1534.91 1313.76 1552.14 1313.76C1565.5 1313.76 1577.78 1304.72 1581.66 1291.79H1603.85C1599.11 1315.92 1578.43 1333.15 1554.08 1333.15ZM1520.9 1259.04H1583.17C1580.8 1241.59 1567.87 1229.31 1551.93 1229.31C1536.41 1229.31 1524.56 1241.16 1520.9 1259.04ZM1677.49 1264C1699.25 1268.09 1715.41 1275.2 1715.41 1296.53C1715.41 1318.07 1694.73 1334.45 1668.87 1334.45C1639.14 1334.45 1617.6 1312.26 1617.6 1284.25H1639.14C1639.14 1301.7 1651.85 1315.06 1670.38 1315.06C1683.52 1315.06 1693.87 1308.38 1693.87 1297.61C1693.87 1288.34 1685.68 1284.25 1675.77 1282.09L1653.36 1277.14C1632.25 1271.97 1619.75 1261.19 1619.75 1244.6C1619.75 1223.06 1640.65 1209.06 1663.49 1209.06C1691.5 1209.06 1711.1 1230.38 1711.1 1257.1H1689.56C1689.56 1240.94 1678.57 1228.01 1661.98 1228.01C1651.64 1228.01 1641.3 1233.19 1641.3 1244.17C1641.3 1250.42 1644.74 1254.95 1655.08 1258.39C1661.55 1260.55 1670.6 1262.7 1677.49 1264ZM1734.73 1184.49V1158.64H1756.28V1184.49H1734.73ZM1734.73 1331V1212.5H1756.28V1331H1734.73ZM1830.12 1376.24C1802.11 1376.24 1782.29 1358.79 1782.29 1334.02H1803.83C1803.83 1347.37 1814.82 1356.85 1830.12 1356.85C1845.41 1356.85 1856.4 1346.08 1856.4 1331V1302.56H1849.94C1845.41 1315.49 1834.21 1324.54 1819.99 1324.54C1793.27 1324.54 1774.53 1300.84 1774.53 1267.23C1774.53 1233.62 1793.27 1209.92 1819.77 1209.92C1834.86 1209.92 1846.06 1218.97 1849.94 1231.89H1856.4V1212.5H1877.95V1331C1877.95 1357.5 1858.12 1376.24 1830.12 1376.24ZM1796.07 1267.23C1796.07 1289.42 1808.57 1305.15 1826.24 1305.15C1843.69 1305.15 1856.19 1289.2 1856.4 1266.8C1856.19 1244.82 1843.69 1229.31 1826.24 1229.31C1808.57 1229.31 1796.07 1245.04 1796.07 1267.23ZM1903.89 1331V1212.5H1925.44V1231.89H1931.9C1935.78 1218.97 1947.41 1209.92 1962.71 1209.92C1985.12 1209.92 2000.84 1229.09 2000.84 1256.45V1331H1979.3V1256.45C1979.3 1240.51 1969.39 1229.31 1955.6 1229.31C1937.93 1229.31 1925.44 1246.76 1925.44 1271.54V1331H1903.89ZM2119.96 1264C2141.72 1268.09 2157.88 1275.2 2157.88 1296.53C2157.88 1318.07 2137.2 1334.45 2111.35 1334.45C2081.61 1334.45 2060.07 1312.26 2060.07 1284.25H2081.61C2081.61 1301.7 2094.33 1315.06 2112.85 1315.06C2126 1315.06 2136.34 1308.38 2136.34 1297.61C2136.34 1288.34 2128.15 1284.25 2118.24 1282.09L2095.83 1277.14C2074.72 1271.97 2062.22 1261.19 2062.22 1244.6C2062.22 1223.06 2083.12 1209.06 2105.96 1209.06C2133.97 1209.06 2153.57 1230.38 2153.57 1257.1H2132.03C2132.03 1240.94 2121.04 1228.01 2104.45 1228.01C2094.11 1228.01 2083.77 1233.19 2083.77 1244.17C2083.77 1250.42 2087.22 1254.95 2097.56 1258.39C2104.02 1260.55 2113.07 1262.7 2119.96 1264ZM2229.77 1331C2201.76 1331 2181.94 1312.26 2181.94 1285.76V1231.89H2166.43V1212.5H2181.94V1182.34H2203.49V1212.5H2248.95V1231.89H2203.49V1285.76C2203.49 1300.84 2214.48 1311.61 2229.77 1311.61H2250.24V1331H2229.77ZM2361.18 1212.5V1331H2339.64V1311.61H2333.18C2329.3 1324.54 2317.66 1333.59 2302.37 1333.59C2279.96 1333.59 2264.23 1314.41 2264.23 1287.05V1212.5H2285.78V1287.05C2285.78 1302.99 2295.69 1314.19 2309.48 1314.19C2327.14 1314.19 2339.64 1296.74 2339.64 1271.97V1212.5H2361.18ZM2423.81 1333.15C2398.18 1333.15 2379.43 1307.73 2379.43 1271.54C2379.43 1235.34 2398.18 1209.92 2424.68 1209.92C2439.54 1209.92 2450.96 1218.97 2454.84 1231.89H2461.3V1158.64H2482.85V1331H2461.3V1311.18H2454.84C2450.31 1324.11 2439.11 1333.15 2423.81 1333.15ZM2400.98 1271.54C2400.98 1296.31 2413.47 1313.76 2431.14 1313.76C2448.81 1313.76 2461.09 1296.1 2461.3 1271.1C2461.09 1246.54 2448.81 1229.31 2431.14 1229.31C2413.47 1229.31 2400.98 1246.76 2400.98 1271.54ZM2508.79 1184.49V1158.64H2530.34V1184.49H2508.79ZM2508.79 1331V1212.5H2530.34V1331H2508.79ZM2602.46 1333.15C2571 1333.15 2548.59 1307.73 2548.59 1271.54C2548.59 1235.34 2571 1209.92 2602.67 1209.92C2634.13 1209.92 2656.32 1235.34 2656.32 1271.54C2656.32 1307.73 2633.91 1333.15 2602.46 1333.15ZM2570.14 1271.54C2570.14 1296.31 2583.5 1313.76 2602.46 1313.76C2621.41 1313.76 2634.77 1296.31 2634.77 1271.54C2634.77 1246.76 2621.41 1229.31 2602.46 1229.31C2583.5 1229.31 2570.14 1246.76 2570.14 1271.54Z" fill="#2A2A2A"/>
<path d="M37.338 1357.93H127.612V1368.7H37.338V1357.93ZM127.6 1357.93H246.097V1368.7H127.6V1357.93ZM1370.86 1357.93H1611.18V1368.7H1370.86V1357.93Z" fill="#2A2A2A"/>
</svg>
