<svg width="1222" height="681" viewBox="0 0 1222 681" fill="none" xmlns="http://www.w3.org/2000/svg">
<path d="M549.3 101.1C549.3 111.1 541.2 119.2 531.2 119.2C521.2 119.2 513.1 111.1 513.1 101.1C513.1 91.1 531.2 58.8 531.2 58.8C531.2 58.8 549.3 91.1 549.3 101.1Z" fill="black"/>
<path fill-rule="evenodd" clip-rule="evenodd" d="M610.9 0.400024C709.3 0.400024 789.3 80.5 789.3 178.8C789.3 277.2 709.3 357.2 610.9 357.2C512.5 357.2 432.5 277.2 432.5 178.8C432.5 125.4 456.1 75.3 497.3 41.2C501.4 37.9 507.2 37.8 511.3 41C515.5 44.2 516.9 49.9 514.6 54.6C498.6 89 496.8 100.9 496.8 104.5C496.8 123.5 512.3 139.1 531.4 139.1C550.5 139.1 566 123.5 566 104.5C566 100.7 563.8 84.2 536 29.8C534.6 27 534.4 23.8 535.5 20.9C536.5 17.9 538.8 15.6 541.6 14.4C563.6 5.10002 586.9 0.400024 610.9 0.400024ZM531.4 161.5C500 161.5 474.4 135.9 474.4 104.5C474.4 104.1 474.4 103.667 474.4 103.2C461.7 126.1 454.9 152 454.9 178.8C454.9 210.8 464.6 240.5 481.1 265.2V237.7C481.1 235.9 481.6 234.1 482.4 232.5L510.9 178.5C512.8 174.9 516.7 172.6 520.8 172.6H570.7L643.5 120.7C645.4 119.3 647.7 118.6 650 118.6H754.8C731.1 62.4 675.6 22.9 610.9 22.9C594 22.9 577.4 25.5 561.6 30.8C588.4 85 588.4 99.5 588.4 104.5C588.4 135.9 562.9 161.5 531.4 161.5ZM503.6 269H579.4V291.4H503.1C531.1 318.3 569.1 334.8 610.9 334.8C617.1 334.8 623.1 334.4 629.1 333.7C608.4 327.4 593.2 308.2 593.2 285.4C593.2 257.5 615.9 234.9 643.7 234.9C671.6 234.9 694.2 257.5 694.2 285.4C694.2 297.4 690 308.4 683 317.1C726.1 294.5 757.5 252.3 765.1 202.4H625.8V180H766.8C766.867 179.6 766.9 179.2 766.9 178.8C766.9 165.8 765.2 153.1 762.2 141H653.6L580.9 192.9C579 194.3 576.7 195 574.3 195H527.6L503.6 240.5V269ZM643.7 313.4C659.2 313.4 671.8 300.9 671.8 285.4C671.8 269.9 659.2 257.3 643.7 257.3C628.3 257.3 615.7 269.9 615.7 285.4C615.7 300.9 628.3 313.4 643.7 313.4Z" fill="url(#paint0_radial_90_6)"/>
<path d="M102.2 597L131.9 492.2L161.7 597H211.8L263.5 411.3H212.6L183.7 528.3L150.5 411.3H113.1L80 528.3L51.3 411.3H0.0999756L52.1 597H102.2Z" fill="black"/>
<path fill-rule="evenodd" clip-rule="evenodd" d="M382.3 597L374.4 570.2H312.6L304.6 597H253.2L314.4 411.3H372.2L433.5 597H382.3ZM324.8 529.3H362.2L343.3 466.2L324.8 529.3ZM433.3 554.8L473.9 531.2C480.767 547.6 492.967 555.8 510.5 555.8C525.1 555.8 532.2 551.6 532.2 543.4C532.2 537.8 528 533.5 519.8 530.1C516.3 528.8 508.4 526.4 496.4 522.9C462.5 513.1 441.3 496.7 441.3 464.8C441.3 447.6 447.4 433.8 459.6 423.2C472.067 412.6 487.433 407.3 505.7 407.3C536.7 407.3 561.9 422.1 574.7 449.7L534.9 473.1C529 459.3 519.5 452.4 506 452.4C494.6 452.4 488.7 457.4 488.7 464.6C488.7 472.8 495.4 477.3 520.6 484.7C529.6 487.4 536.7 489.8 542.3 492.2C547.9 494.5 553.7 497.7 560.3 502.2C573.3 510.7 579.7 524.5 579.7 542.8C579.7 561.1 573.3 575.2 560.3 585.5C547.3 595.9 530.4 600.9 509.2 600.9C469.9 600.9 443.6 583.1 433.3 554.8ZM696.7 411.3H743.9V596.9H696.7V525.6H644.4V596.9H596.9V411.3H644.4V480H696.7V411.3ZM1012.2 490.6V509.4C1012.2 536.7 1003.7 558.7 986.5 575.7C969.5 592.4 947.5 600.9 920.1 600.9C891.233 600.9 867.367 591.633 848.5 573.1C830 554.5 820.7 531.7 820.7 504.4C820.7 477 830 454.2 848.5 435.4C867.1 416.6 890.2 407.3 917.5 407.3C934.7 407.3 950.6 411.3 965 419C979.6 426.6 990.7 437 998.9 450L958.6 473.1C951.2 461.4 936.1 453.7 918 453.7C903.4 453.7 891.2 458.5 882 468C872.7 477.6 867.9 489.8 867.9 504.6C867.9 518.9 872.4 531.1 881.7 541C891 550.8 904.2 555.8 920.9 555.8C942.4 555.8 956.7 547.6 963.6 531.4H918.6V490.6H1012.2ZM1124.3 600.9C1097.03 600.9 1073.97 591.633 1055.1 573.1C1036.3 554.2 1027 531.4 1027 504.1C1027 476.8 1036.3 454 1055.1 435.4C1073.9 416.6 1097 407.3 1124.3 407.3C1151.7 407.3 1174.5 416.6 1193.3 435.4C1212.1 454 1221.7 476.8 1221.7 504.1C1221.7 531.4 1212.1 554.2 1193.3 573.1C1174.5 591.6 1151.7 600.9 1124.3 600.9ZM1124.3 554.5C1138.7 554.5 1150.6 549.7 1160.2 540.4C1169.7 530.9 1174.5 518.7 1174.5 504.1C1174.5 489.5 1169.7 477.3 1160.2 468C1150.6 458.467 1138.63 453.7 1124.3 453.7C1110.03 453.7 1098.1 458.467 1088.5 468C1079 477.3 1074.2 489.5 1074.2 504.1C1074.2 518.7 1079 530.9 1088.5 540.4C1098.1 549.7 1110 554.5 1124.3 554.5Z" fill="black"/>
<path fill-rule="evenodd" clip-rule="evenodd" d="M877.9 583.8L841.5 604.8L825.9 587.8C811.6 597.1 795.4 601.6 777.6 601.6C757.5 601.6 741.3 596.3 729.1 586C716.9 575.3 710.8 561.6 710.8 544.8C710.8 522.8 720.9 505.6 740.8 493.1C735.2 483.6 732.3 473.5 732.3 462.9C732.3 447 737.8 434 749.2 423.6C760.6 413.3 775.5 408 793.3 408C823.5 408 844.7 421.8 857.2 449.6L817.1 473C812.1 459.733 804.7 453.1 794.9 453.1C785.6 453.1 780.3 458.9 780.3 466.6C780.3 469.3 781.1 472.2 782.4 475.1C784 478 785.6 480.1 786.9 482L794.9 491L826.2 525.7C829.9 517 832.5 508 834.4 498.7L872.6 520.7C869.1 533.7 863.3 546.4 855.3 558.6L877.9 583.8ZM798.1 557.3L766.8 523.4C761.5 528.1 758.8 534 758.8 541.1C758.8 552.5 766.8 560.5 782.5 560.5C788 560.5 793.3 559.4 798.1 557.3Z" fill="black" stroke="black" stroke-width="3.8" stroke-miterlimit="2.613"/>
<path d="M1160.77 679.28C1156.5 679.28 1152.55 678.507 1148.93 676.96C1145.35 675.413 1142.23 673.307 1139.57 670.64C1136.9 667.92 1134.82 664.747 1133.33 661.12C1131.83 657.44 1131.09 653.52 1131.09 649.36C1131.09 645.2 1131.83 641.307 1133.33 637.68C1134.82 634.053 1136.9 630.88 1139.57 628.16C1142.23 625.44 1145.35 623.307 1148.93 621.76C1152.55 620.213 1156.5 619.44 1160.77 619.44C1164.98 619.44 1168.9 620.213 1172.53 621.76C1176.15 623.307 1179.3 625.44 1181.97 628.16C1184.63 630.88 1186.71 634.053 1188.21 637.68C1189.7 641.307 1190.45 645.2 1190.45 649.36C1190.45 653.52 1189.7 657.44 1188.21 661.12C1186.71 664.747 1184.63 667.92 1181.97 670.64C1179.3 673.307 1176.15 675.413 1172.53 676.96C1168.9 678.507 1164.98 679.28 1160.77 679.28ZM1160.77 670.64C1163.59 670.64 1166.26 670.133 1168.77 669.12C1171.27 668.107 1173.43 666.667 1175.25 664.8C1177.11 662.933 1178.58 660.693 1179.65 658.08C1180.71 655.467 1181.25 652.56 1181.25 649.36C1181.25 646.16 1180.71 643.253 1179.65 640.64C1178.58 638.027 1177.11 635.787 1175.25 633.92C1173.43 632.053 1171.27 630.613 1168.77 629.6C1166.26 628.587 1163.59 628.08 1160.77 628.08C1157.94 628.08 1155.27 628.587 1152.77 629.6C1150.26 630.613 1148.07 632.053 1146.21 633.92C1144.39 635.787 1142.95 638.027 1141.89 640.64C1140.82 643.253 1140.29 646.16 1140.29 649.36C1140.29 652.56 1140.82 655.467 1141.89 658.08C1142.95 660.693 1144.39 662.933 1146.21 664.8C1148.07 666.667 1150.26 668.107 1152.77 669.12C1155.27 670.133 1157.94 670.64 1160.77 670.64Z" fill="black"/>
<path d="M1098.92 620.72H1107.96V678H1098.92V620.72Z" fill="black"/>
<path d="M1027.32 620.72H1045.72C1050.25 620.72 1054.3 621.44 1057.88 622.88C1061.5 624.267 1064.57 626.213 1067.08 628.72C1069.64 631.227 1071.58 634.24 1072.92 637.76C1074.3 641.28 1075 645.147 1075 649.36C1075 653.573 1074.3 657.44 1072.92 660.96C1071.58 664.48 1069.64 667.493 1067.08 670C1064.57 672.507 1061.5 674.48 1057.88 675.92C1054.3 677.307 1050.25 678 1045.72 678H1027.32V620.72ZM1045.56 669.36C1052.01 669.36 1057 667.6 1060.52 664.08C1064.04 660.56 1065.8 655.653 1065.8 649.36C1065.8 643.12 1064.04 638.24 1060.52 634.72C1057 631.147 1052.01 629.36 1045.56 629.36H1036.36V669.36H1045.56Z" fill="black"/>
<path d="M980.174 679.28C976.921 679.28 973.961 678.747 971.294 677.68C968.628 676.56 966.334 674.987 964.414 672.96C962.494 670.933 961.001 668.48 959.934 665.6C958.921 662.72 958.414 659.52 958.414 656V620.72H967.454V656.48C967.454 658.507 967.721 660.4 968.254 662.16C968.788 663.867 969.588 665.36 970.654 666.64C971.721 667.867 973.028 668.853 974.574 669.6C976.174 670.293 978.041 670.64 980.174 670.64C982.254 670.64 984.094 670.293 985.694 669.6C987.294 668.853 988.601 667.867 989.614 666.64C990.681 665.36 991.481 663.867 992.014 662.16C992.548 660.4 992.814 658.507 992.814 656.48V620.72H1001.85V656C1001.85 659.467 1001.35 662.64 1000.33 665.52C999.374 668.347 997.934 670.773 996.014 672.8C994.148 674.827 991.881 676.427 989.214 677.6C986.548 678.72 983.534 679.28 980.174 679.28Z" fill="black"/>
<path d="M911.811 678V629.36H895.811V620.72H936.851V629.36H920.851V678H911.811Z" fill="black"/>
<path d="M856.956 679.28C854.662 679.28 852.422 678.933 850.236 678.24C848.102 677.6 846.102 676.613 844.236 675.28C842.422 673.947 840.822 672.293 839.436 670.32C838.049 668.347 836.982 666.053 836.236 663.44L844.876 659.92C845.249 661.413 845.782 662.827 846.476 664.16C847.222 665.44 848.102 666.56 849.116 667.52C850.182 668.48 851.356 669.253 852.636 669.84C853.969 670.373 855.436 670.64 857.036 670.64C858.369 670.64 859.649 670.48 860.876 670.16C862.102 669.787 863.169 669.253 864.076 668.56C864.982 667.867 865.702 667.013 866.236 666C866.822 664.987 867.116 663.813 867.116 662.48C867.116 661.307 866.902 660.24 866.476 659.28C866.049 658.32 865.382 657.44 864.476 656.64C863.569 655.84 862.369 655.093 860.876 654.4C859.382 653.653 857.596 652.907 855.516 652.16L851.916 650.88C850.369 650.347 848.769 649.653 847.116 648.8C845.516 647.893 844.049 646.827 842.716 645.6C841.436 644.32 840.369 642.827 839.516 641.12C838.716 639.413 838.316 637.413 838.316 635.12C838.316 632.987 838.742 630.987 839.596 629.12C840.502 627.2 841.756 625.52 843.356 624.08C844.956 622.64 846.849 621.52 849.036 620.72C851.276 619.867 853.729 619.44 856.396 619.44C859.169 619.44 861.596 619.84 863.676 620.64C865.809 621.387 867.596 622.347 869.036 623.52C870.476 624.693 871.622 626 872.476 627.44C873.382 628.827 874.049 630.133 874.476 631.36L866.316 634.8C866.049 634 865.649 633.2 865.116 632.4C864.636 631.547 863.996 630.8 863.196 630.16C862.396 629.52 861.436 628.987 860.316 628.56C859.249 628.133 857.996 627.92 856.556 627.92C855.276 627.92 854.076 628.107 852.956 628.48C851.836 628.8 850.849 629.28 849.996 629.92C849.196 630.56 848.556 631.307 848.076 632.16C847.596 633.013 847.356 633.947 847.356 634.96C847.356 636.987 848.182 638.64 849.836 639.92C851.542 641.147 854.022 642.32 857.276 643.44L860.876 644.72C863.116 645.467 865.169 646.347 867.036 647.36C868.902 648.373 870.529 649.6 871.916 651.04C873.302 652.427 874.369 654.053 875.116 655.92C875.916 657.787 876.316 659.947 876.316 662.4C876.316 665.387 875.702 667.947 874.476 670.08C873.302 672.16 871.782 673.893 869.916 675.28C868.049 676.667 865.969 677.68 863.676 678.32C861.382 678.96 859.142 679.28 856.956 679.28Z" fill="black"/>
<path d="M757.186 646.96H785.106C785.213 647.653 785.32 648.4 785.426 649.2C785.533 649.947 785.586 650.747 785.586 651.6C785.586 655.013 785.053 658.4 783.986 661.76C782.92 665.12 781.106 668.107 778.546 670.72C775.933 673.44 772.866 675.547 769.346 677.04C765.826 678.533 761.8 679.28 757.266 679.28C753.16 679.28 749.266 678.533 745.586 677.04C741.96 675.547 738.786 673.467 736.066 670.8C733.346 668.133 731.186 664.987 729.586 661.36C728.04 657.68 727.266 653.68 727.266 649.36C727.266 645.04 728.04 641.067 729.586 637.44C731.186 633.76 733.346 630.587 736.066 627.92C738.786 625.253 741.96 623.173 745.586 621.68C749.266 620.187 753.16 619.44 757.266 619.44C761.64 619.44 765.666 620.213 769.346 621.76C773.08 623.307 776.2 625.467 778.706 628.24L772.386 634.56C770.52 632.48 768.306 630.88 765.746 629.76C763.24 628.64 760.386 628.08 757.186 628.08C754.466 628.08 751.853 628.587 749.346 629.6C746.84 630.613 744.626 632.053 742.706 633.92C740.786 635.733 739.266 637.947 738.146 640.56C737.026 643.173 736.466 646.107 736.466 649.36C736.466 652.613 737.026 655.547 738.146 658.16C739.266 660.773 740.786 663.013 742.706 664.88C744.626 666.693 746.84 668.107 749.346 669.12C751.853 670.133 754.493 670.64 757.266 670.64C760.946 670.64 763.906 670.08 766.146 668.96C768.44 667.84 770.36 666.533 771.906 665.04C773.026 663.973 774.013 662.587 774.866 660.88C775.72 659.12 776.28 657.2 776.546 655.12H757.186V646.96Z" fill="black"/>
<path d="M658.929 620.72H669.729L695.169 662.24H695.649L695.169 651.2V620.72H704.129V678H694.689L667.969 634.4H667.489L667.969 645.44V678H658.929V620.72Z" fill="black"/>
<path d="M623.182 620.72H632.222V678H623.182V620.72Z" fill="black"/>
<path d="M566.732 620.72H575.772V669.36H600.332V678H566.732V620.72Z" fill="black"/>
<path d="M530.985 620.72H540.025V678H530.985V620.72Z" fill="black"/>
<path d="M477.114 620.72H487.514L509.034 678H499.034L493.834 663.28H470.794L465.594 678H455.594L477.114 620.72ZM490.794 655.04L484.794 638.16L482.554 631.44H482.074L479.834 638.16L473.834 655.04H490.794Z" fill="black"/>
<path d="M417.745 678V629.36H401.745V620.72H442.785V629.36H426.785V678H417.745Z" fill="black"/>
<path d="M354.659 629.36V645.12H377.939V653.6H354.659V669.36H380.499V678H345.619V620.72H380.499V629.36H354.659Z" fill="black"/>
<path d="M274.013 620.72H292.413C296.946 620.72 301 621.44 304.573 622.88C308.2 624.267 311.266 626.213 313.773 628.72C316.333 631.227 318.28 634.24 319.613 637.76C321 641.28 321.693 645.147 321.693 649.36C321.693 653.573 321 657.44 319.613 660.96C318.28 664.48 316.333 667.493 313.773 670C311.266 672.507 308.2 674.48 304.573 675.92C301 677.307 296.946 678 292.413 678H274.013V620.72ZM292.253 669.36C298.706 669.36 303.693 667.6 307.213 664.08C310.733 660.56 312.493 655.653 312.493 649.36C312.493 643.12 310.733 638.24 307.213 634.72C303.693 631.147 298.706 629.36 292.253 629.36H283.053V669.36H292.253Z" fill="black"/>
<path d="M178.144 620.72H198.384C200.998 620.72 203.424 621.147 205.664 622C207.958 622.853 209.931 624.08 211.584 625.68C213.238 627.227 214.518 629.067 215.424 631.2C216.384 633.333 216.864 635.68 216.864 638.24C216.864 640.213 216.518 642.08 215.824 643.84C215.184 645.6 214.278 647.2 213.104 648.64C211.931 650.027 210.544 651.227 208.944 652.24C207.398 653.253 205.718 654 203.904 654.48L203.824 654.88L219.504 677.52V678H208.944L193.824 655.68H187.184V678H178.144V620.72ZM198.144 647.2C199.478 647.2 200.704 646.987 201.824 646.56C202.998 646.08 204.011 645.44 204.864 644.64C205.718 643.84 206.384 642.907 206.864 641.84C207.398 640.72 207.664 639.493 207.664 638.16C207.664 637.093 207.451 636.027 207.024 634.96C206.651 633.893 206.064 632.933 205.264 632.08C204.518 631.227 203.558 630.533 202.384 630C201.264 629.467 199.958 629.2 198.464 629.2H187.184V647.2H198.144Z" fill="black"/>
<path d="M124.274 620.72H134.674L156.194 678H146.194L140.994 663.28H117.954L112.754 678H102.754L124.274 620.72ZM137.954 655.04L131.954 638.16L129.714 631.44H129.234L126.994 638.16L120.994 655.04H137.954Z" fill="black"/>
<path d="M83.68 668.96C80.96 672.16 77.68 674.693 73.84 676.56C70 678.373 65.68 679.28 60.88 679.28C56.6133 679.28 52.6666 678.533 49.04 677.04C45.4133 675.493 42.24 673.387 39.52 670.72C36.8533 668 34.7466 664.827 33.2 661.2C31.7066 657.573 30.96 653.627 30.96 649.36C30.96 645.147 31.7066 641.227 33.2 637.6C34.7466 633.92 36.8533 630.747 39.52 628.08C42.24 625.36 45.4133 623.253 49.04 621.76C52.6666 620.213 56.6133 619.44 60.88 619.44C65.3066 619.44 69.28 620.267 72.8 621.92C76.32 623.52 79.4133 625.813 82.08 628.8L75.68 635.04C73.76 632.747 71.6 631.013 69.2 629.84C66.8533 628.667 64.08 628.08 60.88 628.08C58.0533 628.08 55.36 628.587 52.8 629.6C50.2933 630.56 48.1066 631.973 46.24 633.84C44.3733 635.653 42.88 637.893 41.76 640.56C40.6933 643.173 40.16 646.107 40.16 649.36C40.16 652.613 40.6933 655.573 41.76 658.24C42.88 660.853 44.3733 663.093 46.24 664.96C48.1066 666.773 50.2933 668.187 52.8 669.2C55.36 670.16 58.0533 670.64 60.88 670.64C64.2933 670.64 67.3333 669.947 70 668.56C72.6666 667.12 75.04 665.147 77.12 662.64L83.68 668.96Z" fill="black"/>
<defs>
<radialGradient id="paint0_radial_90_6" cx="0" cy="0" r="1" gradientUnits="userSpaceOnUse" gradientTransform="translate(717.506 -112.945) rotate(123.701) scale(655.93 655.93)">
<stop/>
<stop offset="1"/>
</radialGradient>
</defs>
</svg>
