<svg version="1.2" xmlns="http://www.w3.org/2000/svg" viewBox="0 0 776 173" width="776" height="173">
	<title>&lt;Group&gt;</title>
	<style>
		.s0 { fill: #ffffff } 
		.s1 { fill: #ea4335 } 
		.s2 { fill: none;stroke: #fefefe;stroke-miterlimit:10;stroke-width: 3 } 
		.s3 { fill: none;stroke: #fefefe;stroke-miterlimit:2.61312603950501;stroke-width: .5 } 
		.s4 { fill: #fefefe } 
		.s5 { fill: #145ca8 } 
	</style>
	<g id="Folder 2">
		<g id="&lt;Group&gt;">
			<g id="&lt;Group&gt;">
				<g id="&lt;Group&gt;">
					<path id="&lt;Path&gt;" class="s0" d="m234.5 119.8l14.4-50.7 14.3 50.7h24.3l25-89.8h-24.6l-14 56.6-16-56.6h-18.1l-16 56.6-13.9-56.6h-24.7l25.1 89.8z"/>
					<path id="&lt;Compound Path&gt;" fill-rule="evenodd" class="s0" d="m369.9 119.8l-3.8-13h-29.9l-3.8 13h-24.9l29.6-89.8h28l29.6 89.8zm-27.8-32.7h18l-9.1-30.5z"/>
					<path id="&lt;Path&gt;" class="s0" d="m431.2 121.7c10.3 0 18.5-2.4 24.8-7.4 6.3-5 9.3-11.8 9.3-20.7 0-8.8-3-15.5-9.3-19.6-3.2-2.2-6.1-3.7-8.8-4.9-2.6-1.1-6.1-2.3-10.5-3.6-12.1-3.6-15.4-5.7-15.4-9.7 0-3.5 2.9-5.9 8.4-5.9 6.5 0 11.1 3.3 14 10l19.2-11.3c-6.2-13.3-18.3-20.5-33.3-20.5q-13.3 0-22.4 7.7c-5.9 5.1-8.8 11.8-8.8 20.1 0 15.4 10.3 23.4 26.7 28.1 5.7 1.7 9.6 2.8 11.3 3.5 3.9 1.6 6 3.7 6 6.4 0 3.9-3.5 6-10.5 6q-12.7 0-17.7-11.9l-19.7 11.4c5 13.7 17.7 22.3 36.7 22.3z"/>
					<path id="&lt;Path&gt;" class="s0" d="m521.9 63.2h-25.3v-33.2h-22.9v89.8h22.9v-34.5h25.3v34.5h22.8v-89.8h-22.8z"/>
					<path id="&lt;Path&gt;" class="s0" d="m629.1 68.4v19.7h21.8c-3.3 7.8-10.2 11.8-20.6 11.8-8.1 0-14.5-2.4-19-7.2-4.5-4.7-6.6-10.6-6.6-17.5 0-7.2 2.3-13.1 6.8-17.7 4.4-4.7 10.3-7 17.4-7 8.7 0 16 3.8 19.6 9.4l19.5-11.2c-4-6.2-9.4-11.2-16.4-15-6.9-3.7-14.6-5.6-23-5.6-13.2 0-24.3 4.5-33.3 13.6-9 9.1-13.5 20.1-13.5 33.3 0 13.2 4.5 24.3 13.5 33.2q13.6 13.5 34.6 13.5c13.2 0 23.9-4.1 32.1-12.2 8.3-8.2 12.4-18.8 12.4-32v-9.1z"/>
					<path id="&lt;Compound Path&gt;" fill-rule="evenodd" class="s0" d="m728.6 121.7q-19.8 0-33.4-13.5c-9.1-9.1-13.6-20.1-13.6-33.3 0-13.2 4.5-24.2 13.6-33.2 9.1-9.1 20.2-13.6 33.4-13.6 13.3 0 24.3 4.5 33.4 13.6 9.1 9 13.7 20 13.7 33.2 0 13.2-4.6 24.2-13.7 33.3-9.1 9-20.1 13.5-33.4 13.5zm0-22.4c7 0 12.7-2.3 17.4-6.8 4.6-4.7 6.9-10.6 6.9-17.6 0-7.1-2.3-13-6.9-17.4q-7-7-17.4-7-10.3 0-17.3 7c-4.6 4.4-6.9 10.3-6.9 17.4 0 7 2.3 12.9 6.9 17.6 4.7 4.5 10.4 6.8 17.3 6.8z"/>
				</g>
			</g>
			<g id="&lt;Group&gt;">
				<g id="&lt;Group&gt;">
					<path id="&lt;Compound Path&gt;" fill-rule="evenodd" class="s1" d="m609.5 113.4l-17.6 10.2-7.5-8.2c-6.9 4.4-14.8 6.6-23.4 6.6-9.7 0-17.5-2.5-23.4-7.5-5.9-5.2-8.9-11.8-8.9-19.9 0-10.7 4.9-19 14.5-25-2.7-4.6-4.1-9.5-4.1-14.6 0-7.7 2.7-14 8.2-19 5.5-5 12.7-7.6 21.3-7.6 14.6 0 24.9 6.7 30.9 20.2l-19.4 11.2q-3.6-9.6-10.7-9.6c-4.5 0-7.1 2.8-7.1 6.6 0 1.2 0.4 2.6 1 4.1 0.8 1.4 1.6 2.4 2.2 3.3l3.9 4.4 15.1 16.8c1.8-4.3 3.1-8.6 4-13.1l18.4 10.6c-1.6 6.3-4.4 12.5-8.3 18.4zm-38.6-12.9l-15.1-16.4c-2.6 2.3-3.9 5.1-3.9 8.6 0 5.5 3.9 9.4 11.4 9.4 2.7 0 5.3-0.5 7.6-1.6z"/>
				</g>
				<g id="&lt;Group&gt;">
					<path id="&lt;Compound Path&gt;" fill-rule="evenodd" class="s2" d="m609.5 113.4l-17.6 10.2-7.5-8.2c-6.9 4.4-14.8 6.6-23.4 6.6-9.7 0-17.5-2.5-23.4-7.5-5.9-5.2-8.9-11.8-8.9-19.9 0-10.7 4.9-19 14.5-25-2.7-4.6-4.1-9.5-4.1-14.6 0-7.7 2.7-14 8.2-19 5.5-5 12.7-7.6 21.3-7.6 14.6 0 24.9 6.7 30.9 20.2l-19.4 11.2q-3.6-9.6-10.7-9.6c-4.5 0-7.1 2.8-7.1 6.6 0 1.2 0.4 2.6 1 4.1 0.8 1.4 1.6 2.4 2.2 3.3l3.9 4.4 15.1 16.8c1.8-4.3 3.1-8.6 4-13.1l18.4 10.6c-1.6 6.3-4.4 12.5-8.3 18.4zm-38.6-12.9l-15.1-16.4c-2.6 2.3-3.9 5.1-3.9 8.6 0 5.5 3.9 9.4 11.4 9.4 2.7 0 5.3-0.5 7.6-1.6z"/>
				</g>
			</g>
			<path id="&lt;Compound Path&gt;" fill-rule="evenodd" class="s3" d="m609.5 113.4l-17.6 10.2-7.5-8.2c-6.9 4.4-14.8 6.6-23.4 6.6-9.7 0-17.5-2.5-23.4-7.5-5.9-5.2-8.9-11.8-8.9-19.9 0-10.7 4.9-19 14.5-25-2.7-4.6-4.1-9.5-4.1-14.6 0-7.7 2.7-14 8.2-19 5.5-5 12.7-7.6 21.3-7.6 14.6 0 24.9 6.7 30.9 20.2l-19.4 11.2q-3.6-9.6-10.7-9.6c-4.5 0-7.1 2.8-7.1 6.6 0 1.2 0.4 2.6 1 4.1 0.8 1.4 1.6 2.4 2.2 3.3l3.9 4.4 15.1 16.8c1.8-4.3 3.1-8.6 4-13.1l18.4 10.6c-1.6 6.3-4.4 12.5-8.3 18.4zm-38.6-12.9l-15.1-16.4c-2.6 2.3-3.9 5.1-3.9 8.6 0 5.5 3.9 9.4 11.4 9.4 2.7 0 5.3-0.5 7.6-1.6z"/>
		</g>
		<g id="&lt;Group&gt;">
			<path id="&lt;Compound Path&gt;" class="s4" d="m212.4 164.7q-4.6-4.6-4.6-11.4 0-6.9 4.6-11.5c3-3.1 6.9-4.6 11.6-4.6 5.6 0 10.7 2.8 13.3 7.4l-4.4 2.6c-1.6-3.1-5-5.1-8.9-5.1-3.3 0-6 1.1-8.1 3.2q-3 3.1-3 8 0 4.8 3 7.9c2.1 2.1 4.8 3.2 8.1 3.2 3.9 0 7.3-2 8.9-5l4.4 2.5q-1.9 3.4-5.5 5.5-3.5 1.9-7.8 1.9c-4.7 0-8.6-1.5-11.6-4.6z"/>
			<path id="&lt;Compound Path&gt;" fill-rule="evenodd" class="s4" d="m265.9 168.8l-2.1-6.3h-13.2l-2.2 6.3h-5.5l11.2-31h6.1l11.2 31zm-13.7-11.1h9.9l-4.9-14z"/>
			<path id="&lt;Compound Path&gt;" fill-rule="evenodd" class="s4" d="m296.9 168.8l-6.6-11.3h-6v11.3h-5.1v-31h12.4q4.2 0 7 2.9 3 2.8 3 7c0 4-2.5 7.6-6.2 9l7 12.1zm-12.5-26.3v10.4h7.3c2.7 0 4.8-2.3 4.8-5.2 0-2.8-2.1-5.2-4.8-5.2z"/>
			<path id="&lt;Compound Path&gt;" fill-rule="evenodd" class="s4" d="m338.5 137.8q6.3 0 10.5 4.4 4.3 4.5 4.3 11.1 0 6.5-4.3 11-4.2 4.5-10.5 4.5h-12.2v-31zm0 26.1q4.4 0 7.1-3c1.9-2 2.8-4.6 2.8-7.6q0-4.7-2.8-7.7-2.7-3-7.1-3h-7.1v21.3z"/>
			<path id="&lt;Compound Path&gt;" class="s4" d="m367.5 163.9h13.7v4.9h-18.8v-31h18.6v4.8h-13.5v8.1h12.4v4.8h-12.4z"/>
			<path id="&lt;Compound Path&gt;" class="s4" d="m410.4 137.8v4.8h-8.7v26.2h-5.1v-26.2h-8.7v-4.8z"/>
			<path id="&lt;Compound Path&gt;" fill-rule="evenodd" class="s4" d="m436.6 168.8l-2.1-6.3h-13.2l-2.2 6.3h-5.6l11.3-31h6.1l11.2 31zm-13.7-11.1h9.9l-5-14z"/>
			<path id="&lt;Compound Path&gt;" class="s4" d="m449.9 137.8h5.1v31h-5.1z"/>
			<path id="&lt;Compound Path&gt;" class="s4" d="m470.7 163.9h12.6v4.9h-17.7v-31h5.1z"/>
			<path id="&lt;Compound Path&gt;" class="s4" d="m491.5 137.8h5.1v31h-5.1z"/>
			<path id="&lt;Compound Path&gt;" class="s4" d="m525.8 137.8h5.1v31h-4l-14.6-21.1v21.1h-5.1v-31h4l14.6 21z"/>
			<path id="&lt;Compound Path&gt;" class="s4" d="m571.7 152.7v2.2q0 6.4-4.2 10.4-4.2 4.1-11 4-7.1 0-11.8-4.6-4.7-4.7-4.7-11.4 0-6.8 4.7-11.4c3.1-3.2 7-4.7 11.6-4.7 5.8 0 10.8 2.9 13.5 7.3l-4.4 2.6c-1.6-3-5.1-5-9.1-5-3.3 0-6 1.1-8.1 3.2q-3.1 3.2-3.1 8c0 3.2 1.1 5.9 3.1 7.9q3.2 3.2 8.4 3.2c5.5 0 9.1-2.8 10-7.1h-10.4v-4.6z"/>
			<path id="&lt;Compound Path&gt;" class="s4" d="m594.7 161.7l4.4-2.5q1.8 5.2 7.7 5.2c3.8 0 5.7-1.7 5.7-4.1 0-1.3-0.5-2.2-1.5-2.9-1-0.6-2.9-1.4-5.5-2.2-3-0.9-4.4-1.4-6.5-2.8-2-1.4-3-3.5-3-6.3q0-4.1 2.9-6.5 2.9-2.4 7-2.4c5 0 8.8 2.6 10.8 6.8l-4.3 2.5q-1.9-4.3-6.5-4.4c-2.9 0-4.8 1.6-4.8 3.9 0 2.3 1.5 3.4 6.2 4.8 1.2 0.4 2 0.7 2.6 0.9 0.5 0.2 1.3 0.5 2.3 0.9 1 0.4 1.7 0.8 2.2 1.2 1.7 1.3 3.4 3.5 3.2 6.4 0 2.8-1 5.1-3 6.7q-3 2.5-8 2.4c-5.9 0-10.3-2.8-11.9-7.6z"/>
			<path id="&lt;Compound Path&gt;" class="s4" d="m645.5 137.8v4.8h-8.7v26.2h-5.1v-26.2h-8.8v-4.8z"/>
			<path id="&lt;Compound Path&gt;" class="s4" d="m653.4 137.8h5.1v20.4c0 3.7 2.2 6.2 6.6 6.2 4.4 0 6.6-2.5 6.6-6.2v-20.4h5.1v20.7c0 3.3-1.1 5.9-3.2 7.9q-3.3 2.9-8.5 2.9-5.2 0-8.5-2.9c-2.1-2-3.2-4.6-3.2-7.9z"/>
			<path id="&lt;Compound Path&gt;" fill-rule="evenodd" class="s4" d="m699.3 137.8c4.3 0 7.8 1.5 10.6 4.4q4.2 4.5 4.2 11.1 0 6.5-4.2 11-4.2 4.5-10.6 4.5h-12.2v-31zm0 26.1q4.4 0 7.2-3c1.8-2 2.7-4.6 2.7-7.6q0-4.7-2.7-7.7-2.8-3-7.2-3h-7.1v21.3z"/>
			<path id="&lt;Compound Path&gt;" class="s4" d="m723.2 137.8h5.1v31h-5.1z"/>
			<path id="&lt;Compound Path&gt;" fill-rule="evenodd" class="s4" d="m753.5 169.3q-6.7 0-11.5-4.6-4.6-4.7-4.6-11.4 0-6.8 4.6-11.4 4.8-4.7 11.5-4.7c4.5 0 8.3 1.5 11.4 4.7 3.1 3.1 4.7 6.9 4.7 11.4q0 6.7-4.7 11.4-4.7 4.6-11.4 4.6zm0-4.9q4.6 0 7.8-3.2 3.2-3.1 3.2-7.9 0-4.8-3.2-8-3.2-3.2-7.8-3.2-4.7 0-7.9 3.2-3.1 3.2-3.1 8 0 4.8 3.1 7.9 3.2 3.2 7.9 3.2z"/>
		</g>
	</g>
	<g id="Folder 1">
		<path id="&lt;Path&gt;" class="s5" d="m56.6 49.1c0 4.8-3.9 8.7-8.7 8.7-4.8 0-8.7-3.9-8.7-8.7 0-4.9 8.7-20.5 8.7-20.5 0 0 8.7 15.6 8.7 20.5z"/>
		<path id="&lt;Compound Path&gt;" fill-rule="evenodd" class="s4" d="m172.7 86.6c0 47.6-38.7 86.3-86.3 86.3-47.5 0-86.2-38.7-86.2-86.3 0-25.8 11.4-50 31.3-66.5 2-1.6 4.8-1.7 6.8-0.1 2 1.6 2.7 4.3 1.6 6.6-7.8 16.6-8.6 22.4-8.6 24.1 0 9.2 7.5 16.7 16.7 16.7 9.2 0 16.7-7.5 16.7-16.7 0-1.8-1-9.8-14.5-36.1-0.7-1.4-0.8-2.9-0.2-4.3 0.5-1.5 1.6-2.6 3-3.2 10.6-4.5 21.8-6.7 33.4-6.7 47.6 0 86.3 38.7 86.3 86.2zm-161.7 0c0 15.5 4.7 29.8 12.7 41.8v-13.3c0-0.9 0.2-1.8 0.6-2.5l13.8-26.1c0.9-1.8 2.8-2.9 4.8-2.9h24.1l35.2-25.1c0.9-0.6 2-1 3.1-1h50.7c-11.4-27.1-38.3-46.3-69.6-46.3-8.2 0-16.1 1.3-23.8 3.9 13 26.2 13 33.2 13 35.6 0 15.2-12.4 27.5-27.6 27.5-15.2 0-27.6-12.3-27.6-27.5q0-0.3 0-0.6c-6.1 11-9.4 23.6-9.4 36.5zm150 11.4h-67.3v-10.8h68.1q0-0.3 0-0.6c0-6.3-0.7-12.4-2.2-18.2h-52.5l-35.2 25c-0.9 0.7-2 1-3.1 1h-22.6l-11.7 22v13.8h36.7v10.9h-36.9c13.6 12.9 31.9 20.9 52.1 20.9q4.5 0 8.8-0.5c-10-3-17.3-12.3-17.3-23.4 0-13.4 10.9-24.4 24.4-24.4 13.5 0 24.4 11 24.4 24.4 0 5.9-2 11.2-5.4 15.4 20.8-11 36-31.3 39.7-55.5zm-45.1 40.1c0-7.4-6.1-13.5-13.6-13.5-7.5 0-13.6 6.1-13.6 13.5 0 7.5 6.1 13.6 13.6 13.6 7.5 0 13.6-6.1 13.6-13.6z"/>
	</g>
</svg>